# This file uses centimeters as units for non-parametric coordinates.

g default
v -238.408661 -0.494433 238.408661
v -143.045197 -0.494433 238.408661
v -47.681728 -0.494433 238.408661
v 47.681740 -0.494433 238.408661
v 143.045197 -0.494433 238.408661
v 238.408661 -0.494433 238.408661
v -238.408661 0.000000 238.408661
v -143.045197 0.000000 238.408661
v -47.681728 0.000000 238.408661
v 47.681740 0.000000 238.408661
v 143.045197 0.000000 238.408661
v 238.408661 0.000000 238.408661
v -238.408661 0.494433 238.408661
v -143.045197 0.494433 238.408661
v -47.681728 0.494433 238.408661
v 47.681740 0.494433 238.408661
v 143.045197 0.494433 238.408661
v 238.408661 0.494433 238.408661
v -238.408661 0.494433 143.045197
v -143.045197 0.494433 143.045197
v -47.681728 0.494433 143.045197
v 47.681740 0.494433 143.045197
v 143.045197 0.494433 143.045197
v 238.408661 0.494433 143.045197
v -238.408661 0.494433 47.681728
v -143.045197 0.494433 47.681728
v -47.681728 0.494433 47.681728
v 47.681740 0.494433 47.681728
v 143.045197 0.494433 47.681728
v 238.408661 0.494433 47.681728
v -238.408661 0.494433 -47.681740
v -143.045197 0.494433 -47.681740
v -47.681728 0.494433 -47.681740
v 47.681740 0.494433 -47.681740
v 143.045197 0.494433 -47.681740
v 238.408661 0.494433 -47.681740
v -238.408661 0.494433 -143.045197
v -143.045197 0.494433 -143.045197
v -47.681728 0.494433 -143.045197
v 47.681740 0.494433 -143.045197
v 143.045197 0.494433 -143.045197
v 238.408661 0.494433 -143.045197
v -238.408661 0.494433 -238.408661
v -143.045197 0.494433 -238.408661
v -47.681728 0.494433 -238.408661
v 47.681740 0.494433 -238.408661
v 143.045197 0.494433 -238.408661
v 238.408661 0.494433 -238.408661
v -238.408661 0.000000 -238.408661
v -143.045197 0.000000 -238.408661
v -47.681728 0.000000 -238.408661
v 47.681740 0.000000 -238.408661
v 143.045197 0.000000 -238.408661
v 238.408661 0.000000 -238.408661
v -238.408661 -0.494433 -238.408661
v -143.045197 -0.494433 -238.408661
v -47.681728 -0.494433 -238.408661
v 47.681740 -0.494433 -238.408661
v 143.045197 -0.494433 -238.408661
v 238.408661 -0.494433 -238.408661
v -238.408661 -0.494433 -143.045197
v -143.045197 -0.494433 -143.045197
v -47.681728 -0.494433 -143.045197
v 47.681740 -0.494433 -143.045197
v 143.045197 -0.494433 -143.045197
v 238.408661 -0.494433 -143.045197
v -238.408661 -0.494433 -47.681728
v -143.045197 -0.494433 -47.681728
v -47.681728 -0.494433 -47.681728
v 47.681740 -0.494433 -47.681728
v 143.045197 -0.494433 -47.681728
v 238.408661 -0.494433 -47.681728
v -238.408661 -0.494433 47.681740
v -143.045197 -0.494433 47.681740
v -47.681728 -0.494433 47.681740
v 47.681740 -0.494433 47.681740
v 143.045197 -0.494433 47.681740
v 238.408661 -0.494433 47.681740
v -238.408661 -0.494433 143.045197
v -143.045197 -0.494433 143.045197
v -47.681728 -0.494433 143.045197
v 47.681740 -0.494433 143.045197
v 143.045197 -0.494433 143.045197
v 238.408661 -0.494433 143.045197
v 238.408661 0.000000 -143.045197
v 238.408661 0.000000 -47.681728
v 238.408661 0.000000 47.681740
v 238.408661 0.000000 143.045197
v -238.408661 0.000000 -143.045197
v -238.408661 0.000000 -47.681728
v -238.408661 0.000000 47.681740
v -238.408661 0.000000 143.045197
vt 0.009499 0.997835
vt 0.009499 0.798731
vt 0.009499 0.997759
vt 0.009499 0.798656
vt 0.009499 0.599627
vt 0.009499 0.599552
vt 0.009499 0.400524
vt 0.009499 0.400448
vt 0.009499 0.201420
vt 0.009499 0.201344
vt 0.009499 0.002316
vt 0.009499 0.002241
vt 0.009499 0.997684
vt 0.009499 0.798580
vt 0.009499 0.599476
vt 0.009499 0.400373
vt 0.009499 0.201269
vt 0.009499 0.002165
vt 0.205699 0.997684
vt 0.205699 0.798580
vt 0.205699 0.599476
vt 0.205699 0.400373
vt 0.205699 0.201269
vt 0.205699 0.002165
vt 0.401900 0.997684
vt 0.401900 0.798580
vt 0.401900 0.599476
vt 0.401900 0.400373
vt 0.401900 0.201269
vt 0.401900 0.002165
vt 0.598100 0.997684
vt 0.598100 0.798580
vt 0.598100 0.599476
vt 0.598100 0.400373
vt 0.598100 0.201269
vt 0.598100 0.002165
vt 0.794301 0.997684
vt 0.794301 0.798580
vt 0.794301 0.599476
vt 0.794301 0.400373
vt 0.794301 0.201269
vt 0.794301 0.002165
vt 0.990501 0.997684
vt 0.990501 0.798580
vt 0.990501 0.599476
vt 0.990501 0.400373
vt 0.990501 0.201269
vt 0.990501 0.002165
vt 0.990501 0.997759
vt 0.990501 0.798655
vt 0.990501 0.599552
vt 0.990501 0.400448
vt 0.990501 0.201344
vt 0.990501 0.002241
vt 0.990501 0.997835
vt 0.990501 0.798731
vt 0.990501 0.599627
vt 0.990501 0.400524
vt 0.990501 0.201420
vt 0.990501 0.002316
vt 0.794301 0.997835
vt 0.794301 0.798731
vt 0.794301 0.599627
vt 0.794301 0.400524
vt 0.794301 0.201420
vt 0.794301 0.002316
vt 0.598100 0.997835
vt 0.598100 0.798731
vt 0.598100 0.599627
vt 0.598100 0.400524
vt 0.598100 0.201420
vt 0.598100 0.002316
vt 0.401900 0.997835
vt 0.401900 0.798731
vt 0.401900 0.599627
vt 0.401900 0.400524
vt 0.401900 0.201420
vt 0.401900 0.002316
vt 0.205699 0.997835
vt 0.205699 0.798731
vt 0.205699 0.599627
vt 0.205699 0.400524
vt 0.205699 0.201420
vt 0.205699 0.002316
vt 0.794301 0.002241
vt 0.598100 0.002241
vt 0.401900 0.002241
vt 0.205699 0.002241
vt 0.794301 0.997759
vt 0.598100 0.997759
vt 0.401900 0.997759
vt 0.205699 0.997759
vn 0.000000 0.000000 1.000000
vn 0.000000 0.000000 1.000000
vn 0.000000 0.000000 1.000000
vn 0.000000 0.000000 1.000000
vn 0.000000 0.000000 1.000000
vn 0.000000 0.000000 1.000000
vn 0.000000 0.000000 1.000000
vn 0.000000 0.000000 1.000000
vn 0.000000 0.000000 1.000000
vn 0.000000 0.000000 1.000000
vn 0.000000 0.000000 1.000000
vn 0.000000 0.000000 1.000000
vn 0.000000 0.000000 1.000000
vn 0.000000 0.000000 1.000000
vn 0.000000 0.000000 1.000000
vn 0.000000 0.000000 1.000000
vn 0.000000 0.000000 1.000000
vn 0.000000 0.000000 1.000000
vn 0.000000 0.000000 1.000000
vn 0.000000 0.000000 1.000000
vn 0.000000 0.000000 1.000000
vn 0.000000 0.000000 1.000000
vn 0.000000 0.000000 1.000000
vn 0.000000 0.000000 1.000000
vn 0.000000 0.000000 1.000000
vn 0.000000 0.000000 1.000000
vn 0.000000 0.000000 1.000000
vn 0.000000 0.000000 1.000000
vn 0.000000 0.000000 1.000000
vn 0.000000 0.000000 1.000000
vn 0.000000 0.000000 1.000000
vn 0.000000 0.000000 1.000000
vn 0.000000 0.000000 1.000000
vn 0.000000 0.000000 1.000000
vn 0.000000 0.000000 1.000000
vn 0.000000 0.000000 1.000000
vn 0.000000 0.000000 1.000000
vn 0.000000 0.000000 1.000000
vn 0.000000 0.000000 1.000000
vn 0.000000 0.000000 1.000000
vn 0.000000 0.000000 1.000000
vn 0.000000 0.000000 1.000000
vn 0.000000 0.000000 1.000000
vn 0.000000 0.000000 1.000000
vn 0.000000 0.000000 1.000000
vn 0.000000 0.000000 1.000000
vn 0.000000 0.000000 1.000000
vn 0.000000 0.000000 1.000000
vn 0.000000 0.000000 1.000000
vn 0.000000 0.000000 1.000000
vn 0.000000 0.000000 1.000000
vn 0.000000 0.000000 1.000000
vn 0.000000 0.000000 1.000000
vn 0.000000 0.000000 1.000000
vn 0.000000 0.000000 1.000000
vn 0.000000 0.000000 1.000000
vn 0.000000 0.000000 1.000000
vn 0.000000 0.000000 1.000000
vn 0.000000 0.000000 1.000000
vn 0.000000 0.000000 1.000000
vn 0.000000 1.000000 0.000000
vn 0.000000 1.000000 0.000000
vn 0.000000 1.000000 0.000000
vn 0.000000 1.000000 0.000000
vn 0.000000 1.000000 0.000000
vn 0.000000 1.000000 0.000000
vn 0.000000 1.000000 0.000000
vn 0.000000 1.000000 0.000000
vn 0.000000 1.000000 0.000000
vn 0.000000 1.000000 0.000000
vn 0.000000 1.000000 0.000000
vn 0.000000 1.000000 0.000000
vn 0.000000 1.000000 0.000000
vn 0.000000 1.000000 0.000000
vn 0.000000 1.000000 0.000000
vn 0.000000 1.000000 0.000000
vn 0.000000 1.000000 0.000000
vn 0.000000 1.000000 0.000000
vn 0.000000 1.000000 0.000000
vn 0.000000 1.000000 0.000000
vn 0.000000 1.000000 0.000000
vn 0.000000 1.000000 0.000000
vn 0.000000 1.000000 0.000000
vn 0.000000 1.000000 0.000000
vn 0.000000 1.000000 0.000000
vn 0.000000 1.000000 0.000000
vn 0.000000 1.000000 0.000000
vn 0.000000 1.000000 0.000000
vn 0.000000 1.000000 0.000000
vn 0.000000 1.000000 0.000000
vn 0.000000 1.000000 0.000000
vn 0.000000 1.000000 0.000000
vn 0.000000 1.000000 0.000000
vn 0.000000 1.000000 0.000000
vn 0.000000 1.000000 0.000000
vn 0.000000 1.000000 0.000000
vn 0.000000 1.000000 0.000000
vn 0.000000 1.000000 0.000000
vn 0.000000 1.000000 0.000000
vn 0.000000 1.000000 0.000000
vn 0.000000 1.000000 0.000000
vn 0.000000 1.000000 0.000000
vn 0.000000 1.000000 0.000000
vn 0.000000 1.000000 0.000000
vn 0.000000 1.000000 0.000000
vn 0.000000 1.000000 0.000000
vn 0.000000 1.000000 0.000000
vn 0.000000 1.000000 0.000000
vn 0.000000 1.000000 0.000000
vn 0.000000 1.000000 0.000000
vn 0.000000 1.000000 0.000000
vn 0.000000 1.000000 0.000000
vn 0.000000 1.000000 0.000000
vn 0.000000 1.000000 0.000000
vn 0.000000 1.000000 0.000000
vn 0.000000 1.000000 0.000000
vn 0.000000 1.000000 0.000000
vn 0.000000 1.000000 0.000000
vn 0.000000 1.000000 0.000000
vn 0.000000 1.000000 0.000000
vn 0.000000 1.000000 0.000000
vn 0.000000 1.000000 0.000000
vn 0.000000 1.000000 0.000000
vn 0.000000 1.000000 0.000000
vn 0.000000 1.000000 0.000000
vn 0.000000 1.000000 0.000000
vn 0.000000 1.000000 0.000000
vn 0.000000 1.000000 0.000000
vn 0.000000 1.000000 0.000000
vn 0.000000 1.000000 0.000000
vn 0.000000 1.000000 0.000000
vn 0.000000 1.000000 0.000000
vn 0.000000 1.000000 0.000000
vn 0.000000 1.000000 0.000000
vn 0.000000 1.000000 0.000000
vn 0.000000 1.000000 0.000000
vn 0.000000 1.000000 0.000000
vn 0.000000 1.000000 0.000000
vn 0.000000 1.000000 0.000000
vn 0.000000 1.000000 0.000000
vn 0.000000 1.000000 0.000000
vn 0.000000 1.000000 0.000000
vn 0.000000 1.000000 0.000000
vn 0.000000 1.000000 0.000000
vn 0.000000 1.000000 0.000000
vn 0.000000 1.000000 0.000000
vn 0.000000 1.000000 0.000000
vn 0.000000 1.000000 0.000000
vn 0.000000 1.000000 0.000000
vn 0.000000 1.000000 0.000000
vn 0.000000 1.000000 0.000000
vn 0.000000 1.000000 0.000000
vn 0.000000 1.000000 0.000000
vn 0.000000 1.000000 0.000000
vn 0.000000 1.000000 0.000000
vn 0.000000 1.000000 0.000000
vn 0.000000 1.000000 0.000000
vn 0.000000 1.000000 0.000000
vn 0.000000 1.000000 0.000000
vn 0.000000 1.000000 0.000000
vn 0.000000 1.000000 0.000000
vn 0.000000 1.000000 0.000000
vn 0.000000 1.000000 0.000000
vn 0.000000 1.000000 0.000000
vn 0.000000 1.000000 0.000000
vn 0.000000 1.000000 0.000000
vn 0.000000 1.000000 0.000000
vn 0.000000 1.000000 0.000000
vn 0.000000 1.000000 0.000000
vn 0.000000 1.000000 0.000000
vn 0.000000 1.000000 0.000000
vn 0.000000 1.000000 0.000000
vn 0.000000 1.000000 0.000000
vn 0.000000 1.000000 0.000000
vn 0.000000 1.000000 0.000000
vn 0.000000 1.000000 0.000000
vn 0.000000 1.000000 0.000000
vn 0.000000 1.000000 0.000000
vn 0.000000 1.000000 0.000000
vn 0.000000 1.000000 0.000000
vn 0.000000 1.000000 0.000000
vn 0.000000 1.000000 0.000000
vn 0.000000 1.000000 0.000000
vn 0.000000 1.000000 0.000000
vn 0.000000 1.000000 0.000000
vn 0.000000 1.000000 0.000000
vn 0.000000 1.000000 0.000000
vn 0.000000 1.000000 0.000000
vn 0.000000 1.000000 0.000000
vn 0.000000 1.000000 0.000000
vn 0.000000 1.000000 0.000000
vn 0.000000 1.000000 0.000000
vn 0.000000 1.000000 0.000000
vn 0.000000 1.000000 0.000000
vn 0.000000 1.000000 0.000000
vn 0.000000 1.000000 0.000000
vn 0.000000 1.000000 0.000000
vn 0.000000 1.000000 0.000000
vn 0.000000 1.000000 0.000000
vn 0.000000 1.000000 0.000000
vn 0.000000 1.000000 0.000000
vn 0.000000 1.000000 0.000000
vn 0.000000 1.000000 0.000000
vn 0.000000 1.000000 0.000000
vn 0.000000 1.000000 0.000000
vn 0.000000 1.000000 0.000000
vn 0.000000 1.000000 0.000000
vn 0.000000 1.000000 0.000000
vn 0.000000 1.000000 0.000000
vn 0.000000 1.000000 0.000000
vn 0.000000 0.000000 -1.000000
vn 0.000000 0.000000 -1.000000
vn 0.000000 0.000000 -1.000000
vn 0.000000 0.000000 -1.000000
vn 0.000000 0.000000 -1.000000
vn 0.000000 0.000000 -1.000000
vn 0.000000 0.000000 -1.000000
vn 0.000000 0.000000 -1.000000
vn 0.000000 0.000000 -1.000000
vn 0.000000 0.000000 -1.000000
vn 0.000000 0.000000 -1.000000
vn 0.000000 0.000000 -1.000000
vn 0.000000 0.000000 -1.000000
vn 0.000000 0.000000 -1.000000
vn 0.000000 0.000000 -1.000000
vn 0.000000 0.000000 -1.000000
vn 0.000000 0.000000 -1.000000
vn 0.000000 0.000000 -1.000000
vn 0.000000 0.000000 -1.000000
vn 0.000000 0.000000 -1.000000
vn 0.000000 0.000000 -1.000000
vn 0.000000 0.000000 -1.000000
vn 0.000000 0.000000 -1.000000
vn 0.000000 0.000000 -1.000000
vn 0.000000 0.000000 -1.000000
vn 0.000000 0.000000 -1.000000
vn 0.000000 0.000000 -1.000000
vn 0.000000 0.000000 -1.000000
vn 0.000000 0.000000 -1.000000
vn 0.000000 0.000000 -1.000000
vn 0.000000 0.000000 -1.000000
vn 0.000000 0.000000 -1.000000
vn 0.000000 0.000000 -1.000000
vn 0.000000 0.000000 -1.000000
vn 0.000000 0.000000 -1.000000
vn 0.000000 0.000000 -1.000000
vn 0.000000 0.000000 -1.000000
vn 0.000000 0.000000 -1.000000
vn 0.000000 0.000000 -1.000000
vn 0.000000 0.000000 -1.000000
vn 0.000000 0.000000 -1.000000
vn 0.000000 0.000000 -1.000000
vn 0.000000 0.000000 -1.000000
vn 0.000000 0.000000 -1.000000
vn 0.000000 0.000000 -1.000000
vn 0.000000 0.000000 -1.000000
vn 0.000000 0.000000 -1.000000
vn 0.000000 0.000000 -1.000000
vn 0.000000 0.000000 -1.000000
vn 0.000000 0.000000 -1.000000
vn 0.000000 0.000000 -1.000000
vn 0.000000 0.000000 -1.000000
vn 0.000000 0.000000 -1.000000
vn 0.000000 0.000000 -1.000000
vn 0.000000 0.000000 -1.000000
vn 0.000000 0.000000 -1.000000
vn 0.000000 0.000000 -1.000000
vn 0.000000 0.000000 -1.000000
vn 0.000000 0.000000 -1.000000
vn 0.000000 0.000000 -1.000000
vn 0.000000 -1.000000 0.000000
vn 0.000000 -1.000000 0.000000
vn 0.000000 -1.000000 0.000000
vn 0.000000 -1.000000 0.000000
vn 0.000000 -1.000000 0.000000
vn 0.000000 -1.000000 0.000000
vn 0.000000 -1.000000 0.000000
vn 0.000000 -1.000000 0.000000
vn 0.000000 -1.000000 0.000000
vn 0.000000 -1.000000 0.000000
vn 0.000000 -1.000000 0.000000
vn 0.000000 -1.000000 0.000000
vn 0.000000 -1.000000 0.000000
vn 0.000000 -1.000000 0.000000
vn 0.000000 -1.000000 0.000000
vn 0.000000 -1.000000 0.000000
vn 0.000000 -1.000000 0.000000
vn 0.000000 -1.000000 0.000000
vn 0.000000 -1.000000 0.000000
vn 0.000000 -1.000000 0.000000
vn 0.000000 -1.000000 0.000000
vn 0.000000 -1.000000 0.000000
vn 0.000000 -1.000000 0.000000
vn 0.000000 -1.000000 0.000000
vn 0.000000 -1.000000 0.000000
vn 0.000000 -1.000000 0.000000
vn 0.000000 -1.000000 0.000000
vn 0.000000 -1.000000 0.000000
vn 0.000000 -1.000000 0.000000
vn 0.000000 -1.000000 0.000000
vn 0.000000 -1.000000 0.000000
vn 0.000000 -1.000000 0.000000
vn 0.000000 -1.000000 0.000000
vn 0.000000 -1.000000 0.000000
vn 0.000000 -1.000000 0.000000
vn 0.000000 -1.000000 0.000000
vn 0.000000 -1.000000 0.000000
vn 0.000000 -1.000000 0.000000
vn 0.000000 -1.000000 0.000000
vn 0.000000 -1.000000 0.000000
vn 0.000000 -1.000000 0.000000
vn 0.000000 -1.000000 0.000000
vn 0.000000 -1.000000 0.000000
vn 0.000000 -1.000000 0.000000
vn 0.000000 -1.000000 0.000000
vn 0.000000 -1.000000 0.000000
vn 0.000000 -1.000000 0.000000
vn 0.000000 -1.000000 0.000000
vn 0.000000 -1.000000 0.000000
vn 0.000000 -1.000000 0.000000
vn 0.000000 -1.000000 0.000000
vn 0.000000 -1.000000 0.000000
vn 0.000000 -1.000000 0.000000
vn 0.000000 -1.000000 0.000000
vn 0.000000 -1.000000 0.000000
vn 0.000000 -1.000000 0.000000
vn 0.000000 -1.000000 0.000000
vn 0.000000 -1.000000 0.000000
vn 0.000000 -1.000000 0.000000
vn 0.000000 -1.000000 0.000000
vn 0.000000 -1.000000 0.000000
vn 0.000000 -1.000000 0.000000
vn 0.000000 -1.000000 0.000000
vn 0.000000 -1.000000 0.000000
vn 0.000000 -1.000000 0.000000
vn 0.000000 -1.000000 0.000000
vn 0.000000 -1.000000 0.000000
vn 0.000000 -1.000000 0.000000
vn 0.000000 -1.000000 0.000000
vn 0.000000 -1.000000 0.000000
vn 0.000000 -1.000000 0.000000
vn 0.000000 -1.000000 0.000000
vn 0.000000 -1.000000 0.000000
vn 0.000000 -1.000000 0.000000
vn 0.000000 -1.000000 0.000000
vn 0.000000 -1.000000 0.000000
vn 0.000000 -1.000000 0.000000
vn 0.000000 -1.000000 0.000000
vn 0.000000 -1.000000 0.000000
vn 0.000000 -1.000000 0.000000
vn 0.000000 -1.000000 0.000000
vn 0.000000 -1.000000 0.000000
vn 0.000000 -1.000000 0.000000
vn 0.000000 -1.000000 0.000000
vn 0.000000 -1.000000 0.000000
vn 0.000000 -1.000000 0.000000
vn 0.000000 -1.000000 0.000000
vn 0.000000 -1.000000 0.000000
vn 0.000000 -1.000000 0.000000
vn 0.000000 -1.000000 0.000000
vn 0.000000 -1.000000 0.000000
vn 0.000000 -1.000000 0.000000
vn 0.000000 -1.000000 0.000000
vn 0.000000 -1.000000 0.000000
vn 0.000000 -1.000000 0.000000
vn 0.000000 -1.000000 0.000000
vn 0.000000 -1.000000 0.000000
vn 0.000000 -1.000000 0.000000
vn 0.000000 -1.000000 0.000000
vn 0.000000 -1.000000 0.000000
vn 0.000000 -1.000000 0.000000
vn 0.000000 -1.000000 0.000000
vn 0.000000 -1.000000 0.000000
vn 0.000000 -1.000000 0.000000
vn 0.000000 -1.000000 0.000000
vn 0.000000 -1.000000 0.000000
vn 0.000000 -1.000000 0.000000
vn 0.000000 -1.000000 0.000000
vn 0.000000 -1.000000 0.000000
vn 0.000000 -1.000000 0.000000
vn 0.000000 -1.000000 0.000000
vn 0.000000 -1.000000 0.000000
vn 0.000000 -1.000000 0.000000
vn 0.000000 -1.000000 0.000000
vn 0.000000 -1.000000 0.000000
vn 0.000000 -1.000000 0.000000
vn 0.000000 -1.000000 0.000000
vn 0.000000 -1.000000 0.000000
vn 0.000000 -1.000000 0.000000
vn 0.000000 -1.000000 0.000000
vn 0.000000 -1.000000 0.000000
vn 0.000000 -1.000000 0.000000
vn 0.000000 -1.000000 0.000000
vn 0.000000 -1.000000 0.000000
vn 0.000000 -1.000000 0.000000
vn 0.000000 -1.000000 0.000000
vn 0.000000 -1.000000 0.000000
vn 0.000000 -1.000000 0.000000
vn 0.000000 -1.000000 0.000000
vn 0.000000 -1.000000 0.000000
vn 0.000000 -1.000000 0.000000
vn 0.000000 -1.000000 0.000000
vn 0.000000 -1.000000 0.000000
vn 0.000000 -1.000000 0.000000
vn 0.000000 -1.000000 0.000000
vn 0.000000 -1.000000 0.000000
vn 0.000000 -1.000000 0.000000
vn 0.000000 -1.000000 0.000000
vn 0.000000 -1.000000 0.000000
vn 0.000000 -1.000000 0.000000
vn 0.000000 -1.000000 0.000000
vn 0.000000 -1.000000 0.000000
vn 0.000000 -1.000000 0.000000
vn 0.000000 -1.000000 0.000000
vn 0.000000 -1.000000 0.000000
vn 0.000000 -1.000000 0.000000
vn 0.000000 -1.000000 0.000000
vn 0.000000 -1.000000 0.000000
vn 0.000000 -1.000000 0.000000
vn 0.000000 -1.000000 0.000000
vn 1.000000 0.000000 0.000000
vn 1.000000 0.000000 0.000000
vn 1.000000 -0.000002 0.000000
vn 1.000000 -0.000002 0.000000
vn 1.000000 0.000000 0.000000
vn 1.000000 0.000000 0.000000
vn 1.000000 0.000000 0.000000
vn 1.000000 0.000000 0.000000
vn 1.000000 -0.000002 0.000000
vn 1.000000 -0.000002 0.000000
vn 1.000000 0.000000 0.000000
vn 1.000000 -0.000002 0.000000
vn 1.000000 0.000000 0.000000
vn 1.000000 0.000000 0.000000
vn 1.000000 -0.000002 0.000000
vn 1.000000 -0.000002 0.000000
vn 1.000000 0.000000 0.000000
vn 1.000000 -0.000002 0.000000
vn 1.000000 0.000000 0.000000
vn 1.000000 0.000000 0.000000
vn 1.000000 -0.000002 0.000000
vn 1.000000 -0.000002 0.000000
vn 1.000000 0.000000 0.000000
vn 1.000000 -0.000002 0.000000
vn 1.000000 0.000000 0.000000
vn 1.000000 0.000000 0.000000
vn 1.000000 0.000000 0.000000
vn 1.000000 0.000000 0.000000
vn 1.000000 0.000000 0.000000
vn 1.000000 -0.000002 0.000000
vn 1.000000 -0.000002 0.000000
vn 1.000000 0.000000 0.000000
vn 1.000000 -0.000003 0.000000
vn 1.000000 -0.000003 0.000000
vn 1.000000 0.000000 0.000000
vn 1.000000 0.000000 0.000000
vn 1.000000 -0.000002 0.000000
vn 1.000000 -0.000002 0.000000
vn 1.000000 -0.000003 0.000000
vn 1.000000 -0.000003 0.000000
vn 1.000000 -0.000002 0.000000
vn 1.000000 -0.000003 0.000000
vn 1.000000 -0.000002 0.000000
vn 1.000000 -0.000002 0.000000
vn 1.000000 -0.000003 0.000000
vn 1.000000 -0.000003 0.000000
vn 1.000000 -0.000002 0.000000
vn 1.000000 -0.000003 0.000000
vn 1.000000 -0.000002 0.000000
vn 1.000000 -0.000002 0.000000
vn 1.000000 -0.000003 0.000000
vn 1.000000 -0.000003 0.000000
vn 1.000000 -0.000002 0.000000
vn 1.000000 -0.000003 0.000000
vn 1.000000 0.000000 0.000000
vn 1.000000 -0.000002 0.000000
vn 1.000000 0.000000 0.000000
vn 1.000000 0.000000 0.000000
vn 1.000000 -0.000002 0.000000
vn 1.000000 -0.000003 0.000000
vn -1.000000 0.000000 0.000000
vn -1.000000 0.000000 0.000000
vn -1.000000 0.000000 0.000000
vn -1.000000 0.000000 0.000000
vn -1.000000 0.000000 0.000000
vn -1.000000 0.000002 0.000000
vn -1.000000 0.000000 0.000000
vn -1.000000 0.000000 0.000000
vn -1.000000 0.000002 0.000000
vn -1.000000 0.000002 0.000000
vn -1.000000 0.000000 0.000000
vn -1.000000 0.000002 0.000000
vn -1.000000 0.000000 0.000000
vn -1.000000 0.000000 0.000000
vn -1.000000 0.000002 0.000000
vn -1.000000 0.000002 0.000000
vn -1.000000 0.000000 0.000000
vn -1.000000 0.000002 0.000000
vn -1.000000 0.000000 0.000000
vn -1.000000 0.000000 0.000000
vn -1.000000 0.000002 0.000000
vn -1.000000 0.000002 0.000000
vn -1.000000 0.000000 0.000000
vn -1.000000 0.000002 0.000000
vn -1.000000 0.000000 0.000000
vn -1.000000 0.000000 0.000000
vn -1.000000 0.000002 0.000000
vn -1.000000 0.000002 0.000000
vn -1.000000 0.000000 0.000000
vn -1.000000 0.000000 0.000000
vn -1.000000 0.000000 0.000000
vn -1.000000 0.000002 0.000000
vn -1.000000 0.000000 0.000000
vn -1.000000 0.000000 0.000000
vn -1.000000 0.000002 0.000000
vn -1.000000 0.000003 0.000000
vn -1.000000 0.000002 0.000000
vn -1.000000 0.000002 0.000000
vn -1.000000 0.000003 0.000000
vn -1.000000 0.000003 0.000000
vn -1.000000 0.000002 0.000000
vn -1.000000 0.000003 0.000000
vn -1.000000 0.000002 0.000000
vn -1.000000 0.000002 0.000000
vn -1.000000 0.000003 0.000000
vn -1.000000 0.000003 0.000000
vn -1.000000 0.000002 0.000000
vn -1.000000 0.000003 0.000000
vn -1.000000 0.000002 0.000000
vn -1.000000 0.000002 0.000000
vn -1.000000 0.000003 0.000000
vn -1.000000 0.000003 0.000000
vn -1.000000 0.000002 0.000000
vn -1.000000 0.000003 0.000000
vn -1.000000 0.000002 0.000000
vn -1.000000 0.000000 0.000000
vn -1.000000 0.000003 0.000000
vn -1.000000 0.000003 0.000000
vn -1.000000 0.000000 0.000000
vn -1.000000 0.000000 0.000000
s off
g ground_plane_ground_plane
f 1/1/1 2/2/2 7/3/3
f 7/3/4 2/2/5 8/4/6
f 2/2/7 3/5/8 8/4/9
f 8/4/10 3/5/11 9/6/12
f 3/5/13 4/7/14 9/6/15
f 9/6/16 4/7/17 10/8/18
f 4/7/19 5/9/20 10/8/21
f 10/8/22 5/9/23 11/10/24
f 5/9/25 6/11/26 11/10/27
f 11/10/28 6/11/29 12/12/30
f 7/3/31 8/4/32 13/13/33
f 13/13/34 8/4/35 14/14/36
f 8/4/37 9/6/38 14/14/39
f 14/14/40 9/6/41 15/15/42
f 9/6/43 10/8/44 15/15/45
f 15/15/46 10/8/47 16/16/48
f 10/8/49 11/10/50 16/16/51
f 16/16/52 11/10/53 17/17/54
f 11/10/55 12/12/56 17/17/57
f 17/17/58 12/12/59 18/18/60
f 13/13/61 14/14/62 19/19/63
f 19/19/64 14/14/65 20/20/66
f 14/14/67 15/15/68 20/20/69
f 20/20/70 15/15/71 21/21/72
f 15/15/73 16/16/74 21/21/75
f 21/21/76 16/16/77 22/22/78
f 16/16/79 17/17/80 22/22/81
f 22/22/82 17/17/83 23/23/84
f 17/17/85 18/18/86 23/23/87
f 23/23/88 18/18/89 24/24/90
f 19/19/91 20/20/92 25/25/93
f 25/25/94 20/20/95 26/26/96
f 20/20/97 21/21/98 26/26/99
f 26/26/100 21/21/101 27/27/102
f 21/21/103 22/22/104 27/27/105
f 27/27/106 22/22/107 28/28/108
f 22/22/109 23/23/110 28/28/111
f 28/28/112 23/23/113 29/29/114
f 23/23/115 24/24/116 29/29/117
f 29/29/118 24/24/119 30/30/120
f 25/25/121 26/26/122 31/31/123
f 31/31/124 26/26/125 32/32/126
f 26/26/127 27/27/128 32/32/129
f 32/32/130 27/27/131 33/33/132
f 27/27/133 28/28/134 33/33/135
f 33/33/136 28/28/137 34/34/138
f 28/28/139 29/29/140 34/34/141
f 34/34/142 29/29/143 35/35/144
f 29/29/145 30/30/146 35/35/147
f 35/35/148 30/30/149 36/36/150
f 31/31/151 32/32/152 37/37/153
f 37/37/154 32/32/155 38/38/156
f 32/32/157 33/33/158 38/38/159
f 38/38/160 33/33/161 39/39/162
f 33/33/163 34/34/164 39/39/165
f 39/39/166 34/34/167 40/40/168
f 34/34/169 35/35/170 40/40/171
f 40/40/172 35/35/173 41/41/174
f 35/35/175 36/36/176 41/41/177
f 41/41/178 36/36/179 42/42/180
f 37/37/181 38/38/182 43/43/183
f 43/43/184 38/38/185 44/44/186
f 38/38/187 39/39/188 44/44/189
f 44/44/190 39/39/191 45/45/192
f 39/39/193 40/40/194 45/45/195
f 45/45/196 40/40/197 46/46/198
f 40/40/199 41/41/200 46/46/201
f 46/46/202 41/41/203 47/47/204
f 41/41/205 42/42/206 47/47/207
f 47/47/208 42/42/209 48/48/210
f 43/43/211 44/44/212 49/49/213
f 49/49/214 44/44/215 50/50/216
f 44/44/217 45/45/218 50/50/219
f 50/50/220 45/45/221 51/51/222
f 45/45/223 46/46/224 51/51/225
f 51/51/226 46/46/227 52/52/228
f 46/46/229 47/47/230 52/52/231
f 52/52/232 47/47/233 53/53/234
f 47/47/235 48/48/236 53/53/237
f 53/53/238 48/48/239 54/54/240
f 49/49/241 50/50/242 55/55/243
f 55/55/244 50/50/245 56/56/246
f 50/50/247 51/51/248 56/56/249
f 56/56/250 51/51/251 57/57/252
f 51/51/253 52/52/254 57/57/255
f 57/57/256 52/52/257 58/58/258
f 52/52/259 53/53/260 58/58/261
f 58/58/262 53/53/263 59/59/264
f 53/53/265 54/54/266 59/59/267
f 59/59/268 54/54/269 60/60/270
f 55/55/271 56/56/272 61/61/273
f 61/61/274 56/56/275 62/62/276
f 56/56/277 57/57/278 62/62/279
f 62/62/280 57/57/281 63/63/282
f 57/57/283 58/58/284 63/63/285
f 63/63/286 58/58/287 64/64/288
f 58/58/289 59/59/290 64/64/291
f 64/64/292 59/59/293 65/65/294
f 59/59/295 60/60/296 65/65/297
f 65/65/298 60/60/299 66/66/300
f 61/61/301 62/62/302 67/67/303
f 67/67/304 62/62/305 68/68/306
f 62/62/307 63/63/308 68/68/309
f 68/68/310 63/63/311 69/69/312
f 63/63/313 64/64/314 69/69/315
f 69/69/316 64/64/317 70/70/318
f 64/64/319 65/65/320 70/70/321
f 70/70/322 65/65/323 71/71/324
f 65/65/325 66/66/326 71/71/327
f 71/71/328 66/66/329 72/72/330
f 67/67/331 68/68/332 73/73/333
f 73/73/334 68/68/335 74/74/336
f 68/68/337 69/69/338 74/74/339
f 74/74/340 69/69/341 75/75/342
f 69/69/343 70/70/344 75/75/345
f 75/75/346 70/70/347 76/76/348
f 70/70/349 71/71/350 76/76/351
f 76/76/352 71/71/353 77/77/354
f 71/71/355 72/72/356 77/77/357
f 77/77/358 72/72/359 78/78/360
f 73/73/361 74/74/362 79/79/363
f 79/79/364 74/74/365 80/80/366
f 74/74/367 75/75/368 80/80/369
f 80/80/370 75/75/371 81/81/372
f 75/75/373 76/76/374 81/81/375
f 81/81/376 76/76/377 82/82/378
f 76/76/379 77/77/380 82/82/381
f 82/82/382 77/77/383 83/83/384
f 77/77/385 78/78/386 83/83/387
f 83/83/388 78/78/389 84/84/390
f 79/79/391 80/80/392 1/1/393
f 1/1/394 80/80/395 2/2/396
f 80/80/397 81/81/398 2/2/399
f 2/2/400 81/81/401 3/5/402
f 81/81/403 82/82/404 3/5/405
f 3/5/406 82/82/407 4/7/408
f 82/82/409 83/83/410 4/7/411
f 4/7/412 83/83/413 5/9/414
f 83/83/415 84/84/416 5/9/417
f 5/9/418 84/84/419 6/11/420
f 66/66/421 60/60/422 85/85/423
f 85/85/424 60/60/425 54/54/426
f 72/72/427 66/66/428 86/86/429
f 86/86/430 66/66/431 85/85/432
f 78/78/433 72/72/434 87/87/435
f 87/87/436 72/72/437 86/86/438
f 84/84/439 78/78/440 88/88/441
f 88/88/442 78/78/443 87/87/444
f 6/11/445 84/84/446 12/12/447
f 12/12/448 84/84/449 88/88/450
f 85/85/451 54/54/452 42/42/453
f 42/42/454 54/54/455 48/48/456
f 86/86/457 85/85/458 36/36/459
f 36/36/460 85/85/461 42/42/462
f 87/87/463 86/86/464 30/30/465
f 30/30/466 86/86/467 36/36/468
f 88/88/469 87/87/470 24/24/471
f 24/24/472 87/87/473 30/30/474
f 12/12/475 88/88/476 18/18/477
f 18/18/478 88/88/479 24/24/480
f 55/55/481 61/61/482 49/49/483
f 49/49/484 61/61/485 89/89/486
f 61/61/487 67/67/488 89/89/489
f 89/89/490 67/67/491 90/90/492
f 67/67/493 73/73/494 90/90/495
f 90/90/496 73/73/497 91/91/498
f 73/73/499 79/79/500 91/91/501
f 91/91/502 79/79/503 92/92/504
f 79/79/505 1/1/506 92/92/507
f 92/92/508 1/1/509 7/3/510
f 49/49/511 89/89/512 43/43/513
f 43/43/514 89/89/515 37/37/516
f 89/89/517 90/90/518 37/37/519
f 37/37/520 90/90/521 31/31/522
f 90/90/523 91/91/524 31/31/525
f 31/31/526 91/91/527 25/25/528
f 91/91/529 92/92/530 25/25/531
f 25/25/532 92/92/533 19/19/534
f 92/92/535 7/3/536 19/19/537
f 19/19/538 7/3/539 13/13/540
