# This file uses centimeters as units for non-parametric coordinates.

g default
v 0.451588 12.815290 4.218532
v 0.451588 13.120464 4.096385
v 0.451588 13.118960 3.967959
v 0.451588 12.664580 3.751843
v 0.451588 12.286163 4.080682
v 0.451588 12.371107 4.101481
v 0.451588 12.813511 3.765915
v 0.451588 12.416783 3.660127
v 0.451588 12.326509 3.624834
v 0.451588 12.204880 4.061433
v 0.451588 12.236156 3.593238
v 0.451588 12.044843 4.044197
v 0.451588 12.125257 4.047929
v 0.451588 12.145043 3.577253
v 0.451588 12.055800 3.574868
v 0.451588 13.124354 4.304784
v 0.451588 12.460674 4.126633
v 0.451588 12.546453 4.150787
v 0.451588 12.603807 3.732007
v 0.451588 12.510011 3.696195
v 0.451588 12.637437 4.175347
v 0.451588 13.117359 3.868683
v 0.451588 12.948133 3.704932
v 0.451588 11.980511 3.935895
v 0.451588 11.979748 4.049602
v 0.467332 11.983623 3.805683
v 0.451588 11.984590 3.688916
v 0.451588 11.985390 3.590838
v 0.451588 13.113873 3.734751
v 0.451588 13.007644 3.731176
v 0.451588 12.926657 4.279850
v 0.451588 13.011671 4.300468
v 0.451588 12.882816 3.741224
v 0.451588 12.868158 4.233299
v 0.451588 12.748446 3.773655
v 0.451588 12.722280 4.197382
v 0.507353 12.642799 4.077356
v 0.520751 12.649810 3.941047
v 0.507353 12.728365 4.091118
v 0.520751 12.735853 3.960184
v 0.520751 12.937863 3.972579
v 0.507353 12.933350 4.096928
v 0.507353 13.010454 4.099041
v 0.520751 13.009669 3.972499
v 0.497517 12.928330 4.234119
v 0.497517 13.011367 4.250112
v 0.477921 13.069638 4.099942
v 0.520751 13.068307 3.971968
v 0.512336 12.877674 3.877187
v 0.520751 12.875075 3.972765
v 0.480412 12.955914 3.873633
v 0.513935 12.740529 3.878697
v 0.513934 12.815739 3.896815
v 0.520751 12.814831 3.972943
v 0.513935 12.656034 3.854977
v 0.507353 12.294373 3.960417
v 0.507353 12.379764 3.986935
v 0.497517 12.288215 4.050616
v 0.497517 12.373271 4.072845
v 0.497517 12.753036 3.812048
v 0.497517 12.669169 3.790236
v 0.513935 12.403050 3.760005
v 0.513935 12.314539 3.725548
v 0.520751 12.306462 3.815734
v 0.520751 12.393634 3.847422
v 0.497517 12.421372 3.698520
v 0.497517 12.331098 3.663227
v 0.507353 12.211974 3.939878
v 0.497517 12.206654 4.031044
v 0.520751 12.221065 3.790179
v 0.513935 12.227039 3.696933
v 0.497517 12.240746 3.631631
v 0.497517 12.045665 4.016173
v 0.507353 12.048134 3.932099
v 0.497517 12.126565 4.018229
v 0.507353 12.130490 3.929127
v 0.513935 12.139040 3.681754
v 0.520751 12.135727 3.776761
v 0.513935 12.053138 3.689447
v 0.520751 12.051298 3.782938
v 0.497517 12.060390 3.613261
v 0.497517 12.149632 3.615646
v 0.507353 12.811867 4.093467
v 0.497517 13.072075 4.254987
v 0.507353 12.470645 4.020578
v 0.507353 12.562265 4.053734
v 0.497517 12.463167 4.100119
v 0.497517 12.550406 4.126523
v 0.513935 12.588924 3.832388
v 0.513935 12.495566 3.797009
v 0.520751 12.485513 3.883527
v 0.520751 12.578602 3.918088
v 0.497517 12.608397 3.770400
v 0.497517 12.514601 3.734588
v 0.497517 12.638778 4.150850
v 0.497517 12.723800 4.170816
v 0.480412 13.009058 3.873728
v 0.480412 13.066944 3.872813
v 0.498674 12.947117 3.740675
v 0.497517 12.887405 3.779617
v 0.497517 12.023976 4.017823
v 0.507353 12.025818 3.933352
v 0.520751 12.028965 3.790443
v 0.513935 12.030457 3.696593
v 0.497517 12.037155 3.618531
v 0.472921 13.068545 3.775206
v 0.472921 13.012234 3.769569
v 0.507353 12.871854 4.095176
v 0.497517 12.869083 4.198769
v 0.497517 12.818101 3.804308
v 0.497517 12.814434 4.187266
v 0.502437 12.951931 3.931345
v 0.505007 12.903441 3.876450
v 0.497517 12.882086 3.832950
v 0.498674 12.961605 3.747063
v 0.451588 12.967787 3.713599
v 0.451588 13.119084 3.978681
v 0.477921 13.068475 3.988088
v 0.477921 13.022821 4.099230
v 0.470431 13.071680 4.229840
v 0.451588 13.124008 4.286255
v 0.447439 12.978833 3.721355
v 0.470343 12.973694 3.753450
v 0.480412 12.919596 3.875988
v 0.477841 12.952416 3.918195
v 0.480412 13.009588 3.959367
v 0.480412 13.068177 3.962513
v 0.451588 13.118847 3.960987
v 0.472921 12.899710 3.834197
v 0.478956 12.934220 3.898586
v 0.503490 12.925293 3.905935
v 0.205407 12.815290 4.218532
v 0.205407 13.120464 4.096385
v 0.205407 13.118960 3.967959
v 0.205407 12.664580 3.751843
v 0.205407 12.286163 4.080682
v 0.205407 12.371107 4.101481
v 0.205407 12.813511 3.765915
v 0.205407 12.416783 3.660127
v 0.205407 12.326509 3.624834
v 0.205407 12.204880 4.061433
v 0.205407 12.236156 3.593238
v 0.205407 12.044843 4.044197
v 0.205407 12.125257 4.047929
v 0.205407 12.145043 3.577253
v 0.205407 12.055800 3.574868
v 0.205407 13.124354 4.304784
v 0.205407 12.460674 4.126633
v 0.205407 12.546453 4.150787
v 0.205407 12.603807 3.732007
v 0.205407 12.510011 3.696195
v 0.205407 12.637437 4.175347
v 0.205407 13.117359 3.868683
v 0.205407 12.948133 3.704932
v 0.205407 11.980511 3.935895
v 0.205407 11.979748 4.049602
v 0.189663 11.983623 3.805683
v 0.205407 11.984590 3.688916
v 0.205407 11.985390 3.590838
v 0.205407 13.113873 3.734751
v 0.205407 13.007644 3.731176
v 0.205407 12.926657 4.279850
v 0.205407 13.011671 4.300468
v 0.205407 12.882816 3.741224
v 0.205407 12.868158 4.233299
v 0.205407 12.748446 3.773655
v 0.205407 12.722280 4.197382
v 0.149642 12.642799 4.077356
v 0.136244 12.649810 3.941047
v 0.149642 12.728365 4.091118
v 0.136244 12.735853 3.960184
v 0.136244 12.937863 3.972579
v 0.149642 12.933350 4.096928
v 0.149642 13.010454 4.099041
v 0.136244 13.009669 3.972499
v 0.159478 12.928330 4.234119
v 0.159478 13.011367 4.250112
v 0.179074 13.069638 4.099942
v 0.136244 13.068307 3.971968
v 0.144660 12.877674 3.877187
v 0.136244 12.875075 3.972765
v 0.176584 12.955914 3.873633
v 0.143061 12.740529 3.878697
v 0.143061 12.815739 3.896815
v 0.136244 12.814831 3.972943
v 0.143061 12.656034 3.854977
v 0.149642 12.294373 3.960417
v 0.149642 12.379764 3.986935
v 0.159478 12.288215 4.050616
v 0.159478 12.373271 4.072845
v 0.159478 12.753036 3.812048
v 0.159478 12.669169 3.790236
v 0.143061 12.403050 3.760005
v 0.143061 12.314539 3.725548
v 0.136244 12.306462 3.815734
v 0.136244 12.393634 3.847422
v 0.159478 12.421372 3.698520
v 0.159478 12.331098 3.663227
v 0.149642 12.211974 3.939878
v 0.159478 12.206654 4.031044
v 0.136244 12.221065 3.790179
v 0.143061 12.227039 3.696933
v 0.159478 12.240746 3.631631
v 0.159478 12.045665 4.016173
v 0.149642 12.048134 3.932099
v 0.159478 12.126565 4.018229
v 0.149642 12.130490 3.929127
v 0.143061 12.139040 3.681754
v 0.136244 12.135727 3.776761
v 0.143061 12.053138 3.689447
v 0.136244 12.051298 3.782938
v 0.159478 12.060390 3.613261
v 0.159478 12.149632 3.615646
v 0.149642 12.811867 4.093467
v 0.159478 13.072075 4.254987
v 0.149642 12.470645 4.020578
v 0.149642 12.562265 4.053734
v 0.159478 12.463167 4.100119
v 0.159478 12.550406 4.126523
v 0.143061 12.588924 3.832388
v 0.143061 12.495566 3.797009
v 0.136244 12.485513 3.883527
v 0.136244 12.578602 3.918088
v 0.159478 12.608397 3.770400
v 0.159478 12.514601 3.734588
v 0.159478 12.638778 4.150850
v 0.159478 12.723800 4.170816
v 0.176584 13.009058 3.873728
v 0.176584 13.066944 3.872813
v 0.158321 12.947117 3.740675
v 0.159478 12.887405 3.779617
v 0.159478 12.023976 4.017823
v 0.149642 12.025818 3.933352
v 0.136244 12.028965 3.790443
v 0.143061 12.030457 3.696593
v 0.159478 12.037155 3.618531
v 0.184074 13.068545 3.775206
v 0.184074 13.012234 3.769569
v 0.149642 12.871854 4.095176
v 0.159478 12.869083 4.198769
v 0.159478 12.818101 3.804308
v 0.159478 12.814434 4.187266
v 0.154558 12.951931 3.931345
v 0.151988 12.903441 3.876450
v 0.159478 12.882086 3.832950
v 0.158321 12.961605 3.747063
v 0.205407 12.967787 3.713599
v 0.205407 13.119084 3.978681
v 0.179074 13.068475 3.988088
v 0.179074 13.022821 4.099230
v 0.186564 13.071680 4.229840
v 0.205407 13.124008 4.286255
v 0.209556 12.978833 3.721355
v 0.186652 12.973694 3.753450
v 0.176584 12.919596 3.875988
v 0.179154 12.952416 3.918195
v 0.176584 13.009588 3.959367
v 0.176584 13.068177 3.962513
v 0.205407 13.118847 3.960987
v 0.184074 12.899710 3.834197
v 0.178040 12.934220 3.898586
v 0.153505 12.925293 3.905935
vt 0.050110 0.570255
vt 0.879810 0.647089
vt 0.965395 0.336079
vt 0.047543 0.295966
vt 0.845290 0.499051
vt 0.619764 0.290534
vt 0.175918 0.260623
vt 0.677450 0.286675
vt 0.118244 0.285293
vt 0.671033 0.223487
vt 0.563072 0.531065
vt 0.171758 0.526399
vt 0.175049 0.316156
vt 0.902461 0.595440
vt 0.879648 0.534734
vt 0.924244 0.575764
vt 0.014433 0.886500
vt 0.000000 0.647071
vt 0.801385 0.885897
vt 0.034457 0.884035
vt 0.213161 0.206781
vt 0.288099 0.010259
vt 0.432778 0.013147
vt 0.322759 0.174306
vt 0.255294 0.997826
vt 0.747175 1.000000
vt 0.026055 0.717449
vt 0.141731 0.394103
vt 0.217892 0.327920
vt 0.045119 0.593941
vt 0.000000 0.845569
vt 0.000000 0.707027
vt 0.506510 0.014619
vt 0.386171 0.151482
vt 0.060891 0.491641
vt 0.271465 0.281937
vt 0.000000 0.581316
vt 0.598708 0.083852
vt 0.504872 0.108756
vt 0.644533 0.017374
vt 0.779813 0.020074
vt 0.371750 0.195859
vt 0.426082 0.144644
vt 0.102215 0.223602
vt 0.090415 0.300144
vt 0.000000 0.345993
vt 0.000000 0.259840
vt 0.000000 0.319585
vt 0.142095 0.574057
vt 0.100319 0.250782
vt 0.094636 0.005100
vt 0.138977 0.007282
vt 0.100196 0.240254
vt 0.072706 0.882138
vt 0.105736 0.484962
vt 0.063231 0.462319
vt 0.006405 0.844750
vt 0.538685 0.995412
vt 0.000000 0.988367
vt 0.014590 0.238327
vt 0.365025 0.108392
vt 0.775874 0.236891
vt 0.771973 0.533556
vt 0.634011 0.531911
vt 0.640518 0.283402
vt 0.925274 0.656145
vt 0.943221 0.724972
vt 0.738114 0.849667
vt 0.701349 0.056612
vt 0.475385 0.449221
vt 0.485513 0.088624
vt 0.115123 0.139878
vt 0.000000 0.165603
vt 0.651638 0.223363
vt 0.511637 0.468216
vt 0.840727 0.303553
vt 0.838410 0.233790
vt 0.986315 0.890233
vt 1.000000 1.000000
vt 1.000000 0.649371
vt 1.000000 0.320018
vt 1.000000 0.243737
vt 0.000000 1.000000
vt 0.000000 0.243737
vt 0.671033 0.223487
vt 0.118244 0.285293
vt 0.171758 0.526399
vt 0.582088 0.531291
vt 0.432778 0.013147
vt 0.288099 0.010259
vt 0.747175 1.000000
vt 0.255294 0.997826
vt 0.000000 0.845569
vt 0.000000 0.707027
vt 0.506510 0.014619
vt 0.000000 0.581316
vt 0.779813 0.020074
vt 0.644533 0.017374
vt 0.000000 0.345993
vt 0.000000 0.259840
vt 0.136352 0.583283
vt 0.136352 0.583283
vt 0.139500 0.578225
vt 0.138977 0.007282
vt 0.094636 0.005100
vt 0.538685 0.995412
vt 0.000000 0.988367
vt 0.365025 0.108392
vt 0.014590 0.238327
vt 0.771973 0.533556
vt 0.630178 0.531865
vt 0.000000 1.000000
vt 0.000000 1.000000
vt 0.490837 1.000000
vt 0.490837 1.000000
vt 0.701349 0.056612
vt 0.475385 0.449221
vt 0.485513 0.088624
vt 0.115123 0.139878
vt 0.000000 0.165603
vt 0.511637 0.468216
vt 0.651638 0.223363
vt 0.949679 0.870623
vt 1.000000 1.000000
vt 1.000000 1.000000
vt 0.884950 0.743508
vt 0.838410 0.233790
vt 1.000000 1.000000
vt 1.000000 0.243737
vt 0.000000 1.000000
vt 0.000000 0.243737
vt 0.619469 0.531737
vt 0.898803 0.554628
vt 0.886886 0.542251
vt 0.914022 0.612992
vt 0.900454 0.577622
vt 0.140621 0.930320
vt 0.214011 0.893954
vt 0.711880 0.804760
vt 0.926750 0.810882
vt 0.861395 0.690993
vt 0.619469 0.531737
vt 0.050110 0.570255
vt 0.047543 0.295966
vt 0.965395 0.336079
vt 0.879810 0.647089
vt 0.845290 0.499051
vt 0.677450 0.286675
vt 0.175918 0.260623
vt 0.619764 0.290534
vt 0.671033 0.223487
vt 0.118244 0.285293
vt 0.563072 0.531065
vt 0.175049 0.316156
vt 0.171758 0.526399
vt 0.902461 0.595440
vt 0.924244 0.575764
vt 0.879648 0.534734
vt 0.014433 0.886500
vt 0.801385 0.885897
vt 0.000000 0.647071
vt 0.034457 0.884035
vt 0.213161 0.206781
vt 0.322759 0.174306
vt 0.432778 0.013147
vt 0.288099 0.010259
vt 0.747175 1.000000
vt 0.255294 0.997826
vt 0.026055 0.717449
vt 0.045119 0.593941
vt 0.217892 0.327920
vt 0.141731 0.394103
vt 0.000000 0.845569
vt 0.000000 0.707027
vt 0.386171 0.151482
vt 0.506510 0.014619
vt 0.060891 0.491641
vt 0.271465 0.281937
vt 0.000000 0.581316
vt 0.598708 0.083852
vt 0.779813 0.020074
vt 0.644533 0.017374
vt 0.504872 0.108756
vt 0.371750 0.195859
vt 0.090415 0.300144
vt 0.102215 0.223602
vt 0.426082 0.144644
vt 0.000000 0.345993
vt 0.000000 0.259840
vt 0.000000 0.319585
vt 0.142095 0.574057
vt 0.100319 0.250782
vt 0.100196 0.240254
vt 0.138977 0.007282
vt 0.094636 0.005100
vt 0.072706 0.882138
vt 0.006405 0.844750
vt 0.063231 0.462319
vt 0.105736 0.484962
vt 0.538685 0.995412
vt 0.000000 0.988367
vt 0.365025 0.108392
vt 0.014590 0.238327
vt 0.775874 0.236891
vt 0.640518 0.283402
vt 0.634011 0.531911
vt 0.771973 0.533556
vt 0.925274 0.656145
vt 0.738114 0.849667
vt 0.943221 0.724972
vt 0.701349 0.056612
vt 0.475385 0.449221
vt 0.485513 0.088624
vt 0.115123 0.139878
vt 0.000000 0.165603
vt 0.511637 0.468216
vt 0.651638 0.223363
vt 0.840727 0.303553
vt 0.838410 0.233790
vt 1.000000 1.000000
vt 0.986315 0.890233
vt 1.000000 0.649371
vt 1.000000 0.320018
vt 1.000000 0.243737
vt 0.000000 1.000000
vt 0.000000 0.243737
vt 0.671033 0.223487
vt 0.118244 0.285293
vt 0.171758 0.526399
vt 0.582088 0.531291
vt 0.432778 0.013147
vt 0.288099 0.010259
vt 0.747175 1.000000
vt 0.255294 0.997826
vt 0.000000 0.845569
vt 0.000000 0.707027
vt 0.506510 0.014619
vt 0.000000 0.581316
vt 0.779813 0.020074
vt 0.644533 0.017374
vt 0.000000 0.345993
vt 0.000000 0.259840
vt 0.136352 0.583283
vt 0.136352 0.583283
vt 0.139500 0.578225
vt 0.138977 0.007282
vt 0.094636 0.005100
vt 0.538685 0.995412
vt 0.000000 0.988367
vt 0.365025 0.108392
vt 0.014590 0.238327
vt 0.630178 0.531865
vt 0.771973 0.533556
vt 0.000000 1.000000
vt 0.490837 1.000000
vt 0.490837 1.000000
vt 0.000000 1.000000
vt 0.701349 0.056612
vt 0.475385 0.449221
vt 0.485513 0.088624
vt 0.115123 0.139878
vt 0.000000 0.165603
vt 0.511637 0.468216
vt 0.651638 0.223363
vt 0.949679 0.870623
vt 0.884950 0.743508
vt 1.000000 1.000000
vt 1.000000 1.000000
vt 0.838410 0.233790
vt 1.000000 1.000000
vt 1.000000 0.243737
vt 0.000000 1.000000
vt 0.000000 0.243737
vt 0.619469 0.531737
vt 0.898803 0.554628
vt 0.886886 0.542251
vt 0.914022 0.612992
vt 0.900454 0.577622
vt 0.140621 0.930320
vt 0.214011 0.893954
vt 0.711880 0.804760
vt 0.926750 0.810882
vt 0.861395 0.690993
vt 0.619469 0.531737
vn 0.995081 -0.021507 0.096701
vn 0.994979 -0.019699 0.098126
vn 0.994892 -0.018224 0.099288
vn 0.994768 -0.016223 0.100864
vn 0.996702 -0.000757 0.081150
vn 0.996396 -0.004709 0.084689
vn 0.999769 0.012822 0.017260
vn 0.995995 -0.008183 0.089034
vn 0.995995 -0.008183 0.089034
vn 0.996396 -0.004709 0.084689
vn 0.997359 -0.012522 0.071550
vn 0.997729 -0.006888 0.067010
vn 1.000000 0.000000 0.000000
vn 0.999504 -0.000479 0.031488
vn 0.999519 -0.000472 0.030998
vn 0.951232 0.064226 -0.301715
vn 0.999769 0.012822 0.017260
vn 0.971002 0.167695 -0.170393
vn 0.999523 0.016526 0.026087
vn 0.999338 -0.001082 0.036365
vn 0.999419 -0.002665 0.033982
vn 0.990803 0.013078 -0.134682
vn 0.989276 0.027745 -0.143399
vn 0.988462 0.042732 -0.145316
vn 0.989276 0.027745 -0.143399
vn 0.999433 -0.007513 0.032835
vn 0.999419 -0.002665 0.033982
vn 0.993064 -0.035366 0.112133
vn 0.993775 -0.028841 0.107610
vn 0.994509 -0.033742 0.099059
vn 0.994945 -0.028044 0.096426
vn 0.970516 0.068936 -0.230967
vn 0.975881 0.037584 -0.215043
vn 0.988462 0.042732 -0.145316
vn 0.989276 0.027745 -0.143399
vn 0.999619 -0.008424 0.026281
vn 0.999675 -0.006061 0.024765
vn 0.988005 0.056097 -0.143875
vn 0.988210 0.051664 -0.144121
vn 0.988005 0.056097 -0.143875
vn 0.988210 0.051664 -0.144121
vn 0.968863 0.090306 -0.230540
vn 0.969282 0.083899 -0.231201
vn 0.993775 -0.028841 0.107610
vn 0.994047 -0.021352 0.106843
vn 0.994945 -0.028044 0.096426
vn 0.995290 -0.019524 0.094961
vn 0.988610 0.036550 -0.145997
vn 0.988210 0.051664 -0.144121
vn 0.999749 -0.003211 0.022177
vn 0.999675 -0.006061 0.024765
vn 0.988210 0.051664 -0.144121
vn 0.988610 0.036550 -0.145997
vn 0.969282 0.083899 -0.231201
vn 0.970652 0.059073 -0.233119
vn 0.995397 -0.005273 0.095695
vn 0.993883 -0.007924 0.110156
vn 0.995141 0.005612 0.098302
vn 0.993525 0.002172 0.113593
vn 0.999652 0.000210 0.026385
vn 0.990371 -0.014182 -0.137709
vn 0.999800 -0.000927 0.019989
vn 0.988956 0.008881 -0.147942
vn 0.972894 0.017723 -0.230570
vn 0.988956 0.008881 -0.147942
vn 0.974591 -0.015778 -0.223436
vn 0.990371 -0.014182 -0.137709
vn 0.994204 -0.008693 0.107154
vn 0.993908 -0.016072 0.109030
vn 0.999338 -0.001082 0.036365
vn 0.999419 -0.002665 0.033982
vn 0.999519 -0.000472 0.030998
vn 0.999504 -0.000479 0.031488
vn 0.998340 -0.000876 0.057581
vn 0.991256 -0.038757 0.126133
vn 0.992074 -0.039888 0.119159
vn 0.993729 -0.034567 0.106343
vn 0.994079 -0.036548 0.102331
vn 0.999415 -0.010898 0.032433
vn 0.999548 -0.010342 0.028237
vn 0.988600 0.050955 -0.141684
vn 0.988107 0.055477 -0.143415
vn 0.988600 0.050955 -0.141684
vn 0.988107 0.055477 -0.143415
vn 0.969654 0.083045 -0.229945
vn 0.969308 0.088761 -0.229266
vn 0.999800 -0.000927 0.019989
vn 0.995397 -0.005273 0.095695
vn 0.999652 0.000210 0.026385
vn 0.995141 0.005612 0.098302
vn 0.994945 -0.028044 0.096426
vn 0.995290 -0.019524 0.094961
vn 0.999675 -0.006061 0.024765
vn 0.999749 -0.003211 0.022177
vn 0.994509 -0.033742 0.099059
vn 0.994945 -0.028044 0.096426
vn 0.999619 -0.008424 0.026281
vn 0.999675 -0.006061 0.024765
vn 0.993729 -0.034567 0.106343
vn 0.994079 -0.036548 0.102331
vn 0.999415 -0.010898 0.032433
vn 0.999548 -0.010342 0.028237
vn 0.992841 -0.017501 0.118157
vn 0.991402 -0.029962 0.127375
vn 0.993908 -0.016072 0.109030
vn 0.993674 -0.026404 0.109152
vn 0.993674 -0.026404 0.109152
vn 0.993729 -0.034567 0.106343
vn 0.999433 -0.007513 0.032835
vn 0.999415 -0.010898 0.032433
vn 0.999433 -0.007513 0.032835
vn 0.999415 -0.010898 0.032433
vn 0.988462 0.042732 -0.145316
vn 0.988600 0.050955 -0.141684
vn 0.988462 0.042732 -0.145316
vn 0.988600 0.050955 -0.141684
vn 0.970516 0.068936 -0.230967
vn 0.969654 0.083045 -0.229945
vn 0.991402 -0.029962 0.127375
vn 0.991256 -0.038757 0.126133
vn 0.993674 -0.026404 0.109152
vn 0.993729 -0.034567 0.106343
vn 0.999202 -0.008541 -0.039032
vn 0.999210 0.001642 -0.039709
vn 0.999946 -0.008838 0.005533
vn 1.000000 0.000000 0.000000
vn 0.965255 0.236574 -0.110976
vn 0.985286 0.074555 -0.153793
vn 0.987334 0.024365 -0.156776
vn 0.996702 -0.000757 0.081150
vn 0.999769 0.012822 0.017260
vn 0.951232 0.064226 -0.301715
vn 0.995141 0.005612 0.098302
vn 0.993525 0.002172 0.113593
vn 0.994770 0.013999 0.101176
vn 0.993207 0.007662 0.116112
vn 0.999652 0.000210 0.026385
vn 0.995141 0.005612 0.098302
vn 0.999033 0.005777 0.043593
vn 0.994770 0.013999 0.101176
vn 0.990371 -0.014182 -0.137709
vn 0.999652 0.000210 0.026385
vn 0.991931 -0.035540 -0.121692
vn 0.999033 0.005777 0.043593
vn 0.974591 -0.015778 -0.223436
vn 0.990371 -0.014182 -0.137709
vn 0.975392 -0.057550 -0.212833
vn 0.991931 -0.035540 -0.121692
vn 0.999210 0.001642 -0.039709
vn 0.999202 -0.008541 -0.039032
vn 0.964749 0.014279 -0.262785
vn 0.979531 0.009119 -0.201088
vn 0.988107 0.055477 -0.143415
vn 0.988005 0.056097 -0.143875
vn 0.969308 0.088761 -0.229266
vn 0.968863 0.090306 -0.230540
vn 0.999548 -0.010342 0.028237
vn 0.999619 -0.008424 0.026281
vn 0.988107 0.055477 -0.143415
vn 0.988005 0.056097 -0.143875
vn 0.994079 -0.036548 0.102331
vn 0.994509 -0.033742 0.099059
vn 0.999548 -0.010342 0.028237
vn 0.999619 -0.008424 0.026281
vn 0.992074 -0.039888 0.119159
vn 0.993064 -0.035366 0.112133
vn 0.994079 -0.036548 0.102331
vn 0.994509 -0.033742 0.099059
vn 0.994047 -0.021352 0.106843
vn 0.993883 -0.007924 0.110156
vn 0.995290 -0.019524 0.094961
vn 0.995397 -0.005273 0.095695
vn 0.995290 -0.019524 0.094961
vn 0.995397 -0.005273 0.095695
vn 0.999749 -0.003211 0.022177
vn 0.999800 -0.000927 0.019989
vn 0.988956 0.008881 -0.147942
vn 0.988610 0.036550 -0.145997
vn 0.999800 -0.000927 0.019989
vn 0.999749 -0.003211 0.022177
vn 0.970652 0.059073 -0.233119
vn 0.988610 0.036550 -0.145997
vn 0.972894 0.017723 -0.230570
vn 0.988956 0.008881 -0.147942
vn 0.999769 0.012822 0.017260
vn 0.995995 -0.008183 0.089034
vn 0.999523 0.016526 0.026087
vn 0.994997 -0.009535 0.099446
vn 0.994997 -0.009535 0.099446
vn 0.995995 -0.008183 0.089034
vn 0.996010 -0.020226 0.086922
vn 0.997359 -0.012522 0.071550
vn 0.985286 0.074555 -0.153793
vn 0.990803 0.013078 -0.134682
vn 0.987334 0.024365 -0.156776
vn 0.981635 0.018252 -0.189892
vn 0.985286 0.074555 -0.153793
vn 0.999523 0.016526 0.026087
vn 0.990803 0.013078 -0.134682
vn 0.999338 -0.001082 0.036365
vn 0.994204 -0.008693 0.107154
vn 0.999338 -0.001082 0.036365
vn 0.994997 -0.009535 0.099446
vn 0.999523 0.016526 0.026087
vn 0.994204 -0.008693 0.107154
vn 0.994997 -0.009535 0.099446
vn 0.994310 -0.011789 0.105873
vn 0.996010 -0.020226 0.086922
vn 0.981635 0.018252 -0.189892
vn 0.990803 0.013078 -0.134682
vn 0.975881 0.037584 -0.215043
vn 0.989276 0.027745 -0.143399
vn 0.993908 -0.016072 0.109030
vn 0.994204 -0.008693 0.107154
vn 0.992841 -0.017501 0.118157
vn 0.994310 -0.011789 0.105873
vn 0.664814 -0.304586 0.682092
vn 0.722247 -0.095540 0.685005
vn 0.684032 -0.252924 0.684200
vn 0.722991 -0.087924 0.685240
vn 0.906504 0.422148 0.006481
vn 0.887758 0.460282 -0.005098
vn 0.905686 0.423908 0.005952
vn 0.887758 0.460282 -0.005098
vn 0.539476 -0.200714 0.817728
vn 0.521672 -0.223786 0.823273
vn 0.538790 -0.201501 0.817987
vn 0.520068 -0.225959 0.823694
vn 0.636587 0.060791 -0.768805
vn 0.613655 0.214833 -0.759786
vn 0.634291 0.082617 -0.768667
vn 0.612084 0.222553 -0.758830
vn 0.596400 0.290668 -0.748211
vn 0.598912 0.280663 -0.750022
vn 0.596258 0.291226 -0.748107
vn 0.600267 0.275143 -0.750983
vn 0.545461 -0.164478 0.821839
vn 0.539476 -0.200714 0.817728
vn 0.545430 -0.167346 0.821281
vn 0.538790 -0.201501 0.817987
vn 0.598912 0.280663 -0.750022
vn 0.614794 0.209092 -0.760466
vn 0.600267 0.275143 -0.750983
vn 0.618499 0.189598 -0.762569
vn 0.528642 0.005039 0.848830
vn 0.528815 0.003509 0.848730
vn 0.539901 -0.084908 0.837435
vn 0.539649 -0.082875 0.837801
vn 0.634219 0.083242 -0.768660
vn 0.643365 -0.045546 -0.764204
vn 0.635335 0.073037 -0.768775
vn 0.643408 -0.047029 -0.764078
vn 0.722247 -0.095540 0.685005
vn 0.726903 -0.036353 0.685777
vn 0.722991 -0.087924 0.685240
vn 0.726903 -0.036353 0.685777
vn 0.906504 0.422148 0.006481
vn 0.905686 0.423908 0.005952
vn 0.918640 0.394824 0.014620
vn 0.918640 0.394824 0.014620
vn 0.496542 -0.243428 0.833180
vn 0.474498 -0.239358 0.847089
vn 0.494947 -0.243688 0.834053
vn 0.473965 -0.238911 0.847513
vn 0.602223 0.267012 -0.752351
vn 0.597222 0.287422 -0.748809
vn 0.600560 0.273933 -0.751191
vn 0.597048 0.288112 -0.748682
vn 0.472676 -0.222538 0.852675
vn 0.503246 -0.190627 0.842855
vn 0.473481 -0.221229 0.852569
vn 0.505639 -0.188540 0.841892
vn 0.613655 0.214833 -0.759786
vn 0.602223 0.267012 -0.752351
vn 0.612084 0.222553 -0.758830
vn 0.600560 0.273933 -0.751191
vn 0.474498 -0.239358 0.847089
vn 0.472676 -0.222538 0.852675
vn 0.473965 -0.238911 0.847513
vn 0.473481 -0.221229 0.852569
vn 0.868826 0.495062 -0.007401
vn 0.880744 0.473159 -0.020252
vn 0.868826 0.495062 -0.007401
vn 0.881787 0.471161 -0.021413
vn 0.573801 -0.426157 -0.699387
vn 0.573801 -0.426157 -0.699387
vn 0.603705 -0.352099 -0.715238
vn 0.611561 -0.330379 -0.718918
vn 0.651174 -0.757832 0.040788
vn 0.665034 -0.746453 0.023193
vn 0.652716 -0.756606 0.038858
vn 0.665034 -0.746453 0.023193
vn 0.520230 0.069211 0.851217
vn 0.520230 0.069211 0.851217
vn 0.528642 0.005039 0.848830
vn 0.528815 0.003509 0.848730
vn 0.629051 -0.777212 -0.015403
vn 0.651174 -0.757832 0.040788
vn 0.633075 -0.774086 0.002533
vn 0.652716 -0.756606 0.038858
vn 0.649440 -0.755669 -0.084805
vn 0.642040 -0.762195 -0.082724
vn 0.633075 -0.774086 0.002533
vn 0.629051 -0.777212 -0.015403
vn 0.643365 -0.045546 -0.764204
vn 0.641986 -0.169596 -0.747724
vn 0.643408 -0.047029 -0.764078
vn 0.641986 -0.169596 -0.747724
vn 0.683517 -0.723788 -0.094524
vn 0.683517 -0.723788 -0.094524
vn 0.649440 -0.755669 -0.084805
vn 0.642040 -0.762195 -0.082724
vn 0.880744 0.473159 -0.020252
vn 0.891488 0.451875 -0.032521
vn 0.881787 0.471161 -0.021413
vn 0.891488 0.451875 -0.032521
vn 0.884827 0.026365 -0.465174
vn 0.964749 0.014279 -0.262785
vn 0.871105 0.058755 -0.487570
vn 0.979531 0.009119 -0.201088
vn 0.575253 0.330037 -0.748438
vn 0.575254 0.330037 -0.748438
vn 0.575254 0.330037 -0.748438
vn 0.575254 0.330037 -0.748438
vn 0.597222 0.287422 -0.748809
vn 0.596400 0.290668 -0.748211
vn 0.597048 0.288112 -0.748682
vn 0.596258 0.291226 -0.748107
vn 0.521672 -0.223786 0.823273
vn 0.496542 -0.243428 0.833180
vn 0.520068 -0.225959 0.823694
vn 0.494947 -0.243688 0.834053
vn 0.539649 -0.082875 0.837801
vn 0.545461 -0.164478 0.821839
vn 0.539901 -0.084908 0.837435
vn 0.545430 -0.167346 0.821281
vn 0.614794 0.209092 -0.760466
vn 0.634219 0.083242 -0.768660
vn 0.618499 0.189598 -0.762569
vn 0.635335 0.073037 -0.768775
vn 0.587932 -0.331320 0.737945
vn 0.664814 -0.304586 0.682092
vn 0.590294 -0.369304 0.717752
vn 0.684032 -0.252924 0.684200
vn 0.603705 -0.352099 -0.715238
vn 0.611561 -0.330379 -0.718918
vn 0.641185 -0.183659 -0.745085
vn 0.641640 -0.175963 -0.746549
vn 0.541673 -0.178993 0.821311
vn 0.587932 -0.331320 0.737945
vn 0.545477 -0.181017 0.818344
vn 0.590294 -0.369304 0.717752
vn 0.641185 -0.183659 -0.745085
vn 0.641640 -0.175963 -0.746549
vn 0.634291 0.082617 -0.768667
vn 0.636587 0.060791 -0.768805
vn 0.503246 -0.190627 0.842855
vn 0.541673 -0.178993 0.821311
vn 0.505639 -0.188540 0.841892
vn 0.545477 -0.181017 0.818344
vn 0.996702 -0.000757 0.081150
vn 0.994441 0.000953 0.105288
vn 0.996396 -0.004709 0.084689
vn 0.996396 -0.004709 0.084689
vn 0.997872 -0.005220 0.064998
vn 0.997729 -0.006888 0.067010
vn 0.997895 -0.032901 -0.055878
vn 0.999202 -0.008541 -0.039032
vn 0.999363 -0.027674 0.022512
vn 0.999946 -0.008838 0.005533
vn 0.994479 -0.051813 -0.091248
vn 0.997895 -0.032901 -0.055878
vn 0.998222 0.001545 0.059592
vn 0.999363 -0.027674 0.022512
vn 0.999891 -0.014608 0.002243
vn 0.999891 -0.014608 0.002243
vn 0.999943 -0.010597 0.001627
vn 0.987334 0.024365 -0.156776
vn 0.995854 -0.026215 -0.087107
vn 0.997895 -0.032901 -0.055878
vn 0.992621 -0.057306 -0.106860
vn 0.994479 -0.051813 -0.091248
vn 0.999202 -0.008541 -0.039032
vn 0.997895 -0.032901 -0.055878
vn 0.979531 0.009119 -0.201088
vn 0.995854 -0.026215 -0.087107
vn 0.979531 0.009119 -0.201088
vn 0.841414 0.118979 -0.527130
vn 0.871105 0.058755 -0.487570
vn 0.841414 0.118979 -0.527130
vn 0.283982 0.840979 0.460553
vn 0.454790 0.524276 0.719931
vn 0.302342 0.818403 0.488678
vn 0.454790 0.524276 0.719931
vn 0.283982 0.840979 0.460553
vn 0.302342 0.818403 0.488678
vn 0.243257 0.884536 0.398024
vn 0.243256 0.884536 0.398024
vn 0.330183 0.887256 -0.322113
vn 0.379241 0.863211 -0.333232
vn 0.330183 0.887256 -0.322113
vn 0.435785 0.831282 -0.345054
vn 0.574811 0.730438 -0.368854
vn 0.435785 0.831282 -0.345054
vn 0.574811 0.730438 -0.368854
vn 0.379241 0.863211 -0.333232
vn 0.981635 0.018252 -0.189892
vn 0.999943 -0.010597 0.001627
vn 0.987334 0.024365 -0.156776
vn 0.446438 0.830464 -0.333201
vn 0.446438 0.830464 -0.333201
vn 0.446438 0.830464 -0.333201
vn 0.446438 0.830464 -0.333201
vn 0.482043 0.741268 -0.467072
vn 0.487965 0.741241 -0.460925
vn 0.501695 0.740968 -0.446396
vn 0.501695 0.740968 -0.446396
vn 0.426320 0.703257 -0.568930
vn 0.351003 0.566523 -0.745552
vn 0.427900 0.705251 -0.565263
vn 0.339068 0.540652 -0.769888
vn 0.325221 0.510957 -0.795710
vn 0.339068 0.540652 -0.769888
vn 0.325221 0.510957 -0.795710
vn 0.351003 0.566523 -0.745552
vn 0.269477 0.021476 -0.962767
vn 0.269477 0.021476 -0.962767
vn 0.269477 0.021476 -0.962767
vn 0.269477 0.021476 -0.962767
vn 0.358427 0.298307 -0.884615
vn 0.358427 0.298307 -0.884615
vn 0.358427 0.298307 -0.884615
vn 0.358427 0.298307 -0.884615
vn 0.455376 0.656738 0.601105
vn 0.455376 0.656738 0.601105
vn 0.455376 0.656738 0.601105
vn 0.455376 0.656738 0.601105
vn 0.487965 0.741241 -0.460925
vn 0.482043 0.741268 -0.467072
vn 0.427900 0.705251 -0.565263
vn 0.426320 0.703257 -0.568930
vn 0.965255 0.236574 -0.110976
vn 0.971002 0.167695 -0.170393
vn 0.985286 0.074555 -0.153793
vn 0.999523 0.016526 0.026087
vn -0.999433 -0.007513 0.032835
vn -0.993674 -0.026405 0.109152
vn -0.999419 -0.002665 0.033982
vn -0.993908 -0.016072 0.109030
vn -0.995995 -0.008183 0.089034
vn -0.996396 -0.004709 0.084689
vn -0.999769 0.012822 0.017260
vn -0.996702 -0.000757 0.081150
vn -0.995995 -0.008183 0.089034
vn -0.997359 -0.012521 0.071550
vn -0.996396 -0.004709 0.084689
vn -0.997729 -0.006888 0.067010
vn -1.000000 0.000000 0.000000
vn -0.999519 -0.000472 0.030998
vn -0.999504 -0.000479 0.031488
vn -0.999523 0.016526 0.026087
vn -0.999769 0.012822 0.017260
vn -0.971002 0.167695 -0.170393
vn -0.951232 0.064226 -0.301715
vn -0.989276 0.027745 -0.143399
vn -0.999419 -0.002665 0.033982
vn -0.990803 0.013078 -0.134682
vn -0.999338 -0.001082 0.036365
vn -0.988462 0.042732 -0.145316
vn -0.999433 -0.007513 0.032835
vn -0.989276 0.027745 -0.143399
vn -0.999419 -0.002665 0.033982
vn -0.994945 -0.028044 0.096426
vn -0.993775 -0.028841 0.107610
vn -0.994509 -0.033742 0.099059
vn -0.993064 -0.035366 0.112133
vn -0.989276 0.027745 -0.143399
vn -0.975881 0.037584 -0.215043
vn -0.988462 0.042732 -0.145316
vn -0.970516 0.068936 -0.230967
vn -0.988210 0.051664 -0.144121
vn -0.999675 -0.006061 0.024765
vn -0.988005 0.056097 -0.143875
vn -0.999619 -0.008424 0.026281
vn -0.969282 0.083899 -0.231201
vn -0.988210 0.051664 -0.144121
vn -0.968863 0.090306 -0.230540
vn -0.988005 0.056097 -0.143875
vn -0.993775 -0.028841 0.107610
vn -0.994945 -0.028044 0.096426
vn -0.994047 -0.021351 0.106843
vn -0.995290 -0.019524 0.094961
vn -0.988610 0.036550 -0.145997
vn -0.999749 -0.003211 0.022177
vn -0.988210 0.051664 -0.144121
vn -0.999675 -0.006061 0.024765
vn -0.970652 0.059073 -0.233119
vn -0.988610 0.036550 -0.145997
vn -0.969282 0.083899 -0.231201
vn -0.988210 0.051664 -0.144121
vn -0.993525 0.002172 0.113593
vn -0.993883 -0.007924 0.110156
vn -0.995141 0.005613 0.098302
vn -0.995397 -0.005273 0.095695
vn -0.988956 0.008881 -0.147942
vn -0.990371 -0.014182 -0.137709
vn -0.999800 -0.000927 0.019989
vn -0.999652 0.000210 0.026385
vn -0.972894 0.017722 -0.230570
vn -0.974591 -0.015778 -0.223436
vn -0.988956 0.008881 -0.147942
vn -0.990371 -0.014182 -0.137709
vn -0.994204 -0.008693 0.107154
vn -0.999338 -0.001082 0.036365
vn -0.993908 -0.016072 0.109030
vn -0.999419 -0.002665 0.033982
vn -0.999519 -0.000472 0.030998
vn -0.998340 -0.000876 0.057581
vn -0.999504 -0.000479 0.031488
vn -0.994079 -0.036549 0.102331
vn -0.992074 -0.039888 0.119159
vn -0.993728 -0.034567 0.106344
vn -0.991256 -0.038757 0.126133
vn -0.988107 0.055477 -0.143415
vn -0.999548 -0.010342 0.028237
vn -0.988600 0.050955 -0.141684
vn -0.999415 -0.010898 0.032433
vn -0.969308 0.088761 -0.229266
vn -0.988107 0.055477 -0.143415
vn -0.969654 0.083045 -0.229945
vn -0.988600 0.050955 -0.141684
vn -0.995141 0.005613 0.098302
vn -0.995397 -0.005273 0.095695
vn -0.999652 0.000210 0.026385
vn -0.999800 -0.000927 0.019989
vn -0.994945 -0.028044 0.096426
vn -0.999675 -0.006061 0.024765
vn -0.995290 -0.019524 0.094961
vn -0.999749 -0.003211 0.022177
vn -0.999675 -0.006061 0.024765
vn -0.994945 -0.028044 0.096426
vn -0.999619 -0.008424 0.026281
vn -0.994509 -0.033742 0.099059
vn -0.999548 -0.010342 0.028237
vn -0.994079 -0.036549 0.102331
vn -0.999415 -0.010898 0.032433
vn -0.993728 -0.034567 0.106344
vn -0.993674 -0.026405 0.109152
vn -0.991402 -0.029962 0.127375
vn -0.993908 -0.016072 0.109030
vn -0.992841 -0.017501 0.118157
vn -0.999415 -0.010898 0.032433
vn -0.993728 -0.034567 0.106344
vn -0.999433 -0.007513 0.032835
vn -0.993674 -0.026405 0.109152
vn -0.988600 0.050955 -0.141684
vn -0.999415 -0.010898 0.032433
vn -0.988462 0.042732 -0.145316
vn -0.999433 -0.007513 0.032835
vn -0.969654 0.083045 -0.229945
vn -0.988600 0.050955 -0.141684
vn -0.970516 0.068936 -0.230967
vn -0.988462 0.042732 -0.145316
vn -0.991402 -0.029962 0.127375
vn -0.993674 -0.026405 0.109152
vn -0.991256 -0.038757 0.126133
vn -0.993728 -0.034567 0.106344
vn -0.999202 -0.008541 -0.039032
vn -0.999946 -0.008838 0.005533
vn -0.999210 0.001642 -0.039709
vn -1.000000 0.000000 0.000000
vn -0.965255 0.236575 -0.110976
vn -0.987334 0.024365 -0.156776
vn -0.985286 0.074555 -0.153793
vn -0.996702 -0.000757 0.081150
vn -0.951232 0.064226 -0.301715
vn -0.999769 0.012822 0.017260
vn -0.993207 0.007662 0.116112
vn -0.993525 0.002172 0.113593
vn -0.994770 0.013999 0.101176
vn -0.995141 0.005613 0.098302
vn -0.994770 0.013999 0.101176
vn -0.995141 0.005613 0.098302
vn -0.999033 0.005777 0.043593
vn -0.999652 0.000210 0.026385
vn -0.990371 -0.014182 -0.137709
vn -0.991931 -0.035540 -0.121692
vn -0.999652 0.000210 0.026385
vn -0.999033 0.005777 0.043593
vn -0.974591 -0.015778 -0.223436
vn -0.975392 -0.057550 -0.212833
vn -0.990371 -0.014182 -0.137709
vn -0.991931 -0.035540 -0.121692
vn -0.999210 0.001642 -0.039709
vn -0.964749 0.014279 -0.262785
vn -0.999202 -0.008541 -0.039032
vn -0.979531 0.009119 -0.201088
vn -0.968863 0.090306 -0.230540
vn -0.988005 0.056097 -0.143875
vn -0.969308 0.088761 -0.229266
vn -0.988107 0.055477 -0.143415
vn -0.988005 0.056097 -0.143875
vn -0.999619 -0.008424 0.026281
vn -0.988107 0.055477 -0.143415
vn -0.999548 -0.010342 0.028237
vn -0.999619 -0.008424 0.026281
vn -0.994509 -0.033742 0.099059
vn -0.999548 -0.010342 0.028237
vn -0.994079 -0.036549 0.102331
vn -0.994509 -0.033742 0.099059
vn -0.993064 -0.035366 0.112133
vn -0.994079 -0.036549 0.102331
vn -0.992074 -0.039888 0.119159
vn -0.995397 -0.005273 0.095695
vn -0.993883 -0.007924 0.110156
vn -0.995290 -0.019524 0.094961
vn -0.994047 -0.021351 0.106843
vn -0.999800 -0.000927 0.019989
vn -0.995397 -0.005273 0.095695
vn -0.999749 -0.003211 0.022177
vn -0.995290 -0.019524 0.094961
vn -0.988956 0.008881 -0.147942
vn -0.999800 -0.000927 0.019989
vn -0.988610 0.036550 -0.145997
vn -0.999749 -0.003211 0.022177
vn -0.970652 0.059073 -0.233119
vn -0.972894 0.017722 -0.230570
vn -0.988610 0.036550 -0.145997
vn -0.988956 0.008881 -0.147942
vn -0.994997 -0.009535 0.099446
vn -0.995995 -0.008183 0.089034
vn -0.999523 0.016526 0.026087
vn -0.999769 0.012822 0.017260
vn -0.994997 -0.009535 0.099446
vn -0.996010 -0.020227 0.086922
vn -0.995995 -0.008183 0.089034
vn -0.997359 -0.012521 0.071550
vn -0.985286 0.074555 -0.153793
vn -0.987334 0.024365 -0.156776
vn -0.990803 0.013078 -0.134682
vn -0.981635 0.018251 -0.189892
vn -0.999338 -0.001082 0.036365
vn -0.999523 0.016526 0.026087
vn -0.990803 0.013078 -0.134682
vn -0.985286 0.074555 -0.153793
vn -0.994204 -0.008693 0.107154
vn -0.994997 -0.009535 0.099446
vn -0.999338 -0.001082 0.036365
vn -0.999523 0.016526 0.026087
vn -0.996010 -0.020227 0.086922
vn -0.994997 -0.009535 0.099446
vn -0.994310 -0.011789 0.105873
vn -0.994204 -0.008693 0.107154
vn -0.989276 0.027745 -0.143399
vn -0.990803 0.013078 -0.134682
vn -0.975881 0.037584 -0.215043
vn -0.981635 0.018251 -0.189892
vn -0.993908 -0.016072 0.109030
vn -0.992841 -0.017501 0.118157
vn -0.994204 -0.008693 0.107154
vn -0.994310 -0.011789 0.105873
vn -0.722991 -0.087924 0.685240
vn -0.722247 -0.095540 0.685005
vn -0.684032 -0.252924 0.684200
vn -0.664814 -0.304586 0.682092
vn -0.887758 0.460282 -0.005098
vn -0.887758 0.460282 -0.005098
vn -0.905686 0.423908 0.005952
vn -0.906504 0.422148 0.006481
vn -0.520068 -0.225959 0.823694
vn -0.521673 -0.223786 0.823272
vn -0.538791 -0.201501 0.817987
vn -0.539476 -0.200714 0.817728
vn -0.612084 0.222553 -0.758830
vn -0.613655 0.214833 -0.759786
vn -0.634291 0.082617 -0.768668
vn -0.636587 0.060791 -0.768805
vn -0.600268 0.275143 -0.750983
vn -0.598913 0.280663 -0.750021
vn -0.596258 0.291226 -0.748107
vn -0.596400 0.290668 -0.748211
vn -0.538791 -0.201501 0.817987
vn -0.539476 -0.200714 0.817728
vn -0.545429 -0.167346 0.821281
vn -0.545460 -0.164478 0.821839
vn -0.618499 0.189598 -0.762569
vn -0.614794 0.209092 -0.760466
vn -0.600268 0.275143 -0.750983
vn -0.598913 0.280663 -0.750021
vn -0.528642 0.005039 0.848830
vn -0.539902 -0.084908 0.837435
vn -0.528815 0.003509 0.848730
vn -0.539649 -0.082875 0.837801
vn -0.643407 -0.047029 -0.764078
vn -0.643364 -0.045546 -0.764204
vn -0.635335 0.073037 -0.768775
vn -0.634218 0.083242 -0.768660
vn -0.726903 -0.036353 0.685777
vn -0.726903 -0.036353 0.685777
vn -0.722991 -0.087924 0.685240
vn -0.722247 -0.095540 0.685005
vn -0.918640 0.394824 0.014620
vn -0.905686 0.423908 0.005952
vn -0.918640 0.394824 0.014620
vn -0.906504 0.422148 0.006481
vn -0.473965 -0.238911 0.847513
vn -0.474499 -0.239358 0.847088
vn -0.494947 -0.243688 0.834052
vn -0.496542 -0.243428 0.833180
vn -0.597048 0.288112 -0.748682
vn -0.597222 0.287422 -0.748809
vn -0.600561 0.273933 -0.751190
vn -0.602224 0.267011 -0.752351
vn -0.505639 -0.188540 0.841892
vn -0.503247 -0.190627 0.842855
vn -0.473482 -0.221229 0.852568
vn -0.472676 -0.222538 0.852675
vn -0.600561 0.273933 -0.751190
vn -0.602224 0.267011 -0.752351
vn -0.612084 0.222553 -0.758830
vn -0.613655 0.214833 -0.759786
vn -0.473482 -0.221229 0.852568
vn -0.472676 -0.222538 0.852675
vn -0.473965 -0.238911 0.847513
vn -0.474499 -0.239358 0.847088
vn -0.868826 0.495062 -0.007401
vn -0.868826 0.495062 -0.007401
vn -0.880744 0.473159 -0.020252
vn -0.881787 0.471161 -0.021413
vn -0.573801 -0.426157 -0.699387
vn -0.603706 -0.352099 -0.715238
vn -0.573801 -0.426157 -0.699387
vn -0.611561 -0.330378 -0.718918
vn -0.665034 -0.746453 0.023193
vn -0.665034 -0.746453 0.023193
vn -0.652715 -0.756606 0.038858
vn -0.651174 -0.757832 0.040788
vn -0.520230 0.069211 0.851217
vn -0.528642 0.005039 0.848830
vn -0.520230 0.069211 0.851217
vn -0.528815 0.003509 0.848730
vn -0.652715 -0.756606 0.038858
vn -0.651174 -0.757832 0.040788
vn -0.633075 -0.774086 0.002533
vn -0.629051 -0.777212 -0.015403
vn -0.649440 -0.755669 -0.084805
vn -0.633075 -0.774086 0.002533
vn -0.642040 -0.762195 -0.082724
vn -0.629051 -0.777212 -0.015403
vn -0.641985 -0.169596 -0.747725
vn -0.641985 -0.169596 -0.747725
vn -0.643407 -0.047029 -0.764078
vn -0.643364 -0.045546 -0.764204
vn -0.683517 -0.723788 -0.094524
vn -0.649440 -0.755669 -0.084805
vn -0.683517 -0.723788 -0.094524
vn -0.642040 -0.762195 -0.082724
vn -0.891488 0.451875 -0.032521
vn -0.891488 0.451875 -0.032521
vn -0.881787 0.471161 -0.021413
vn -0.880744 0.473159 -0.020252
vn -0.884827 0.026365 -0.465174
vn -0.871105 0.058755 -0.487570
vn -0.964749 0.014279 -0.262785
vn -0.979531 0.009119 -0.201088
vn -0.575254 0.330037 -0.748438
vn -0.575254 0.330037 -0.748437
vn -0.575254 0.330037 -0.748438
vn -0.575254 0.330037 -0.748438
vn -0.596258 0.291226 -0.748107
vn -0.596400 0.290668 -0.748211
vn -0.597048 0.288112 -0.748682
vn -0.597222 0.287422 -0.748809
vn -0.494947 -0.243688 0.834052
vn -0.496542 -0.243428 0.833180
vn -0.520068 -0.225959 0.823694
vn -0.521673 -0.223786 0.823272
vn -0.545429 -0.167346 0.821281
vn -0.545460 -0.164478 0.821839
vn -0.539902 -0.084908 0.837435
vn -0.539649 -0.082875 0.837801
vn -0.635335 0.073037 -0.768775
vn -0.634218 0.083242 -0.768660
vn -0.618499 0.189598 -0.762569
vn -0.614794 0.209092 -0.760466
vn -0.684032 -0.252924 0.684200
vn -0.664814 -0.304586 0.682092
vn -0.590294 -0.369304 0.717752
vn -0.587933 -0.331320 0.737945
vn -0.603706 -0.352099 -0.715238
vn -0.641185 -0.183659 -0.745085
vn -0.611561 -0.330378 -0.718918
vn -0.641640 -0.175963 -0.746549
vn -0.590294 -0.369304 0.717752
vn -0.587933 -0.331320 0.737945
vn -0.545477 -0.181017 0.818344
vn -0.541673 -0.178994 0.821311
vn -0.641185 -0.183659 -0.745085
vn -0.634291 0.082617 -0.768668
vn -0.641640 -0.175963 -0.746549
vn -0.636587 0.060791 -0.768805
vn -0.545477 -0.181017 0.818344
vn -0.541673 -0.178994 0.821311
vn -0.505639 -0.188540 0.841892
vn -0.503247 -0.190627 0.842855
vn -0.996702 -0.000757 0.081150
vn -0.996396 -0.004709 0.084689
vn -0.994441 0.000953 0.105288
vn -0.996396 -0.004709 0.084689
vn -0.997729 -0.006888 0.067010
vn -0.997872 -0.005220 0.064998
vn -0.997895 -0.032901 -0.055877
vn -0.999363 -0.027674 0.022512
vn -0.999202 -0.008541 -0.039032
vn -0.999946 -0.008838 0.005533
vn -0.994479 -0.051813 -0.091248
vn -0.998222 0.001545 0.059592
vn -0.997895 -0.032901 -0.055877
vn -0.999363 -0.027674 0.022512
vn -0.999891 -0.014608 0.002243
vn -0.999943 -0.010597 0.001627
vn -0.999891 -0.014608 0.002243
vn -0.987334 0.024365 -0.156776
vn -0.995854 -0.026215 -0.087107
vn -0.992621 -0.057306 -0.106860
vn -0.997895 -0.032901 -0.055877
vn -0.994479 -0.051813 -0.091248
vn -0.995854 -0.026215 -0.087107
vn -0.997895 -0.032901 -0.055877
vn -0.979531 0.009119 -0.201088
vn -0.999202 -0.008541 -0.039032
vn -0.841415 0.118979 -0.527129
vn -0.841415 0.118979 -0.527129
vn -0.871105 0.058755 -0.487570
vn -0.979531 0.009119 -0.201088
vn -0.454789 0.524276 0.719931
vn -0.454789 0.524276 0.719931
vn -0.302342 0.818403 0.488678
vn -0.283982 0.840979 0.460553
vn -0.283982 0.840979 0.460553
vn -0.243257 0.884535 0.398024
vn -0.302342 0.818403 0.488678
vn -0.243257 0.884535 0.398024
vn -0.435785 0.831282 -0.345054
vn -0.379241 0.863211 -0.333232
vn -0.330183 0.887256 -0.322113
vn -0.330183 0.887256 -0.322113
vn -0.574810 0.730438 -0.368854
vn -0.574810 0.730438 -0.368854
vn -0.435785 0.831282 -0.345054
vn -0.379241 0.863211 -0.333232
vn -0.981635 0.018251 -0.189892
vn -0.987334 0.024365 -0.156776
vn -0.999943 -0.010597 0.001627
vn -0.446439 0.830464 -0.333199
vn -0.446439 0.830464 -0.333199
vn -0.446439 0.830464 -0.333199
vn -0.446439 0.830464 -0.333199
vn -0.501695 0.740967 -0.446397
vn -0.487965 0.741241 -0.460925
vn -0.501695 0.740967 -0.446397
vn -0.482044 0.741268 -0.467072
vn -0.339068 0.540652 -0.769889
vn -0.351003 0.566524 -0.745552
vn -0.427901 0.705251 -0.565263
vn -0.426322 0.703257 -0.568929
vn -0.351003 0.566524 -0.745552
vn -0.339068 0.540652 -0.769889
vn -0.325220 0.510957 -0.795710
vn -0.325220 0.510957 -0.795710
vn -0.269476 0.021476 -0.962768
vn -0.269476 0.021476 -0.962768
vn -0.269476 0.021476 -0.962768
vn -0.269476 0.021476 -0.962768
vn -0.358427 0.298307 -0.884615
vn -0.358427 0.298307 -0.884615
vn -0.358427 0.298307 -0.884615
vn -0.358427 0.298307 -0.884615
vn -0.455376 0.656739 0.601105
vn -0.455376 0.656739 0.601105
vn -0.455376 0.656739 0.601105
vn -0.455376 0.656739 0.601105
vn -0.487965 0.741241 -0.460925
vn -0.427901 0.705251 -0.565263
vn -0.482044 0.741268 -0.467072
vn -0.426322 0.703257 -0.568929
vn -0.999523 0.016526 0.026087
vn -0.971002 0.167695 -0.170393
vn -0.985286 0.074555 -0.153793
vn -0.965255 0.236575 -0.110976
s 1
g gun_wood
f 38/1/1 40/2/2 37/4/3
f 37/4/3 40/2/2 39/3/4
s 2
f 44/6/5 43/7/6 41/5/7
f 41/5/7 43/7/6 42/8/8
s 3
f 42/8/9 43/7/10 45/10/11
f 45/10/11 43/7/10 46/9/12
s off
f 118/11/13 47/12/14 119/13/15
s 4
f 112/15/16 41/5/17 131/14/18
f 131/14/18 41/5/17 50/16/19
s 5
f 54/18/20 40/2/21 53/17/22
f 53/17/22 40/2/21 52/19/23
s 6
f 55/20/24 52/19/25 38/1/26
f 38/1/26 52/19/25 40/2/27
s 7
f 59/22/28 58/23/29 57/21/30
f 57/21/30 58/23/29 56/24/31
s 8
f 61/25/32 60/26/33 55/20/34
f 55/20/34 60/26/33 52/19/35
s 9
f 65/28/36 64/29/37 62/27/38
f 62/27/38 64/29/37 63/30/39
s 10
f 62/27/40 63/30/41 66/31/42
f 66/31/42 63/30/41 67/32/43
s 11
f 58/23/44 69/33/45 56/24/46
f 56/24/46 69/33/45 68/34/47
s 12
f 71/35/48 63/30/49 70/36/50
f 70/36/50 63/30/49 64/29/51
s 13
f 63/30/52 71/35/53 67/32/54
f 67/32/54 71/35/53 72/37/55
s 14
f 76/39/56 75/40/57 74/38/58
f 74/38/58 75/40/57 73/41/59
s 15
f 80/43/60 79/44/61 78/42/62
f 78/42/62 79/44/61 77/45/63
s 16
f 82/46/64 77/45/65 81/47/66
f 81/47/66 77/45/65 79/44/67
s 17
f 83/48/68 39/3/69 54/18/70
f 54/18/70 39/3/69 40/2/71
s off
f 119/13/72 47/12/73 120/49/74
s 18
f 88/51/75 87/52/76 86/50/77
f 86/50/77 87/52/76 85/53/78
s 19
f 92/55/79 91/56/80 89/54/81
f 89/54/81 91/56/80 90/57/82
s 20
f 89/54/83 90/57/84 93/58/85
f 93/58/85 90/57/84 94/59/86
s 21
f 78/42/87 76/39/88 80/43/89
f 80/43/89 76/39/88 74/38/90
s 22
f 56/24/91 68/34/92 64/29/93
f 64/29/93 68/34/92 70/36/94
s 23
f 57/21/95 56/24/96 65/28/97
f 65/28/97 56/24/96 64/29/98
s 24
f 86/50/99 85/53/100 92/55/101
f 92/55/101 85/53/100 91/56/102
s 25
f 96/60/103 95/61/104 39/3/105
f 39/3/105 95/61/104 37/4/106
s 26
f 37/4/107 86/50/108 38/1/109
f 38/1/109 86/50/108 92/55/110
s 27
f 38/1/111 92/55/112 55/20/113
f 55/20/113 92/55/112 89/54/114
s 28
f 55/20/115 89/54/116 61/25/117
f 61/25/117 89/54/116 93/58/118
s 29
f 95/61/119 88/51/120 37/4/121
f 37/4/121 88/51/120 86/50/122
s 30
f 97/62/123 98/63/124 126/65/125
f 126/65/125 98/63/124 127/64/126
s off
f 113/66/127 49/67/128 114/68/129
f 44/6/130 41/5/131 112/15/132
s 31
f 74/38/133 73/41/134 102/69/135
f 102/69/135 73/41/134 101/70/136
s 32
f 80/43/137 74/38/138 103/71/139
f 103/71/139 74/38/138 102/69/140
s 33
f 79/44/141 80/43/142 104/72/143
f 104/72/143 80/43/142 103/71/144
s 34
f 81/47/145 79/44/146 105/73/147
f 105/73/147 79/44/146 104/72/148
s 35
f 98/63/149 97/62/150 106/75/151
f 106/75/151 97/62/150 107/74/152
s 36
f 90/57/153 62/27/154 94/59/155
f 94/59/155 62/27/154 66/31/156
s 37
f 91/56/157 65/28/158 90/57/159
f 90/57/159 65/28/158 62/27/160
s 38
f 85/53/161 57/21/162 91/56/163
f 91/56/163 57/21/162 65/28/164
s 39
f 87/52/165 59/22/166 85/53/167
f 85/53/167 59/22/166 57/21/168
s 40
f 69/33/169 75/40/170 68/34/171
f 68/34/171 75/40/170 76/39/172
s 41
f 68/34/173 76/39/174 70/36/175
f 70/36/175 76/39/174 78/42/176
s 42
f 77/45/177 71/35/178 78/42/179
f 78/42/179 71/35/178 70/36/180
s 43
f 72/37/181 71/35/182 82/46/183
f 82/46/183 71/35/182 77/45/184
s 44
f 41/5/185 42/8/186 50/16/187
f 50/16/187 42/8/186 108/76/188
s 45
f 108/76/189 42/8/190 109/77/191
f 109/77/191 42/8/190 45/10/192
s 46
f 49/67/193 53/78/194 114/68/195
f 114/68/195 53/78/194 110/79/196
s 47
f 49/67/197 50/16/198 53/78/199
f 53/78/199 50/16/198 54/80/200
s 48
f 83/81/201 54/80/202 108/76/203
f 108/76/203 54/80/202 50/16/204
s 49
f 83/81/205 108/76/206 111/82/207
f 111/82/207 108/76/206 109/77/208
s 50
f 110/83/209 53/17/210 60/26/211
f 60/26/211 53/17/210 52/19/212
s 51
f 39/3/213 83/48/214 96/60/215
f 96/60/215 83/48/214 111/84/216
s 52
f 45/10/217 46/9/218 31/85/219
f 31/85/219 46/9/218 32/86/220
s 53
f 47/12/221 118/11/222 2/87/223
f 2/87/223 118/11/222 117/88/224
s 54
f 58/23/225 59/22/226 5/89/227
f 5/89/227 59/22/226 6/90/228
s 55
f 60/26/229 61/25/230 35/91/231
f 35/91/231 61/25/230 4/92/232
s 56
f 66/31/233 67/32/234 8/93/235
f 8/93/235 67/32/234 9/94/236
s 57
f 69/33/237 58/23/238 10/95/239
f 10/95/239 58/23/238 5/89/240
s 58
f 67/32/241 72/37/242 9/94/243
f 9/94/243 72/37/242 11/96/244
s 59
f 12/97/245 73/41/246 13/98/247
f 13/98/247 73/41/246 75/40/248
s 60
f 82/46/249 81/47/250 14/99/251
f 14/99/251 81/47/250 15/100/252
s 61
f 46/9/253 84/101/254 32/86/255
f 32/86/255 84/101/254 16/102/256
s 62
f 47/12/257 2/87/258 120/49/259
f 120/49/259 2/87/258 121/103/260
s 63
f 87/52/261 88/51/262 17/104/263
f 17/104/263 88/51/262 18/105/264
s 64
f 93/58/265 94/59/266 19/106/267
f 19/106/267 94/59/266 20/107/268
s 65
f 95/61/269 96/60/270 21/108/271
f 21/108/271 96/60/270 36/109/272
s 66
f 61/25/273 93/58/274 4/92/275
f 4/92/275 93/58/274 19/106/276
s 67
f 88/51/277 95/61/278 18/105/279
f 18/105/279 95/61/278 21/108/280
s 68
f 127/64/281 98/63/282 128/111/283
f 128/111/283 98/63/282 22/110/284
s 69
f 23/112/285 99/113/286 33/115/287
f 33/115/287 99/113/286 100/114/288
s 70
f 102/69/289 101/70/290 24/116/291
f 24/116/291 101/70/290 25/117/292
s 71
f 25/117/293 101/70/294 12/97/295
f 12/97/295 101/70/294 73/41/296
s 72
f 103/71/297 102/69/298 26/118/299
f 26/118/299 102/69/298 24/116/300
s 73
f 27/119/301 104/72/302 26/118/303
f 26/118/303 104/72/302 103/71/304
s 74
f 81/47/305 105/73/306 15/100/307
f 15/100/307 105/73/306 28/120/308
s 75
f 28/120/309 105/73/310 27/119/311
f 27/119/311 105/73/310 104/72/312
s 76
f 98/63/313 106/75/314 22/110/315
f 22/110/315 106/75/314 29/121/316
s 77
f 29/121/317 106/75/318 30/122/319
f 30/122/319 106/75/318 107/74/320
s 78
f 115/123/321 99/124/322 116/126/323
f 116/126/323 99/124/322 23/125/324
s 79
f 94/59/325 66/31/326 20/107/327
f 20/107/327 66/31/326 8/93/328
s 80
f 59/22/329 87/52/330 6/90/331
f 6/90/331 87/52/330 17/104/332
s 81
f 75/40/333 69/33/334 13/98/335
f 13/98/335 69/33/334 10/95/336
s 82
f 72/37/337 82/46/338 11/96/339
f 11/96/339 82/46/338 14/99/340
s 83
f 109/77/341 45/10/342 34/127/343
f 34/127/343 45/10/342 31/85/344
s 84
f 33/115/345 100/114/346 7/128/347
f 7/128/347 100/114/346 110/79/348
s 85
f 111/82/349 109/77/350 1/129/351
f 1/129/351 109/77/350 34/127/352
s 86
f 7/130/353 110/83/354 35/91/355
f 35/91/355 110/83/354 60/26/356
s 87
f 96/60/357 111/84/358 36/109/359
f 36/109/359 111/84/358 1/131/360
s off
f 44/6/361 48/132/362 43/7/363
f 43/7/364 84/101/365 46/9/366
s 88
f 51/133/367 97/62/368 125/134/369
f 125/134/369 97/62/368 126/65/370
s 89
f 124/135/371 51/133/372 130/136/373
f 130/136/373 51/133/372 125/134/374
s 90
f 99/113/375 115/137/376 100/114/377
f 100/114/377 115/137/376 114/68/378
s 91
f 123/138/379 51/133/380 129/139/381
f 129/139/381 51/133/380 124/135/382
s 92
f 97/62/383 51/133/384 107/74/385
f 107/74/385 51/133/384 123/140/386
s 93
f 107/74/387 123/140/388 30/122/389
f 30/122/389 123/140/388 122/141/390
s 94
f 48/132/391 3/142/392 118/11/393
f 118/11/393 3/142/392 117/88/394
s 95
f 48/132/395 118/11/396 43/7/397
f 43/7/397 118/11/396 119/13/398
s 96
f 119/13/399 120/49/400 43/7/401
f 43/7/401 120/49/400 84/101/402
s 97
f 16/102/403 84/101/404 121/103/405
f 121/103/405 84/101/404 120/49/406
s off
f 110/79/407 100/114/408 114/68/409
s 98
f 115/123/410 116/126/411 123/140/412
f 123/140/412 116/126/411 122/141/413
s 99
f 124/135/414 113/66/415 129/139/416
f 129/139/416 113/66/415 114/68/417
s 100
f 130/136/418 125/134/419 131/14/420
f 131/14/420 125/134/419 112/15/421
s 101
f 44/6/422 112/15/423 126/65/424
f 126/65/424 112/15/423 125/134/425
s 102
f 48/132/426 44/6/427 127/64/428
f 127/64/428 44/6/427 126/65/429
s 103
f 48/132/430 127/64/431 3/142/432
f 3/142/432 127/64/431 128/111/433
s 104
f 123/138/434 129/139/435 115/137/436
f 115/137/436 129/139/435 114/68/437
s 105
f 113/66/438 124/135/439 131/14/440
f 131/14/440 124/135/439 130/136/441
s 106
f 113/66/442 131/14/443 49/67/444
f 49/67/444 131/14/443 50/16/445
s 107
f 169/143/446 168/144/447 171/146/448
f 171/146/448 168/144/447 170/145/449
s 108
f 173/148/450 174/149/451 172/147/452
f 172/147/452 174/149/451 175/150/453
s 109
f 173/148/454 176/151/455 174/149/456
f 174/149/456 176/151/455 177/152/457
s off
f 249/153/458 250/154/459 178/155/460
s 110
f 181/157/461 172/147/462 262/156/463
f 262/156/463 172/147/462 243/158/464
s 111
f 183/160/465 171/146/466 184/159/467
f 184/159/467 171/146/466 185/161/468
s 112
f 186/162/469 169/143/470 183/160/471
f 183/160/471 169/143/470 171/146/472
s 113
f 187/164/473 189/165/474 188/163/475
f 188/163/475 189/165/474 190/166/476
s 114
f 183/160/477 191/167/478 186/162/479
f 186/162/479 191/167/478 192/168/480
s 115
f 194/170/481 195/171/482 193/169/483
f 193/169/483 195/171/482 196/172/484
s 116
f 198/174/485 194/170/486 197/173/487
f 197/173/487 194/170/486 193/169/488
s 117
f 189/165/489 187/164/490 200/176/491
f 200/176/491 187/164/490 199/175/492
s 118
f 202/177/493 201/178/494 194/170/495
f 194/170/495 201/178/494 195/171/496
s 119
f 203/179/497 202/177/498 198/174/499
f 198/174/499 202/177/498 194/170/500
s 120
f 204/181/501 206/182/502 205/180/503
f 205/180/503 206/182/502 207/183/504
s 121
f 208/185/505 210/186/506 209/184/507
f 209/184/507 210/186/506 211/187/508
s 122
f 213/188/509 212/189/510 208/185/511
f 208/185/511 212/189/510 210/186/512
s 123
f 214/190/513 185/161/514 170/145/515
f 170/145/515 185/161/514 171/146/516
s off
f 250/154/517 251/191/518 178/155/519
s 124
f 216/193/520 218/194/521 217/192/522
f 217/192/522 218/194/521 219/195/523
s 125
f 221/197/524 222/198/525 220/196/526
f 220/196/526 222/198/525 223/199/527
s 126
f 225/201/528 221/197/529 224/200/530
f 224/200/530 221/197/529 220/196/531
s 127
f 205/180/532 207/183/533 211/187/534
f 211/187/534 207/183/533 209/184/535
s 128
f 187/164/536 195/171/537 199/175/538
f 199/175/538 195/171/537 201/178/539
s 129
f 195/171/540 187/164/541 196/172/542
f 196/172/542 187/164/541 188/163/543
s 130
f 222/198/544 216/193/545 223/199/546
f 223/199/546 216/193/545 217/192/547
s 131
f 168/144/548 226/202/549 170/145/550
f 170/145/550 226/202/549 227/203/551
s 132
f 223/199/552 217/192/553 169/143/554
f 169/143/554 217/192/553 168/144/555
s 133
f 220/196/556 223/199/557 186/162/558
f 186/162/558 223/199/557 169/143/559
s 134
f 224/200/560 220/196/561 192/168/562
f 192/168/562 220/196/561 186/162/563
s 135
f 226/202/564 168/144/565 219/195/566
f 219/195/566 168/144/565 217/192/567
s 136
f 228/204/568 257/205/569 229/207/570
f 229/207/570 257/205/569 258/206/571
s off
f 244/208/572 245/209/573 180/210/574
f 175/150/575 243/158/576 172/147/577
s 137
f 232/212/578 204/181/579 233/211/580
f 233/211/580 204/181/579 205/180/581
s 138
f 233/211/582 205/180/583 234/213/584
f 234/213/584 205/180/583 211/187/585
s 139
f 210/186/586 235/214/587 211/187/588
f 211/187/588 235/214/587 234/213/589
s 140
f 212/189/590 236/215/591 210/186/592
f 210/186/592 236/215/591 235/214/593
s 141
f 229/207/594 237/216/595 228/204/596
f 228/204/596 237/216/595 238/217/597
s 142
f 197/173/598 193/169/599 225/201/600
f 225/201/600 193/169/599 221/197/601
s 143
f 193/169/602 196/172/603 221/197/604
f 221/197/604 196/172/603 222/198/605
s 144
f 196/172/606 188/163/607 222/198/608
f 222/198/608 188/163/607 216/193/609
s 145
f 188/163/610 190/166/611 216/193/612
f 216/193/612 190/166/611 218/194/613
s 146
f 207/183/614 206/182/615 199/175/616
f 199/175/616 206/182/615 200/176/617
s 147
f 209/184/618 207/183/619 201/178/620
f 201/178/620 207/183/619 199/175/621
s 148
f 208/185/622 209/184/623 202/177/624
f 202/177/624 209/184/623 201/178/625
s 149
f 203/179/626 213/188/627 202/177/628
f 202/177/628 213/188/627 208/185/629
s 150
f 239/218/630 173/148/631 181/157/632
f 181/157/632 173/148/631 172/147/633
s 151
f 239/218/634 240/219/635 173/148/636
f 173/148/636 240/219/635 176/151/637
s 152
f 180/210/638 245/209/639 184/221/640
f 184/221/640 245/209/639 241/220/641
s 153
f 185/222/642 181/157/643 184/221/644
f 184/221/644 181/157/643 180/210/645
s 154
f 214/223/646 239/218/647 185/222/648
f 185/222/648 239/218/647 181/157/649
s 155
f 240/219/650 239/218/651 242/224/652
f 242/224/652 239/218/651 214/223/653
s 156
f 183/160/654 184/159/655 191/167/656
f 191/167/656 184/159/655 241/225/657
s 157
f 170/145/658 227/203/659 214/190/660
f 214/190/660 227/203/659 242/226/661
s 158
f 163/228/662 177/152/663 162/227/664
f 162/227/664 177/152/663 176/151/665
s 159
f 248/230/666 249/153/667 133/229/668
f 133/229/668 249/153/667 178/155/669
s 160
f 137/232/670 190/166/671 136/231/672
f 136/231/672 190/166/671 189/165/673
s 161
f 135/234/674 192/168/675 166/233/676
f 166/233/676 192/168/675 191/167/677
s 162
f 140/236/678 198/174/679 139/235/680
f 139/235/680 198/174/679 197/173/681
s 163
f 136/231/682 189/165/683 141/237/684
f 141/237/684 189/165/683 200/176/685
s 164
f 142/238/686 203/179/687 140/236/688
f 140/236/688 203/179/687 198/174/689
s 165
f 143/239/690 144/240/691 204/181/692
f 204/181/692 144/240/691 206/182/693
s 166
f 146/242/694 212/189/695 145/241/696
f 145/241/696 212/189/695 213/188/697
s 167
f 147/243/698 215/244/699 163/228/700
f 163/228/700 215/244/699 177/152/701
s 168
f 252/245/702 133/229/703 251/191/704
f 251/191/704 133/229/703 178/155/705
s 169
f 149/247/706 219/195/707 148/246/708
f 148/246/708 219/195/707 218/194/709
s 170
f 151/249/710 225/201/711 150/248/712
f 150/248/712 225/201/711 224/200/713
s 171
f 167/251/714 227/203/715 152/250/716
f 152/250/716 227/203/715 226/202/717
s 172
f 150/248/718 224/200/719 135/234/720
f 135/234/720 224/200/719 192/168/721
s 173
f 152/250/722 226/202/723 149/247/724
f 149/247/724 226/202/723 219/195/725
s 174
f 258/206/726 259/252/727 229/207/728
f 229/207/728 259/252/727 153/253/729
s 175
f 154/254/730 164/255/731 230/257/732
f 230/257/732 164/255/731 231/256/733
s 176
f 156/259/734 232/212/735 155/258/736
f 155/258/736 232/212/735 233/211/737
s 177
f 156/259/738 143/239/739 232/212/740
f 232/212/740 143/239/739 204/181/741
s 178
f 155/258/742 233/211/743 157/260/744
f 157/260/744 233/211/743 234/213/745
s 179
f 158/261/746 157/260/747 235/214/748
f 235/214/748 157/260/747 234/213/749
s 180
f 159/262/750 236/215/751 146/242/752
f 146/242/752 236/215/751 212/189/753
s 181
f 159/262/754 158/261/755 236/215/756
f 236/215/756 158/261/755 235/214/757
s 182
f 160/263/758 237/216/759 153/253/760
f 153/253/760 237/216/759 229/207/761
s 183
f 160/263/762 161/264/763 237/216/764
f 237/216/764 161/264/763 238/217/765
s 184
f 246/265/766 247/266/767 230/268/768
f 230/268/768 247/266/767 154/267/769
s 185
f 139/235/770 197/173/771 151/249/772
f 151/249/772 197/173/771 225/201/773
s 186
f 148/246/774 218/194/775 137/232/776
f 137/232/776 218/194/775 190/166/777
s 187
f 141/237/778 200/176/779 144/240/780
f 144/240/780 200/176/779 206/182/781
s 188
f 145/241/782 213/188/783 142/238/784
f 142/238/784 213/188/783 203/179/785
s 189
f 162/227/786 176/151/787 165/269/788
f 165/269/788 176/151/787 240/219/789
s 190
f 164/255/790 138/270/791 231/256/792
f 231/256/792 138/270/791 241/220/793
s 191
f 165/269/794 240/219/795 132/271/796
f 132/271/796 240/219/795 242/224/797
s 192
f 138/272/798 166/233/799 241/225/800
f 241/225/800 166/233/799 191/167/801
s 193
f 132/273/802 242/226/803 167/251/804
f 167/251/804 242/226/803 227/203/805
s off
f 175/150/806 174/149/807 179/274/808
f 174/149/809 177/152/810 215/244/811
s 194
f 182/275/812 256/276/813 228/204/814
f 228/204/814 256/276/813 257/205/815
s 195
f 255/277/816 261/278/817 182/275/818
f 182/275/818 261/278/817 256/276/819
s 196
f 230/257/820 231/256/821 246/279/822
f 246/279/822 231/256/821 245/209/823
s 197
f 254/280/824 260/281/825 182/275/826
f 182/275/826 260/281/825 255/277/827
s 198
f 254/282/828 182/275/829 238/217/830
f 238/217/830 182/275/829 228/204/831
s 199
f 253/283/832 254/282/833 161/264/834
f 161/264/834 254/282/833 238/217/835
s 200
f 248/230/836 134/284/837 249/153/838
f 249/153/838 134/284/837 179/274/839
s 201
f 179/274/840 174/149/841 249/153/842
f 249/153/842 174/149/841 250/154/843
s 202
f 215/244/844 251/191/845 174/149/846
f 174/149/846 251/191/845 250/154/847
s 203
f 147/243/848 252/245/849 215/244/850
f 215/244/850 252/245/849 251/191/851
s off
f 241/220/852 245/209/853 231/256/854
s 204
f 253/283/855 247/266/856 254/282/857
f 254/282/857 247/266/856 246/265/858
s 205
f 245/209/859 244/208/860 260/281/861
f 260/281/861 244/208/860 255/277/862
s 206
f 243/158/863 256/276/864 262/156/865
f 262/156/865 256/276/864 261/278/866
s 207
f 256/276/867 243/158/868 257/205/869
f 257/205/869 243/158/868 175/150/870
s 208
f 257/205/871 175/150/872 258/206/873
f 258/206/873 175/150/872 179/274/874
s 209
f 259/252/875 258/206/876 134/284/877
f 134/284/877 258/206/876 179/274/878
s 210
f 245/209/879 260/281/880 246/279/881
f 246/279/881 260/281/880 254/280/882
s 211
f 244/208/883 262/156/884 255/277/885
f 255/277/885 262/156/884 261/278/886
s 212
f 181/157/887 262/156/888 180/210/889
f 180/210/889 262/156/888 244/208/890
