# This file uses centimeters as units for non-parametric coordinates.

g default
v 0.402841 13.300220 5.890513
v 0.385616 13.274468 5.890898
v 0.359845 13.257267 5.891167
v 0.329454 13.251236 5.891282
v 0.299067 13.257294 5.891222
v 0.273312 13.274518 5.890999
v 0.256109 13.300285 5.890646
v 0.250078 13.330674 5.890217
v 0.256136 13.361057 5.889776
v 0.273361 13.386810 5.889392
v 0.299131 13.404011 5.889122
v 0.329523 13.410041 5.889008
v 0.359909 13.403982 5.889067
v 0.385664 13.386760 5.889290
v 0.402867 13.360992 5.889644
v 0.408899 13.330605 5.890073
v 0.254434 13.334304 4.020809
v 0.248376 13.303921 4.021250
v 0.254407 13.273532 4.021679
v 0.271610 13.247766 4.022033
v 0.297365 13.230540 4.022256
v 0.327752 13.224483 4.022315
v 0.358144 13.230515 4.022201
v 0.383914 13.247714 4.021931
v 0.401139 13.273466 4.021547
v 0.407197 13.303850 4.021106
v 0.401165 13.334238 4.020677
v 0.383962 13.360006 4.020324
v 0.358207 13.377230 4.020101
v 0.327821 13.383288 4.020042
v 0.297429 13.377257 4.020156
v 0.271659 13.360057 4.020425
v 0.384325 13.307899 5.890421
v 0.371448 13.288647 5.890708
v 0.369746 13.261893 4.021741
v 0.382623 13.281145 4.021454
v 0.352183 13.275787 5.890909
v 0.350481 13.249034 4.021943
v 0.329462 13.271279 5.890995
v 0.327761 13.244526 4.022028
v 0.306746 13.275808 5.890950
v 0.305044 13.249054 4.021984
v 0.287492 13.288684 5.890784
v 0.285790 13.261931 4.021817
v 0.274632 13.307947 5.890519
v 0.272930 13.281194 4.021553
v 0.270123 13.330667 5.890199
v 0.268421 13.303912 4.021232
v 0.274651 13.353379 5.889869
v 0.272949 13.326626 4.020903
v 0.287529 13.372631 5.889582
v 0.285827 13.345879 4.020615
v 0.306794 13.385490 5.889380
v 0.305092 13.358737 4.020414
v 0.329514 13.389999 5.889295
v 0.327812 13.363245 4.020328
v 0.352230 13.385470 5.889339
v 0.350528 13.358716 4.020373
v 0.371484 13.372594 5.889506
v 0.369782 13.345840 4.020539
v 0.384345 13.353330 5.889770
v 0.382643 13.326576 4.020803
v 0.388854 13.330612 5.890091
v 0.387152 13.303859 4.021124
v 0.254677 13.338126 4.287805
v 0.248619 13.307743 4.288245
v 0.254650 13.277354 4.288675
v 0.271853 13.251587 4.289028
v 0.297608 13.234364 4.289251
v 0.327995 13.228305 4.289310
v 0.358387 13.234336 4.289196
v 0.384157 13.251536 4.288926
v 0.401382 13.277289 4.288542
v 0.407440 13.307673 4.288101
v 0.401408 13.338061 4.287672
v 0.384206 13.363828 4.287319
v 0.358450 13.381052 4.287096
v 0.328064 13.387110 4.287037
v 0.297672 13.381079 4.287151
v 0.271902 13.363878 4.287420
v 0.254920 13.341949 4.554800
v 0.248862 13.311565 4.555241
v 0.254894 13.281177 4.555670
v 0.272096 13.255408 4.556023
v 0.297852 13.238184 4.556246
v 0.328238 13.232127 4.556305
v 0.358630 13.238157 4.556191
v 0.384400 13.255358 4.555922
v 0.401625 13.281110 4.555537
v 0.407683 13.311494 4.555097
v 0.401652 13.341882 4.554667
v 0.384449 13.367650 4.554314
v 0.358694 13.384874 4.554091
v 0.328307 13.390932 4.554032
v 0.297915 13.384901 4.554146
v 0.272145 13.367701 4.554416
v 0.255163 13.345770 4.821795
v 0.249105 13.315387 4.822236
v 0.255137 13.284998 4.822665
v 0.272340 13.259230 4.823018
v 0.298095 13.242006 4.823241
v 0.328481 13.235950 4.823300
v 0.358873 13.241980 4.823186
v 0.384643 13.259180 4.822917
v 0.401868 13.284932 4.822532
v 0.407926 13.315316 4.822092
v 0.401895 13.345704 4.821663
v 0.384692 13.371472 4.821309
v 0.358937 13.388696 4.821086
v 0.328550 13.394754 4.821027
v 0.298158 13.388723 4.821141
v 0.272388 13.371522 4.821411
v 0.255406 13.349592 5.088790
v 0.249348 13.319209 5.089231
v 0.255380 13.288820 5.089660
v 0.272583 13.263052 5.090014
v 0.298338 13.245828 5.090237
v 0.328724 13.239770 5.090296
v 0.359116 13.245801 5.090182
v 0.384886 13.263002 5.089912
v 0.402111 13.288754 5.089528
v 0.408169 13.319139 5.089087
v 0.402138 13.349526 5.088658
v 0.384935 13.375294 5.088305
v 0.359180 13.392518 5.088082
v 0.328793 13.398575 5.088022
v 0.298402 13.392545 5.088137
v 0.272631 13.375344 5.088406
v 0.255649 13.353415 5.355786
v 0.249591 13.323031 5.356226
v 0.255623 13.292641 5.356656
v 0.272826 13.266874 5.357009
v 0.298581 13.249650 5.357232
v 0.328968 13.243592 5.357291
v 0.359359 13.249623 5.357177
v 0.385129 13.266824 5.356907
v 0.402355 13.292576 5.356523
v 0.408413 13.322959 5.356083
v 0.402381 13.353348 5.355653
v 0.385178 13.379116 5.355300
v 0.359423 13.396340 5.355077
v 0.329036 13.402398 5.355018
v 0.298645 13.396367 5.355132
v 0.272875 13.379167 5.355401
v 0.255892 13.357236 5.622781
v 0.249834 13.326852 5.623222
v 0.255866 13.296463 5.623651
v 0.273069 13.270696 5.624004
v 0.298824 13.253472 5.624227
v 0.329211 13.247416 5.624286
v 0.359602 13.253445 5.624172
v 0.385373 13.270646 5.623903
v 0.402598 13.296398 5.623518
v 0.408656 13.326781 5.623078
v 0.402624 13.357170 5.622648
v 0.385421 13.382938 5.622295
v 0.359666 13.400162 5.622072
v 0.329280 13.406220 5.622013
v 0.298888 13.400189 5.622127
v 0.273118 13.382988 5.622397
v 0.382866 13.284967 4.288449
v 0.369989 13.265716 4.288736
v 0.350724 13.252856 4.288938
v 0.328004 13.248348 4.289023
v 0.305287 13.252876 4.288979
v 0.286033 13.265752 4.288812
v 0.273173 13.285016 4.288548
v 0.268664 13.307734 4.288227
v 0.273193 13.330448 4.287898
v 0.286070 13.349700 4.287610
v 0.305335 13.362559 4.287409
v 0.328055 13.367067 4.287324
v 0.350771 13.362538 4.287368
v 0.370025 13.349662 4.287535
v 0.382886 13.330400 4.287799
v 0.387395 13.307681 4.288120
v 0.383109 13.288789 4.555444
v 0.370232 13.269537 4.555731
v 0.350967 13.256679 4.555933
v 0.328247 13.252171 4.556018
v 0.305531 13.256699 4.555974
v 0.286276 13.269574 4.555807
v 0.273416 13.288838 4.555543
v 0.268907 13.311556 4.555222
v 0.273436 13.334270 4.554893
v 0.286313 13.353522 4.554606
v 0.305578 13.366380 4.554404
v 0.328298 13.370889 4.554319
v 0.351015 13.366360 4.554363
v 0.370269 13.353484 4.554530
v 0.383129 13.334221 4.554794
v 0.387638 13.311503 4.555115
v 0.383353 13.292611 4.822439
v 0.370475 13.273359 4.822727
v 0.351210 13.260500 4.822928
v 0.328490 13.255992 4.823014
v 0.305774 13.260520 4.822969
v 0.286520 13.273396 4.822803
v 0.273659 13.292660 4.822539
v 0.269150 13.315378 4.822218
v 0.273679 13.338092 4.821888
v 0.286556 13.357344 4.821601
v 0.305821 13.370202 4.821399
v 0.328541 13.374711 4.821314
v 0.351258 13.370182 4.821358
v 0.370512 13.357306 4.821525
v 0.383372 13.338042 4.821789
v 0.387881 13.315325 4.822110
v 0.383596 13.296433 5.089435
v 0.370718 13.277181 5.089722
v 0.351453 13.264322 5.089924
v 0.328733 13.259814 5.090009
v 0.306017 13.264342 5.089965
v 0.286763 13.277218 5.089798
v 0.273902 13.296482 5.089534
v 0.269393 13.319201 5.089213
v 0.273922 13.341914 5.088883
v 0.286799 13.361166 5.088596
v 0.306064 13.374025 5.088395
v 0.328785 13.378533 5.088309
v 0.351501 13.374004 5.088354
v 0.370755 13.361128 5.088520
v 0.383615 13.341865 5.088784
v 0.388124 13.319146 5.089105
v 0.383839 13.300254 5.356430
v 0.370962 13.281002 5.356717
v 0.351696 13.268145 5.356919
v 0.328976 13.263637 5.357004
v 0.306260 13.268164 5.356960
v 0.287006 13.281040 5.356793
v 0.274145 13.300304 5.356529
v 0.269636 13.323021 5.356208
v 0.274165 13.345737 5.355879
v 0.287042 13.364987 5.355591
v 0.306308 13.377846 5.355390
v 0.329028 13.382355 5.355305
v 0.351744 13.377826 5.355349
v 0.370998 13.364949 5.355516
v 0.383859 13.345686 5.355780
v 0.388368 13.322968 5.356101
v 0.384082 13.304076 5.623425
v 0.371205 13.284825 5.623712
v 0.351940 13.271965 5.623914
v 0.329219 13.267457 5.623999
v 0.306503 13.271986 5.623955
v 0.287249 13.284863 5.623788
v 0.274389 13.304125 5.623524
v 0.269879 13.326843 5.623203
v 0.274408 13.349557 5.622874
v 0.287285 13.368809 5.622587
v 0.306551 13.381668 5.622385
v 0.329271 13.386176 5.622300
v 0.351987 13.381648 5.622344
v 0.371241 13.368773 5.622511
v 0.384102 13.349508 5.622775
v 0.388611 13.326790 5.623096
v 0.402841 13.036876 5.812702
v 0.385616 13.011124 5.813086
v 0.359845 12.993923 5.813356
v 0.329454 12.987892 5.813470
v 0.299067 12.993950 5.813411
v 0.273312 13.011174 5.813188
v 0.256109 13.036942 5.812834
v 0.250078 13.067330 5.812405
v 0.256136 13.097714 5.811965
v 0.273361 13.123466 5.811580
v 0.299131 13.140667 5.811310
v 0.329523 13.146697 5.811197
v 0.359909 13.140639 5.811256
v 0.385664 13.123416 5.811479
v 0.402867 13.097648 5.811832
v 0.408899 13.067259 5.812261
v 0.329488 13.067295 5.812334
v 0.273055 13.118659 5.475804
v 0.255830 13.092907 5.476187
v 0.249772 13.062524 5.476628
v 0.255803 13.032135 5.477058
v 0.273006 13.006368 5.477411
v 0.298761 12.989144 5.477634
v 0.329148 12.983087 5.477693
v 0.359540 12.989117 5.477579
v 0.385310 13.006317 5.477310
v 0.402535 13.032069 5.476925
v 0.408593 13.062452 5.476485
v 0.402561 13.092841 5.476055
v 0.385359 13.118610 5.475702
v 0.359603 13.135833 5.475479
v 0.329217 13.141891 5.475419
v 0.298825 13.135861 5.475534
v 0.363765 12.901863 4.455341
v 0.363765 12.903522 4.547588
v 0.293230 12.901863 4.455341
v 0.293230 12.903522 4.547588
v 0.363765 12.862499 4.483976
v 0.363765 12.868702 4.535860
v 0.293230 12.862499 4.483976
v 0.293230 12.868702 4.535860
v 0.363765 12.788851 4.496801
v 0.363765 12.794107 4.540758
v 0.293230 12.794107 4.540758
v 0.293230 12.788851 4.496801
v 0.363765 12.650335 4.701171
v 0.363765 12.667769 4.700954
v 0.293231 12.667769 4.700954
v 0.293231 12.650335 4.701171
v 0.363765 12.705279 4.556102
v 0.363765 12.727845 4.580539
v 0.293230 12.727845 4.580539
v 0.293230 12.705279 4.556102
v 0.363765 12.657818 4.646023
v 0.363765 12.677778 4.651543
v 0.293231 12.677778 4.651543
v 0.293231 12.657818 4.646023
v 0.363765 12.672700 4.596732
v 0.363765 12.697899 4.611879
v 0.293231 12.697899 4.611879
v 0.293231 12.672700 4.596732
v 0.299497 12.860415 4.466535
v 0.357498 12.860415 4.466535
v 0.357498 12.786766 4.479359
v 0.299497 12.786766 4.479359
v 0.293230 12.951879 4.449033
v 0.293230 12.954721 4.551188
v 0.363765 12.954721 4.551188
v 0.363765 12.951879 4.449033
v 0.327359 12.794107 4.540758
v 0.327359 12.868702 4.535860
v 0.327359 12.903522 4.547588
v 0.327359 12.954721 4.551188
v 0.327359 12.951879 4.449033
v 0.327359 12.901863 4.455341
v 0.327359 12.862499 4.483976
v 0.327561 12.860415 4.466535
v 0.327561 12.786766 4.479359
v 0.327359 12.788851 4.496801
v 0.327359 12.705279 4.556102
v 0.327359 12.672700 4.596732
v 0.327359 12.657818 4.646023
v 0.327359 12.650335 4.701171
v 0.327359 12.667769 4.700954
v 0.327359 12.677778 4.651543
v 0.327359 12.697899 4.611879
v 0.327359 12.727845 4.580539
v 0.363765 12.791478 4.518780
v 0.363765 12.716602 4.568338
v 0.363765 12.685300 4.604305
v 0.363765 12.667798 4.648783
v 0.363765 12.659052 4.701063
v 0.327359 12.659052 4.701063
v 0.293231 12.659052 4.701063
v 0.293231 12.667798 4.648783
v 0.293231 12.685300 4.604305
v 0.293230 12.716602 4.568338
v 0.293230 12.791478 4.518780
v 0.293230 12.865602 4.509918
v 0.293230 12.902693 4.501464
v 0.293230 12.953300 4.500110
v 0.327359 12.953300 4.500110
v 0.363765 12.953300 4.500110
v 0.363765 12.902693 4.501464
v 0.363765 12.865602 4.509918
v 0.363765 12.831228 4.536841
v 0.363765 12.828365 4.512880
v 0.363765 12.825500 4.488920
v 0.357498 12.823415 4.471478
v 0.327561 12.823415 4.471478
v 0.299497 12.823415 4.471478
v 0.293230 12.825500 4.488920
v 0.293230 12.828365 4.512880
v 0.293230 12.831228 4.536841
v 0.327359 12.831228 4.536841
v 0.363765 12.764468 4.555863
v 0.363765 12.756245 4.539495
v 0.363765 12.748020 4.523128
v 0.327359 12.748020 4.523128
v 0.293230 12.748020 4.523128
v 0.293230 12.756245 4.539495
v 0.293230 12.764468 4.555863
v 0.327359 12.764468 4.555863
vt 0.375000 0.312500
vt 0.375000 0.358636
vt 0.390625 0.358636
vt 0.390625 0.312500
vt 0.406250 0.358636
vt 0.406250 0.312500
vt 0.421875 0.358636
vt 0.421875 0.312500
vt 0.437500 0.358636
vt 0.437500 0.312500
vt 0.453125 0.358636
vt 0.453125 0.312500
vt 0.468750 0.358636
vt 0.468750 0.312500
vt 0.484375 0.358636
vt 0.484375 0.312500
vt 0.500000 0.358636
vt 0.500000 0.312500
vt 0.515625 0.358636
vt 0.515625 0.312500
vt 0.531250 0.358636
vt 0.531250 0.312500
vt 0.546875 0.358636
vt 0.546875 0.312500
vt 0.562500 0.358636
vt 0.562500 0.312500
vt 0.578125 0.358636
vt 0.578125 0.312500
vt 0.593750 0.358636
vt 0.593750 0.312500
vt 0.609375 0.358636
vt 0.609375 0.312500
vt 0.625000 0.358636
vt 0.625000 0.312500
vt 0.375000 0.312500
vt 0.390625 0.312500
vt 0.390625 0.358636
vt 0.375000 0.358636
vt 0.406250 0.312500
vt 0.406250 0.358636
vt 0.421875 0.312500
vt 0.421875 0.358636
vt 0.437500 0.312500
vt 0.437500 0.358636
vt 0.453125 0.312500
vt 0.453125 0.358636
vt 0.468750 0.312500
vt 0.468750 0.358636
vt 0.484375 0.312500
vt 0.484375 0.358636
vt 0.500000 0.312500
vt 0.500000 0.358636
vt 0.515625 0.312500
vt 0.515625 0.358636
vt 0.531250 0.312500
vt 0.531250 0.358636
vt 0.546875 0.312500
vt 0.546875 0.358636
vt 0.562500 0.312500
vt 0.562500 0.358636
vt 0.578125 0.312500
vt 0.578125 0.358636
vt 0.593750 0.312500
vt 0.593750 0.358636
vt 0.609375 0.312500
vt 0.609375 0.358636
vt 0.625000 0.312500
vt 0.625000 0.358636
vt 0.375000 0.312500
vt 0.390625 0.312500
vt 0.390625 0.635450
vt 0.390625 0.635450
vt 0.375000 0.635450
vt 0.375000 0.635450
vt 0.406250 0.312500
vt 0.406250 0.635450
vt 0.406250 0.635450
vt 0.421875 0.312500
vt 0.421875 0.635450
vt 0.421875 0.635450
vt 0.437500 0.312500
vt 0.437500 0.635450
vt 0.437500 0.635450
vt 0.453125 0.312500
vt 0.453125 0.635450
vt 0.453125 0.635450
vt 0.468750 0.312500
vt 0.468750 0.635450
vt 0.468750 0.635450
vt 0.484375 0.312500
vt 0.484375 0.635450
vt 0.484375 0.635450
vt 0.500000 0.312500
vt 0.500000 0.635450
vt 0.500000 0.635450
vt 0.515625 0.312500
vt 0.515625 0.635450
vt 0.515625 0.635450
vt 0.531250 0.312500
vt 0.531250 0.635450
vt 0.531250 0.635450
vt 0.546875 0.312500
vt 0.546875 0.635450
vt 0.546875 0.635450
vt 0.562500 0.312500
vt 0.562500 0.635450
vt 0.562500 0.635450
vt 0.578125 0.312500
vt 0.578125 0.635450
vt 0.578125 0.635450
vt 0.593750 0.312500
vt 0.593750 0.635450
vt 0.593750 0.635450
vt 0.609375 0.312500
vt 0.609375 0.635450
vt 0.609375 0.635450
vt 0.625000 0.312500
vt 0.625000 0.635450
vt 0.625000 0.635450
vt 0.484375 0.589314
vt 0.500000 0.589314
vt 0.500000 0.635450
vt 0.484375 0.635450
vt 0.468750 0.589314
vt 0.468750 0.635450
vt 0.453125 0.589314
vt 0.453125 0.635450
vt 0.437500 0.589314
vt 0.437500 0.635450
vt 0.421875 0.589314
vt 0.421875 0.635450
vt 0.406250 0.589314
vt 0.406250 0.635450
vt 0.390625 0.589314
vt 0.390625 0.635450
vt 0.375000 0.589314
vt 0.375000 0.635450
vt 0.609375 0.589314
vt 0.625000 0.589314
vt 0.625000 0.635450
vt 0.609375 0.635450
vt 0.593750 0.589314
vt 0.593750 0.635450
vt 0.578125 0.589314
vt 0.578125 0.635450
vt 0.562500 0.589314
vt 0.562500 0.635450
vt 0.546875 0.589314
vt 0.546875 0.635450
vt 0.531250 0.589314
vt 0.531250 0.635450
vt 0.515625 0.589314
vt 0.515625 0.635450
vt 0.484375 0.543179
vt 0.500000 0.543179
vt 0.468750 0.543179
vt 0.453125 0.543179
vt 0.437500 0.543179
vt 0.421875 0.543179
vt 0.406250 0.543179
vt 0.390625 0.543179
vt 0.375000 0.543179
vt 0.609375 0.543179
vt 0.625000 0.543179
vt 0.593750 0.543179
vt 0.578125 0.543179
vt 0.562500 0.543179
vt 0.546875 0.543179
vt 0.531250 0.543179
vt 0.515625 0.543179
vt 0.484375 0.497043
vt 0.500000 0.497043
vt 0.468750 0.497043
vt 0.453125 0.497043
vt 0.437500 0.497043
vt 0.421875 0.497043
vt 0.406250 0.497043
vt 0.390625 0.497043
vt 0.375000 0.497043
vt 0.609375 0.497043
vt 0.625000 0.497043
vt 0.593750 0.497043
vt 0.578125 0.497043
vt 0.562500 0.497043
vt 0.546875 0.497043
vt 0.531250 0.497043
vt 0.515625 0.497043
vt 0.484375 0.450907
vt 0.500000 0.450907
vt 0.468750 0.450907
vt 0.453125 0.450907
vt 0.437500 0.450907
vt 0.421875 0.450907
vt 0.406250 0.450907
vt 0.390625 0.450907
vt 0.375000 0.450907
vt 0.609375 0.450907
vt 0.625000 0.450907
vt 0.593750 0.450907
vt 0.578125 0.450907
vt 0.562500 0.450907
vt 0.546875 0.450907
vt 0.531250 0.450907
vt 0.515625 0.450907
vt 0.484375 0.404771
vt 0.500000 0.404771
vt 0.468750 0.404771
vt 0.453125 0.404771
vt 0.437500 0.404771
vt 0.421875 0.404771
vt 0.406250 0.404771
vt 0.390625 0.404771
vt 0.375000 0.404771
vt 0.609375 0.404771
vt 0.625000 0.404771
vt 0.593750 0.404771
vt 0.578125 0.404771
vt 0.562500 0.404771
vt 0.546875 0.404771
vt 0.531250 0.404771
vt 0.515625 0.404771
vt 0.375000 0.589314
vt 0.390625 0.589314
vt 0.406250 0.589314
vt 0.421875 0.589314
vt 0.437500 0.589314
vt 0.453125 0.589314
vt 0.468750 0.589314
vt 0.484375 0.589314
vt 0.500000 0.589314
vt 0.515625 0.589314
vt 0.531250 0.589314
vt 0.546875 0.589314
vt 0.562500 0.589314
vt 0.578125 0.589314
vt 0.593750 0.589314
vt 0.609375 0.589314
vt 0.625000 0.589314
vt 0.375000 0.543179
vt 0.390625 0.543179
vt 0.406250 0.543179
vt 0.421875 0.543179
vt 0.437500 0.543179
vt 0.453125 0.543179
vt 0.468750 0.543179
vt 0.484375 0.543179
vt 0.500000 0.543179
vt 0.515625 0.543179
vt 0.531250 0.543179
vt 0.546875 0.543179
vt 0.562500 0.543179
vt 0.578125 0.543179
vt 0.593750 0.543179
vt 0.609375 0.543179
vt 0.625000 0.543179
vt 0.375000 0.497043
vt 0.390625 0.497043
vt 0.406250 0.497043
vt 0.421875 0.497043
vt 0.437500 0.497043
vt 0.453125 0.497043
vt 0.468750 0.497043
vt 0.484375 0.497043
vt 0.500000 0.497043
vt 0.515625 0.497043
vt 0.531250 0.497043
vt 0.546875 0.497043
vt 0.562500 0.497043
vt 0.578125 0.497043
vt 0.593750 0.497043
vt 0.609375 0.497043
vt 0.625000 0.497043
vt 0.375000 0.450907
vt 0.390625 0.450907
vt 0.406250 0.450907
vt 0.421875 0.450907
vt 0.437500 0.450907
vt 0.453125 0.450907
vt 0.468750 0.450907
vt 0.484375 0.450907
vt 0.500000 0.450907
vt 0.515625 0.450907
vt 0.531250 0.450907
vt 0.546875 0.450907
vt 0.562500 0.450907
vt 0.578125 0.450907
vt 0.593750 0.450907
vt 0.609375 0.450907
vt 0.625000 0.450907
vt 0.375000 0.404771
vt 0.390625 0.404771
vt 0.406250 0.404771
vt 0.421875 0.404771
vt 0.437500 0.404771
vt 0.453125 0.404771
vt 0.468750 0.404771
vt 0.484375 0.404771
vt 0.500000 0.404771
vt 0.515625 0.404771
vt 0.531250 0.404771
vt 0.546875 0.404771
vt 0.562500 0.404771
vt 0.578125 0.404771
vt 0.593750 0.404771
vt 0.609375 0.404771
vt 0.625000 0.404771
vn -0.923712 0.383059 -0.004643
vn -0.923712 0.383059 -0.004642
vn -0.706804 0.707346 -0.009483
vn -0.706802 0.707348 -0.009482
vn -0.706804 0.707346 -0.009483
vn -0.706802 0.707348 -0.009482
vn -0.382284 0.923955 -0.012880
vn -0.382280 0.923957 -0.012878
vn -0.382284 0.923955 -0.012880
vn -0.382280 0.923957 -0.012878
vn 0.000438 0.999897 -0.014315
vn 0.000441 0.999897 -0.014313
vn 0.000438 0.999897 -0.014315
vn 0.000441 0.999897 -0.014313
vn 0.383080 0.923616 -0.013570
vn 0.383080 0.923616 -0.013569
vn 0.383080 0.923616 -0.013570
vn 0.383080 0.923616 -0.013569
vn 0.707411 0.706721 -0.010761
vn 0.707409 0.706722 -0.010760
vn 0.707411 0.706721 -0.010761
vn 0.707409 0.706722 -0.010760
vn 0.924047 0.382227 -0.006313
vn 0.924046 0.382230 -0.006313
vn 0.924047 0.382227 -0.006313
vn 0.924046 0.382230 -0.006313
vn 1.000000 -0.000447 -0.000904
vn 1.000000 -0.000447 -0.000904
vn 1.000000 -0.000447 -0.000904
vn 1.000000 -0.000447 -0.000904
vn 0.923712 -0.383059 0.004643
vn 0.923713 -0.383058 0.004642
vn 0.923712 -0.383059 0.004643
vn 0.923713 -0.383058 0.004642
vn 0.706798 -0.707352 0.009482
vn 0.706800 -0.707350 0.009482
vn 0.706798 -0.707352 0.009482
vn 0.706800 -0.707350 0.009482
vn 0.382284 -0.923955 0.012878
vn 0.382286 -0.923954 0.012878
vn 0.382284 -0.923955 0.012878
vn 0.382286 -0.923954 0.012878
vn -0.000428 -0.999897 0.014313
vn -0.000428 -0.999897 0.014313
vn -0.000428 -0.999897 0.014313
vn -0.000428 -0.999897 0.014313
vn -0.383081 -0.923615 0.013570
vn -0.383084 -0.923614 0.013570
vn -0.383081 -0.923615 0.013570
vn -0.383084 -0.923614 0.013570
vn -0.707416 -0.706716 0.010760
vn -0.707417 -0.706714 0.010761
vn -0.707416 -0.706716 0.010760
vn -0.707417 -0.706714 0.010761
vn -0.924046 -0.382229 0.006313
vn -0.924046 -0.382230 0.006313
vn -0.924046 -0.382229 0.006313
vn -0.924046 -0.382230 0.006313
vn -1.000000 0.000447 0.000904
vn -1.000000 0.000447 0.000904
vn -1.000000 0.000447 0.000904
vn -1.000000 0.000447 0.000904
vn -0.923712 0.383059 -0.004643
vn -0.923712 0.383059 -0.004642
vn 0.923713 -0.383057 0.004642
vn 0.706799 -0.707351 0.009481
vn 0.923713 -0.383058 0.004642
vn 0.706799 -0.707351 0.009482
vn 0.706799 -0.707351 0.009481
vn 0.382284 -0.923955 0.012878
vn 0.706799 -0.707351 0.009482
vn 0.382284 -0.923955 0.012878
vn 0.382284 -0.923955 0.012878
vn -0.000434 -0.999897 0.014312
vn 0.382284 -0.923955 0.012878
vn -0.000434 -0.999897 0.014313
vn -0.000434 -0.999897 0.014312
vn -0.383084 -0.923614 0.013569
vn -0.000434 -0.999897 0.014313
vn -0.383085 -0.923614 0.013570
vn -0.383084 -0.923614 0.013569
vn -0.707410 -0.706721 0.010761
vn -0.383085 -0.923614 0.013570
vn -0.707409 -0.706722 0.010760
vn -0.707410 -0.706721 0.010761
vn -0.924045 -0.382232 0.006314
vn -0.707409 -0.706722 0.010760
vn -0.924044 -0.382233 0.006313
vn -0.924045 -0.382232 0.006314
vn -1.000000 0.000447 0.000905
vn -0.924044 -0.382233 0.006313
vn -1.000000 0.000446 0.000904
vn -1.000000 0.000447 0.000905
vn -0.923714 0.383054 -0.004642
vn -1.000000 0.000446 0.000904
vn -0.923713 0.383056 -0.004642
vn -0.923714 0.383054 -0.004642
vn -0.706798 0.707351 -0.009483
vn -0.923713 0.383056 -0.004642
vn -0.706799 0.707351 -0.009482
vn -0.706798 0.707351 -0.009483
vn -0.382278 0.923958 -0.012878
vn -0.706799 0.707351 -0.009482
vn -0.382283 0.923956 -0.012878
vn -0.382278 0.923958 -0.012878
vn 0.000442 0.999898 -0.014311
vn -0.382283 0.923956 -0.012878
vn 0.000438 0.999897 -0.014312
vn 0.000442 0.999898 -0.014311
vn 0.383084 0.923614 -0.013567
vn 0.000438 0.999897 -0.014312
vn 0.383088 0.923612 -0.013569
vn 0.383084 0.923614 -0.013567
vn 0.707410 0.706722 -0.010759
vn 0.383088 0.923612 -0.013569
vn 0.707412 0.706719 -0.010760
vn 0.707410 0.706722 -0.010759
vn 0.924045 0.382232 -0.006313
vn 0.707412 0.706719 -0.010760
vn 0.924045 0.382232 -0.006313
vn 0.924045 0.382232 -0.006313
vn 1.000000 -0.000447 -0.000904
vn 0.924045 0.382232 -0.006313
vn 1.000000 -0.000447 -0.000904
vn 1.000000 -0.000447 -0.000904
vn 0.923713 -0.383057 0.004642
vn 1.000000 -0.000447 -0.000904
vn 0.923713 -0.383058 0.004642
vn 0.000913 0.014308 0.999897
vn 0.000913 0.014308 0.999897
vn 0.000915 0.014313 0.999897
vn 0.000915 0.014313 0.999897
vn -0.000907 -0.014314 -0.999897
vn -0.000907 -0.014314 -0.999897
vn -0.000908 -0.014314 -0.999897
vn -0.000908 -0.014314 -0.999897
vn 0.000915 0.014313 0.999897
vn 0.000915 0.014313 0.999897
vn 0.000912 0.014318 0.999897
vn 0.000912 0.014318 0.999897
vn -0.000912 -0.014313 -0.999897
vn -0.000912 -0.014313 -0.999897
vn -0.000907 -0.014314 -0.999897
vn -0.000907 -0.014314 -0.999897
vn 0.000912 0.014318 0.999897
vn 0.000912 0.014318 0.999897
vn 0.000910 0.014318 0.999897
vn 0.000910 0.014318 0.999897
vn -0.000914 -0.014311 -0.999897
vn -0.000914 -0.014311 -0.999897
vn -0.000912 -0.014313 -0.999897
vn -0.000912 -0.014313 -0.999897
vn 0.000910 0.014318 0.999897
vn 0.000910 0.014318 0.999897
vn 0.000911 0.014317 0.999897
vn 0.000911 0.014317 0.999897
vn -0.000909 -0.014312 -0.999897
vn -0.000909 -0.014312 -0.999897
vn -0.000914 -0.014311 -0.999897
vn -0.000914 -0.014311 -0.999897
vn 0.000911 0.014317 0.999897
vn 0.000911 0.014317 0.999897
vn 0.000917 0.014316 0.999897
vn 0.000917 0.014316 0.999897
vn -0.000909 -0.014314 -0.999897
vn -0.000909 -0.014314 -0.999897
vn -0.000909 -0.014312 -0.999897
vn -0.000909 -0.014312 -0.999897
vn 0.000917 0.014316 0.999897
vn 0.000917 0.014316 0.999897
vn 0.000917 0.014311 0.999897
vn 0.000917 0.014311 0.999897
vn -0.000915 -0.014312 -0.999897
vn -0.000915 -0.014312 -0.999897
vn -0.000909 -0.014314 -0.999897
vn -0.000909 -0.014314 -0.999897
vn 0.000917 0.014311 0.999897
vn 0.000917 0.014311 0.999897
vn 0.000915 0.014314 0.999897
vn 0.000915 0.014314 0.999897
vn -0.000915 -0.014313 -0.999897
vn -0.000915 -0.014313 -0.999897
vn -0.000915 -0.014312 -0.999897
vn -0.000915 -0.014312 -0.999897
vn 0.000915 0.014314 0.999897
vn 0.000915 0.014314 0.999897
vn 0.000919 0.014313 0.999897
vn 0.000919 0.014313 0.999897
vn -0.000910 -0.014315 -0.999897
vn -0.000910 -0.014315 -0.999897
vn -0.000915 -0.014313 -0.999897
vn -0.000915 -0.014313 -0.999897
vn 0.000919 0.014313 0.999897
vn 0.000919 0.014313 0.999897
vn 0.000917 0.014304 0.999897
vn 0.000917 0.014304 0.999897
vn -0.000905 -0.014315 -0.999897
vn -0.000905 -0.014315 -0.999897
vn -0.000910 -0.014315 -0.999897
vn -0.000910 -0.014315 -0.999897
vn 0.000917 0.014304 0.999897
vn 0.000917 0.014304 0.999897
vn 0.000915 0.014305 0.999897
vn 0.000915 0.014305 0.999897
vn -0.000909 -0.014314 -0.999897
vn -0.000909 -0.014314 -0.999897
vn -0.000905 -0.014315 -0.999897
vn -0.000905 -0.014315 -0.999897
vn 0.000915 0.014305 0.999897
vn 0.000915 0.014305 0.999897
vn 0.000910 0.014307 0.999897
vn 0.000910 0.014307 0.999897
vn -0.000911 -0.014313 -0.999897
vn -0.000911 -0.014313 -0.999897
vn -0.000909 -0.014314 -0.999897
vn -0.000909 -0.014314 -0.999897
vn 0.000910 0.014307 0.999897
vn 0.000910 0.014307 0.999897
vn 0.000910 0.014312 0.999897
vn 0.000910 0.014312 0.999897
vn -0.000909 -0.014312 -0.999897
vn -0.000909 -0.014312 -0.999897
vn -0.000911 -0.014313 -0.999897
vn -0.000911 -0.014313 -0.999897
vn 0.000910 0.014312 0.999897
vn 0.000910 0.014312 0.999897
vn 0.000917 0.014314 0.999897
vn 0.000917 0.014314 0.999897
vn -0.000910 -0.014312 -0.999897
vn -0.000910 -0.014312 -0.999897
vn -0.000909 -0.014312 -0.999897
vn -0.000909 -0.014312 -0.999897
vn 0.000917 0.014314 0.999897
vn 0.000917 0.014314 0.999897
vn 0.000915 0.014315 0.999897
vn 0.000915 0.014315 0.999897
vn -0.000913 -0.014312 -0.999897
vn -0.000913 -0.014312 -0.999897
vn -0.000910 -0.014312 -0.999897
vn -0.000910 -0.014312 -0.999897
vn 0.000915 0.014315 0.999897
vn 0.000915 0.014315 0.999897
vn 0.000912 0.014313 0.999897
vn 0.000912 0.014313 0.999897
vn -0.000915 -0.014313 -0.999897
vn -0.000915 -0.014313 -0.999897
vn -0.000913 -0.014312 -0.999897
vn -0.000913 -0.014312 -0.999897
vn 0.000912 0.014313 0.999897
vn 0.000912 0.014313 0.999897
vn 0.000913 0.014308 0.999897
vn 0.000913 0.014308 0.999897
vn -0.000908 -0.014314 -0.999897
vn -0.000908 -0.014314 -0.999897
vn -0.000915 -0.014313 -0.999897
vn -0.000915 -0.014313 -0.999897
vn -1.000000 0.000447 0.000904
vn -0.923713 0.383056 -0.004642
vn -1.000000 0.000448 0.000904
vn -0.923714 0.383056 -0.004642
vn -0.924044 -0.382233 0.006313
vn -1.000000 0.000447 0.000904
vn -0.924044 -0.382234 0.006313
vn -1.000000 0.000448 0.000904
vn -0.707414 -0.706718 0.010760
vn -0.924044 -0.382233 0.006313
vn -0.707414 -0.706718 0.010761
vn -0.924044 -0.382234 0.006313
vn -0.383086 -0.923613 0.013570
vn -0.707414 -0.706718 0.010760
vn -0.383088 -0.923612 0.013571
vn -0.707414 -0.706718 0.010761
vn -0.000432 -0.999897 0.014314
vn -0.383086 -0.923613 0.013570
vn -0.000430 -0.999898 0.014315
vn -0.383088 -0.923612 0.013571
vn 0.382281 -0.923957 0.012878
vn -0.000432 -0.999897 0.014314
vn 0.382281 -0.923957 0.012878
vn -0.000430 -0.999898 0.014315
vn 0.706798 -0.707352 0.009482
vn 0.382281 -0.923957 0.012878
vn 0.706797 -0.707353 0.009482
vn 0.382281 -0.923957 0.012878
vn 0.923714 -0.383055 0.004642
vn 0.706798 -0.707352 0.009482
vn 0.923714 -0.383054 0.004642
vn 0.706797 -0.707353 0.009482
vn 1.000000 -0.000447 -0.000904
vn 0.923714 -0.383055 0.004642
vn 1.000000 -0.000447 -0.000904
vn 0.923714 -0.383054 0.004642
vn 0.924044 0.382233 -0.006313
vn 1.000000 -0.000447 -0.000904
vn 0.924044 0.382233 -0.006313
vn 1.000000 -0.000447 -0.000904
vn 0.707414 0.706717 -0.010761
vn 0.924044 0.382233 -0.006313
vn 0.707414 0.706717 -0.010761
vn 0.924044 0.382233 -0.006313
vn 0.383083 0.923614 -0.013570
vn 0.707414 0.706717 -0.010761
vn 0.383081 0.923615 -0.013571
vn 0.707414 0.706717 -0.010761
vn 0.000437 0.999897 -0.014314
vn 0.383083 0.923614 -0.013570
vn 0.000438 0.999897 -0.014315
vn 0.383081 0.923615 -0.013571
vn -0.382280 0.923957 -0.012878
vn 0.000437 0.999897 -0.014314
vn -0.382278 0.923958 -0.012878
vn 0.000438 0.999897 -0.014315
vn -0.706800 0.707350 -0.009481
vn -0.382280 0.923957 -0.012878
vn -0.706801 0.707349 -0.009481
vn -0.382278 0.923958 -0.012878
vn -0.923713 0.383056 -0.004642
vn -0.706800 0.707350 -0.009481
vn -0.923714 0.383056 -0.004642
vn -0.706801 0.707349 -0.009481
vn -1.000000 0.000447 0.000904
vn -0.923713 0.383056 -0.004642
vn -1.000000 0.000447 0.000904
vn -0.923713 0.383056 -0.004642
vn -0.924045 -0.382232 0.006313
vn -1.000000 0.000447 0.000904
vn -0.924044 -0.382233 0.006313
vn -1.000000 0.000447 0.000904
vn -0.707414 -0.706718 0.010760
vn -0.924045 -0.382232 0.006313
vn -0.707414 -0.706718 0.010760
vn -0.924044 -0.382233 0.006313
vn -0.383085 -0.923614 0.013570
vn -0.707414 -0.706718 0.010760
vn -0.383086 -0.923613 0.013570
vn -0.707414 -0.706718 0.010760
vn -0.000433 -0.999898 0.014313
vn -0.383085 -0.923614 0.013570
vn -0.000432 -0.999897 0.014314
vn -0.383086 -0.923613 0.013570
vn 0.382281 -0.923956 0.012878
vn -0.000433 -0.999898 0.014313
vn 0.382281 -0.923957 0.012878
vn -0.000432 -0.999897 0.014314
vn 0.706799 -0.707351 0.009482
vn 0.382281 -0.923956 0.012878
vn 0.706798 -0.707352 0.009482
vn 0.382281 -0.923957 0.012878
vn 0.923714 -0.383056 0.004642
vn 0.706799 -0.707351 0.009482
vn 0.923714 -0.383055 0.004642
vn 0.706798 -0.707352 0.009482
vn 1.000000 -0.000447 -0.000904
vn 0.923714 -0.383056 0.004642
vn 1.000000 -0.000447 -0.000904
vn 0.923714 -0.383055 0.004642
vn 0.924045 0.382233 -0.006313
vn 1.000000 -0.000447 -0.000904
vn 0.924044 0.382233 -0.006313
vn 1.000000 -0.000447 -0.000904
vn 0.707414 0.706718 -0.010760
vn 0.924045 0.382233 -0.006313
vn 0.707414 0.706717 -0.010761
vn 0.924044 0.382233 -0.006313
vn 0.383084 0.923614 -0.013570
vn 0.707414 0.706718 -0.010760
vn 0.383083 0.923614 -0.013570
vn 0.707414 0.706717 -0.010761
vn 0.000435 0.999897 -0.014313
vn 0.383084 0.923614 -0.013570
vn 0.000437 0.999897 -0.014314
vn 0.383083 0.923614 -0.013570
vn -0.382280 0.923957 -0.012878
vn 0.000435 0.999897 -0.014313
vn -0.382280 0.923957 -0.012878
vn 0.000437 0.999897 -0.014314
vn -0.706800 0.707350 -0.009482
vn -0.382280 0.923957 -0.012878
vn -0.706800 0.707350 -0.009481
vn -0.382280 0.923957 -0.012878
vn -0.923713 0.383056 -0.004642
vn -0.706800 0.707350 -0.009482
vn -0.923713 0.383056 -0.004642
vn -0.706800 0.707350 -0.009481
vn -1.000000 0.000447 0.000904
vn -0.923713 0.383056 -0.004642
vn -1.000000 0.000447 0.000904
vn -0.923713 0.383056 -0.004642
vn -0.924045 -0.382232 0.006313
vn -1.000000 0.000447 0.000904
vn -0.924045 -0.382232 0.006313
vn -1.000000 0.000447 0.000904
vn -0.707413 -0.706718 0.010761
vn -0.924045 -0.382232 0.006313
vn -0.707414 -0.706718 0.010760
vn -0.924045 -0.382232 0.006313
vn -0.383087 -0.923613 0.013570
vn -0.707413 -0.706718 0.010761
vn -0.383085 -0.923614 0.013570
vn -0.707414 -0.706718 0.010760
vn -0.000433 -0.999897 0.014313
vn -0.383087 -0.923613 0.013570
vn -0.000433 -0.999898 0.014313
vn -0.383085 -0.923614 0.013570
vn 0.382283 -0.923956 0.012878
vn -0.000433 -0.999897 0.014313
vn 0.382281 -0.923956 0.012878
vn -0.000433 -0.999898 0.014313
vn 0.706799 -0.707350 0.009482
vn 0.382283 -0.923956 0.012878
vn 0.706799 -0.707351 0.009482
vn 0.382281 -0.923956 0.012878
vn 0.923713 -0.383056 0.004642
vn 0.706799 -0.707350 0.009482
vn 0.923714 -0.383056 0.004642
vn 0.706799 -0.707351 0.009482
vn 1.000000 -0.000447 -0.000904
vn 0.923713 -0.383056 0.004642
vn 1.000000 -0.000447 -0.000904
vn 0.923714 -0.383056 0.004642
vn 0.924045 0.382232 -0.006313
vn 1.000000 -0.000447 -0.000904
vn 0.924045 0.382233 -0.006313
vn 1.000000 -0.000447 -0.000904
vn 0.707414 0.706718 -0.010760
vn 0.924045 0.382232 -0.006313
vn 0.707414 0.706718 -0.010760
vn 0.924045 0.382233 -0.006313
vn 0.383084 0.923614 -0.013570
vn 0.707414 0.706718 -0.010760
vn 0.383084 0.923614 -0.013570
vn 0.707414 0.706718 -0.010760
vn 0.000435 0.999897 -0.014313
vn 0.383084 0.923614 -0.013570
vn 0.000435 0.999897 -0.014313
vn 0.383084 0.923614 -0.013570
vn -0.382279 0.923957 -0.012878
vn 0.000435 0.999897 -0.014313
vn -0.382280 0.923957 -0.012878
vn 0.000435 0.999897 -0.014313
vn -0.706801 0.707349 -0.009482
vn -0.382279 0.923957 -0.012878
vn -0.706800 0.707350 -0.009482
vn -0.382280 0.923957 -0.012878
vn -0.923713 0.383056 -0.004642
vn -0.706801 0.707349 -0.009482
vn -0.923713 0.383056 -0.004642
vn -0.706800 0.707350 -0.009482
vn -1.000000 0.000447 0.000904
vn -0.923713 0.383058 -0.004642
vn -1.000000 0.000447 0.000904
vn -0.923713 0.383056 -0.004642
vn -0.924045 -0.382232 0.006313
vn -1.000000 0.000447 0.000904
vn -0.924045 -0.382232 0.006313
vn -1.000000 0.000447 0.000904
vn -0.707413 -0.706719 0.010761
vn -0.924045 -0.382232 0.006313
vn -0.707413 -0.706718 0.010761
vn -0.924045 -0.382232 0.006313
vn -0.383090 -0.923611 0.013570
vn -0.707413 -0.706719 0.010761
vn -0.383087 -0.923613 0.013570
vn -0.707413 -0.706718 0.010761
vn -0.000430 -0.999897 0.014314
vn -0.383090 -0.923611 0.013570
vn -0.000433 -0.999897 0.014313
vn -0.383087 -0.923613 0.013570
vn 0.382284 -0.923955 0.012878
vn -0.000430 -0.999897 0.014314
vn 0.382283 -0.923956 0.012878
vn -0.000433 -0.999897 0.014313
vn 0.706798 -0.707352 0.009482
vn 0.382284 -0.923955 0.012878
vn 0.706799 -0.707350 0.009482
vn 0.382283 -0.923956 0.012878
vn 0.923713 -0.383057 0.004642
vn 0.706798 -0.707352 0.009482
vn 0.923713 -0.383056 0.004642
vn 0.706799 -0.707350 0.009482
vn 1.000000 -0.000447 -0.000904
vn 0.923713 -0.383057 0.004642
vn 1.000000 -0.000447 -0.000904
vn 0.923713 -0.383056 0.004642
vn 0.924045 0.382232 -0.006313
vn 1.000000 -0.000447 -0.000904
vn 0.924045 0.382232 -0.006313
vn 1.000000 -0.000447 -0.000904
vn 0.707413 0.706718 -0.010760
vn 0.924045 0.382232 -0.006313
vn 0.707414 0.706718 -0.010760
vn 0.924045 0.382232 -0.006313
vn 0.383086 0.923613 -0.013570
vn 0.707413 0.706718 -0.010760
vn 0.383084 0.923614 -0.013570
vn 0.707414 0.706718 -0.010760
vn 0.000436 0.999898 -0.014314
vn 0.383086 0.923613 -0.013570
vn 0.000435 0.999897 -0.014313
vn 0.383084 0.923614 -0.013570
vn -0.382282 0.923956 -0.012878
vn 0.000436 0.999898 -0.014314
vn -0.382279 0.923957 -0.012878
vn 0.000435 0.999897 -0.014313
vn -0.706801 0.707349 -0.009481
vn -0.382282 0.923956 -0.012878
vn -0.706801 0.707349 -0.009482
vn -0.382279 0.923957 -0.012878
vn -0.923713 0.383058 -0.004642
vn -0.706801 0.707349 -0.009481
vn -0.923713 0.383056 -0.004642
vn -0.706801 0.707349 -0.009482
vn -1.000000 0.000447 0.000904
vn -0.923713 0.383058 -0.004642
vn -1.000000 0.000447 0.000904
vn -0.923713 0.383058 -0.004642
vn -0.924044 -0.382233 0.006313
vn -1.000000 0.000447 0.000904
vn -0.924045 -0.382232 0.006313
vn -1.000000 0.000447 0.000904
vn -0.707410 -0.706721 0.010760
vn -0.924044 -0.382233 0.006313
vn -0.707413 -0.706719 0.010761
vn -0.924045 -0.382232 0.006313
vn -0.383088 -0.923612 0.013571
vn -0.707410 -0.706721 0.010760
vn -0.383090 -0.923611 0.013570
vn -0.707413 -0.706719 0.010761
vn -0.000431 -0.999898 0.014314
vn -0.383088 -0.923612 0.013571
vn -0.000430 -0.999897 0.014314
vn -0.383090 -0.923611 0.013570
vn 0.382284 -0.923955 0.012878
vn -0.000431 -0.999898 0.014314
vn 0.382284 -0.923955 0.012878
vn -0.000430 -0.999897 0.014314
vn 0.706798 -0.707352 0.009482
vn 0.382284 -0.923955 0.012878
vn 0.706798 -0.707352 0.009482
vn 0.382284 -0.923955 0.012878
vn 0.923712 -0.383059 0.004642
vn 0.706798 -0.707352 0.009482
vn 0.923713 -0.383057 0.004642
vn 0.706798 -0.707352 0.009482
vn 1.000000 -0.000448 -0.000904
vn 0.923712 -0.383059 0.004642
vn 1.000000 -0.000447 -0.000904
vn 0.923713 -0.383057 0.004642
vn 0.924045 0.382231 -0.006313
vn 1.000000 -0.000448 -0.000904
vn 0.924045 0.382232 -0.006313
vn 1.000000 -0.000447 -0.000904
vn 0.707414 0.706718 -0.010761
vn 0.924045 0.382231 -0.006313
vn 0.707413 0.706718 -0.010760
vn 0.924045 0.382232 -0.006313
vn 0.383089 0.923612 -0.013570
vn 0.707414 0.706718 -0.010761
vn 0.383086 0.923613 -0.013570
vn 0.707413 0.706718 -0.010760
vn 0.000436 0.999897 -0.014314
vn 0.383089 0.923612 -0.013570
vn 0.000436 0.999898 -0.014314
vn 0.383086 0.923613 -0.013570
vn -0.382286 0.923954 -0.012878
vn 0.000436 0.999897 -0.014314
vn -0.382282 0.923956 -0.012878
vn 0.000436 0.999898 -0.014314
vn -0.706800 0.707350 -0.009482
vn -0.382286 0.923954 -0.012878
vn -0.706801 0.707349 -0.009481
vn -0.382282 0.923956 -0.012878
vn -0.923713 0.383058 -0.004642
vn -0.706800 0.707350 -0.009482
vn -0.923713 0.383058 -0.004642
vn -0.706801 0.707349 -0.009481
vn -1.000000 0.000446 0.000904
vn -0.923713 0.383056 -0.004642
vn -1.000000 0.000447 0.000904
vn -0.923713 0.383058 -0.004642
vn -0.924044 -0.382233 0.006313
vn -1.000000 0.000446 0.000904
vn -0.924044 -0.382233 0.006313
vn -1.000000 0.000447 0.000904
vn -0.707409 -0.706722 0.010760
vn -0.924044 -0.382233 0.006313
vn -0.707410 -0.706721 0.010760
vn -0.924044 -0.382233 0.006313
vn -0.383085 -0.923614 0.013570
vn -0.707409 -0.706722 0.010760
vn -0.383088 -0.923612 0.013571
vn -0.707410 -0.706721 0.010760
vn -0.000434 -0.999897 0.014313
vn -0.383085 -0.923614 0.013570
vn -0.000431 -0.999898 0.014314
vn -0.383088 -0.923612 0.013571
vn 0.382284 -0.923955 0.012878
vn -0.000434 -0.999897 0.014313
vn 0.382284 -0.923955 0.012878
vn -0.000431 -0.999898 0.014314
vn 0.706799 -0.707351 0.009482
vn 0.382284 -0.923955 0.012878
vn 0.706798 -0.707352 0.009482
vn 0.382284 -0.923955 0.012878
vn 0.923713 -0.383058 0.004642
vn 0.706799 -0.707351 0.009482
vn 0.923712 -0.383059 0.004642
vn 0.706798 -0.707352 0.009482
vn 1.000000 -0.000447 -0.000904
vn 0.923713 -0.383058 0.004642
vn 1.000000 -0.000448 -0.000904
vn 0.923712 -0.383059 0.004642
vn 0.924045 0.382232 -0.006313
vn 1.000000 -0.000447 -0.000904
vn 0.924045 0.382231 -0.006313
vn 1.000000 -0.000448 -0.000904
vn 0.707412 0.706719 -0.010760
vn 0.924045 0.382232 -0.006313
vn 0.707414 0.706718 -0.010761
vn 0.924045 0.382231 -0.006313
vn 0.383088 0.923612 -0.013569
vn 0.707412 0.706719 -0.010760
vn 0.383089 0.923612 -0.013570
vn 0.707414 0.706718 -0.010761
vn 0.000438 0.999897 -0.014312
vn 0.383088 0.923612 -0.013569
vn 0.000436 0.999897 -0.014314
vn 0.383089 0.923612 -0.013570
vn -0.382283 0.923956 -0.012878
vn 0.000438 0.999897 -0.014312
vn -0.382286 0.923954 -0.012878
vn 0.000436 0.999897 -0.014314
vn -0.706799 0.707351 -0.009482
vn -0.382283 0.923956 -0.012878
vn -0.706800 0.707350 -0.009482
vn -0.382286 0.923954 -0.012878
vn -0.923713 0.383056 -0.004642
vn -0.706799 0.707351 -0.009482
vn -0.923713 0.383058 -0.004642
vn -0.706800 0.707350 -0.009482
vn -0.923713 0.383057 -0.004642
vn -0.923713 0.383057 -0.004642
vn -0.706802 0.707348 -0.009482
vn -0.706804 0.707346 -0.009481
vn -0.382279 0.923957 -0.012878
vn -0.706802 0.707348 -0.009482
vn -0.382280 0.923957 -0.012877
vn -0.706804 0.707346 -0.009481
vn 0.000434 0.999897 -0.014313
vn -0.382279 0.923957 -0.012878
vn 0.000433 0.999897 -0.014314
vn -0.382280 0.923957 -0.012877
vn 0.383081 0.923615 -0.013570
vn 0.000434 0.999897 -0.014313
vn 0.383080 0.923616 -0.013571
vn 0.000433 0.999897 -0.014314
vn 0.707416 0.706715 -0.010761
vn 0.383081 0.923615 -0.013570
vn 0.707416 0.706716 -0.010761
vn 0.383080 0.923616 -0.013571
vn 0.924046 0.382229 -0.006313
vn 0.707416 0.706715 -0.010761
vn 0.924046 0.382229 -0.006313
vn 0.707416 0.706716 -0.010761
vn 1.000000 -0.000447 -0.000904
vn 0.924046 0.382229 -0.006313
vn 1.000000 -0.000447 -0.000904
vn 0.924046 0.382229 -0.006313
vn 0.923712 -0.383059 0.004642
vn 1.000000 -0.000447 -0.000904
vn 0.923712 -0.383060 0.004642
vn 1.000000 -0.000447 -0.000904
vn 0.706800 -0.707350 0.009481
vn 0.923712 -0.383059 0.004642
vn 0.706801 -0.707349 0.009481
vn 0.923712 -0.383060 0.004642
vn 0.382284 -0.923955 0.012877
vn 0.706800 -0.707350 0.009481
vn 0.382284 -0.923955 0.012877
vn 0.706801 -0.707349 0.009481
vn -0.000434 -0.999897 0.014313
vn 0.382284 -0.923955 0.012877
vn -0.000438 -0.999897 0.014313
vn 0.382284 -0.923955 0.012877
vn -0.383090 -0.923611 0.013570
vn -0.000434 -0.999897 0.014313
vn -0.383093 -0.923610 0.013570
vn -0.000438 -0.999897 0.014313
vn -0.707415 -0.706716 0.010761
vn -0.383090 -0.923611 0.013570
vn -0.707416 -0.706715 0.010762
vn -0.383093 -0.923610 0.013570
vn -0.924045 -0.382233 0.006313
vn -0.707415 -0.706716 0.010761
vn -0.924044 -0.382234 0.006313
vn -0.707416 -0.706715 0.010762
vn -1.000000 0.000447 0.000904
vn -0.924045 -0.382233 0.006313
vn -1.000000 0.000447 0.000904
vn -0.924044 -0.382234 0.006313
vn -0.923713 0.383057 -0.004642
vn -1.000000 0.000447 0.000904
vn -0.923713 0.383057 -0.004642
vn -1.000000 0.000447 0.000904
vn -0.923713 0.383056 -0.004642
vn -0.923713 0.383057 -0.004642
vn -0.706800 0.707350 -0.009482
vn -0.706802 0.707348 -0.009482
vn -0.382280 0.923957 -0.012878
vn -0.706800 0.707350 -0.009482
vn -0.382279 0.923957 -0.012878
vn -0.706802 0.707348 -0.009482
vn 0.000433 0.999897 -0.014313
vn -0.382280 0.923957 -0.012878
vn 0.000434 0.999897 -0.014313
vn -0.382279 0.923957 -0.012878
vn 0.383083 0.923614 -0.013570
vn 0.000433 0.999897 -0.014313
vn 0.383081 0.923615 -0.013570
vn 0.000434 0.999897 -0.014313
vn 0.707417 0.706715 -0.010760
vn 0.383083 0.923614 -0.013570
vn 0.707416 0.706715 -0.010761
vn 0.383081 0.923615 -0.013570
vn 0.924045 0.382231 -0.006313
vn 0.707417 0.706715 -0.010760
vn 0.924046 0.382229 -0.006313
vn 0.707416 0.706715 -0.010761
vn 1.000000 -0.000446 -0.000904
vn 0.924045 0.382231 -0.006313
vn 1.000000 -0.000447 -0.000904
vn 0.924046 0.382229 -0.006313
vn 0.923713 -0.383057 0.004642
vn 1.000000 -0.000446 -0.000904
vn 0.923712 -0.383059 0.004642
vn 1.000000 -0.000447 -0.000904
vn 0.706799 -0.707351 0.009482
vn 0.923713 -0.383057 0.004642
vn 0.706800 -0.707350 0.009481
vn 0.923712 -0.383059 0.004642
vn 0.382283 -0.923956 0.012878
vn 0.706799 -0.707351 0.009482
vn 0.382284 -0.923955 0.012877
vn 0.706800 -0.707350 0.009481
vn -0.000432 -0.999897 0.014313
vn 0.382283 -0.923956 0.012878
vn -0.000434 -0.999897 0.014313
vn 0.382284 -0.923955 0.012877
vn -0.383087 -0.923613 0.013570
vn -0.000432 -0.999897 0.014313
vn -0.383090 -0.923611 0.013570
vn -0.000434 -0.999897 0.014313
vn -0.707415 -0.706717 0.010760
vn -0.383087 -0.923613 0.013570
vn -0.707415 -0.706716 0.010761
vn -0.383090 -0.923611 0.013570
vn -0.924045 -0.382231 0.006313
vn -0.707415 -0.706717 0.010760
vn -0.924045 -0.382233 0.006313
vn -0.707415 -0.706716 0.010761
vn -1.000000 0.000447 0.000904
vn -0.924045 -0.382231 0.006313
vn -1.000000 0.000447 0.000904
vn -0.924045 -0.382233 0.006313
vn -0.923713 0.383056 -0.004642
vn -1.000000 0.000447 0.000904
vn -0.923713 0.383057 -0.004642
vn -1.000000 0.000447 0.000904
vn -0.923713 0.383057 -0.004642
vn -0.923713 0.383056 -0.004642
vn -0.706800 0.707350 -0.009482
vn -0.706800 0.707350 -0.009482
vn -0.382280 0.923957 -0.012878
vn -0.706800 0.707350 -0.009482
vn -0.382280 0.923957 -0.012878
vn -0.706800 0.707350 -0.009482
vn 0.000432 0.999897 -0.014314
vn -0.382280 0.923957 -0.012878
vn 0.000433 0.999897 -0.014313
vn -0.382280 0.923957 -0.012878
vn 0.383083 0.923614 -0.013570
vn 0.000432 0.999897 -0.014314
vn 0.383083 0.923614 -0.013570
vn 0.000433 0.999897 -0.014313
vn 0.707416 0.706716 -0.010760
vn 0.383083 0.923614 -0.013570
vn 0.707417 0.706715 -0.010760
vn 0.383083 0.923614 -0.013570
vn 0.924045 0.382231 -0.006313
vn 0.707416 0.706716 -0.010760
vn 0.924045 0.382231 -0.006313
vn 0.707417 0.706715 -0.010760
vn 1.000000 -0.000446 -0.000904
vn 0.924045 0.382231 -0.006313
vn 1.000000 -0.000446 -0.000904
vn 0.924045 0.382231 -0.006313
vn 0.923713 -0.383056 0.004642
vn 1.000000 -0.000446 -0.000904
vn 0.923713 -0.383057 0.004642
vn 1.000000 -0.000446 -0.000904
vn 0.706800 -0.707350 0.009482
vn 0.923713 -0.383056 0.004642
vn 0.706799 -0.707351 0.009482
vn 0.923713 -0.383057 0.004642
vn 0.382281 -0.923956 0.012878
vn 0.706800 -0.707350 0.009482
vn 0.382283 -0.923956 0.012878
vn 0.706799 -0.707351 0.009482
vn -0.000436 -0.999897 0.014314
vn 0.382281 -0.923956 0.012878
vn -0.000432 -0.999897 0.014313
vn 0.382283 -0.923956 0.012878
vn -0.383086 -0.923613 0.013570
vn -0.000436 -0.999897 0.014314
vn -0.383087 -0.923613 0.013570
vn -0.000432 -0.999897 0.014313
vn -0.707414 -0.706717 0.010761
vn -0.383086 -0.923613 0.013570
vn -0.707415 -0.706717 0.010760
vn -0.383087 -0.923613 0.013570
vn -0.924046 -0.382230 0.006313
vn -0.707414 -0.706717 0.010761
vn -0.924045 -0.382231 0.006313
vn -0.707415 -0.706717 0.010760
vn -1.000000 0.000447 0.000904
vn -0.924046 -0.382230 0.006313
vn -1.000000 0.000447 0.000904
vn -0.924045 -0.382231 0.006313
vn -0.923713 0.383057 -0.004642
vn -1.000000 0.000447 0.000904
vn -0.923713 0.383056 -0.004642
vn -1.000000 0.000447 0.000904
vn -0.923713 0.383057 -0.004642
vn -0.923713 0.383057 -0.004642
vn -0.706800 0.707350 -0.009482
vn -0.706800 0.707350 -0.009482
vn -0.382275 0.923959 -0.012878
vn -0.706800 0.707350 -0.009482
vn -0.382280 0.923957 -0.012878
vn -0.706800 0.707350 -0.009482
vn 0.000434 0.999898 -0.014314
vn -0.382275 0.923959 -0.012878
vn 0.000432 0.999897 -0.014314
vn -0.382280 0.923957 -0.012878
vn 0.383081 0.923615 -0.013570
vn 0.000434 0.999898 -0.014314
vn 0.383083 0.923614 -0.013570
vn 0.000432 0.999897 -0.014314
vn 0.707413 0.706718 -0.010761
vn 0.383081 0.923615 -0.013570
vn 0.707416 0.706716 -0.010760
vn 0.383083 0.923614 -0.013570
vn 0.924045 0.382232 -0.006313
vn 0.707413 0.706718 -0.010761
vn 0.924045 0.382231 -0.006313
vn 0.707416 0.706716 -0.010760
vn 1.000000 -0.000446 -0.000904
vn 0.924045 0.382232 -0.006313
vn 1.000000 -0.000446 -0.000904
vn 0.924045 0.382231 -0.006313
vn 0.923714 -0.383056 0.004642
vn 1.000000 -0.000446 -0.000904
vn 0.923713 -0.383056 0.004642
vn 1.000000 -0.000446 -0.000904
vn 0.706800 -0.707350 0.009482
vn 0.923714 -0.383056 0.004642
vn 0.706800 -0.707350 0.009482
vn 0.923713 -0.383056 0.004642
vn 0.382284 -0.923955 0.012878
vn 0.706800 -0.707350 0.009482
vn 0.382281 -0.923956 0.012878
vn 0.706800 -0.707350 0.009482
vn -0.000435 -0.999898 0.014314
vn 0.382284 -0.923955 0.012878
vn -0.000436 -0.999897 0.014314
vn 0.382281 -0.923956 0.012878
vn -0.383088 -0.923612 0.013570
vn -0.000435 -0.999898 0.014314
vn -0.383086 -0.923613 0.013570
vn -0.000436 -0.999897 0.014314
vn -0.707415 -0.706716 0.010760
vn -0.383088 -0.923612 0.013570
vn -0.707414 -0.706717 0.010761
vn -0.383086 -0.923613 0.013570
vn -0.924046 -0.382230 0.006313
vn -0.707415 -0.706716 0.010760
vn -0.924046 -0.382230 0.006313
vn -0.707414 -0.706717 0.010761
vn -1.000000 0.000447 0.000904
vn -0.924046 -0.382230 0.006313
vn -1.000000 0.000447 0.000904
vn -0.924046 -0.382230 0.006313
vn -0.923713 0.383057 -0.004642
vn -1.000000 0.000447 0.000904
vn -0.923713 0.383057 -0.004642
vn -1.000000 0.000447 0.000904
vn -0.923713 0.383057 -0.004642
vn -0.923713 0.383057 -0.004642
vn -0.706800 0.707350 -0.009482
vn -0.706800 0.707350 -0.009482
vn -0.382273 0.923960 -0.012878
vn -0.706800 0.707350 -0.009482
vn -0.382275 0.923959 -0.012878
vn -0.706800 0.707350 -0.009482
vn 0.000440 0.999897 -0.014313
vn -0.382273 0.923960 -0.012878
vn 0.000434 0.999898 -0.014314
vn -0.382275 0.923959 -0.012878
vn 0.383080 0.923616 -0.013570
vn 0.000440 0.999897 -0.014313
vn 0.383081 0.923615 -0.013570
vn 0.000434 0.999898 -0.014314
vn 0.707410 0.706721 -0.010760
vn 0.383080 0.923616 -0.013570
vn 0.707413 0.706718 -0.010761
vn 0.383081 0.923615 -0.013570
vn 0.924045 0.382232 -0.006313
vn 0.707410 0.706721 -0.010760
vn 0.924045 0.382232 -0.006313
vn 0.707413 0.706718 -0.010761
vn 1.000000 -0.000447 -0.000904
vn 0.924045 0.382232 -0.006313
vn 1.000000 -0.000446 -0.000904
vn 0.924045 0.382232 -0.006313
vn 0.923713 -0.383057 0.004642
vn 1.000000 -0.000447 -0.000904
vn 0.923714 -0.383056 0.004642
vn 1.000000 -0.000446 -0.000904
vn 0.706800 -0.707350 0.009481
vn 0.923713 -0.383057 0.004642
vn 0.706800 -0.707350 0.009482
vn 0.923714 -0.383056 0.004642
vn 0.382288 -0.923954 0.012877
vn 0.706800 -0.707350 0.009481
vn 0.382284 -0.923955 0.012878
vn 0.706800 -0.707350 0.009482
vn -0.000430 -0.999897 0.014313
vn 0.382288 -0.923954 0.012877
vn -0.000435 -0.999898 0.014314
vn 0.382284 -0.923955 0.012878
vn -0.383090 -0.923611 0.013570
vn -0.000430 -0.999897 0.014313
vn -0.383088 -0.923612 0.013570
vn -0.000435 -0.999898 0.014314
vn -0.707418 -0.706714 0.010761
vn -0.383090 -0.923611 0.013570
vn -0.707415 -0.706716 0.010760
vn -0.383088 -0.923612 0.013570
vn -0.924046 -0.382230 0.006313
vn -0.707418 -0.706714 0.010761
vn -0.924046 -0.382230 0.006313
vn -0.707415 -0.706716 0.010760
vn -1.000000 0.000447 0.000904
vn -0.924046 -0.382230 0.006313
vn -1.000000 0.000447 0.000904
vn -0.924046 -0.382230 0.006313
vn -0.923713 0.383057 -0.004642
vn -1.000000 0.000447 0.000904
vn -0.923713 0.383057 -0.004642
vn -1.000000 0.000447 0.000904
vn -0.923712 0.383059 -0.004642
vn -0.923713 0.383057 -0.004642
vn -0.706802 0.707348 -0.009482
vn -0.706800 0.707350 -0.009482
vn -0.382280 0.923957 -0.012878
vn -0.706802 0.707348 -0.009482
vn -0.382273 0.923960 -0.012878
vn -0.706800 0.707350 -0.009482
vn 0.000441 0.999897 -0.014313
vn -0.382280 0.923957 -0.012878
vn 0.000440 0.999897 -0.014313
vn -0.382273 0.923960 -0.012878
vn 0.383080 0.923616 -0.013569
vn 0.000441 0.999897 -0.014313
vn 0.383080 0.923616 -0.013570
vn 0.000440 0.999897 -0.014313
vn 0.707409 0.706722 -0.010760
vn 0.383080 0.923616 -0.013569
vn 0.707410 0.706721 -0.010760
vn 0.383080 0.923616 -0.013570
vn 0.924046 0.382230 -0.006313
vn 0.707409 0.706722 -0.010760
vn 0.924045 0.382232 -0.006313
vn 0.707410 0.706721 -0.010760
vn 1.000000 -0.000447 -0.000904
vn 0.924046 0.382230 -0.006313
vn 1.000000 -0.000447 -0.000904
vn 0.924045 0.382232 -0.006313
vn 0.923713 -0.383058 0.004642
vn 1.000000 -0.000447 -0.000904
vn 0.923713 -0.383057 0.004642
vn 1.000000 -0.000447 -0.000904
vn 0.706800 -0.707350 0.009482
vn 0.923713 -0.383058 0.004642
vn 0.706800 -0.707350 0.009481
vn 0.923713 -0.383057 0.004642
vn 0.382286 -0.923954 0.012878
vn 0.706800 -0.707350 0.009482
vn 0.382288 -0.923954 0.012877
vn 0.706800 -0.707350 0.009481
vn -0.000428 -0.999897 0.014313
vn 0.382286 -0.923954 0.012878
vn -0.000430 -0.999897 0.014313
vn 0.382288 -0.923954 0.012877
vn -0.383084 -0.923614 0.013570
vn -0.000428 -0.999897 0.014313
vn -0.383090 -0.923611 0.013570
vn -0.000430 -0.999897 0.014313
vn -0.707417 -0.706714 0.010761
vn -0.383084 -0.923614 0.013570
vn -0.707418 -0.706714 0.010761
vn -0.383090 -0.923611 0.013570
vn -0.924046 -0.382230 0.006313
vn -0.707417 -0.706714 0.010761
vn -0.924046 -0.382230 0.006313
vn -0.707418 -0.706714 0.010761
vn -1.000000 0.000447 0.000904
vn -0.924046 -0.382230 0.006313
vn -1.000000 0.000447 0.000904
vn -0.924046 -0.382230 0.006313
vn -0.923712 0.383059 -0.004642
vn -1.000000 0.000447 0.000904
vn -0.923713 0.383057 -0.004642
vn -1.000000 0.000447 0.000904
vn 0.831230 -0.555882 0.007201
vn 0.831230 -0.555882 0.007201
vn 0.831228 -0.555885 0.007198
vn 0.831228 -0.555886 0.007198
vn 0.706795 -0.707355 0.009482
vn 0.382285 -0.923955 0.012878
vn 0.706796 -0.707354 0.009482
vn 0.382284 -0.923955 0.012878
vn 0.382285 -0.923955 0.012878
vn -0.000427 -0.999898 0.014314
vn 0.382284 -0.923955 0.012878
vn -0.000426 -0.999897 0.014314
vn -0.000427 -0.999898 0.014314
vn -0.383093 -0.923610 0.013570
vn -0.000426 -0.999897 0.014314
vn -0.383090 -0.923611 0.013570
vn -0.383093 -0.923610 0.013570
vn -0.707413 -0.706718 0.010761
vn -0.383090 -0.923611 0.013570
vn -0.707414 -0.706718 0.010761
vn -0.707413 -0.706718 0.010761
vn -0.924044 -0.382233 0.006313
vn -0.707414 -0.706718 0.010761
vn -0.924046 -0.382230 0.006313
vn -0.924044 -0.382233 0.006313
vn -1.000000 0.000447 0.000904
vn -0.924046 -0.382230 0.006313
vn -1.000000 0.000448 0.000904
vn -1.000000 0.000447 0.000904
vn -0.923712 0.383059 -0.004642
vn -1.000000 0.000448 0.000904
vn -0.923713 0.383057 -0.004642
vn -0.923712 0.383059 -0.004642
vn -0.706803 0.707347 -0.009482
vn -0.923713 0.383057 -0.004642
vn -0.706803 0.707347 -0.009482
vn -0.706803 0.707347 -0.009482
vn -0.382284 0.923955 -0.012878
vn -0.706803 0.707347 -0.009482
vn -0.382282 0.923956 -0.012878
vn -0.382284 0.923955 -0.012878
vn 0.000443 0.999898 -0.014314
vn -0.382282 0.923956 -0.012878
vn 0.000442 0.999897 -0.014314
vn 0.000443 0.999898 -0.014314
vn 0.383078 0.923616 -0.013570
vn 0.000442 0.999897 -0.014314
vn 0.383078 0.923616 -0.013570
vn 0.383078 0.923616 -0.013570
vn 0.707414 0.706718 -0.010761
vn 0.383078 0.923616 -0.013570
vn 0.707414 0.706717 -0.010761
vn 0.707414 0.706718 -0.010761
vn 0.924046 0.382228 -0.006313
vn 0.707414 0.706717 -0.010761
vn 0.924046 0.382229 -0.006313
vn 0.924046 0.382228 -0.006313
vn 1.000000 -0.000447 -0.000904
vn 0.924046 0.382229 -0.006313
vn 1.000000 -0.000448 -0.000904
vn 1.000000 -0.000447 -0.000904
vn 0.923712 -0.383060 0.004642
vn 1.000000 -0.000448 -0.000904
vn 0.923711 -0.383061 0.004642
vn 0.000920 0.014309 0.999897
vn 0.000920 0.014309 0.999897
vn 0.000920 0.014309 0.999897
vn 0.000920 0.014310 0.999897
vn 0.000920 0.014311 0.999897
vn 0.000920 0.014311 0.999897
vn 0.000895 0.014300 0.999897
vn 0.000895 0.014300 0.999897
vn 0.000895 0.014300 0.999897
vn 0.000939 0.014300 0.999897
vn 0.000939 0.014300 0.999897
vn 0.000939 0.014300 0.999897
vn 0.000908 0.014312 0.999897
vn 0.000908 0.014312 0.999897
vn 0.000908 0.014312 0.999897
vn 0.000894 0.014326 0.999897
vn 0.000894 0.014326 0.999897
vn 0.000894 0.014326 0.999897
vn 0.000903 0.014300 0.999897
vn 0.000903 0.014300 0.999897
vn 0.000903 0.014300 0.999897
vn 0.000905 0.014319 0.999897
vn 0.000905 0.014319 0.999897
vn 0.000905 0.014319 0.999897
vn 0.000905 0.014318 0.999897
vn 0.000905 0.014318 0.999897
vn 0.000905 0.014318 0.999897
vn 0.000914 0.014324 0.999897
vn 0.000914 0.014324 0.999897
vn 0.000914 0.014324 0.999897
vn 0.000889 0.014317 0.999897
vn 0.000889 0.014317 0.999897
vn 0.000889 0.014317 0.999897
vn 0.000914 0.014317 0.999897
vn 0.000914 0.014317 0.999897
vn 0.000914 0.014317 0.999897
vn 0.000908 0.014317 0.999897
vn 0.000908 0.014316 0.999897
vn 0.000908 0.014317 0.999897
vn 0.000922 0.014306 0.999897
vn 0.000922 0.014306 0.999897
vn 0.000922 0.014306 0.999897
vn 0.000922 0.014304 0.999897
vn 0.000922 0.014304 0.999897
vn 0.000922 0.014304 0.999897
vn 0.000922 0.014316 0.999897
vn 0.000922 0.014316 0.999897
vn 0.000922 0.014316 0.999897
vn 0.000000 0.012362 0.999924
vn 0.000000 0.012362 0.999924
vn 0.000000 0.012362 0.999924
vn 0.000000 0.012362 0.999924
vn -0.702497 0.467245 -0.536824
vn -0.815925 0.577934 -0.016083
vn 0.000000 0.656531 -0.754299
vn 0.000000 0.999613 -0.027818
vn 0.705814 -0.257945 -0.659766
vn 1.000000 0.000000 0.000000
vn 0.884210 -0.158634 -0.439326
vn 1.000000 0.000000 0.000000
vn 0.000000 -0.147042 0.989130
vn 0.000000 -0.175422 0.984493
vn -0.713497 -0.103027 0.693043
vn -0.772004 -0.111501 0.625762
vn 0.000000 -0.295170 -0.955445
vn -0.894653 -0.150970 -0.420481
vn 0.000000 -0.364124 -0.931351
vn -0.728313 -0.249514 -0.638203
vn -0.728313 -0.249514 -0.638203
vn -0.894653 -0.150970 -0.420481
vn -1.000000 0.000000 0.000000
vn -1.000000 0.000000 0.000000
vn 1.000000 0.000000 0.000000
vn 1.000000 0.000000 0.000001
vn 0.884210 -0.158634 -0.439326
vn 0.988250 -0.026406 -0.150546
vn 0.000000 -0.147042 0.989130
vn -0.713497 -0.103027 0.693043
vn 0.000000 0.065519 0.997851
vn -0.586867 0.053050 0.807943
vn -1.000000 0.000000 0.000000
vn -0.894653 -0.150970 -0.420481
vn -1.000000 0.000000 0.000000
vn -0.988250 -0.026407 -0.150547
vn -0.412937 0.311981 -0.855658
vn 0.000000 0.343689 -0.939084
vn -0.447929 -0.153174 -0.880850
vn 0.000000 -0.171550 -0.985175
vn 0.000000 0.514716 0.857361
vn 0.000000 0.274029 0.961721
vn -0.515518 0.441048 0.734655
vn -0.594471 0.220351 0.773337
vn -0.718342 -0.458962 -0.522819
vn -0.436723 -0.520594 -0.733659
vn -1.000000 -0.000001 0.000000
vn -1.000000 -0.000002 0.000000
vn 1.000000 -0.000001 0.000001
vn 0.414214 -0.526718 -0.742290
vn 1.000000 0.000000 0.000001
vn 0.697599 -0.474444 -0.536898
vn 0.000000 -0.735118 -0.677940
vn 0.000000 -0.578697 -0.815543
vn -0.718342 -0.458962 -0.522819
vn -0.436723 -0.520594 -0.733659
vn 1.000000 -0.000001 0.000001
vn 0.265931 -0.942622 -0.201854
vn 1.000000 -0.000001 0.000001
vn 0.314008 -0.839638 -0.443177
vn 0.000000 -0.977831 -0.209394
vn -0.282307 -0.938057 -0.200876
vn 0.000000 -0.884370 -0.466787
vn -0.332712 -0.833986 -0.440193
vn 1.000000 -0.000002 0.000001
vn 1.000000 -0.000001 0.000001
vn 0.373093 -0.648446 -0.663566
vn 0.314008 -0.839638 -0.443177
vn 0.000000 0.643851 0.765151
vn -0.477892 0.565569 0.672124
vn 0.000000 0.817259 0.576271
vn -0.427341 0.738876 0.521002
vn -1.000000 -0.000002 0.000001
vn -0.394229 -0.642308 -0.657285
vn -1.000000 -0.000001 0.000001
vn -0.332712 -0.833986 -0.440193
vn -0.394229 -0.642308 -0.657285
vn 0.000000 -0.698911 -0.715209
vn -0.332712 -0.833986 -0.440193
vn 0.000000 -0.884370 -0.466787
vn 1.000000 -0.000001 0.000001
vn 0.845136 0.006627 0.534511
vn 0.265931 -0.942622 -0.201854
vn 0.225918 -0.973901 0.021844
vn 0.000000 0.947275 0.320423
vn -0.338477 0.891361 0.301510
vn 0.000000 0.935357 0.353706
vn -0.292989 0.894310 0.338183
vn -1.000000 -0.000001 0.000001
vn -0.282307 -0.938057 -0.200876
vn -0.860165 0.006322 0.509977
vn -0.240153 -0.970491 0.021768
vn -0.282307 -0.938057 -0.200876
vn 0.000000 -0.977831 -0.209394
vn -0.240153 -0.970491 0.021768
vn 0.000000 -0.999749 0.022424
vn 0.000000 0.947275 0.320423
vn 0.000000 0.817259 0.576271
vn -0.338477 0.891361 0.301510
vn -0.427341 0.738876 0.521002
vn -1.000000 -0.000001 0.000001
vn -1.000000 -0.000001 0.000001
vn -0.282307 -0.938057 -0.200876
vn -0.332712 -0.833986 -0.440193
vn -0.894653 -0.150970 -0.420481
vn 0.000000 -0.295170 -0.955445
vn -0.412937 0.311981 -0.855658
vn 0.000000 0.343689 -0.939084
vn 0.988250 -0.026406 -0.150546
vn 0.429036 -0.154764 -0.889930
vn 0.884210 -0.158634 -0.439326
vn 0.394150 0.318906 -0.861942
vn -0.718342 -0.458962 -0.522819
vn -0.415695 -0.560956 -0.715910
vn 0.000000 -0.735118 -0.677940
vn 0.000000 -0.621082 -0.783745
vn -0.988250 -0.026407 -0.150547
vn -0.894653 -0.150970 -0.420481
vn -0.447929 -0.153174 -0.880850
vn -0.412937 0.311981 -0.855658
vn -1.000000 0.000000 0.000000
vn -0.815925 0.577934 -0.016083
vn -0.728313 -0.249514 -0.638203
vn -0.702497 0.467245 -0.536824
vn -0.772004 -0.111501 0.625762
vn 0.000000 -0.175422 0.984493
vn -0.702652 0.491092 0.514886
vn 0.000000 0.690188 0.723630
vn 1.000000 0.000000 0.000000
vn 0.705814 -0.257945 -0.659766
vn 0.797740 0.602768 -0.016774
vn 0.679171 0.481880 -0.553640
vn 0.000000 -0.364124 -0.931351
vn -0.728313 -0.249514 -0.638203
vn 0.000000 0.656531 -0.754299
vn -0.702497 0.467245 -0.536824
vn 0.690499 -0.106361 0.715471
vn 0.000000 -0.147042 0.989130
vn 0.562005 0.054193 0.825357
vn 0.000000 0.065519 0.997851
vn 0.690499 -0.106361 0.715471
vn 0.751351 -0.115762 0.649670
vn 0.000000 -0.147042 0.989130
vn 0.000000 -0.175422 0.984493
vn 0.000000 0.690188 0.723630
vn 0.000000 -0.175422 0.984493
vn 0.679331 0.506482 0.531023
vn 0.751351 -0.115762 0.649670
vn 0.000000 0.656531 -0.754299
vn 0.000000 0.999613 -0.027818
vn 0.679171 0.481880 -0.553640
vn 0.797740 0.602768 -0.016774
vn 0.705814 -0.257945 -0.659766
vn 0.000000 -0.364124 -0.931351
vn 0.679171 0.481880 -0.553640
vn 0.000000 0.656531 -0.754299
vn 0.884210 -0.158634 -0.439326
vn 0.000000 -0.295170 -0.955445
vn 0.705814 -0.257945 -0.659766
vn 0.000000 -0.364124 -0.931351
vn 0.000000 0.343689 -0.939084
vn 0.000000 -0.295170 -0.955445
vn 0.394150 0.318906 -0.861942
vn 0.884210 -0.158634 -0.439326
vn 0.000000 -0.171550 -0.985175
vn 0.000000 0.343689 -0.939084
vn 0.429036 -0.154764 -0.889930
vn 0.394150 0.318906 -0.861942
vn 0.697599 -0.474444 -0.536898
vn 0.000000 -0.735118 -0.677940
vn 0.396916 -0.569370 -0.719914
vn 0.000000 -0.621082 -0.783745
vn 0.697599 -0.474444 -0.536898
vn 0.414214 -0.526718 -0.742290
vn 0.000000 -0.735118 -0.677940
vn 0.000000 -0.578697 -0.815543
vn 0.000000 -0.884370 -0.466787
vn 0.000000 -0.698911 -0.715209
vn 0.314008 -0.839638 -0.443177
vn 0.373093 -0.648446 -0.663566
vn 0.265931 -0.942622 -0.201854
vn 0.000000 -0.977831 -0.209394
vn 0.314008 -0.839638 -0.443177
vn 0.000000 -0.884370 -0.466787
vn 0.000000 -0.999749 0.022424
vn 0.000000 -0.977831 -0.209394
vn 0.225918 -0.973901 0.021844
vn 0.265931 -0.942622 -0.201854
vn 0.225918 -0.973901 0.021844
vn 0.845136 0.006627 0.534511
vn 0.000000 -0.999749 0.022424
vn 0.000000 0.012396 0.999923
vn 0.319526 0.897616 0.303626
vn 0.000000 0.947275 0.320423
vn 0.276097 0.898999 0.339957
vn 0.000000 0.935357 0.353706
vn 0.319526 0.897616 0.303626
vn 0.405112 0.747192 0.526866
vn 0.000000 0.947275 0.320423
vn 0.000000 0.817259 0.576271
vn 0.454324 0.573565 0.681625
vn 0.000000 0.643851 0.765151
vn 0.405112 0.747192 0.526866
vn 0.000000 0.817259 0.576271
vn 0.569610 0.225228 0.790453
vn 0.000000 0.274029 0.961721
vn 0.491240 0.448329 0.746782
vn 0.000000 0.514716 0.857361
vn 0.491240 0.448329 0.746782
vn 1.000000 -0.000001 0.000001
vn 0.569610 0.225228 0.790453
vn 1.000000 0.000000 0.000001
vn 1.000000 -0.000001 0.000001
vn 1.000000 -0.000002 0.000001
vn 0.405112 0.747192 0.526866
vn 0.454324 0.573565 0.681625
vn 0.319526 0.897616 0.303626
vn 1.000000 -0.000001 0.000001
vn 0.405112 0.747192 0.526866
vn 1.000000 -0.000001 0.000001
vn 0.845136 0.006627 0.534511
vn 1.000000 -0.000001 0.000001
vn 0.276097 0.898999 0.339957
vn 0.319526 0.897616 0.303626
vn 0.000000 0.012396 0.999923
vn 0.845136 0.006627 0.534511
vn 0.000000 0.935357 0.353706
vn 0.276097 0.898999 0.339957
vn -0.860165 0.006322 0.509977
vn 0.000000 0.012396 0.999923
vn -0.292989 0.894310 0.338183
vn 0.000000 0.935357 0.353706
vn -0.338477 0.891361 0.301510
vn -1.000000 -0.000001 0.000001
vn -0.292989 0.894310 0.338183
vn -0.860165 0.006322 0.509977
vn -0.338477 0.891361 0.301510
vn -0.427341 0.738876 0.521002
vn -1.000000 -0.000001 0.000001
vn -1.000000 -0.000001 0.000001
vn -0.477892 0.565569 0.672124
vn -1.000000 -0.000002 0.000001
vn -0.427341 0.738876 0.521002
vn -1.000000 -0.000001 0.000001
vn -1.000000 -0.000001 0.000000
vn -1.000000 -0.000002 0.000000
vn -0.594471 0.220351 0.773337
vn -0.515518 0.441048 0.734655
vn -0.713497 -0.103027 0.693043
vn -1.000000 0.000000 0.000000
vn -0.586867 0.053050 0.807943
vn -1.000000 0.000000 0.000000
vn -0.772004 -0.111501 0.625762
vn -1.000000 0.000000 0.000000
vn -0.713497 -0.103027 0.693043
vn -1.000000 0.000000 0.000000
vn -1.000000 0.000000 0.000000
vn -0.772004 -0.111501 0.625762
vn -0.815925 0.577934 -0.016083
vn -0.702652 0.491092 0.514886
vn 0.000000 0.999613 -0.027818
vn -0.815925 0.577934 -0.016083
vn 0.000000 0.690188 0.723630
vn -0.702652 0.491092 0.514886
vn 0.797740 0.602768 -0.016774
vn 0.000000 0.999613 -0.027818
vn 0.679331 0.506482 0.531023
vn 0.000000 0.690188 0.723630
vn 1.000000 0.000000 0.000000
vn 0.797740 0.602768 -0.016774
vn 0.751351 -0.115762 0.649670
vn 0.679331 0.506482 0.531023
vn 1.000000 0.000000 0.000000
vn 1.000000 0.000000 0.000000
vn 0.690499 -0.106361 0.715471
vn 0.751351 -0.115762 0.649670
vn 1.000000 0.000000 0.000001
vn 1.000000 0.000000 0.000000
vn 0.562005 0.054193 0.825357
vn 0.690499 -0.106361 0.715471
vn 1.000000 0.000000 0.000001
vn 0.562005 0.054193 0.825357
vn 1.000000 0.000000 0.000001
vn 0.569610 0.225228 0.790453
vn 0.988250 -0.026406 -0.150546
vn 1.000000 0.000000 0.000001
vn 0.697599 -0.474444 -0.536898
vn 1.000000 0.000000 0.000001
vn 0.429036 -0.154764 -0.889930
vn 0.988250 -0.026406 -0.150546
vn 0.396916 -0.569370 -0.719914
vn 0.697599 -0.474444 -0.536898
vn 0.000000 -0.621082 -0.783745
vn 0.000000 -0.171550 -0.985175
vn 0.396916 -0.569370 -0.719914
vn 0.429036 -0.154764 -0.889930
vn -0.447929 -0.153174 -0.880850
vn 0.000000 -0.171550 -0.985175
vn -0.415695 -0.560956 -0.715910
vn 0.000000 -0.621082 -0.783745
vn -0.718342 -0.458962 -0.522819
vn -0.988250 -0.026407 -0.150547
vn -0.415695 -0.560956 -0.715910
vn -0.447929 -0.153174 -0.880850
vn -0.988250 -0.026407 -0.150547
vn -0.718342 -0.458962 -0.522819
vn -1.000000 0.000000 0.000000
vn -1.000000 -0.000001 0.000000
vn -1.000000 0.000000 0.000000
vn -1.000000 -0.000001 0.000000
vn -0.586867 0.053050 0.807943
vn -0.594471 0.220351 0.773337
vn 0.000000 0.065519 0.997851
vn -0.586867 0.053050 0.807943
vn 0.000000 0.274029 0.961721
vn -0.594471 0.220351 0.773337
vn 0.562005 0.054193 0.825357
vn 0.000000 0.065519 0.997851
vn 0.569610 0.225228 0.790453
vn 0.000000 0.274029 0.961721
vn 0.454324 0.573565 0.681625
vn 1.000000 -0.000002 0.000001
vn 0.491240 0.448329 0.746782
vn 1.000000 -0.000001 0.000001
vn 0.414214 -0.526718 -0.742290
vn 1.000000 -0.000001 0.000001
vn 0.373093 -0.648446 -0.663566
vn 1.000000 -0.000002 0.000001
vn 0.000000 -0.578697 -0.815543
vn 0.414214 -0.526718 -0.742290
vn 0.000000 -0.698911 -0.715209
vn 0.373093 -0.648446 -0.663566
vn -0.436723 -0.520594 -0.733659
vn 0.000000 -0.578697 -0.815543
vn -0.394229 -0.642308 -0.657285
vn 0.000000 -0.698911 -0.715209
vn -0.436723 -0.520594 -0.733659
vn -0.394229 -0.642308 -0.657285
vn -1.000000 -0.000002 0.000000
vn -1.000000 -0.000002 0.000001
vn -1.000000 -0.000002 0.000000
vn -1.000000 -0.000002 0.000001
vn -0.515518 0.441048 0.734655
vn -0.477892 0.565569 0.672124
vn 0.000000 0.643851 0.765151
vn 0.000000 0.514716 0.857361
vn -0.477892 0.565569 0.672124
vn -0.515518 0.441048 0.734655
vn 0.491240 0.448329 0.746782
vn 0.000000 0.514716 0.857361
vn 0.454324 0.573565 0.681625
vn 0.000000 0.643851 0.765151
s 1
g gun_metal
f 33/1/1 241/2/2 34/4/3
f 34/4/3 241/2/2 242/3/4
s 2
f 34/4/5 242/3/6 37/6/7
f 37/6/7 242/3/6 243/5/8
s 3
f 37/6/9 243/5/10 39/8/11
f 39/8/11 243/5/10 244/7/12
s 4
f 39/8/13 244/7/14 41/10/15
f 41/10/15 244/7/14 245/9/16
s 5
f 41/10/17 245/9/18 43/12/19
f 43/12/19 245/9/18 246/11/20
s 6
f 43/12/21 246/11/22 45/14/23
f 45/14/23 246/11/22 247/13/24
s 7
f 45/14/25 247/13/26 47/16/27
f 47/16/27 247/13/26 248/15/28
s 8
f 47/16/29 248/15/30 49/18/31
f 49/18/31 248/15/30 249/17/32
s 9
f 49/18/33 249/17/34 51/20/35
f 51/20/35 249/17/34 250/19/36
s 10
f 51/20/37 250/19/38 53/22/39
f 53/22/39 250/19/38 251/21/40
s 11
f 53/22/41 251/21/42 55/24/43
f 55/24/43 251/21/42 252/23/44
s 12
f 55/24/45 252/23/46 57/26/47
f 57/26/47 252/23/46 253/25/48
s 13
f 57/26/49 253/25/50 59/28/51
f 59/28/51 253/25/50 254/27/52
s 14
f 59/28/53 254/27/54 61/30/55
f 61/30/55 254/27/54 255/29/56
s 15
f 61/30/57 255/29/58 63/32/59
f 63/32/59 255/29/58 256/31/60
s 16
f 63/32/61 256/31/62 33/34/63
f 33/34/63 256/31/62 241/33/64
s 17
f 1/35/65 2/36/66 153/38/67
f 153/38/67 2/36/66 152/37/68
s 18
f 2/36/69 3/39/70 152/37/71
f 152/37/71 3/39/70 151/40/72
s 19
f 3/39/73 4/41/74 151/40/75
f 151/40/75 4/41/74 150/42/76
s 20
f 4/41/77 5/43/78 150/42/79
f 150/42/79 5/43/78 149/44/80
s 21
f 5/43/81 6/45/82 149/44/83
f 149/44/83 6/45/82 148/46/84
s 22
f 6/45/85 7/47/86 148/46/87
f 148/46/87 7/47/86 147/48/88
s 23
f 7/47/89 8/49/90 147/48/91
f 147/48/91 8/49/90 146/50/92
s 24
f 8/49/93 9/51/94 146/50/95
f 146/50/95 9/51/94 145/52/96
s 25
f 9/51/97 10/53/98 145/52/99
f 145/52/99 10/53/98 160/54/100
s 26
f 10/53/101 11/55/102 160/54/103
f 160/54/103 11/55/102 159/56/104
s 27
f 11/55/105 12/57/106 159/56/107
f 159/56/107 12/57/106 158/58/108
s 28
f 12/57/109 13/59/110 158/58/111
f 158/58/111 13/59/110 157/60/112
s 29
f 13/59/113 14/61/114 157/60/115
f 157/60/115 14/61/114 156/62/116
s 30
f 14/61/117 15/63/118 156/62/119
f 156/62/119 15/63/118 155/64/120
s 31
f 15/63/121 16/65/122 155/64/123
f 155/64/123 16/65/122 154/66/124
s 32
f 16/65/125 1/67/126 154/66/127
f 154/66/127 1/67/126 153/68/128
s 33
f 1/69/129 33/1/130 2/70/131
f 2/70/131 33/1/130 34/4/132
s 34
f 24/71/133 35/72/134 25/74/135
f 25/74/135 35/72/134 36/73/136
s 35
f 2/70/137 34/4/138 3/75/139
f 3/75/139 34/4/138 37/6/140
s 36
f 23/76/141 38/77/142 24/71/143
f 24/71/143 38/77/142 35/72/144
s 37
f 3/75/145 37/6/146 4/78/147
f 4/78/147 37/6/146 39/8/148
s 38
f 22/79/149 40/80/150 23/76/151
f 23/76/151 40/80/150 38/77/152
s 39
f 4/78/153 39/8/154 5/81/155
f 5/81/155 39/8/154 41/10/156
s 40
f 21/82/157 42/83/158 22/79/159
f 22/79/159 42/83/158 40/80/160
s 41
f 5/81/161 41/10/162 6/84/163
f 6/84/163 41/10/162 43/12/164
s 42
f 20/85/165 44/86/166 21/82/167
f 21/82/167 44/86/166 42/83/168
s 43
f 6/84/169 43/12/170 7/87/171
f 7/87/171 43/12/170 45/14/172
s 44
f 19/88/173 46/89/174 20/85/175
f 20/85/175 46/89/174 44/86/176
s 45
f 7/87/177 45/14/178 8/90/179
f 8/90/179 45/14/178 47/16/180
s 46
f 18/91/181 48/92/182 19/88/183
f 19/88/183 48/92/182 46/89/184
s 47
f 8/90/185 47/16/186 9/93/187
f 9/93/187 47/16/186 49/18/188
s 48
f 17/94/189 50/95/190 18/91/191
f 18/91/191 50/95/190 48/92/192
s 49
f 9/93/193 49/18/194 10/96/195
f 10/96/195 49/18/194 51/20/196
s 50
f 32/97/197 52/98/198 17/94/199
f 17/94/199 52/98/198 50/95/200
s 51
f 10/96/201 51/20/202 11/99/203
f 11/99/203 51/20/202 53/22/204
s 52
f 31/100/205 54/101/206 32/97/207
f 32/97/207 54/101/206 52/98/208
s 53
f 11/99/209 53/22/210 12/102/211
f 12/102/211 53/22/210 55/24/212
s 54
f 30/103/213 56/104/214 31/100/215
f 31/100/215 56/104/214 54/101/216
s 55
f 12/102/217 55/24/218 13/105/219
f 13/105/219 55/24/218 57/26/220
s 56
f 29/106/221 58/107/222 30/103/223
f 30/103/223 58/107/222 56/104/224
s 57
f 13/105/225 57/26/226 14/108/227
f 14/108/227 57/26/226 59/28/228
s 58
f 28/109/229 60/110/230 29/106/231
f 29/106/231 60/110/230 58/107/232
s 59
f 14/108/233 59/28/234 15/111/235
f 15/111/235 59/28/234 61/30/236
s 60
f 27/112/237 62/113/238 28/109/239
f 28/109/239 62/113/238 60/110/240
s 61
f 15/111/241 61/30/242 16/114/243
f 16/114/243 61/30/242 63/32/244
s 62
f 26/115/245 64/116/246 27/112/247
f 27/112/247 64/116/246 62/113/248
s 63
f 16/114/249 63/32/250 1/117/251
f 1/117/251 63/32/250 33/34/252
s 64
f 25/118/253 36/119/254 26/115/255
f 26/115/255 36/119/254 64/116/256
s 65
f 66/120/257 65/121/258 18/123/259
f 18/123/259 65/121/258 17/122/260
s 66
f 67/124/261 66/120/262 19/125/263
f 19/125/263 66/120/262 18/123/264
s 67
f 68/126/265 67/124/266 20/127/267
f 20/127/267 67/124/266 19/125/268
s 68
f 69/128/269 68/126/270 21/129/271
f 21/129/271 68/126/270 20/127/272
s 69
f 70/130/273 69/128/274 22/131/275
f 22/131/275 69/128/274 21/129/276
s 70
f 71/132/277 70/130/278 23/133/279
f 23/133/279 70/130/278 22/131/280
s 71
f 72/134/281 71/132/282 24/135/283
f 24/135/283 71/132/282 23/133/284
s 72
f 73/136/285 72/134/286 25/137/287
f 25/137/287 72/134/286 24/135/288
s 73
f 74/138/289 73/139/290 26/141/291
f 26/141/291 73/139/290 25/140/292
s 74
f 75/142/293 74/138/294 27/143/295
f 27/143/295 74/138/294 26/141/296
s 75
f 76/144/297 75/142/298 28/145/299
f 28/145/299 75/142/298 27/143/300
s 76
f 77/146/301 76/144/302 29/147/303
f 29/147/303 76/144/302 28/145/304
s 77
f 78/148/305 77/146/306 30/149/307
f 30/149/307 77/146/306 29/147/308
s 78
f 79/150/309 78/148/310 31/151/311
f 31/151/311 78/148/310 30/149/312
s 79
f 80/152/313 79/150/314 32/153/315
f 32/153/315 79/150/314 31/151/316
s 80
f 65/121/317 80/152/318 17/122/319
f 17/122/319 80/152/318 32/153/320
s 81
f 82/154/321 81/155/322 66/120/323
f 66/120/323 81/155/322 65/121/324
s 82
f 83/156/325 82/154/326 67/124/327
f 67/124/327 82/154/326 66/120/328
s 83
f 84/157/329 83/156/330 68/126/331
f 68/126/331 83/156/330 67/124/332
s 84
f 85/158/333 84/157/334 69/128/335
f 69/128/335 84/157/334 68/126/336
s 85
f 86/159/337 85/158/338 70/130/339
f 70/130/339 85/158/338 69/128/340
s 86
f 87/160/341 86/159/342 71/132/343
f 71/132/343 86/159/342 70/130/344
s 87
f 88/161/345 87/160/346 72/134/347
f 72/134/347 87/160/346 71/132/348
s 88
f 89/162/349 88/161/350 73/136/351
f 73/136/351 88/161/350 72/134/352
s 89
f 90/163/353 89/164/354 74/138/355
f 74/138/355 89/164/354 73/139/356
s 90
f 91/165/357 90/163/358 75/142/359
f 75/142/359 90/163/358 74/138/360
s 91
f 92/166/361 91/165/362 76/144/363
f 76/144/363 91/165/362 75/142/364
s 92
f 93/167/365 92/166/366 77/146/367
f 77/146/367 92/166/366 76/144/368
s 93
f 94/168/369 93/167/370 78/148/371
f 78/148/371 93/167/370 77/146/372
s 94
f 95/169/373 94/168/374 79/150/375
f 79/150/375 94/168/374 78/148/376
s 95
f 96/170/377 95/169/378 80/152/379
f 80/152/379 95/169/378 79/150/380
s 96
f 81/155/381 96/170/382 65/121/383
f 65/121/383 96/170/382 80/152/384
s 97
f 98/171/385 97/172/386 82/154/387
f 82/154/387 97/172/386 81/155/388
s 98
f 99/173/389 98/171/390 83/156/391
f 83/156/391 98/171/390 82/154/392
s 99
f 100/174/393 99/173/394 84/157/395
f 84/157/395 99/173/394 83/156/396
s 100
f 101/175/397 100/174/398 85/158/399
f 85/158/399 100/174/398 84/157/400
s 101
f 102/176/401 101/175/402 86/159/403
f 86/159/403 101/175/402 85/158/404
s 102
f 103/177/405 102/176/406 87/160/407
f 87/160/407 102/176/406 86/159/408
s 103
f 104/178/409 103/177/410 88/161/411
f 88/161/411 103/177/410 87/160/412
s 104
f 105/179/413 104/178/414 89/162/415
f 89/162/415 104/178/414 88/161/416
s 105
f 106/180/417 105/181/418 90/163/419
f 90/163/419 105/181/418 89/164/420
s 106
f 107/182/421 106/180/422 91/165/423
f 91/165/423 106/180/422 90/163/424
s 107
f 108/183/425 107/182/426 92/166/427
f 92/166/427 107/182/426 91/165/428
s 108
f 109/184/429 108/183/430 93/167/431
f 93/167/431 108/183/430 92/166/432
s 109
f 110/185/433 109/184/434 94/168/435
f 94/168/435 109/184/434 93/167/436
s 110
f 111/186/437 110/185/438 95/169/439
f 95/169/439 110/185/438 94/168/440
s 111
f 112/187/441 111/186/442 96/170/443
f 96/170/443 111/186/442 95/169/444
s 112
f 97/172/445 112/187/446 81/155/447
f 81/155/447 112/187/446 96/170/448
s 113
f 114/188/449 113/189/450 98/171/451
f 98/171/451 113/189/450 97/172/452
s 114
f 115/190/453 114/188/454 99/173/455
f 99/173/455 114/188/454 98/171/456
s 115
f 116/191/457 115/190/458 100/174/459
f 100/174/459 115/190/458 99/173/460
s 116
f 117/192/461 116/191/462 101/175/463
f 101/175/463 116/191/462 100/174/464
s 117
f 118/193/465 117/192/466 102/176/467
f 102/176/467 117/192/466 101/175/468
s 118
f 119/194/469 118/193/470 103/177/471
f 103/177/471 118/193/470 102/176/472
s 119
f 120/195/473 119/194/474 104/178/475
f 104/178/475 119/194/474 103/177/476
s 120
f 121/196/477 120/195/478 105/179/479
f 105/179/479 120/195/478 104/178/480
s 121
f 122/197/481 121/198/482 106/180/483
f 106/180/483 121/198/482 105/181/484
s 122
f 123/199/485 122/197/486 107/182/487
f 107/182/487 122/197/486 106/180/488
s 123
f 124/200/489 123/199/490 108/183/491
f 108/183/491 123/199/490 107/182/492
s 124
f 125/201/493 124/200/494 109/184/495
f 109/184/495 124/200/494 108/183/496
s 125
f 126/202/497 125/201/498 110/185/499
f 110/185/499 125/201/498 109/184/500
s 126
f 127/203/501 126/202/502 111/186/503
f 111/186/503 126/202/502 110/185/504
s 127
f 128/204/505 127/203/506 112/187/507
f 112/187/507 127/203/506 111/186/508
s 128
f 113/189/509 128/204/510 97/172/511
f 97/172/511 128/204/510 112/187/512
s 129
f 130/205/513 129/206/514 114/188/515
f 114/188/515 129/206/514 113/189/516
s 130
f 131/207/517 130/205/518 115/190/519
f 115/190/519 130/205/518 114/188/520
s 131
f 132/208/521 131/207/522 116/191/523
f 116/191/523 131/207/522 115/190/524
s 132
f 133/209/525 132/208/526 117/192/527
f 117/192/527 132/208/526 116/191/528
s 133
f 134/210/529 133/209/530 118/193/531
f 118/193/531 133/209/530 117/192/532
s 134
f 135/211/533 134/210/534 119/194/535
f 119/194/535 134/210/534 118/193/536
s 135
f 136/212/537 135/211/538 120/195/539
f 120/195/539 135/211/538 119/194/540
s 136
f 137/213/541 136/212/542 121/196/543
f 121/196/543 136/212/542 120/195/544
s 137
f 138/214/545 137/215/546 122/197/547
f 122/197/547 137/215/546 121/198/548
s 138
f 139/216/549 138/214/550 123/199/551
f 123/199/551 138/214/550 122/197/552
s 139
f 140/217/553 139/216/554 124/200/555
f 124/200/555 139/216/554 123/199/556
s 140
f 141/218/557 140/217/558 125/201/559
f 125/201/559 140/217/558 124/200/560
s 141
f 142/219/561 141/218/562 126/202/563
f 126/202/563 141/218/562 125/201/564
s 142
f 143/220/565 142/219/566 127/203/567
f 127/203/567 142/219/566 126/202/568
s 143
f 144/221/569 143/220/570 128/204/571
f 128/204/571 143/220/570 127/203/572
s 144
f 129/206/573 144/221/574 113/189/575
f 113/189/575 144/221/574 128/204/576
s 145
f 146/50/577 145/52/578 130/205/579
f 130/205/579 145/52/578 129/206/580
s 146
f 147/48/581 146/50/582 131/207/583
f 131/207/583 146/50/582 130/205/584
s 147
f 148/46/585 147/48/586 132/208/587
f 132/208/587 147/48/586 131/207/588
s 148
f 149/44/589 148/46/590 133/209/591
f 133/209/591 148/46/590 132/208/592
s 149
f 150/42/593 149/44/594 134/210/595
f 134/210/595 149/44/594 133/209/596
s 150
f 151/40/597 150/42/598 135/211/599
f 135/211/599 150/42/598 134/210/600
s 151
f 152/37/601 151/40/602 136/212/603
f 136/212/603 151/40/602 135/211/604
s 152
f 153/38/605 152/37/606 137/213/607
f 137/213/607 152/37/606 136/212/608
s 153
f 154/66/609 153/68/610 138/214/611
f 138/214/611 153/68/610 137/215/612
s 154
f 155/64/613 154/66/614 139/216/615
f 139/216/615 154/66/614 138/214/616
s 155
f 156/62/617 155/64/618 140/217/619
f 140/217/619 155/64/618 139/216/620
s 156
f 157/60/621 156/62/622 141/218/623
f 141/218/623 156/62/622 140/217/624
s 157
f 158/58/625 157/60/626 142/219/627
f 142/219/627 157/60/626 141/218/628
s 158
f 159/56/629 158/58/630 143/220/631
f 143/220/631 158/58/630 142/219/632
s 159
f 160/54/633 159/56/634 144/221/635
f 144/221/635 159/56/634 143/220/636
s 160
f 145/52/637 160/54/638 129/206/639
f 129/206/639 160/54/638 144/221/640
s 161
f 161/222/641 36/73/642 162/223/643
f 162/223/643 36/73/642 35/72/644
s 162
f 163/224/645 162/223/646 38/77/647
f 38/77/647 162/223/646 35/72/648
s 163
f 164/225/649 163/224/650 40/80/651
f 40/80/651 163/224/650 38/77/652
s 164
f 165/226/653 164/225/654 42/83/655
f 42/83/655 164/225/654 40/80/656
s 165
f 166/227/657 165/226/658 44/86/659
f 44/86/659 165/226/658 42/83/660
s 166
f 167/228/661 166/227/662 46/89/663
f 46/89/663 166/227/662 44/86/664
s 167
f 168/229/665 167/228/666 48/92/667
f 48/92/667 167/228/666 46/89/668
s 168
f 169/230/669 168/229/670 50/95/671
f 50/95/671 168/229/670 48/92/672
s 169
f 170/231/673 169/230/674 52/98/675
f 52/98/675 169/230/674 50/95/676
s 170
f 171/232/677 170/231/678 54/101/679
f 54/101/679 170/231/678 52/98/680
s 171
f 172/233/681 171/232/682 56/104/683
f 56/104/683 171/232/682 54/101/684
s 172
f 173/234/685 172/233/686 58/107/687
f 58/107/687 172/233/686 56/104/688
s 173
f 174/235/689 173/234/690 60/110/691
f 60/110/691 173/234/690 58/107/692
s 174
f 175/236/693 174/235/694 62/113/695
f 62/113/695 174/235/694 60/110/696
s 175
f 176/237/697 175/236/698 64/116/699
f 64/116/699 175/236/698 62/113/700
s 176
f 161/238/701 176/237/702 36/119/703
f 36/119/703 176/237/702 64/116/704
s 177
f 177/239/705 161/222/706 178/240/707
f 178/240/707 161/222/706 162/223/708
s 178
f 179/241/709 178/240/710 163/224/711
f 163/224/711 178/240/710 162/223/712
s 179
f 180/242/713 179/241/714 164/225/715
f 164/225/715 179/241/714 163/224/716
s 180
f 181/243/717 180/242/718 165/226/719
f 165/226/719 180/242/718 164/225/720
s 181
f 182/244/721 181/243/722 166/227/723
f 166/227/723 181/243/722 165/226/724
s 182
f 183/245/725 182/244/726 167/228/727
f 167/228/727 182/244/726 166/227/728
s 183
f 184/246/729 183/245/730 168/229/731
f 168/229/731 183/245/730 167/228/732
s 184
f 185/247/733 184/246/734 169/230/735
f 169/230/735 184/246/734 168/229/736
s 185
f 186/248/737 185/247/738 170/231/739
f 170/231/739 185/247/738 169/230/740
s 186
f 187/249/741 186/248/742 171/232/743
f 171/232/743 186/248/742 170/231/744
s 187
f 188/250/745 187/249/746 172/233/747
f 172/233/747 187/249/746 171/232/748
s 188
f 189/251/749 188/250/750 173/234/751
f 173/234/751 188/250/750 172/233/752
s 189
f 190/252/753 189/251/754 174/235/755
f 174/235/755 189/251/754 173/234/756
s 190
f 191/253/757 190/252/758 175/236/759
f 175/236/759 190/252/758 174/235/760
s 191
f 192/254/761 191/253/762 176/237/763
f 176/237/763 191/253/762 175/236/764
s 192
f 177/255/765 192/254/766 161/238/767
f 161/238/767 192/254/766 176/237/768
s 193
f 193/256/769 177/239/770 194/257/771
f 194/257/771 177/239/770 178/240/772
s 194
f 195/258/773 194/257/774 179/241/775
f 179/241/775 194/257/774 178/240/776
s 195
f 196/259/777 195/258/778 180/242/779
f 180/242/779 195/258/778 179/241/780
s 196
f 197/260/781 196/259/782 181/243/783
f 181/243/783 196/259/782 180/242/784
s 197
f 198/261/785 197/260/786 182/244/787
f 182/244/787 197/260/786 181/243/788
s 198
f 199/262/789 198/261/790 183/245/791
f 183/245/791 198/261/790 182/244/792
s 199
f 200/263/793 199/262/794 184/246/795
f 184/246/795 199/262/794 183/245/796
s 200
f 201/264/797 200/263/798 185/247/799
f 185/247/799 200/263/798 184/246/800
s 201
f 202/265/801 201/264/802 186/248/803
f 186/248/803 201/264/802 185/247/804
s 202
f 203/266/805 202/265/806 187/249/807
f 187/249/807 202/265/806 186/248/808
s 203
f 204/267/809 203/266/810 188/250/811
f 188/250/811 203/266/810 187/249/812
s 204
f 205/268/813 204/267/814 189/251/815
f 189/251/815 204/267/814 188/250/816
s 205
f 206/269/817 205/268/818 190/252/819
f 190/252/819 205/268/818 189/251/820
s 206
f 207/270/821 206/269/822 191/253/823
f 191/253/823 206/269/822 190/252/824
s 207
f 208/271/825 207/270/826 192/254/827
f 192/254/827 207/270/826 191/253/828
s 208
f 193/272/829 208/271/830 177/255/831
f 177/255/831 208/271/830 192/254/832
s 209
f 209/273/833 193/256/834 210/274/835
f 210/274/835 193/256/834 194/257/836
s 210
f 211/275/837 210/274/838 195/258/839
f 195/258/839 210/274/838 194/257/840
s 211
f 212/276/841 211/275/842 196/259/843
f 196/259/843 211/275/842 195/258/844
s 212
f 213/277/845 212/276/846 197/260/847
f 197/260/847 212/276/846 196/259/848
s 213
f 214/278/849 213/277/850 198/261/851
f 198/261/851 213/277/850 197/260/852
s 214
f 215/279/853 214/278/854 199/262/855
f 199/262/855 214/278/854 198/261/856
s 215
f 216/280/857 215/279/858 200/263/859
f 200/263/859 215/279/858 199/262/860
s 216
f 217/281/861 216/280/862 201/264/863
f 201/264/863 216/280/862 200/263/864
s 217
f 218/282/865 217/281/866 202/265/867
f 202/265/867 217/281/866 201/264/868
s 218
f 219/283/869 218/282/870 203/266/871
f 203/266/871 218/282/870 202/265/872
s 219
f 220/284/873 219/283/874 204/267/875
f 204/267/875 219/283/874 203/266/876
s 220
f 221/285/877 220/284/878 205/268/879
f 205/268/879 220/284/878 204/267/880
s 221
f 222/286/881 221/285/882 206/269/883
f 206/269/883 221/285/882 205/268/884
s 222
f 223/287/885 222/286/886 207/270/887
f 207/270/887 222/286/886 206/269/888
s 223
f 224/288/889 223/287/890 208/271/891
f 208/271/891 223/287/890 207/270/892
s 224
f 209/289/893 224/288/894 193/272/895
f 193/272/895 224/288/894 208/271/896
s 225
f 225/290/897 209/273/898 226/291/899
f 226/291/899 209/273/898 210/274/900
s 226
f 227/292/901 226/291/902 211/275/903
f 211/275/903 226/291/902 210/274/904
s 227
f 228/293/905 227/292/906 212/276/907
f 212/276/907 227/292/906 211/275/908
s 228
f 229/294/909 228/293/910 213/277/911
f 213/277/911 228/293/910 212/276/912
s 229
f 230/295/913 229/294/914 214/278/915
f 214/278/915 229/294/914 213/277/916
s 230
f 231/296/917 230/295/918 215/279/919
f 215/279/919 230/295/918 214/278/920
s 231
f 232/297/921 231/296/922 216/280/923
f 216/280/923 231/296/922 215/279/924
s 232
f 233/298/925 232/297/926 217/281/927
f 217/281/927 232/297/926 216/280/928
s 233
f 234/299/929 233/298/930 218/282/931
f 218/282/931 233/298/930 217/281/932
s 234
f 235/300/933 234/299/934 219/283/935
f 219/283/935 234/299/934 218/282/936
s 235
f 236/301/937 235/300/938 220/284/939
f 220/284/939 235/300/938 219/283/940
s 236
f 237/302/941 236/301/942 221/285/943
f 221/285/943 236/301/942 220/284/944
s 237
f 238/303/945 237/302/946 222/286/947
f 222/286/947 237/302/946 221/285/948
s 238
f 239/304/949 238/303/950 223/287/951
f 223/287/951 238/303/950 222/286/952
s 239
f 240/305/953 239/304/954 224/288/955
f 224/288/955 239/304/954 223/287/956
s 240
f 225/306/957 240/305/958 209/289/959
f 209/289/959 240/305/958 224/288/960
s 241
f 241/2/961 225/290/962 242/3/963
f 242/3/963 225/290/962 226/291/964
s 242
f 243/5/965 242/3/966 227/292/967
f 227/292/967 242/3/966 226/291/968
s 243
f 244/7/969 243/5/970 228/293/971
f 228/293/971 243/5/970 227/292/972
s 244
f 245/9/973 244/7/974 229/294/975
f 229/294/975 244/7/974 228/293/976
s 245
f 246/11/977 245/9/978 230/295/979
f 230/295/979 245/9/978 229/294/980
s 246
f 247/13/981 246/11/982 231/296/983
f 231/296/983 246/11/982 230/295/984
s 247
f 248/15/985 247/13/986 232/297/987
f 232/297/987 247/13/986 231/296/988
s 248
f 249/17/989 248/15/990 233/298/991
f 233/298/991 248/15/990 232/297/992
s 249
f 250/19/993 249/17/994 234/299/995
f 234/299/995 249/17/994 233/298/996
s 250
f 251/21/997 250/19/998 235/300/999
f 235/300/999 250/19/998 234/299/1000
s 251
f 252/23/1001 251/21/1002 236/301/1003
f 236/301/1003 251/21/1002 235/300/1004
s 252
f 253/25/1005 252/23/1006 237/302/1007
f 237/302/1007 252/23/1006 236/301/1008
s 253
f 254/27/1009 253/25/1010 238/303/1011
f 238/303/1011 253/25/1010 237/302/1012
s 254
f 255/29/1013 254/27/1014 239/304/1015
f 239/304/1015 254/27/1014 238/303/1016
s 255
f 256/31/1017 255/29/1018 240/305/1019
f 240/305/1019 255/29/1018 239/304/1020
s 256
f 241/33/1021 256/31/1022 225/306/1023
f 225/306/1023 256/31/1022 240/305/1024
s 257
f 257//1025 258//1026 283//1027
f 283//1027 258//1026 282//1028
s 258
f 258//1029 259//1030 282//1031
f 282//1031 259//1030 281//1032
s 259
f 259//1033 260//1034 281//1035
f 281//1035 260//1034 280//1036
s 260
f 260//1037 261//1038 280//1039
f 280//1039 261//1038 279//1040
s 261
f 261//1041 262//1042 279//1043
f 279//1043 262//1042 278//1044
s 262
f 262//1045 263//1046 278//1047
f 278//1047 263//1046 277//1048
s 263
f 263//1049 264//1050 277//1051
f 277//1051 264//1050 276//1052
s 264
f 264//1053 265//1054 276//1055
f 276//1055 265//1054 275//1056
s 265
f 265//1057 266//1058 275//1059
f 275//1059 266//1058 274//1060
s 266
f 266//1061 267//1062 274//1063
f 274//1063 267//1062 289//1064
s 267
f 267//1065 268//1066 289//1067
f 289//1067 268//1066 288//1068
s 268
f 268//1069 269//1070 288//1071
f 288//1071 269//1070 287//1072
s 269
f 269//1073 270//1074 287//1075
f 287//1075 270//1074 286//1076
s 270
f 270//1077 271//1078 286//1079
f 286//1079 271//1078 285//1080
s 271
f 271//1081 272//1082 285//1083
f 285//1083 272//1082 284//1084
s 272
f 272//1085 257//1086 284//1087
f 284//1087 257//1086 283//1088
s off
f 258//1089 257//1090 273//1091
f 259//1092 258//1093 273//1094
f 260//1095 259//1096 273//1097
f 261//1098 260//1099 273//1100
f 262//1101 261//1102 273//1103
f 263//1104 262//1105 273//1106
f 264//1107 263//1108 273//1109
f 265//1110 264//1111 273//1112
f 266//1113 265//1114 273//1115
f 267//1116 266//1117 273//1118
f 268//1119 267//1120 273//1121
f 269//1122 268//1123 273//1124
f 270//1125 269//1126 273//1127
f 271//1128 270//1129 273//1130
f 272//1131 271//1132 273//1133
f 257//1134 272//1135 273//1136
s 273
f 339//1137 349//1138 305//1139
f 305//1139 349//1138 350//1140
s 274
f 322//1141 357//1142 330//1143
f 330//1143 357//1142 358//1144
s 275
f 290//1145 360//1146 294//1147
f 294//1147 360//1146 361//1148
s 276
f 327//1149 328//1150 297//1151
f 297//1151 328//1150 293//1152
s 277
f 332//1153 296//1154 331//1155
f 331//1155 296//1154 292//1156
s 278
f 292//1157 296//1158 356//1159
f 356//1159 296//1158 355//1160
s 279
f 361//1161 363//1162 294//1163
f 294//1163 363//1162 364//1164
s 280
f 327//1165 297//1166 371//1167
f 371//1167 297//1166 370//1168
s 281
f 355//1169 296//1170 369//1171
f 369//1171 296//1170 368//1172
s 282
f 318//1173 333//1174 367//1175
f 367//1175 333//1174 366//1176
s 283
f 379//1177 326//1178 378//1179
f 378//1179 326//1178 300//1180
s 284
f 301//1181 376//1182 354//1183
f 354//1183 376//1182 377//1184
s 285
f 373//1185 374//1186 344//1187
f 344//1187 374//1186 298//1188
s 286
f 335//1189 375//1190 301//1191
f 301//1191 375//1190 376//1192
s 287
f 347//1193 310//1194 346//1195
f 346//1195 310//1194 314//1196
s 288
f 338//1197 313//1198 337//1199
f 337//1199 313//1198 317//1200
s 289
f 345//1201 346//1202 306//1203
f 306//1203 346//1202 314//1204
s 290
f 343//1205 308//1206 342//1207
f 342//1207 308//1206 316//1208
s 291
f 353//1209 309//1210 352//1211
f 352//1211 309//1210 317//1212
s 292
f 309//1213 336//1214 317//1215
f 317//1215 336//1214 337//1216
s 293
f 347//1217 348//1218 310//1219
f 310//1219 348//1218 302//1220
s 294
f 341//1221 312//1222 340//1223
f 340//1223 312//1222 304//1224
s 295
f 351//1225 313//1226 350//1227
f 350//1227 313//1226 305//1228
s 296
f 313//1229 338//1230 305//1231
f 305//1231 338//1230 339//1232
s 297
f 341//1233 342//1234 312//1235
f 312//1235 342//1234 316//1236
s 298
f 351//1237 352//1238 313//1239
f 313//1239 352//1238 317//1240
s 299
f 296//1241 332//1242 318//1243
f 318//1243 332//1242 333//1244
s 300
f 364//1245 365//1246 294//1247
f 294//1247 365//1246 319//1248
s 301
f 301//1249 321//1250 335//1251
f 335//1251 321//1250 334//1252
s 302
f 368//1253 296//1254 367//1255
f 367//1255 296//1254 318//1256
s 303
f 356//1257 357//1258 292//1259
f 292//1259 357//1258 322//1260
s 304
f 293//1261 328//1262 323//1263
f 323//1263 328//1262 329//1264
s 305
f 360//1265 290//1266 359//1267
f 359//1267 290//1266 325//1268
s 306
f 331//1269 292//1270 330//1271
f 330//1271 292//1270 322//1272
s 307
f 295//1273 327//1274 362//1275
f 362//1275 327//1274 371//1276
s 308
f 295//1277 291//1278 327//1279
f 327//1279 291//1278 328//1280
s 309
f 329//1281 328//1282 324//1283
f 324//1283 328//1282 291//1284
s 310
f 330//1285 358//1286 325//1287
f 325//1287 358//1286 359//1288
s 311
f 290//1289 331//1290 325//1291
f 325//1291 331//1290 330//1292
s 312
f 294//1293 332//1294 290//1295
f 290//1295 332//1294 331//1296
s 313
f 333//1297 332//1298 319//1299
f 319//1299 332//1298 294//1300
s 314
f 366//1301 333//1302 365//1303
f 365//1303 333//1302 319//1304
s 315
f 298//1305 335//1306 320//1307
f 320//1307 335//1306 334//1308
s 316
f 298//1309 374//1310 335//1311
f 335//1311 374//1310 375//1312
s 317
f 337//1313 336//1314 314//1315
f 314//1315 336//1314 306//1316
s 318
f 310//1317 338//1318 314//1319
f 314//1319 338//1318 337//1320
s 319
f 339//1321 338//1322 302//1323
f 302//1323 338//1322 310//1324
s 320
f 302//1325 348//1326 339//1327
f 339//1327 348//1326 349//1328
s 321
f 311//1329 341//1330 303//1331
f 303//1331 341//1330 340//1332
s 322
f 311//1333 315//1334 341//1335
f 341//1335 315//1334 342//1336
s 323
f 307//1337 343//1338 315//1339
f 315//1339 343//1338 342//1340
s 324
f 299//1341 326//1342 372//1343
f 372//1343 326//1342 379//1344
s 325
f 372//1345 373//1346 299//1347
f 299//1347 373//1346 344//1348
s 326
f 346//1349 345//1350 315//1351
f 315//1351 345//1350 307//1352
s 327
f 311//1353 347//1354 315//1355
f 315//1355 347//1354 346//1356
s 328
f 348//1357 347//1358 303//1359
f 303//1359 347//1358 311//1360
s 329
f 349//1361 348//1362 340//1363
f 340//1363 348//1362 303//1364
s 330
f 350//1365 349//1366 304//1367
f 304//1367 349//1366 340//1368
s 331
f 312//1369 351//1370 304//1371
f 304//1371 351//1370 350//1372
s 332
f 312//1373 316//1374 351//1375
f 351//1375 316//1374 352//1376
s 333
f 308//1377 353//1378 316//1379
f 316//1379 353//1378 352//1380
s 334
f 354//1381 377//1382 300//1383
f 300//1383 377//1382 378//1384
s 335
f 297//1385 355//1386 370//1387
f 370//1387 355//1386 369//1388
s 336
f 293//1389 356//1390 297//1391
f 297//1391 356//1390 355//1392
s 337
f 356//1393 293//1394 357//1395
f 357//1395 293//1394 323//1396
s 338
f 358//1397 357//1398 329//1399
f 329//1399 357//1398 323//1400
s 339
f 359//1401 358//1402 324//1403
f 324//1403 358//1402 329//1404
s 340
f 360//1405 359//1406 291//1407
f 291//1407 359//1406 324//1408
s 341
f 361//1409 360//1410 295//1411
f 295//1411 360//1410 291//1412
s 342
f 363//1413 361//1414 362//1415
f 362//1415 361//1414 295//1416
s 343
f 363//1417 362//1418 344//1419
f 344//1419 362//1418 299//1420
s 344
f 364//1421 363//1422 298//1423
f 298//1423 363//1422 344//1424
s 345
f 365//1425 364//1426 320//1427
f 320//1427 364//1426 298//1428
s 346
f 334//1429 366//1430 320//1431
f 320//1431 366//1430 365//1432
s 347
f 367//1433 366//1434 321//1435
f 321//1435 366//1434 334//1436
s 348
f 301//1437 368//1438 321//1439
f 321//1439 368//1438 367//1440
s 349
f 368//1441 301//1442 369//1443
f 369//1443 301//1442 354//1444
s 350
f 369//1445 354//1446 370//1447
f 370//1447 354//1446 300//1448
s 351
f 371//1449 370//1450 326//1451
f 326//1451 370//1450 300//1452
s 352
f 362//1453 371//1454 299//1455
f 299//1455 371//1454 326//1456
s 353
f 307//1457 345//1458 372//1459
f 372//1459 345//1458 373//1460
s 354
f 374//1461 373//1462 306//1463
f 306//1463 373//1462 345//1464
s 355
f 375//1465 374//1466 336//1467
f 336//1467 374//1466 306//1468
s 356
f 376//1469 375//1470 309//1471
f 309//1471 375//1470 336//1472
s 357
f 376//1473 309//1474 377//1475
f 377//1475 309//1474 353//1476
s 358
f 377//1477 353//1478 378//1479
f 378//1479 353//1478 308//1480
s 359
f 343//1481 379//1482 308//1483
f 308//1483 379//1482 378//1484
s 360
f 372//1485 379//1486 307//1487
f 307//1487 379//1486 343//1488
