# This file uses centimeters as units for non-parametric coordinates.

mtllib plane.mtl
g default
v -9.263221 -0.061763 0.035198
v 9.263221 -0.061763 0.035198
v -9.263221 18.464676 0.035198
v 9.263221 18.464676 0.035198
v -9.263221 18.464676 -0.035198
v 9.263221 18.464676 -0.035198
v -9.263221 -0.061763 -0.035198
v 9.263221 -0.061763 -0.035198
vt 0.001779 0.000000
vt 0.998221 0.000000
vt 0.001779 1.000000
vt 0.998221 1.000000
vt 0.001779 1.000000
vt 0.998221 1.000000
vt 0.001779 0.000000
vt 0.998221 0.000000
vn 0.000000 0.000000 1.000000
vn 0.000000 0.000000 1.000000
vn 0.000000 0.000000 1.000000
vn 0.000000 0.000000 1.000000
vn 0.000000 1.000000 0.000000
vn 0.000000 1.000000 0.000000
vn 0.000000 1.000000 0.000000
vn 0.000000 1.000000 0.000000
vn 0.000000 0.000000 -1.000000
vn 0.000000 0.000000 -1.000000
vn 0.000000 0.000000 -1.000000
vn 0.000000 0.000000 -1.000000
vn 0.000000 -1.000000 0.000000
vn 0.000000 -1.000000 0.000000
vn 0.000000 -1.000000 0.000000
vn 0.000000 -1.000000 0.000000
vn 1.000000 0.000000 0.000000
vn 1.000000 0.000000 0.000000
vn 1.000000 0.000000 0.000000
vn 1.000000 0.000000 0.000000
vn -1.000000 0.000000 0.000000
vn -1.000000 0.000000 0.000000
vn -1.000000 0.000000 0.000000
vn -1.000000 0.000000 0.000000
s 1
g plane
usemtl initialShadingGroup
f 1/1/1 2/2/2 3/3/3
f 3/3/3 2/2/2 4/4/4
s 2
f 3/3/5 4/4/6 5/5/7
f 5/5/7 4/4/6 6/6/8
s 3
f 5/5/9 6/6/10 7/7/11
f 7/7/11 6/6/10 8/8/12
s 4
f 7/7/13 8/8/14 1/1/15
f 1/1/15 8/8/14 2/2/16
s 5
f 2/2/17 8/8/18 4/4/19
f 4/4/19 8/8/18 6/6/20
s 6
f 7/7/21 1/1/22 5/5/23
f 5/5/23 1/1/22 3/3/24
