# This file uses centimeters as units for non-parametric coordinates.

mtllib skysphere.mtl
g default
v 42.391804 -152.905914 -42.391796
v -0.000000 -152.905914 -59.951054
v -42.391796 -152.905914 -42.391804
v -59.951054 -152.905914 0.000000
v -42.391804 -152.905914 42.391804
v 0.000000 -152.905914 59.951057
v 42.391804 -152.905914 42.391804
v 59.951057 -152.905914 -0.000000
v 76.827118 -117.234238 -76.827126
v 0.000000 -117.234238 -108.649963
v -76.827110 -117.234238 -76.827118
v -108.649963 -117.234238 0.000000
v -76.827118 -117.234238 76.827110
v 0.000001 -117.234238 108.649963
v 76.827118 -117.234238 76.827118
v 108.649963 -117.234238 0.000001
v 100.379471 -63.446716 -100.379471
v 0.000000 -63.446716 -141.958023
v -100.379471 -63.446716 -100.379471
v -141.958023 -63.446716 0.000000
v -100.379471 -63.446716 100.379471
v 0.000001 -63.446716 141.958023
v 100.379478 -63.446716 100.379478
v 141.958023 -63.446716 0.000001
v 108.649948 0.000000 -108.649948
v 0.000000 -0.000000 -153.654251
v -108.649948 -0.000000 -108.649948
v -153.654251 -0.000000 0.000000
v -108.649948 -0.000000 108.649948
v 0.000000 -0.000000 153.654251
v 108.649963 -0.000000 108.649963
v 153.654251 -0.000000 0.000000
v 100.379471 63.446724 -100.379471
v 0.000000 63.446724 -141.958023
v -100.379471 63.446724 -100.379471
v -141.958023 63.446724 0.000000
v -100.379471 63.446724 100.379471
v 0.000002 63.446724 141.958023
v 100.379478 63.446724 100.379478
v 141.958023 63.446724 0.000001
v 76.827118 117.234230 -76.827118
v 0.000000 117.234230 -108.649963
v -76.827110 117.234230 -76.827126
v -108.649963 117.234230 0.000000
v -76.827126 117.234230 76.827110
v 0.000001 117.234230 108.649963
v 76.827126 117.234230 76.827126
v 108.649971 117.234230 0.000001
v 42.391804 152.905899 -42.391796
v -0.000000 152.905914 -59.951050
v -42.391796 152.905914 -42.391804
v -59.951050 152.905914 0.000000
v -42.391804 152.905914 42.391796
v 0.000000 152.905914 59.951054
v 42.391804 152.905914 42.391804
v 59.951057 152.905914 -0.000000
v 0.000000 -166.330307 0.000000
v 0.000000 166.330307 0.000000
v -0.000001 32.338772 -150.673462
v 54.155148 63.446712 -130.742111
v 106.542221 32.338772 -106.542221
v -106.542221 32.338772 -106.542221
v -54.155148 63.446712 -130.742111
v -150.673462 32.338772 0.000001
v -130.742111 63.446712 -54.155148
v -106.542221 32.338772 106.542221
v -130.742111 63.446712 54.155148
v 0.000002 32.338772 150.673462
v -54.155148 63.446712 130.742111
v 106.542221 32.338772 106.542221
v 54.155155 63.446712 130.742111
v 150.673462 32.338772 0.000002
v 130.742111 63.446712 54.155155
v 130.742111 63.446712 -54.155148
v 0.000000 92.093010 -127.734795
v 41.448563 117.234245 -100.065674
v 90.322136 92.093010 -90.322128
v -90.322128 92.093010 -90.322128
v -41.448563 117.234245 -100.065674
v -127.734795 92.093010 0.000000
v -100.065674 117.234245 -41.448563
v -90.322128 92.093010 90.322136
v -100.065674 117.234245 41.448563
v 0.000001 92.093010 127.734795
v -41.448563 117.234245 100.065674
v 90.322136 92.093010 90.322136
v 41.448563 117.234245 100.065689
v 127.734795 92.093010 0.000001
v 100.065689 117.234245 41.448563
v 100.065674 117.234245 -41.448563
v 0.000000 137.826935 -85.349663
v 23.384590 152.637863 -56.455395
v 60.351318 137.826935 -60.351318
v -60.351318 137.826935 -60.351318
v -23.384590 152.637863 -56.455395
v -85.349663 137.826935 0.000000
v -56.455395 152.637863 -23.384590
v -60.351318 137.826935 60.351318
v -56.455395 152.637863 23.384590
v 0.000000 137.826935 85.349663
v -23.384590 152.637863 56.455395
v 60.351322 137.826935 60.351322
v 23.384590 152.637863 56.455395
v 85.349663 137.826935 0.000001
v 56.455399 152.637863 23.384590
v 56.455399 152.637863 -23.384590
v 24.445601 -161.505875 -24.445599
v 0.000000 -161.505875 -34.571293
v -24.445599 -161.505875 -24.445599
v -34.571293 -161.505875 0.000000
v -24.445599 -161.505875 24.445601
v 0.000000 -161.505875 34.571297
v 24.445601 -161.505875 24.445601
v 34.571301 -161.505875 0.000000
v 0.000000 161.505875 -34.571293
v 24.445601 161.505875 -24.445599
v -24.445599 161.505875 -24.445599
v -34.571293 161.505875 0.000000
v -24.445599 161.505875 24.445601
v 0.000000 161.505875 34.571297
v 24.445601 161.505875 24.445601
v 34.571301 161.505875 0.000000
v 23.384590 -152.637863 -56.455395
v 0.000000 -137.826935 -85.349663
v 41.448559 -117.234245 -100.065666
v 60.351318 -137.826935 -60.351318
v -23.384590 -152.637863 -56.455395
v -60.351318 -137.826935 -60.351318
v -41.448559 -117.234245 -100.065674
v -56.455395 -152.637863 -23.384590
v -85.349663 -137.826935 0.000000
v -100.065666 -117.234245 -41.448559
v -56.455395 -152.637863 23.384590
v -60.351318 -137.826935 60.351318
v -100.065674 -117.234245 41.448559
v -23.384590 -152.637863 56.455395
v 0.000000 -137.826935 85.349663
v -41.448559 -117.234245 100.065666
v 23.384590 -152.637863 56.455395
v 60.351322 -137.826935 60.351322
v 41.448563 -117.234245 100.065674
v 56.455399 -152.637863 23.384590
v 85.349663 -137.826935 0.000001
v 100.065674 -117.234245 41.448563
v 56.455399 -152.637863 -23.384590
v 100.065674 -117.234245 -41.448559
v 0.000000 -92.093018 -127.734795
v 54.155148 -63.446712 -130.742111
v 90.322128 -92.093018 -90.322128
v -90.322128 -92.093018 -90.322128
v -54.155148 -63.446712 -130.742111
v -127.734795 -92.093018 0.000000
v -130.742111 -63.446712 -54.155148
v -90.322128 -92.093018 90.322128
v -130.742111 -63.446712 54.155148
v 0.000001 -92.093018 127.734795
v -54.155148 -63.446712 130.742111
v 90.322136 -92.093018 90.322136
v 54.155155 -63.446712 130.742111
v 127.734795 -92.093018 0.000001
v 130.742111 -63.446712 54.155155
v 130.742111 -63.446712 -54.155148
v -0.000001 -32.338772 -150.673462
v 58.617115 0.000000 -141.514236
v 106.542221 -32.338772 -106.542221
v -106.542221 -32.338772 -106.542221
v -58.617115 0.000000 -141.514236
v -150.673462 -32.338772 0.000001
v -141.514236 0.000000 -58.617115
v -106.542221 -32.338772 106.542221
v -141.514236 0.000000 58.617115
v 0.000002 -32.338772 150.673462
v -58.617115 0.000000 141.514236
v 106.542221 -32.338772 106.542221
v 58.617115 0.000000 141.514236
v 150.673462 -32.338772 0.000002
v 141.514252 0.000000 58.617115
v 141.514252 0.000000 -58.617115
v 32.559799 -137.826950 -78.606300
v -32.559799 -137.826950 -78.606308
v -78.606300 -137.826950 -32.559799
v -78.606308 -137.826950 32.559799
v -32.559799 -137.826950 78.606300
v 32.559799 -137.826950 78.606308
v 78.606308 -137.826950 32.559799
v 78.606308 -137.826950 -32.559799
v 48.729176 -92.093018 -117.642639
v -48.729176 -92.093018 -117.642639
v -117.642639 -92.093018 -48.729176
v -117.642639 -92.093018 48.729176
v -48.729176 -92.093018 117.642639
v 48.729179 -92.093018 117.642654
v 117.642654 -92.093018 48.729179
v 117.642639 -92.093018 -48.729176
v 57.479980 -32.338768 -138.768951
v -57.479980 -32.338768 -138.768951
v -138.768951 -32.338768 -57.479980
v -138.768951 -32.338768 57.479980
v -57.479980 -32.338768 138.768951
v 57.479992 -32.338768 138.768967
v 138.768967 -32.338768 57.479992
v 138.768951 -32.338768 -57.479980
v 57.479980 32.338768 -138.768951
v -57.479980 32.338768 -138.768951
v -138.768951 32.338768 -57.479980
v -138.768951 32.338768 57.479980
v -57.479980 32.338768 138.768951
v 57.479992 32.338768 138.768967
v 138.768967 32.338768 57.479992
v 138.768951 32.338768 -57.479980
v 48.729176 92.093018 -117.642639
v -48.729176 92.093018 -117.642639
v -117.642639 92.093018 -48.729176
v -117.642639 92.093018 48.729176
v -48.729176 92.093018 117.642639
v 48.729179 92.093018 117.642639
v 117.642654 92.093018 48.729179
v 117.642654 92.093018 -48.729176
v 32.559799 137.826935 -78.606300
v -32.559799 137.826935 -78.606300
v -78.606300 137.826935 -32.559799
v -78.606300 137.826935 32.559799
v -32.559799 137.826935 78.606300
v 32.559799 137.826935 78.606308
v 78.606308 137.826935 32.559799
v 78.606308 137.826935 -32.559799
v 15.244642 -160.433777 -36.803822
v -15.244642 -160.433777 -36.803822
v -36.803822 -160.433777 -15.244642
v -36.803822 -160.433777 15.244642
v -15.244642 -160.433777 36.803825
v 15.244642 -160.433777 36.803825
v 36.803825 -160.433777 15.244642
v 36.803825 -160.433777 -15.244642
v 15.244642 160.433777 -36.803822
v -15.244642 160.433777 -36.803822
v -36.803822 160.433777 -15.244642
v -36.803822 160.433777 15.244642
v -15.244642 160.433777 36.803825
v 15.244642 160.433777 36.803825
v 36.803825 160.433777 15.244642
v 36.803825 160.433777 -15.244642
vt 0.000000 0.125000
vt 1.000000 0.125000
vt 0.125000 0.125000
vt 0.250000 0.125000
vt 0.375000 0.125000
vt 0.500000 0.125000
vt 0.625000 0.125000
vt 0.750000 0.125000
vt 0.875000 0.125000
vt 0.000000 0.250000
vt 1.000000 0.250000
vt 0.125000 0.250000
vt 0.250000 0.250000
vt 0.375000 0.250000
vt 0.500000 0.250000
vt 0.625000 0.250000
vt 0.750000 0.250000
vt 0.875000 0.250000
vt 0.000000 0.375000
vt 1.000000 0.375000
vt 0.125000 0.375000
vt 0.250000 0.375000
vt 0.375000 0.375000
vt 0.500000 0.375000
vt 0.625000 0.375000
vt 0.750000 0.375000
vt 0.875000 0.375000
vt 0.000000 0.500000
vt 1.000000 0.500000
vt 0.125000 0.500000
vt 0.250000 0.500000
vt 0.375000 0.500000
vt 0.500000 0.500000
vt 0.625000 0.500000
vt 0.750000 0.500000
vt 0.875000 0.500000
vt 0.000000 0.625000
vt 1.000000 0.625000
vt 0.125000 0.625000
vt 0.250000 0.625000
vt 0.375000 0.625000
vt 0.500000 0.625000
vt 0.625000 0.625000
vt 0.750000 0.625000
vt 0.875000 0.625000
vt 0.000000 0.750000
vt 1.000000 0.750000
vt 0.125000 0.750000
vt 0.250000 0.750000
vt 0.375000 0.750000
vt 0.500000 0.750000
vt 0.625000 0.750000
vt 0.750000 0.750000
vt 0.875000 0.750000
vt 0.000000 0.875000
vt 1.000000 0.875000
vt 0.125000 0.875000
vt 0.250000 0.875000
vt 0.375000 0.875000
vt 0.500000 0.875000
vt 0.625000 0.875000
vt 0.750000 0.875000
vt 0.875000 0.875000
vt 0.062500 0.000000
vt 0.937500 0.000000
vt 0.812500 0.000000
vt 0.687500 0.000000
vt 0.562500 0.000000
vt 0.437500 0.000000
vt 0.312500 0.000000
vt 0.187500 0.000000
vt 0.062500 1.000000
vt 0.187500 1.000000
vt 0.312500 1.000000
vt 0.437500 1.000000
vt 0.562500 1.000000
vt 0.687500 1.000000
vt 0.812500 1.000000
vt 0.937500 1.000000
vt 0.062500 0.187500
vt 0.187500 0.187500
vt 0.312500 0.187500
vt 0.437500 0.187500
vt 0.562500 0.187500
vt 0.687500 0.187500
vt 0.812500 0.187500
vt 0.937500 0.187500
vt 0.062500 0.312500
vt 0.187500 0.312500
vt 0.312500 0.312500
vt 0.437500 0.312500
vt 0.562500 0.312500
vt 0.687500 0.312500
vt 0.812500 0.312500
vt 0.937500 0.312500
vt 0.062500 0.437500
vt 0.187500 0.437500
vt 0.312500 0.437500
vt 0.437500 0.437500
vt 0.562500 0.437500
vt 0.687500 0.437500
vt 0.812500 0.437500
vt 0.937500 0.437500
vt 0.062500 0.562500
vt 0.187500 0.562500
vt 0.312500 0.562500
vt 0.437500 0.562500
vt 0.562500 0.562500
vt 0.687500 0.562500
vt 0.812500 0.562500
vt 0.937500 0.562500
vt 0.062500 0.687500
vt 0.187500 0.687500
vt 0.312500 0.687500
vt 0.437500 0.687500
vt 0.562500 0.687500
vt 0.687500 0.687500
vt 0.812500 0.687500
vt 0.937500 0.687500
vt 0.062500 0.812500
vt 0.187500 0.812500
vt 0.312500 0.812500
vt 0.437500 0.812500
vt 0.562500 0.812500
vt 0.687500 0.812500
vt 0.812500 0.812500
vt 0.937500 0.812500
vt 0.062500 0.083333
vt 0.187500 0.083333
vt 0.312500 0.083333
vt 0.437500 0.083333
vt 0.562500 0.083333
vt 0.687500 0.083333
vt 0.812500 0.083333
vt 0.937500 0.083333
vt 0.062500 0.916667
vt 0.187500 0.916667
vt 0.312500 0.916667
vt 0.437500 0.916667
vt 0.562500 0.916667
vt 0.687500 0.916667
vt 0.812500 0.916667
vt 0.937500 0.916667
vt 0.062500 0.130208
vt 0.125000 0.187500
vt 0.062500 0.250000
vt 0.000000 0.187500
vt 1.000000 0.187500
vt 0.187500 0.130208
vt 0.250000 0.187500
vt 0.187500 0.250000
vt 0.312500 0.130208
vt 0.375000 0.187500
vt 0.312500 0.250000
vt 0.437500 0.130208
vt 0.500000 0.187500
vt 0.437500 0.250000
vt 0.562500 0.130208
vt 0.625000 0.187500
vt 0.562500 0.250000
vt 0.687500 0.130208
vt 0.750000 0.187500
vt 0.687500 0.250000
vt 0.812500 0.130208
vt 0.875000 0.187500
vt 0.812500 0.250000
vt 0.937500 0.130208
vt 0.937500 0.250000
vt 0.125000 0.312500
vt 0.062500 0.375000
vt 0.000000 0.312500
vt 1.000000 0.312500
vt 0.250000 0.312500
vt 0.187500 0.375000
vt 0.375000 0.312500
vt 0.312500 0.375000
vt 0.500000 0.312500
vt 0.437500 0.375000
vt 0.625000 0.312500
vt 0.562500 0.375000
vt 0.750000 0.312500
vt 0.687500 0.375000
vt 0.875000 0.312500
vt 0.812500 0.375000
vt 0.937500 0.375000
vt 0.125000 0.437500
vt 0.062500 0.500000
vt 0.000000 0.437500
vt 1.000000 0.437500
vt 0.250000 0.437500
vt 0.187500 0.500000
vt 0.375000 0.437500
vt 0.312500 0.500000
vt 0.500000 0.437500
vt 0.437500 0.500000
vt 0.625000 0.437500
vt 0.562500 0.500000
vt 0.750000 0.437500
vt 0.687500 0.500000
vt 0.875000 0.437500
vt 0.812500 0.500000
vt 0.937500 0.500000
vt 0.125000 0.562500
vt 0.062500 0.625000
vt 0.000000 0.562500
vt 1.000000 0.562500
vt 0.250000 0.562500
vt 0.187500 0.625000
vt 0.375000 0.562500
vt 0.312500 0.625000
vt 0.500000 0.562500
vt 0.437500 0.625000
vt 0.625000 0.562500
vt 0.562500 0.625000
vt 0.750000 0.562500
vt 0.687500 0.625000
vt 0.875000 0.562500
vt 0.812500 0.625000
vt 0.937500 0.625000
vt 0.125000 0.687500
vt 0.062500 0.750000
vt 0.000000 0.687500
vt 1.000000 0.687500
vt 0.250000 0.687500
vt 0.187500 0.750000
vt 0.375000 0.687500
vt 0.312500 0.750000
vt 0.500000 0.687500
vt 0.437500 0.750000
vt 0.625000 0.687500
vt 0.562500 0.750000
vt 0.750000 0.687500
vt 0.687500 0.750000
vt 0.875000 0.687500
vt 0.812500 0.750000
vt 0.937500 0.750000
vt 0.125000 0.812500
vt 0.062500 0.869792
vt 0.000000 0.812500
vt 1.000000 0.812500
vt 0.250000 0.812500
vt 0.187500 0.869792
vt 0.375000 0.812500
vt 0.312500 0.869792
vt 0.500000 0.812500
vt 0.437500 0.869792
vt 0.625000 0.812500
vt 0.562500 0.869792
vt 0.750000 0.812500
vt 0.687500 0.869792
vt 0.875000 0.812500
vt 0.812500 0.869792
vt 0.937500 0.869792
vt 0.031250 0.062500
vt 0.968750 0.062500
vt 0.093750 0.062500
vt 0.156250 0.062500
vt 0.218750 0.062500
vt 0.281250 0.062500
vt 0.343750 0.062500
vt 0.406250 0.062500
vt 0.468750 0.062500
vt 0.531250 0.062500
vt 0.593750 0.062500
vt 0.656250 0.062500
vt 0.718750 0.062500
vt 0.781250 0.062500
vt 0.843750 0.062500
vt 0.906250 0.062500
vt 0.093750 0.937500
vt 0.156250 0.937500
vt 0.031250 0.937500
vt 0.968750 0.937500
vt 0.218750 0.937500
vt 0.281250 0.937500
vt 0.343750 0.937500
vt 0.406250 0.937500
vt 0.468750 0.937500
vt 0.531250 0.937500
vt 0.593750 0.937500
vt 0.656250 0.937500
vt 0.718750 0.937500
vt 0.781250 0.937500
vt 0.843750 0.937500
vt 0.906250 0.937500
vn -0.317271 0.893688 0.317271
vn -0.433473 0.790065 0.433473
vn -0.177409 0.886048 0.428304
vn -0.232131 0.795017 0.560413
vn 0.000000 0.893688 0.448688
vn -0.000000 0.790064 0.613024
vn -0.284659 0.668348 0.687227
vn -0.000000 0.669392 0.742910
vn -0.525316 0.669392 0.525316
vn 0.177409 0.886048 0.428304
vn 0.232131 0.795017 0.560413
vn 0.317271 0.893688 0.317271
vn 0.433473 0.790064 0.433473
vn 0.284659 0.668348 0.687227
vn 0.525316 0.669392 0.525316
vn 0.428304 0.886048 0.177409
vn 0.560413 0.795017 0.232131
vn 0.448688 0.893688 -0.000000
vn 0.613024 0.790064 0.000000
vn 0.687227 0.668348 0.284659
vn 0.742910 0.669392 0.000000
vn 0.428304 0.886048 -0.177409
vn 0.560413 0.795017 -0.232131
vn 0.317271 0.893688 -0.317271
vn 0.433473 0.790064 -0.433473
vn 0.687227 0.668348 -0.284659
vn 0.525316 0.669392 -0.525316
vn 0.177409 0.886048 -0.428304
vn 0.232131 0.795017 -0.560413
vn -0.000000 0.893688 -0.448688
vn 0.000000 0.790064 -0.613024
vn 0.284659 0.668348 -0.687227
vn 0.000000 0.669392 -0.742910
vn -0.177409 0.886048 -0.428304
vn -0.232131 0.795017 -0.560413
vn -0.317271 0.893688 -0.317271
vn -0.433473 0.790064 -0.433473
vn -0.284659 0.668348 -0.687226
vn -0.525316 0.669392 -0.525316
vn -0.428304 0.886048 -0.177409
vn -0.560413 0.795017 -0.232131
vn -0.448688 0.893688 0.000000
vn -0.613024 0.790064 0.000000
vn -0.687227 0.668348 -0.284659
vn -0.742910 0.669392 0.000000
vn -0.428304 0.886048 0.177409
vn -0.560413 0.795017 0.232131
vn -0.687227 0.668348 0.284659
vn -0.327681 0.516526 0.791092
vn -0.604813 0.518077 0.604813
vn -0.000000 0.518077 0.855334
vn -0.358369 0.350768 0.865178
vn -0.000000 0.352477 0.935821
vn -0.661725 0.352477 0.661725
vn 0.327681 0.516526 0.791092
vn 0.604813 0.518077 0.604813
vn 0.358369 0.350768 0.865178
vn 0.661725 0.352477 0.661725
vn 0.791092 0.516526 0.327681
vn 0.855334 0.518077 0.000000
vn 0.865178 0.350768 0.358369
vn 0.935820 0.352477 0.000000
vn 0.791092 0.516526 -0.327681
vn 0.604813 0.518077 -0.604813
vn 0.865178 0.350768 -0.358369
vn 0.661725 0.352477 -0.661725
vn 0.327681 0.516526 -0.791092
vn 0.000000 0.518077 -0.855334
vn 0.358369 0.350768 -0.865178
vn 0.000000 0.352477 -0.935821
vn -0.327681 0.516526 -0.791092
vn -0.604813 0.518077 -0.604813
vn -0.358369 0.350768 -0.865178
vn -0.661725 0.352477 -0.661725
vn -0.791092 0.516526 -0.327681
vn -0.855334 0.518077 0.000000
vn -0.865178 0.350769 -0.358369
vn -0.935821 0.352477 0.000000
vn -0.791092 0.516526 0.327681
vn -0.865178 0.350768 0.358369
vn -0.376636 0.177071 0.909280
vn -0.695740 0.178580 0.695740
vn 0.000000 0.178580 0.983925
vn -0.382684 0.000000 0.923880
vn -0.000000 0.000000 1.000000
vn -0.707107 -0.000000 0.707107
vn 0.376636 0.177071 0.909280
vn 0.695740 0.178580 0.695740
vn 0.382684 0.000000 0.923880
vn 0.707107 0.000000 0.707107
vn 0.909280 0.177071 0.376636
vn 0.983925 0.178581 -0.000000
vn 0.923880 -0.000000 0.382683
vn 1.000000 -0.000000 0.000000
vn 0.909280 0.177071 -0.376636
vn 0.695740 0.178580 -0.695740
vn 0.923880 -0.000000 -0.382683
vn 0.707107 -0.000000 -0.707107
vn 0.376636 0.177071 -0.909280
vn -0.000000 0.178580 -0.983925
vn 0.382684 0.000000 -0.923880
vn 0.000000 -0.000000 -1.000000
vn -0.376636 0.177071 -0.909280
vn -0.695740 0.178581 -0.695740
vn -0.382683 0.000000 -0.923880
vn -0.707107 0.000000 -0.707107
vn -0.909280 0.177071 -0.376636
vn -0.983925 0.178581 0.000000
vn -0.923880 0.000000 -0.382683
vn -1.000000 0.000000 0.000000
vn -0.909280 0.177072 0.376636
vn -0.923880 -0.000000 0.382683
vn -0.695740 -0.178580 0.695740
vn -0.376636 -0.177071 0.909280
vn 0.000000 -0.178580 0.983925
vn 0.000000 -0.352477 0.935821
vn -0.358369 -0.350768 0.865178
vn -0.661725 -0.352477 0.661725
vn 0.376636 -0.177071 0.909280
vn 0.695740 -0.178580 0.695740
vn 0.661725 -0.352477 0.661725
vn 0.358369 -0.350768 0.865178
vn 0.909280 -0.177071 0.376636
vn 0.983925 -0.178581 -0.000000
vn 0.935821 -0.352477 0.000000
vn 0.865178 -0.350768 0.358369
vn 0.909280 -0.177071 -0.376636
vn 0.695740 -0.178580 -0.695740
vn 0.661725 -0.352477 -0.661725
vn 0.865178 -0.350768 -0.358369
vn 0.376636 -0.177071 -0.909280
vn -0.000000 -0.178580 -0.983925
vn 0.000000 -0.352477 -0.935820
vn 0.358369 -0.350768 -0.865178
vn -0.376636 -0.177071 -0.909280
vn -0.695740 -0.178581 -0.695740
vn -0.661725 -0.352477 -0.661725
vn -0.358369 -0.350768 -0.865178
vn -0.909280 -0.177071 -0.376636
vn -0.983925 -0.178581 0.000000
vn -0.935820 -0.352477 0.000000
vn -0.865178 -0.350768 -0.358369
vn -0.909280 -0.177072 0.376636
vn -0.865178 -0.350768 0.358369
vn -0.604813 -0.518077 0.604813
vn -0.327681 -0.516526 0.791092
vn 0.000000 -0.518077 0.855334
vn -0.000000 -0.669392 0.742910
vn -0.284659 -0.668348 0.687227
vn -0.525316 -0.669392 0.525316
vn 0.327681 -0.516526 0.791092
vn 0.604813 -0.518077 0.604813
vn 0.525316 -0.669392 0.525316
vn 0.284659 -0.668348 0.687227
vn 0.791092 -0.516526 0.327681
vn 0.855334 -0.518077 0.000000
vn 0.742910 -0.669392 -0.000000
vn 0.687227 -0.668348 0.284659
vn 0.791092 -0.516526 -0.327681
vn 0.604813 -0.518077 -0.604813
vn 0.525316 -0.669392 -0.525316
vn 0.687227 -0.668348 -0.284659
vn 0.327681 -0.516526 -0.791092
vn -0.000000 -0.518077 -0.855334
vn 0.000000 -0.669392 -0.742910
vn 0.284659 -0.668348 -0.687227
vn -0.327681 -0.516526 -0.791092
vn -0.604813 -0.518077 -0.604813
vn -0.525316 -0.669392 -0.525316
vn -0.284659 -0.668348 -0.687227
vn -0.791092 -0.516526 -0.327681
vn -0.855334 -0.518076 -0.000000
vn -0.742910 -0.669392 0.000000
vn -0.687227 -0.668348 -0.284659
vn -0.791092 -0.516526 0.327681
vn -0.687226 -0.668348 0.284659
vn -0.433473 -0.790065 0.433473
vn -0.232131 -0.795017 0.560413
vn -0.000000 -0.790064 0.613024
vn -0.177409 -0.886048 0.428304
vn -0.000000 -0.893688 0.448688
vn -0.317271 -0.893688 0.317271
vn 0.232131 -0.795017 0.560413
vn 0.433473 -0.790064 0.433473
vn 0.177409 -0.886048 0.428304
vn 0.317271 -0.893688 0.317271
vn 0.560413 -0.795017 0.232131
vn 0.613024 -0.790064 -0.000000
vn 0.428304 -0.886048 0.177409
vn 0.448688 -0.893688 -0.000000
vn 0.560413 -0.795017 -0.232131
vn 0.433473 -0.790064 -0.433473
vn 0.428304 -0.886048 -0.177409
vn 0.317271 -0.893688 -0.317271
vn 0.232131 -0.795017 -0.560413
vn 0.000000 -0.790064 -0.613024
vn 0.177409 -0.886048 -0.428304
vn 0.000000 -0.893688 -0.448688
vn -0.232131 -0.795017 -0.560413
vn -0.433473 -0.790065 -0.433473
vn -0.177409 -0.886048 -0.428304
vn -0.317271 -0.893688 -0.317270
vn -0.560413 -0.795017 -0.232131
vn -0.613024 -0.790064 0.000000
vn -0.428304 -0.886048 -0.177409
vn -0.448688 -0.893688 -0.000000
vn -0.560413 -0.795017 0.232131
vn -0.428304 -0.886048 0.177410
vn -0.111269 0.956796 0.268628
vn 0.000000 0.979781 0.200071
vn -0.141472 0.979781 0.141472
vn 0.000000 1.000000 0.000000
vn 0.111269 0.956796 0.268628
vn 0.141472 0.979782 0.141471
vn 0.268627 0.956796 0.111269
vn 0.200071 0.979781 0.000000
vn 0.268627 0.956796 -0.111269
vn 0.141472 0.979781 -0.141472
vn 0.111269 0.956796 -0.268628
vn -0.000000 0.979781 -0.200071
vn -0.111269 0.956796 -0.268628
vn -0.141472 0.979781 -0.141472
vn -0.268627 0.956796 -0.111269
vn -0.200071 0.979781 0.000000
vn -0.268627 0.956796 0.111269
vn -0.111269 -0.956796 0.268627
vn -0.141472 -0.979781 0.141472
vn -0.000000 -0.979781 0.200071
vn 0.000000 -1.000000 -0.000000
vn 0.111269 -0.956796 0.268628
vn 0.141472 -0.979781 0.141471
vn 0.268627 -0.956796 0.111270
vn 0.200071 -0.979781 -0.000000
vn 0.268627 -0.956796 -0.111270
vn 0.141472 -0.979781 -0.141472
vn 0.111269 -0.956796 -0.268628
vn -0.000000 -0.979781 -0.200071
vn -0.111269 -0.956796 -0.268628
vn -0.141472 -0.979781 -0.141472
vn -0.268627 -0.956796 -0.111269
vn -0.200071 -0.979781 -0.000000
vn -0.268627 -0.956796 0.111270
s 1
g skysphere
usemtl blinn1SG
f 1/1/1 126/147/2 123/144/3
f 126/147/2 179/80/4 123/144/3
f 2/3/5 123/144/3 124/145/6
f 123/144/3 179/80/4 124/145/6
f 179/80/4 125/146/7 124/145/6
f 125/146/7 10/12/8 124/145/6
f 179/80/4 126/147/2 125/146/7
f 126/147/2 9/10/9 125/146/7
f 2/3/5 124/145/6 127/149/10
f 124/145/6 180/81/11 127/149/10
f 3/4/12 127/149/10 128/150/13
f 127/149/10 180/81/11 128/150/13
f 180/81/11 129/151/14 128/150/13
f 129/151/14 11/13/15 128/150/13
f 180/81/11 124/145/6 129/151/14
f 124/145/6 10/12/8 129/151/14
f 3/4/12 128/150/13 130/152/16
f 128/150/13 181/82/17 130/152/16
f 4/5/18 130/152/16 131/153/19
f 130/152/16 181/82/17 131/153/19
f 181/82/17 132/154/20 131/153/19
f 132/154/20 12/14/21 131/153/19
f 181/82/17 128/150/13 132/154/20
f 128/150/13 11/13/15 132/154/20
f 4/5/18 131/153/19 133/155/22
f 131/153/19 182/83/23 133/155/22
f 5/6/24 133/155/22 134/156/25
f 133/155/22 182/83/23 134/156/25
f 182/83/23 135/157/26 134/156/25
f 135/157/26 13/15/27 134/156/25
f 182/83/23 131/153/19 135/157/26
f 131/153/19 12/14/21 135/157/26
f 5/6/24 134/156/25 136/158/28
f 134/156/25 183/84/29 136/158/28
f 6/7/30 136/158/28 137/159/31
f 136/158/28 183/84/29 137/159/31
f 183/84/29 138/160/32 137/159/31
f 138/160/32 14/16/33 137/159/31
f 183/84/29 134/156/25 138/160/32
f 134/156/25 13/15/27 138/160/32
f 6/7/30 137/159/31 139/161/34
f 137/159/31 184/85/35 139/161/34
f 7/8/36 139/161/34 140/162/37
f 139/161/34 184/85/35 140/162/37
f 184/85/35 141/163/38 140/162/37
f 141/163/38 15/17/39 140/162/37
f 184/85/35 137/159/31 141/163/38
f 137/159/31 14/16/33 141/163/38
f 7/8/36 140/162/37 142/164/40
f 140/162/37 185/86/41 142/164/40
f 8/9/42 142/164/40 143/165/43
f 142/164/40 185/86/41 143/165/43
f 185/86/41 144/166/44 143/165/43
f 144/166/44 16/18/45 143/165/43
f 185/86/41 140/162/37 144/166/44
f 140/162/37 15/17/39 144/166/44
f 8/9/42 143/165/43 145/167/46
f 143/165/43 186/87/47 145/167/46
f 1/2/1 145/167/46 126/148/2
f 145/167/46 186/87/47 126/148/2
f 186/87/47 146/168/48 126/148/2
f 146/168/48 9/11/9 126/148/2
f 186/87/47 143/165/43 146/168/48
f 143/165/43 16/18/45 146/168/48
f 125/146/7 9/10/9 187/88/49
f 9/10/9 149/171/50 187/88/49
f 125/146/7 187/88/49 10/12/8
f 187/88/49 147/169/51 10/12/8
f 187/88/49 148/170/52 147/169/51
f 148/170/52 18/21/53 147/169/51
f 187/88/49 149/171/50 148/170/52
f 149/171/50 17/19/54 148/170/52
f 129/151/14 10/12/8 188/89/55
f 10/12/8 147/169/51 188/89/55
f 129/151/14 188/89/55 11/13/15
f 188/89/55 150/173/56 11/13/15
f 188/89/55 151/174/57 150/173/56
f 151/174/57 19/22/58 150/173/56
f 188/89/55 147/169/51 151/174/57
f 147/169/51 18/21/53 151/174/57
f 132/154/20 11/13/15 189/90/59
f 11/13/15 150/173/56 189/90/59
f 132/154/20 189/90/59 12/14/21
f 189/90/59 152/175/60 12/14/21
f 189/90/59 153/176/61 152/175/60
f 153/176/61 20/23/62 152/175/60
f 189/90/59 150/173/56 153/176/61
f 150/173/56 19/22/58 153/176/61
f 135/157/26 12/14/21 190/91/63
f 12/14/21 152/175/60 190/91/63
f 135/157/26 190/91/63 13/15/27
f 190/91/63 154/177/64 13/15/27
f 190/91/63 155/178/65 154/177/64
f 155/178/65 21/24/66 154/177/64
f 190/91/63 152/175/60 155/178/65
f 152/175/60 20/23/62 155/178/65
f 138/160/32 13/15/27 191/92/67
f 13/15/27 154/177/64 191/92/67
f 138/160/32 191/92/67 14/16/33
f 191/92/67 156/179/68 14/16/33
f 191/92/67 157/180/69 156/179/68
f 157/180/69 22/25/70 156/179/68
f 191/92/67 154/177/64 157/180/69
f 154/177/64 21/24/66 157/180/69
f 141/163/38 14/16/33 192/93/71
f 14/16/33 156/179/68 192/93/71
f 141/163/38 192/93/71 15/17/39
f 192/93/71 158/181/72 15/17/39
f 192/93/71 159/182/73 158/181/72
f 159/182/73 23/26/74 158/181/72
f 192/93/71 156/179/68 159/182/73
f 156/179/68 22/25/70 159/182/73
f 144/166/44 15/17/39 193/94/75
f 15/17/39 158/181/72 193/94/75
f 144/166/44 193/94/75 16/18/45
f 193/94/75 160/183/76 16/18/45
f 193/94/75 161/184/77 160/183/76
f 161/184/77 24/27/78 160/183/76
f 193/94/75 158/181/72 161/184/77
f 158/181/72 23/26/74 161/184/77
f 146/168/48 16/18/45 194/95/79
f 16/18/45 160/183/76 194/95/79
f 146/168/48 194/95/79 9/11/9
f 194/95/79 149/172/50 9/11/9
f 194/95/79 162/185/80 149/172/50
f 162/185/80 17/20/54 149/172/50
f 194/95/79 160/183/76 162/185/80
f 160/183/76 24/27/78 162/185/80
f 148/170/52 17/19/54 195/96/81
f 17/19/54 165/188/82 195/96/81
f 148/170/52 195/96/81 18/21/53
f 195/96/81 163/186/83 18/21/53
f 195/96/81 164/187/84 163/186/83
f 164/187/84 26/30/85 163/186/83
f 195/96/81 165/188/82 164/187/84
f 165/188/82 25/28/86 164/187/84
f 151/174/57 18/21/53 196/97/87
f 18/21/53 163/186/83 196/97/87
f 151/174/57 196/97/87 19/22/58
f 196/97/87 166/190/88 19/22/58
f 196/97/87 167/191/89 166/190/88
f 167/191/89 27/31/90 166/190/88
f 196/97/87 163/186/83 167/191/89
f 163/186/83 26/30/85 167/191/89
f 153/176/61 19/22/58 197/98/91
f 19/22/58 166/190/88 197/98/91
f 153/176/61 197/98/91 20/23/62
f 197/98/91 168/192/92 20/23/62
f 197/98/91 169/193/93 168/192/92
f 169/193/93 28/32/94 168/192/92
f 197/98/91 166/190/88 169/193/93
f 166/190/88 27/31/90 169/193/93
f 155/178/65 20/23/62 198/99/95
f 20/23/62 168/192/92 198/99/95
f 155/178/65 198/99/95 21/24/66
f 198/99/95 170/194/96 21/24/66
f 198/99/95 171/195/97 170/194/96
f 171/195/97 29/33/98 170/194/96
f 198/99/95 168/192/92 171/195/97
f 168/192/92 28/32/94 171/195/97
f 157/180/69 21/24/66 199/100/99
f 21/24/66 170/194/96 199/100/99
f 157/180/69 199/100/99 22/25/70
f 199/100/99 172/196/100 22/25/70
f 199/100/99 173/197/101 172/196/100
f 173/197/101 30/34/102 172/196/100
f 199/100/99 170/194/96 173/197/101
f 170/194/96 29/33/98 173/197/101
f 159/182/73 22/25/70 200/101/103
f 22/25/70 172/196/100 200/101/103
f 159/182/73 200/101/103 23/26/74
f 200/101/103 174/198/104 23/26/74
f 200/101/103 175/199/105 174/198/104
f 175/199/105 31/35/106 174/198/104
f 200/101/103 172/196/100 175/199/105
f 172/196/100 30/34/102 175/199/105
f 161/184/77 23/26/74 201/102/107
f 23/26/74 174/198/104 201/102/107
f 161/184/77 201/102/107 24/27/78
f 201/102/107 176/200/108 24/27/78
f 201/102/107 177/201/109 176/200/108
f 177/201/109 32/36/110 176/200/108
f 201/102/107 174/198/104 177/201/109
f 174/198/104 31/35/106 177/201/109
f 162/185/80 24/27/78 202/103/111
f 24/27/78 176/200/108 202/103/111
f 162/185/80 202/103/111 17/20/54
f 202/103/111 165/189/82 17/20/54
f 202/103/111 178/202/112 165/189/82
f 178/202/112 25/29/86 165/189/82
f 202/103/111 176/200/108 178/202/112
f 176/200/108 32/36/110 178/202/112
f 25/28/86 61/205/113 164/187/84
f 61/205/113 203/104/114 164/187/84
f 26/30/85 164/187/84 59/203/115
f 164/187/84 203/104/114 59/203/115
f 59/203/115 203/104/114 34/39/116
f 203/104/114 60/204/117 34/39/116
f 61/205/113 33/37/118 203/104/114
f 33/37/118 60/204/117 203/104/114
f 26/30/85 59/203/115 167/191/89
f 59/203/115 204/105/119 167/191/89
f 27/31/90 167/191/89 62/207/120
f 167/191/89 204/105/119 62/207/120
f 62/207/120 204/105/119 35/40/121
f 204/105/119 63/208/122 35/40/121
f 59/203/115 34/39/116 204/105/119
f 34/39/116 63/208/122 204/105/119
f 27/31/90 62/207/120 169/193/93
f 62/207/120 205/106/123 169/193/93
f 28/32/94 169/193/93 64/209/124
f 169/193/93 205/106/123 64/209/124
f 64/209/124 205/106/123 36/41/125
f 205/106/123 65/210/126 36/41/125
f 62/207/120 35/40/121 205/106/123
f 35/40/121 65/210/126 205/106/123
f 28/32/94 64/209/124 171/195/97
f 64/209/124 206/107/127 171/195/97
f 29/33/98 171/195/97 66/211/128
f 171/195/97 206/107/127 66/211/128
f 66/211/128 206/107/127 37/42/129
f 206/107/127 67/212/130 37/42/129
f 64/209/124 36/41/125 206/107/127
f 36/41/125 67/212/130 206/107/127
f 29/33/98 66/211/128 173/197/101
f 66/211/128 207/108/131 173/197/101
f 30/34/102 173/197/101 68/213/132
f 173/197/101 207/108/131 68/213/132
f 68/213/132 207/108/131 38/43/133
f 207/108/131 69/214/134 38/43/133
f 66/211/128 37/42/129 207/108/131
f 37/42/129 69/214/134 207/108/131
f 30/34/102 68/213/132 175/199/105
f 68/213/132 208/109/135 175/199/105
f 31/35/106 175/199/105 70/215/136
f 175/199/105 208/109/135 70/215/136
f 70/215/136 208/109/135 39/44/137
f 208/109/135 71/216/138 39/44/137
f 68/213/132 38/43/133 208/109/135
f 38/43/133 71/216/138 208/109/135
f 31/35/106 70/215/136 177/201/109
f 70/215/136 209/110/139 177/201/109
f 32/36/110 177/201/109 72/217/140
f 177/201/109 209/110/139 72/217/140
f 72/217/140 209/110/139 40/45/141
f 209/110/139 73/218/142 40/45/141
f 70/215/136 39/44/137 209/110/139
f 39/44/137 73/218/142 209/110/139
f 32/36/110 72/217/140 178/202/112
f 72/217/140 210/111/143 178/202/112
f 25/29/86 178/202/112 61/206/113
f 178/202/112 210/111/143 61/206/113
f 61/206/113 210/111/143 33/38/118
f 210/111/143 74/219/144 33/38/118
f 72/217/140 40/45/141 210/111/143
f 40/45/141 74/219/144 210/111/143
f 33/37/118 77/222/145 60/204/117
f 77/222/145 211/112/146 60/204/117
f 34/39/116 60/204/117 75/220/147
f 60/204/117 211/112/146 75/220/147
f 75/220/147 211/112/146 42/48/148
f 211/112/146 76/221/149 42/48/148
f 77/222/145 41/46/150 211/112/146
f 41/46/150 76/221/149 211/112/146
f 34/39/116 75/220/147 63/208/122
f 75/220/147 212/113/151 63/208/122
f 35/40/121 63/208/122 78/224/152
f 63/208/122 212/113/151 78/224/152
f 78/224/152 212/113/151 43/49/153
f 212/113/151 79/225/154 43/49/153
f 75/220/147 42/48/148 212/113/151
f 42/48/148 79/225/154 212/113/151
f 35/40/121 78/224/152 65/210/126
f 78/224/152 213/114/155 65/210/126
f 36/41/125 65/210/126 80/226/156
f 65/210/126 213/114/155 80/226/156
f 80/226/156 213/114/155 44/50/157
f 213/114/155 81/227/158 44/50/157
f 78/224/152 43/49/153 213/114/155
f 43/49/153 81/227/158 213/114/155
f 36/41/125 80/226/156 67/212/130
f 80/226/156 214/115/159 67/212/130
f 37/42/129 67/212/130 82/228/160
f 67/212/130 214/115/159 82/228/160
f 82/228/160 214/115/159 45/51/161
f 214/115/159 83/229/162 45/51/161
f 80/226/156 44/50/157 214/115/159
f 44/50/157 83/229/162 214/115/159
f 37/42/129 82/228/160 69/214/134
f 82/228/160 215/116/163 69/214/134
f 38/43/133 69/214/134 84/230/164
f 69/214/134 215/116/163 84/230/164
f 84/230/164 215/116/163 46/52/165
f 215/116/163 85/231/166 46/52/165
f 82/228/160 45/51/161 215/116/163
f 45/51/161 85/231/166 215/116/163
f 38/43/133 84/230/164 71/216/138
f 84/230/164 216/117/167 71/216/138
f 39/44/137 71/216/138 86/232/168
f 71/216/138 216/117/167 86/232/168
f 86/232/168 216/117/167 47/53/169
f 216/117/167 87/233/170 47/53/169
f 84/230/164 46/52/165 216/117/167
f 46/52/165 87/233/170 216/117/167
f 39/44/137 86/232/168 73/218/142
f 86/232/168 217/118/171 73/218/142
f 40/45/141 73/218/142 88/234/172
f 73/218/142 217/118/171 88/234/172
f 88/234/172 217/118/171 48/54/173
f 217/118/171 89/235/174 48/54/173
f 86/232/168 47/53/169 217/118/171
f 47/53/169 89/235/174 217/118/171
f 40/45/141 88/234/172 74/219/144
f 88/234/172 218/119/175 74/219/144
f 33/38/118 74/219/144 77/223/145
f 74/219/144 218/119/175 77/223/145
f 77/223/145 218/119/175 41/47/150
f 218/119/175 90/236/176 41/47/150
f 88/234/172 48/54/173 218/119/175
f 48/54/173 90/236/176 218/119/175
f 41/46/150 93/239/177 76/221/149
f 93/239/177 219/120/178 76/221/149
f 42/48/148 76/221/149 91/237/179
f 76/221/149 219/120/178 91/237/179
f 219/120/178 92/238/180 91/237/179
f 92/238/180 50/57/181 91/237/179
f 219/120/178 93/239/177 92/238/180
f 93/239/177 49/55/182 92/238/180
f 42/48/148 91/237/179 79/225/154
f 91/237/179 220/121/183 79/225/154
f 43/49/153 79/225/154 94/241/184
f 79/225/154 220/121/183 94/241/184
f 220/121/183 95/242/185 94/241/184
f 95/242/185 51/58/186 94/241/184
f 220/121/183 91/237/179 95/242/185
f 91/237/179 50/57/181 95/242/185
f 43/49/153 94/241/184 81/227/158
f 94/241/184 221/122/187 81/227/158
f 44/50/157 81/227/158 96/243/188
f 81/227/158 221/122/187 96/243/188
f 221/122/187 97/244/189 96/243/188
f 97/244/189 52/59/190 96/243/188
f 221/122/187 94/241/184 97/244/189
f 94/241/184 51/58/186 97/244/189
f 44/50/157 96/243/188 83/229/162
f 96/243/188 222/123/191 83/229/162
f 45/51/161 83/229/162 98/245/192
f 83/229/162 222/123/191 98/245/192
f 222/123/191 99/246/193 98/245/192
f 99/246/193 53/60/194 98/245/192
f 222/123/191 96/243/188 99/246/193
f 96/243/188 52/59/190 99/246/193
f 45/51/161 98/245/192 85/231/166
f 98/245/192 223/124/195 85/231/166
f 46/52/165 85/231/166 100/247/196
f 85/231/166 223/124/195 100/247/196
f 223/124/195 101/248/197 100/247/196
f 101/248/197 54/61/198 100/247/196
f 223/124/195 98/245/192 101/248/197
f 98/245/192 53/60/194 101/248/197
f 46/52/165 100/247/196 87/233/170
f 100/247/196 224/125/199 87/233/170
f 47/53/169 87/233/170 102/249/200
f 87/233/170 224/125/199 102/249/200
f 224/125/199 103/250/201 102/249/200
f 103/250/201 55/62/202 102/249/200
f 224/125/199 100/247/196 103/250/201
f 100/247/196 54/61/198 103/250/201
f 47/53/169 102/249/200 89/235/174
f 102/249/200 225/126/203 89/235/174
f 48/54/173 89/235/174 104/251/204
f 89/235/174 225/126/203 104/251/204
f 225/126/203 105/252/205 104/251/204
f 105/252/205 56/63/206 104/251/204
f 225/126/203 102/249/200 105/252/205
f 102/249/200 55/62/202 105/252/205
f 48/54/173 104/251/204 90/236/176
f 104/251/204 226/127/207 90/236/176
f 41/47/150 90/236/176 93/240/177
f 90/236/176 226/127/207 93/240/177
f 226/127/207 106/253/208 93/240/177
f 106/253/208 49/56/182 93/240/177
f 226/127/207 104/251/204 106/253/208
f 104/251/204 56/63/206 106/253/208
f 123/144/3 2/3/5 227/128/209
f 2/3/5 108/256/210 227/128/209
f 107/254/211 1/1/1 227/128/209
f 1/1/1 123/144/3 227/128/209
f 57/64/212 107/254/211 108/256/210
f 107/254/211 227/128/209 108/256/210
f 127/149/10 3/4/12 228/129/213
f 3/4/12 109/258/214 228/129/213
f 108/257/210 2/3/5 228/129/213
f 2/3/5 127/149/10 228/129/213
f 57/71/212 108/257/210 109/258/214
f 108/257/210 228/129/213 109/258/214
f 130/152/16 4/5/18 229/130/215
f 4/5/18 110/260/216 229/130/215
f 109/259/214 3/4/12 229/130/215
f 3/4/12 130/152/16 229/130/215
f 57/70/212 109/259/214 110/260/216
f 109/259/214 229/130/215 110/260/216
f 133/155/22 5/6/24 230/131/217
f 5/6/24 111/262/218 230/131/217
f 110/261/216 4/5/18 230/131/217
f 4/5/18 133/155/22 230/131/217
f 57/69/212 110/261/216 111/262/218
f 110/261/216 230/131/217 111/262/218
f 136/158/28 6/7/30 231/132/219
f 6/7/30 112/264/220 231/132/219
f 111/263/218 5/6/24 231/132/219
f 5/6/24 136/158/28 231/132/219
f 57/68/212 111/263/218 112/264/220
f 111/263/218 231/132/219 112/264/220
f 139/161/34 7/8/36 232/133/221
f 7/8/36 113/266/222 232/133/221
f 112/265/220 6/7/30 232/133/221
f 6/7/30 139/161/34 232/133/221
f 57/67/212 112/265/220 113/266/222
f 112/265/220 232/133/221 113/266/222
f 142/164/40 8/9/42 233/134/223
f 8/9/42 114/268/224 233/134/223
f 113/267/222 7/8/36 233/134/223
f 7/8/36 142/164/40 233/134/223
f 57/66/212 113/267/222 114/268/224
f 113/267/222 233/134/223 114/268/224
f 145/167/46 1/2/1 234/135/225
f 1/2/1 107/255/211 234/135/225
f 114/269/224 8/9/42 234/135/225
f 8/9/42 145/167/46 234/135/225
f 57/65/212 114/269/224 107/255/211
f 114/269/224 234/135/225 107/255/211
f 92/238/180 49/55/182 235/136/226
f 49/55/182 116/272/227 235/136/226
f 115/270/228 50/57/181 235/136/226
f 50/57/181 92/238/180 235/136/226
f 58/72/229 115/270/228 116/272/227
f 115/270/228 235/136/226 116/272/227
f 95/242/185 50/57/181 236/137/230
f 50/57/181 115/271/228 236/137/230
f 117/274/231 51/58/186 236/137/230
f 51/58/186 95/242/185 236/137/230
f 58/73/229 117/274/231 115/271/228
f 117/274/231 236/137/230 115/271/228
f 97/244/189 51/58/186 237/138/232
f 51/58/186 117/275/231 237/138/232
f 118/276/233 52/59/190 237/138/232
f 52/59/190 97/244/189 237/138/232
f 58/74/229 118/276/233 117/275/231
f 118/276/233 237/138/232 117/275/231
f 99/246/193 52/59/190 238/139/234
f 52/59/190 118/277/233 238/139/234
f 119/278/235 53/60/194 238/139/234
f 53/60/194 99/246/193 238/139/234
f 58/75/229 119/278/235 118/277/233
f 119/278/235 238/139/234 118/277/233
f 101/248/197 53/60/194 239/140/236
f 53/60/194 119/279/235 239/140/236
f 120/280/237 54/61/198 239/140/236
f 54/61/198 101/248/197 239/140/236
f 58/76/229 120/280/237 119/279/235
f 120/280/237 239/140/236 119/279/235
f 103/250/201 54/61/198 240/141/238
f 54/61/198 120/281/237 240/141/238
f 121/282/239 55/62/202 240/141/238
f 55/62/202 103/250/201 240/141/238
f 58/77/229 121/282/239 120/281/237
f 121/282/239 240/141/238 120/281/237
f 105/252/205 55/62/202 241/142/240
f 55/62/202 121/283/239 241/142/240
f 122/284/241 56/63/206 241/142/240
f 56/63/206 105/252/205 241/142/240
f 58/78/229 122/284/241 121/283/239
f 122/284/241 241/142/240 121/283/239
f 106/253/208 56/63/206 242/143/242
f 56/63/206 122/285/241 242/143/242
f 116/273/227 49/56/182 242/143/242
f 49/56/182 106/253/208 242/143/242
f 58/79/229 116/273/227 122/285/241
f 116/273/227 242/143/242 122/285/241
