# This file uses centimeters as units for non-parametric coordinates.

g default
v 6.836674 -1.698311 5.888773
v 6.274457 -1.830832 5.812106
v 6.355422 -1.942259 5.367917
v 6.949431 -1.810963 5.413811
v 9.046955 1.963408 9.183453
v 8.555103 2.103121 9.459452
v 8.260330 1.753408 9.351357
v 8.666080 1.588993 9.146069
v 13.139525 5.326670 7.572421
v 13.111067 5.837212 7.687513
v 12.802103 5.723366 8.010218
v 12.822787 5.161423 7.906141
v 14.475752 4.162136 2.658271
v 14.613188 4.586149 2.305717
v 14.726751 4.863598 2.665416
v 14.595270 4.459450 3.040920
v 10.431372 -0.133043 1.516543
v 10.166624 -0.104076 1.098527
v 10.519815 0.175804 0.964807
v 10.823290 0.194017 1.442991
v 2.820040 -0.529018 4.581612
v 3.092381 -0.918718 4.688017
v 2.979798 -0.795273 5.128772
v 2.740067 -0.368099 5.019484
v 5.219828 4.265621 9.361466
v 5.479532 3.909433 9.531467
v 5.787935 4.261511 9.627941
v 5.536867 4.653187 9.419069
v 11.402048 9.339730 7.243252
v 11.700203 8.999182 7.407035
v 12.008114 9.132311 7.067099
v 11.696831 9.470592 6.901030
v 13.710787 8.186290 0.421576
v 14.016455 7.855693 0.573421
v 13.893505 7.558075 0.223151
v 13.593636 7.892635 0.067033
v 8.265163 2.081968 -1.202297
v 8.523788 1.682581 -1.105785
v 8.176472 1.406378 -0.950734
v 7.913139 1.771912 -1.067997
v 3.231060 4.950170 3.353709
v 2.964911 4.374047 3.550820
v 2.895976 4.493526 3.997817
v 3.075343 5.011857 3.842750
v 4.523699 7.314939 6.043056
v 4.500086 7.075128 6.452369
v 4.824056 7.394143 6.584938
v 4.853583 7.666053 6.123466
v 8.133490 10.335622 5.412625
v 8.599509 10.399087 5.755907
v 8.878859 10.544860 5.418802
v 8.487683 10.495488 5.096330
v 9.934923 9.634091 0.580825
v 10.481112 9.590559 0.431543
v 10.335951 9.301029 0.098921
v 9.697998 9.295139 0.267267
v 6.483453 6.300797 0.017445
v 6.624759 5.874916 -0.224660
v 6.260858 5.633383 -0.052258
v 6.116535 6.054416 0.192308
v 12.147253 1.615631 5.371178
v 12.283886 1.923719 5.704007
v 11.975290 1.775715 6.039428
v 11.656124 1.409422 5.946229
v 11.785011 1.320026 5.497752
v 5.632740 8.257008 2.280624
v 5.476866 8.306742 2.753718
v 5.821809 8.675048 2.795915
v 6.118005 8.796685 2.449450
v 5.999657 8.503389 2.105761
vt 0.011654 0.220866
vt 0.017231 0.236939
vt 0.008440 0.266398
vt 0.992500 0.267397
vt 0.188440 0.221100
vt 0.186126 0.236569
vt 0.101311 0.024415
vt 0.108441 0.021101
vt 0.217462 0.233695
vt 0.208821 0.266680
vt 0.387592 0.218981
vt 0.383365 0.232592
vt 0.300400 0.025035
vt 0.307938 0.019844
vt 0.416350 0.234491
vt 0.409294 0.266639
vt 0.586715 0.216787
vt 0.582304 0.234155
vt 0.499528 0.025858
vt 0.506699 0.016748
vt 0.616388 0.234134
vt 0.607192 0.266655
vt 0.789667 0.224167
vt 0.783807 0.234296
vt 0.700014 0.023474
vt 0.707967 0.019918
vt 0.808449 0.268051
vt 0.000000 0.523135
vt 0.000000 0.743054
vt 0.992698 0.514179
vt 0.808472 0.482092
vt 0.008395 0.483138
vt 0.190685 0.482823
vt 0.208921 0.482468
vt 0.392914 0.483426
vt 0.409246 0.483381
vt 0.591632 0.483934
vt 0.607358 0.483736
vt 0.791906 0.483066
vt 0.809729 0.513052
vt 0.014958 0.787395
vt 0.091219 0.978046
vt 0.978640 0.768335
vt 0.809526 0.736543
vt 0.009022 0.736645
vt 0.188440 0.736473
vt 0.189188 0.777030
vt 0.101138 0.967430
vt 0.206714 0.733482
vt 0.388721 0.730962
vt 0.387254 0.781865
vt 0.308389 0.979029
vt 0.299570 0.971921
vt 0.409931 0.733595
vt 0.591214 0.733530
vt 0.584053 0.789867
vt 0.507263 0.981843
vt 0.499490 0.974086
vt 0.612364 0.733283
vt 0.793792 0.734880
vt 0.788005 0.779986
vt 0.710092 0.974770
vt 0.701862 0.971116
vt 0.190930 0.266402
vt 0.393214 0.267689
vt 0.591889 0.265666
vt 0.791727 0.268094
vt 0.992253 0.482332
vt 0.008928 0.515171
vt 0.188099 0.514147
vt 0.207007 0.516387
vt 0.388446 0.515609
vt 0.409269 0.517539
vt 0.591547 0.516951
vt 0.612033 0.514663
vt 0.793432 0.514954
vt 0.992480 0.737427
vt 0.983700 0.235878
vt 0.813457 0.236270
vt 0.898816 0.022756
vt 0.020755 0.765190
vt 0.182702 0.764283
vt 0.217264 0.766156
vt 0.380753 0.767156
vt 0.416603 0.765819
vt 0.581922 0.766187
vt 0.622004 0.768888
vt 0.783293 0.767538
vt 0.898138 0.971116
vt 0.200000 0.250000
vt 0.400000 0.250000
vt 0.598763 0.251546
vt 0.799732 0.250000
vt 0.000000 0.750000
vt 0.816707 0.767538
vt 0.098264 0.004340
vt 0.101364 0.003411
vt 0.092548 0.018630
vt 0.111188 0.972029
vt 0.103602 0.990995
vt 0.098311 0.995778
vn 0.405244 -0.760718 0.507035
vn 0.534499 -0.829909 0.159883
vn 0.493185 -0.736144 0.463531
vn 0.550180 -0.823283 0.139667
vn -0.319475 -0.556888 0.766689
vn -0.316196 -0.541721 0.778818
vn 0.431240 -0.734344 0.524186
vn 0.577676 -0.445758 0.683805
vn 0.631293 -0.504753 0.588807
vn 0.190038 0.116414 0.974850
vn 0.213206 0.208248 0.954555
vn 0.613977 -0.417698 0.669747
vn 0.127839 0.206268 0.970109
vn -0.399675 -0.478656 0.781760
vn 0.866321 -0.336815 0.368842
vn 0.831251 -0.436305 0.344472
vn 0.884663 -0.343780 0.314940
vn 0.905773 0.321107 0.276525
vn 0.928514 0.319044 0.189928
vn 0.389052 0.335898 0.857794
vn 0.799713 0.417828 0.431136
vn 0.763587 -0.641578 -0.072885
vn 0.737044 -0.675328 0.026402
vn 0.619401 -0.353748 -0.700860
vn 0.568446 -0.342864 -0.747873
vn 0.732842 -0.674240 -0.091344
vn 0.787691 -0.155663 -0.596081
vn 0.968018 0.202711 -0.147814
vn 0.548775 -0.828803 0.109233
vn -0.110973 -0.851099 -0.513142
vn -0.183004 -0.812495 -0.553499
vn 0.520232 -0.317163 -0.792948
vn -0.794403 -0.144464 -0.589960
vn -0.976826 0.029604 0.211979
vn -0.738049 -0.108229 -0.666010
vn -0.924304 0.131891 0.358143
vn -0.222809 -0.813945 -0.536516
vn -0.794403 -0.144464 -0.589960
vn -0.675705 -0.168822 -0.717580
vn -0.384327 -0.513658 0.767104
vn -0.976826 0.029604 0.211979
vn -0.884130 0.116257 0.452546
vn -0.267717 0.613529 0.742907
vn -0.884942 0.229007 0.405504
vn -0.298415 0.640699 0.707427
vn 0.389052 0.335898 0.857794
vn -0.006294 0.777058 0.629397
vn 0.341067 0.924131 0.172207
vn 0.332182 0.942877 -0.025249
vn -0.006294 0.777058 0.629397
vn -0.234734 0.576790 0.782440
vn 0.341067 0.924131 0.172207
vn 0.799713 0.417828 0.431136
vn 0.510639 0.809712 -0.289162
vn 0.968018 0.202711 -0.147814
vn 0.510639 0.809712 -0.289162
vn 0.342485 0.394141 -0.852852
vn 0.322963 0.856518 -0.402582
vn 0.023446 0.137219 -0.990263
vn 0.342485 0.394141 -0.852852
vn 0.787691 -0.155663 -0.596081
vn -0.012190 0.180752 -0.983453
vn -0.697168 -0.092775 -0.710879
vn -0.058545 0.214598 -0.974946
vn -0.853115 0.519285 -0.050382
vn -0.804023 0.583732 -0.113158
vn -0.779177 0.322361 -0.537556
vn -0.744153 0.402285 -0.533294
vn -0.736945 0.327792 -0.591155
vn -0.823523 0.567062 -0.015856
vn -0.628540 0.767976 0.123086
vn -0.620536 0.783959 0.018506
vn -0.574159 0.806276 0.142341
vn -0.289643 0.927453 -0.236511
vn -0.369052 0.882622 -0.291168
vn -0.259753 0.918503 -0.298128
vn 0.322963 0.856518 -0.402582
vn -0.392150 0.554799 -0.733769
vn -0.478914 0.580930 -0.658150
vn -0.453562 0.513177 -0.728650
vn -0.159275 -0.852579 -0.497736
vn 0.510639 0.809712 -0.289162
vn 0.342485 0.394141 -0.852852
s 1
g stone_b
f 1/2/1 4/1/2 64/7/3
f 64/7/3 4/1/2 65/98/4
f 2/3/5 1/2/1 7/64/6
f 7/64/6 1/2/1 8/6/7
f 8/6/7 64/7/3 5/5/8
f 5/5/8 64/7/3 63/8/9
f 6/10/10 5/9/8 11/65/11
f 11/65/11 5/9/8 12/12/12
f 6/10/10 27/34/13 7/64/6
f 7/64/6 27/34/13 26/33/14
f 9/11/15 12/12/12 62/14/16
f 62/14/16 12/12/12 63/13/9
f 9/15/15 16/18/17 10/16/18
f 10/16/18 16/18/17 15/66/19
f 11/65/11 10/16/18 30/35/20
f 30/35/20 10/16/18 31/36/21
f 16/18/17 62/19/16 13/17/22
f 13/17/22 62/19/16 61/20/23
f 14/22/24 13/21/22 19/67/25
f 19/67/25 13/21/22 20/24/26
f 14/22/24 35/38/27 15/66/19
f 15/66/19 35/38/27 34/37/28
f 17/23/29 20/24/26 65/26/4
f 65/26/4 20/24/26 61/25/23
f 18/27/30 39/31/31 19/67/25
f 19/67/25 39/31/31 38/39/32
f 21/28/33 24/69/34 42/29/35
f 42/29/35 24/69/34 43/45/36
f 22/68/37 21/30/38 39/31/31
f 39/31/31 21/30/38 40/40/39
f 23/32/40 26/33/14 24/69/41
f 24/69/41 26/33/14 25/70/42
f 25/70/42 28/71/43 46/46/44
f 46/46/44 28/71/43 47/49/45
f 27/34/13 30/35/46 28/71/43
f 28/71/43 30/35/46 29/72/47
f 32/73/48 51/54/49 29/72/50
f 29/72/50 51/54/49 50/50/51
f 32/73/52 31/36/53 33/74/54
f 33/74/54 31/36/53 34/37/55
f 33/74/56 36/75/57 54/55/58
f 54/55/58 36/75/57 55/59/59
f 36/75/60 35/38/61 37/76/62
f 37/76/62 35/38/61 38/39/32
f 40/40/39 59/44/63 37/76/62
f 37/76/62 59/44/63 58/60/64
f 44/81/65 67/48/66 41/41/67
f 41/41/67 67/48/66 66/42/68
f 42/77/35 41/43/67 59/44/63
f 59/44/63 41/43/67 60/95/69
f 43/45/36 46/46/44 44/81/65
f 44/81/65 46/46/44 45/82/70
f 45/82/70 48/47/71 67/48/66
f 67/48/66 48/47/71 68/99/72
f 48/83/71 47/49/45 49/84/73
f 49/84/73 47/49/45 50/50/51
f 52/51/74 69/52/75 49/84/73
f 49/84/73 69/52/75 68/53/72
f 52/85/74 51/54/49 53/86/76
f 53/86/76 51/54/49 54/55/77
f 53/86/76 56/56/78 69/58/75
f 69/58/75 56/56/78 70/57/79
f 55/59/59 58/60/64 56/87/78
f 56/87/78 58/60/64 57/88/80
f 57/88/80 60/61/69 70/63/79
f 70/63/79 60/61/69 66/62/68
f 23/32/40 2/3/5 26/33/14
f 26/33/14 2/3/5 7/64/6
f 6/10/10 11/65/11 27/34/13
f 27/34/13 11/65/11 30/35/46
f 10/16/18 15/66/19 31/36/53
f 31/36/53 15/66/19 34/37/55
f 35/38/61 14/22/24 38/39/32
f 38/39/32 14/22/24 19/67/25
f 18/27/30 3/4/81 39/31/31
f 39/31/31 3/4/81 22/68/37
f 24/69/41 25/70/42 43/45/36
f 43/45/36 25/70/42 46/46/44
f 28/71/43 29/72/47 47/49/45
f 47/49/45 29/72/47 50/50/51
f 51/54/49 32/73/52 54/55/77
f 54/55/77 32/73/52 33/74/54
f 55/59/59 36/75/60 58/60/64
f 58/60/64 36/75/60 37/76/62
f 59/44/63 40/40/39 42/77/35
f 42/77/35 40/40/39 21/30/38
f 8/6/7 1/2/1 64/7/3
f 12/12/12 5/9/8 63/13/9
f 16/18/17 9/15/15 62/19/16
f 20/24/26 13/21/22 61/25/23
f 4/78/2 17/79/29 65/80/4
f 44/81/65 45/82/70 67/48/66
f 48/83/71 49/84/73 68/53/72
f 52/85/74 53/86/76 69/58/75
f 56/87/78 57/88/80 70/63/79
f 60/95/69 41/43/67 66/89/68
f 5/90/8 6/10/10 8/6/7
f 8/6/7 6/10/10 7/64/6
f 10/16/18 11/65/11 9/91/15
f 9/91/15 11/65/11 12/12/12
f 14/22/24 15/66/19 13/92/22
f 13/92/22 15/66/19 16/18/17
f 18/27/30 19/67/25 17/93/29
f 17/93/29 19/67/25 20/24/26
f 26/33/14 27/34/13 25/70/42
f 25/70/42 27/34/13 28/71/43
f 30/35/20 31/36/21 29/72/50
f 29/72/50 31/36/21 32/73/48
f 33/74/82 34/37/28 36/75/83
f 36/75/83 34/37/28 35/38/27
f 37/76/62 38/39/32 40/40/39
f 40/40/39 38/39/32 39/31/31
f 41/94/67 42/29/35 44/81/65
f 44/81/65 42/29/35 43/45/36
f 46/46/44 47/49/45 45/82/70
f 45/82/70 47/49/45 48/83/71
f 49/84/73 50/50/51 52/85/74
f 52/85/74 50/50/51 51/54/49
f 54/55/58 55/59/59 53/86/76
f 53/86/76 55/59/59 56/87/78
f 57/88/80 58/60/64 60/95/69
f 60/95/69 58/60/64 59/44/63
f 65/98/4 61/96/23 64/7/3
f 61/96/23 62/97/16 64/7/3
f 62/97/16 63/8/9 64/7/3
f 70/101/79 66/42/68 69/100/75
f 66/42/68 67/48/66 69/100/75
f 67/48/66 68/99/72 69/100/75
