# This file uses centimeters as units for non-parametric coordinates.

g default
v 8.158623 0.147223 -10.326561
v 8.425777 -0.911985 -10.238578
v 7.999301 -0.888828 -9.803551
v 7.688272 0.222157 -9.861071
v 11.619867 8.287870 -12.084828
v 12.281075 7.674126 -12.239729
v 12.139331 6.742374 -12.301775
v 11.565225 7.178940 -12.233301
v 10.541804 22.460526 -7.784981
v 10.950496 23.228716 -7.621778
v 11.207129 22.417450 -7.936592
v 10.774099 21.548916 -8.135459
v 6.689403 23.709948 -4.089831
v 6.724863 24.709921 -3.567025
v 7.010216 25.332214 -3.763187
v 6.995153 24.373058 -4.297236
v 4.119923 8.429960 -4.690154
v 4.092714 8.097704 -4.138373
v 3.983509 9.052105 -3.847865
v 4.058262 9.503477 -4.444716
v 11.424238 -4.439980 -7.385430
v 10.946999 -4.555971 -7.814004
v 11.405752 -4.612127 -8.232048
v 11.888628 -4.393097 -7.779972
v 16.614546 5.389771 -10.159134
v 16.214245 5.292856 -10.638054
v 16.340614 6.250580 -10.562863
v 16.741270 6.413912 -10.015762
v 14.065138 25.803467 -5.203004
v 13.741280 25.786444 -5.563251
v 13.489981 26.629566 -5.222705
v 13.818968 26.618408 -4.859993
v 8.757999 29.153036 0.112147
v 8.430746 29.168045 -0.233015
v 8.141945 28.493771 -0.054728
v 8.466425 28.496744 0.295673
v 6.021164 8.344085 0.326902
v 5.540042 8.194279 -0.094425
v 5.660864 7.251867 -0.408449
v 6.103918 7.350140 0.015290
v 15.073072 3.844238 -2.329119
v 14.900108 2.614468 -2.906338
v 15.326052 2.620987 -3.341121
v 15.540848 3.630302 -2.838719
v 17.751242 8.828246 -4.104176
v 17.811329 8.418259 -4.742688
v 17.919352 9.351325 -4.734524
v 17.850716 9.820249 -4.014056
v 15.785730 21.507883 -2.638431
v 15.714976 22.446413 -2.972378
v 15.490128 23.256014 -2.624458
v 15.536052 22.479069 -2.310995
v 12.005724 24.383026 1.166265
v 11.586805 25.361313 1.214130
v 11.324635 24.656105 1.383243
v 11.773540 23.421240 1.303434
v 11.738188 11.181261 1.998003
v 11.118265 10.846994 1.975149
v 11.291990 9.924038 1.666539
v 11.911531 10.246643 1.683713
v 6.653501 13.110962 -8.313996
v 7.015941 13.712110 -8.519722
v 7.326749 12.986724 -8.965796
v 7.198336 11.992216 -9.052712
v 6.751750 12.121538 -8.605254
v 15.436689 12.274075 0.780617
v 15.884655 12.045238 0.281768
v 15.964285 13.088657 0.426028
v 15.633564 13.759592 0.869310
v 15.263346 13.208694 1.094909
vt 0.011654 0.220866
vt 0.017231 0.236939
vt 0.008440 0.266398
vt 0.000000 0.473949
vt 0.992500 0.267397
vt 0.188440 0.221100
vt 0.186126 0.236569
vt 0.101311 0.024415
vt 0.108441 0.021101
vt 0.217462 0.233695
vt 0.208821 0.266680
vt 0.387592 0.218981
vt 0.383365 0.232592
vt 0.300400 0.025035
vt 0.307938 0.019844
vt 0.416350 0.234491
vt 0.409294 0.266639
vt 0.586715 0.216787
vt 0.582304 0.234155
vt 0.499528 0.025858
vt 0.506699 0.016748
vt 0.616388 0.234134
vt 0.607192 0.266655
vt 0.789667 0.224167
vt 0.783807 0.234296
vt 0.700014 0.023474
vt 0.707967 0.019918
vt 0.808449 0.268051
vt 0.000000 0.523135
vt 0.000000 0.743054
vt 0.992698 0.514179
vt 0.808472 0.482092
vt 0.008395 0.483138
vt 0.190685 0.482823
vt 0.208921 0.482468
vt 0.392914 0.483426
vt 0.409246 0.483381
vt 0.591632 0.483934
vt 0.607358 0.483736
vt 0.791906 0.483066
vt 0.809729 0.513052
vt 0.014958 0.787395
vt 0.091219 0.978046
vt 0.978640 0.768335
vt 0.809526 0.736543
vt 0.009022 0.736645
vt 0.188440 0.736473
vt 0.189188 0.777030
vt 0.101138 0.967430
vt 0.206714 0.733482
vt 0.388721 0.730962
vt 0.387254 0.781865
vt 0.308389 0.979029
vt 0.299570 0.971921
vt 0.409931 0.733595
vt 0.591214 0.733530
vt 0.584053 0.789867
vt 0.507263 0.981843
vt 0.499490 0.974086
vt 0.612364 0.733283
vt 0.793792 0.734880
vt 0.788005 0.779986
vt 0.710092 0.974770
vt 0.701862 0.971116
vt 0.190930 0.266402
vt 0.393214 0.267689
vt 0.591889 0.265666
vt 0.791727 0.268094
vt 0.992253 0.482332
vt 0.008928 0.515171
vt 0.188099 0.514147
vt 0.207007 0.516387
vt 0.388446 0.515609
vt 0.409269 0.517539
vt 0.591547 0.516951
vt 0.612033 0.514663
vt 0.793432 0.514954
vt 0.992480 0.737427
vt 0.983700 0.235878
vt 0.813457 0.236270
vt 0.898816 0.022756
vt 0.020755 0.765190
vt 0.182702 0.764283
vt 0.217264 0.766156
vt 0.380753 0.767156
vt 0.416603 0.765819
vt 0.581922 0.766187
vt 0.622004 0.768888
vt 0.783293 0.767538
vt 0.898138 0.971116
vt -0.000000 0.260392
vt 0.004107 0.255134
vt 0.200000 0.250000
vt 0.400000 0.250000
vt 0.598763 0.251546
vt 0.799732 0.250000
vt 0.004506 0.500000
vt 0.000000 0.750000
vt 0.816707 0.767538
vt 0.098264 0.004340
vt 0.101364 0.003411
vt 0.092548 0.018630
vt 0.111188 0.972029
vt 0.103602 0.990995
vt 0.098311 0.995778
vn -0.517078 -0.010612 -0.855873
vn -0.855014 -0.081419 -0.512174
vn -0.576876 0.058239 -0.814753
vn -0.818272 0.008328 -0.574770
vn -0.054329 -0.498978 -0.864910
vn 0.197894 -0.304162 -0.931839
vn -0.527652 0.035710 -0.848710
vn -0.814756 -0.568818 0.112337
vn -0.054329 -0.498978 -0.864910
vn -0.590395 -0.806625 -0.028093
vn 0.089581 -0.867022 -0.490150
vn -0.814756 -0.568818 0.112337
vn -0.862412 -0.467603 0.193888
vn -0.849390 -0.027059 -0.527072
vn -0.279127 0.239784 -0.929834
vn -0.396339 0.238107 -0.886691
vn 0.422753 0.268635 -0.865515
vn 0.418488 0.281511 -0.863493
vn -0.313375 0.253372 -0.915204
vn 0.495855 0.258406 -0.829068
vn 0.326420 -0.348016 -0.878826
vn -0.565792 0.305823 -0.765736
vn -0.614294 0.279013 -0.738102
vn -0.597402 0.315433 -0.737301
vn -0.250640 0.628512 -0.736310
vn -0.371408 0.679917 -0.632273
vn 0.399955 0.356537 -0.844344
vn 0.008152 0.646594 -0.762791
vn -0.899221 0.183980 -0.396929
vn -0.877393 0.172077 -0.447851
vn -0.959525 0.132636 0.248435
vn -0.916981 0.132850 0.376160
vn -0.923980 0.162783 -0.346068
vn -0.947306 0.262786 0.183178
vn -0.734419 0.634324 -0.241376
vn -0.789930 -0.520150 0.324737
vn -0.891466 0.115030 0.438242
vn 0.109370 -0.773117 0.624762
vn 0.733755 -0.657516 0.171105
vn 0.023902 -0.539910 0.841383
vn 0.896599 -0.440789 0.042618
vn -0.590395 -0.806625 -0.028093
vn 0.109370 -0.773117 0.624762
vn -0.058867 -0.535012 0.842791
vn 0.089581 -0.867022 -0.490150
vn 0.733755 -0.657516 0.171105
vn 0.909212 -0.412969 -0.052831
vn 0.906493 0.190472 -0.376816
vn 0.940156 -0.340056 0.021625
vn 0.931158 0.196831 -0.306924
vn 0.399955 0.356537 -0.844344
vn 0.903826 0.303028 -0.302115
vn 0.804901 0.584361 0.103226
vn 0.771458 0.532799 0.347819
vn 0.903826 0.303028 -0.302115
vn 0.918121 0.205335 -0.338956
vn 0.804901 0.584361 0.103226
vn 0.008152 0.646594 -0.762791
vn 0.326994 0.706349 0.627810
vn -0.734419 0.634324 -0.241376
vn 0.326994 0.706349 0.627810
vn -0.389533 0.242276 0.888576
vn 0.392833 0.479865 0.784482
vn -0.274524 0.051485 0.960201
vn -0.389533 0.242276 0.888576
vn -0.947306 0.262786 0.183178
vn -0.378823 0.018524 0.925284
vn 0.001474 -0.504176 0.863599
vn -0.307233 0.027666 0.951232
vn 0.827288 -0.275256 0.489723
vn 0.795759 -0.219650 0.564378
vn 0.407629 -0.369098 0.835228
vn 0.441331 -0.308295 0.842722
vn 0.375008 -0.339183 0.862742
vn 0.841909 -0.225173 0.490394
vn 0.963143 0.103797 0.248159
vn 0.938289 0.119436 0.324576
vn 0.951935 0.134189 0.275341
vn 0.759477 0.234664 0.606735
vn 0.718164 0.186610 0.670385
vn 0.715630 0.234552 0.657920
vn 0.392833 0.479865 0.784482
vn 0.257736 0.053176 0.964751
vn 0.245853 0.038990 0.968523
vn 0.170994 0.020865 0.985051
vn -0.590395 -0.806625 -0.028093
vn 0.089581 -0.867022 -0.490150
vn 0.109370 -0.773117 0.624762
vn 0.733755 -0.657516 0.171105
vn 0.326994 0.706349 0.627810
vn -0.389533 0.242276 0.888576
s 1
g stone_d
f 1/2/1 4/1/2 64/8/3
f 64/8/3 4/1/2 65/102/4
f 2/3/5 1/2/1 7/65/6
f 7/65/6 1/2/1 8/7/7
s 3
f 3/91/8 2/3/9 22/4/10
f 22/4/10 2/3/9 23/33/11
s 1
f 3/5/12 18/28/13 4/79/2
f 4/79/2 18/28/13 17/80/14
f 8/7/7 64/8/3 5/6/15
f 5/6/15 64/8/3 63/9/16
f 6/11/17 5/10/15 11/66/18
f 11/66/18 5/10/15 12/13/19
f 6/11/17 27/35/20 7/65/6
f 7/65/6 27/35/20 26/34/21
f 9/12/22 12/13/19 62/15/23
f 62/15/23 12/13/19 63/14/16
f 9/16/22 16/19/24 10/17/25
f 10/17/25 16/19/24 15/67/26
f 11/66/18 10/17/25 30/36/27
f 30/36/27 10/17/25 31/37/28
f 16/19/24 62/20/23 13/18/29
f 13/18/29 62/20/23 61/21/30
f 14/23/31 13/22/29 19/68/32
f 19/68/32 13/22/29 20/25/33
f 14/23/31 35/39/34 15/67/26
f 15/67/26 35/39/34 34/38/35
f 17/24/14 20/25/33 65/27/4
f 65/27/4 20/25/33 61/26/30
f 18/28/13 39/32/36 19/68/32
f 19/68/32 39/32/36 38/40/37
f 21/29/38 24/70/39 42/30/40
f 42/30/40 24/70/39 43/46/41
f 22/69/42 21/31/43 39/32/36
f 39/32/36 21/31/43 40/41/44
f 23/33/45 26/34/21 24/70/46
f 24/70/46 26/34/21 25/71/47
f 25/71/47 28/72/48 46/47/49
f 46/47/49 28/72/48 47/50/50
f 27/35/20 30/36/51 28/72/48
f 28/72/48 30/36/51 29/73/52
f 32/74/53 51/55/54 29/73/55
f 29/73/55 51/55/54 50/51/56
f 32/74/57 31/37/58 33/75/59
f 33/75/59 31/37/58 34/38/60
f 33/75/61 36/76/62 54/56/63
f 54/56/63 36/76/62 55/60/64
f 36/76/65 35/39/66 37/77/67
f 37/77/67 35/39/66 38/40/37
f 40/41/44 59/45/68 37/77/67
f 37/77/67 59/45/68 58/61/69
f 44/82/70 67/49/71 41/42/72
f 41/42/72 67/49/71 66/43/73
f 42/78/40 41/44/72 59/45/68
f 59/45/68 41/44/72 60/99/74
f 43/46/41 46/47/49 44/82/70
f 44/82/70 46/47/49 45/83/75
f 45/83/75 48/48/76 67/49/71
f 67/49/71 48/48/76 68/103/77
f 48/84/76 47/50/50 49/85/78
f 49/85/78 47/50/50 50/51/56
f 52/52/79 69/53/80 49/85/78
f 49/85/78 69/53/80 68/54/77
f 52/86/79 51/55/54 53/87/81
f 53/87/81 51/55/54 54/56/82
f 53/87/81 56/57/83 69/59/80
f 69/59/80 56/57/83 70/58/84
f 55/60/64 58/61/69 56/88/83
f 56/88/83 58/61/69 57/89/85
f 57/89/85 60/62/74 70/64/84
f 70/64/84 60/62/74 66/63/73
f 23/33/45 2/3/5 26/34/21
f 26/34/21 2/3/5 7/65/6
f 6/11/17 11/66/18 27/35/20
f 27/35/20 11/66/18 30/36/51
f 10/17/25 15/67/26 31/37/58
f 31/37/58 15/67/26 34/38/60
f 35/39/66 14/23/31 38/40/37
f 38/40/37 14/23/31 19/68/32
f 18/28/13 3/5/12 39/32/36
f 39/32/36 3/5/12 22/69/42
f 24/70/46 25/71/47 43/46/41
f 43/46/41 25/71/47 46/47/49
f 28/72/48 29/73/52 47/50/50
f 47/50/50 29/73/52 50/51/56
f 51/55/54 32/74/57 54/56/82
f 54/56/82 32/74/57 33/75/59
f 55/60/64 36/76/65 58/61/69
f 58/61/69 36/76/65 37/77/67
f 59/45/68 40/41/44 42/78/40
f 42/78/40 40/41/44 21/31/43
f 8/7/7 1/2/1 64/8/3
f 12/13/19 5/10/15 63/14/16
f 16/19/24 9/16/22 62/20/23
f 20/25/33 13/22/29 61/26/30
f 4/79/2 17/80/14 65/81/4
f 44/82/70 45/83/75 67/49/71
f 48/84/76 49/85/78 68/54/77
f 52/86/79 53/87/81 69/59/80
f 56/88/83 57/89/85 70/64/84
f 60/99/74 41/44/72 66/90/73
f 2/3/5 3/91/12 1/2/1
f 1/2/1 3/91/12 4/92/2
f 5/93/15 6/11/17 8/7/7
f 8/7/7 6/11/17 7/65/6
f 10/17/25 11/66/18 9/94/22
f 9/94/22 11/66/18 12/13/19
f 14/23/31 15/67/26 13/95/29
f 13/95/29 15/67/26 16/19/24
f 18/28/13 19/68/32 17/96/14
f 17/96/14 19/68/32 20/25/33
s 22
f 22/4/86 23/33/87 21/97/88
f 21/97/88 23/33/87 24/70/89
s 1
f 26/34/21 27/35/20 25/71/47
f 25/71/47 27/35/20 28/72/48
f 30/36/27 31/37/28 29/73/55
f 29/73/55 31/37/28 32/74/53
f 33/75/90 34/38/35 36/76/91
f 36/76/91 34/38/35 35/39/34
f 37/77/67 38/40/37 40/41/44
f 40/41/44 38/40/37 39/32/36
f 41/98/72 42/30/40 44/82/70
f 44/82/70 42/30/40 43/46/41
f 46/47/49 47/50/50 45/83/75
f 45/83/75 47/50/50 48/84/76
f 49/85/78 50/51/56 52/86/79
f 52/86/79 50/51/56 51/55/54
f 54/56/63 55/60/64 53/87/81
f 53/87/81 55/60/64 56/88/83
f 57/89/85 58/61/69 60/99/74
f 60/99/74 58/61/69 59/45/68
f 65/102/4 61/100/30 64/8/3
f 61/100/30 62/101/23 64/8/3
f 62/101/23 63/9/16 64/8/3
f 70/105/84 66/43/73 69/104/80
f 66/43/73 67/49/71 69/104/80
f 67/49/71 68/103/77 69/104/80
