# This file uses centimeters as units for non-parametric coordinates.

g default
v 1.442122 0.503916 3.250703
v 2.265268 0.014067 3.142247
v 2.662662 0.594336 3.454197
v 1.832312 1.151903 3.589572
v -5.940171 0.276659 -1.772172
v -5.660808 -0.453430 -2.331612
v -5.066164 -0.771162 -1.944342
v -5.303649 -0.223141 -1.412172
v -10.471230 7.857241 -4.203201
v -10.723950 7.952923 -5.027130
v -10.636993 7.198755 -5.100888
v -10.369064 7.054934 -4.204989
v -6.645574 14.718255 -0.599748
v -6.590466 15.515273 -1.095426
v -7.197044 15.308612 -1.530698
v -7.289962 14.498357 -1.066863
v 0.992471 10.189394 3.870174
v 1.746599 10.491825 3.759648
v 1.353472 11.133841 3.564632
v 0.473067 10.815409 3.612676
v 7.412917 -0.919930 -0.609087
v 7.092125 -1.008965 0.124952
v 6.733684 -1.607672 -0.223146
v 7.004508 -1.465273 -0.995031
v -2.121981 -2.264360 -7.572735
v -3.104486 -2.081932 -7.291390
v -2.704394 -1.842113 -7.994408
v -9.292059 8.782825 -11.301816
v -9.720808 8.670483 -10.640226
v -9.794924 9.455693 -10.593016
v -9.346714 9.557663 -11.258301
v -4.699193 18.968121 -6.745228
v -5.128176 18.883085 -6.091999
v -4.513052 19.058537 -5.633256
v -4.088153 19.156420 -6.288280
v 5.781112 12.811573 -0.216009
v 5.490867 12.717389 0.526975
v 5.853310 12.055620 0.715272
v 6.182150 12.154052 0.025844
v 6.367332 3.895308 -8.513394
v 6.684107 3.097361 -7.826661
v 6.266168 2.528831 -8.144535
v 6.032817 3.163122 -8.802131
v 1.184199 2.911058 -11.954457
v 0.867640 2.243465 -11.686896
v 0.221371 2.540869 -12.015228
v 0.574147 3.297018 -12.317549
v -3.651371 8.621637 -14.348787
v -4.608908 8.647989 -14.246850
v -4.654591 9.409945 -14.236286
v -3.816475 9.433473 -14.320585
v -0.643161 16.049498 -11.201517
v -1.153531 16.719158 -10.784670
v -0.531763 16.855988 -10.355013
v 0.089342 16.051668 -10.753611
v 5.338572 11.836975 -7.983210
v 5.554806 12.050988 -7.196483
v 5.908421 11.370113 -7.074697
v 5.694988 11.147650 -7.856270
v -5.724341 7.791126 1.374697
v -6.341838 7.655926 0.911563
v -6.257270 6.868010 0.887721
v -5.642260 6.500193 1.283046
v -5.307334 7.141598 1.590061
v 3.400686 9.206079 -11.957686
v 3.086879 8.487730 -12.224813
v 2.492097 8.945123 -12.597418
v 2.443138 9.721807 -12.538036
v 3.044273 9.895404 -12.084629
vt 0.011654 0.220866
vt 0.017231 0.236939
vt 0.008440 0.266398
vt 0.000000 0.473949
vt 0.992500 0.267397
vt 0.188440 0.221100
vt 0.186126 0.236569
vt 0.101311 0.024415
vt 0.108441 0.021101
vt 0.217462 0.233695
vt 0.208821 0.266680
vt 0.387592 0.218981
vt 0.383365 0.232592
vt 0.300400 0.025035
vt 0.307938 0.019844
vt 0.416350 0.234491
vt 0.409294 0.266639
vt 0.586715 0.216787
vt 0.582304 0.234155
vt 0.499528 0.025858
vt 0.506699 0.016748
vt 0.616388 0.234134
vt 0.607192 0.266655
vt 0.789667 0.224167
vt 0.783807 0.234296
vt 0.700014 0.023474
vt 0.707967 0.019918
vt 0.808449 0.268051
vt 0.000000 0.523135
vt 0.000000 0.743054
vt 0.992698 0.514179
vt 0.808472 0.482092
vt 0.008395 0.483138
vt 0.208921 0.482468
vt 0.392914 0.483426
vt 0.409246 0.483381
vt 0.591632 0.483934
vt 0.607358 0.483736
vt 0.791906 0.483066
vt 0.809729 0.513052
vt 0.014958 0.787395
vt 0.091219 0.978046
vt 0.978640 0.768335
vt 0.809526 0.736543
vt 0.009022 0.736645
vt 0.188440 0.736473
vt 0.189188 0.777030
vt 0.101138 0.967430
vt 0.206714 0.733482
vt 0.388721 0.730962
vt 0.387254 0.781865
vt 0.308389 0.979029
vt 0.299570 0.971921
vt 0.409931 0.733595
vt 0.591214 0.733530
vt 0.584053 0.789867
vt 0.507263 0.981843
vt 0.499490 0.974086
vt 0.612364 0.733283
vt 0.793792 0.734880
vt 0.788005 0.779986
vt 0.710092 0.974770
vt 0.701862 0.971116
vt 0.190930 0.266402
vt 0.393214 0.267689
vt 0.591889 0.265666
vt 0.791727 0.268094
vt 0.992253 0.482332
vt 0.008928 0.515171
vt 0.188099 0.514147
vt 0.207007 0.516387
vt 0.388446 0.515609
vt 0.409269 0.517539
vt 0.591547 0.516951
vt 0.612033 0.514663
vt 0.793432 0.514954
vt 0.992480 0.737427
vt 0.983700 0.235878
vt 0.813457 0.236270
vt 0.898816 0.022756
vt 0.020755 0.765190
vt 0.182702 0.764283
vt 0.217264 0.766156
vt 0.380753 0.767156
vt 0.416603 0.765819
vt 0.581922 0.766187
vt 0.622004 0.768888
vt 0.783293 0.767538
vt 0.898138 0.971116
vt -0.000000 0.260392
vt 0.004107 0.255134
vt 0.200000 0.250000
vt 0.400000 0.250000
vt 0.598763 0.251546
vt 0.799732 0.250000
vt 0.004506 0.500000
vt 0.000000 0.750000
vt 0.816707 0.767538
vt 0.098264 0.004340
vt 0.101364 0.003411
vt 0.092548 0.018630
vt 0.111188 0.972029
vt 0.103602 0.990995
vt 0.098311 0.995778
vn -0.465917 -0.405641 0.786369
vn -0.235032 -0.079727 0.968712
vn -0.515109 -0.315070 0.797116
vn -0.337262 -0.062343 0.939344
vn 0.003582 -0.680569 0.732676
vn -0.363104 -0.724552 0.585815
vn -0.506948 -0.395545 0.765864
vn 0.553802 -0.090394 0.827727
vn 0.003582 -0.680569 0.732676
vn 0.599640 -0.387756 0.700056
vn 0.641264 -0.658301 0.394233
vn 0.553802 -0.090394 0.827727
vn 0.543819 0.055831 0.837343
vn -0.256427 -0.038659 0.965790
vn -0.774933 -0.345010 0.529573
vn -0.743851 -0.260953 0.615296
vn -0.792306 -0.583675 -0.177693
vn -0.801266 -0.548159 -0.239781
vn -0.799017 -0.305107 0.518151
vn -0.816089 0.092041 0.570549
vn -0.754545 0.059657 0.653530
vn -0.794655 0.141424 0.590358
vn -0.919138 0.393698 -0.013679
vn -0.881467 0.472189 0.007308
vn -0.898289 -0.335485 -0.283772
vn -0.955723 0.246660 -0.160475
vn -0.400637 0.277297 0.873268
vn -0.436267 0.175580 0.882521
vn 0.044644 0.770570 0.635790
vn 0.110322 0.781761 0.613741
vn -0.359398 0.263992 0.895065
vn -0.187289 0.846650 0.498104
vn -0.675923 0.716571 0.172205
vn 0.647363 0.065252 0.759384
vn 0.169763 0.797695 0.578673
vn 0.967206 -0.253079 0.021511
vn 0.757592 -0.599762 -0.257567
vn 0.994994 0.066262 -0.074808
vn 0.444194 -0.747535 -0.493845
vn 0.599640 -0.387756 0.700056
vn 0.967206 -0.253079 0.021511
vn 0.992563 0.121323 0.009927
vn 0.382546 -0.766860 -0.515348
vn -0.387989 -0.521516 -0.759925
vn 0.365461 -0.731169 -0.576046
vn -0.347529 -0.505895 -0.789490
vn -0.762827 -0.578583 -0.288682
vn -0.898289 -0.335485 -0.283772
vn -0.545528 -0.240126 -0.802956
vn -0.549175 0.350907 -0.758466
vn -0.422264 0.503519 -0.753765
vn -0.545528 -0.240126 -0.802956
vn -0.429777 -0.548333 -0.717372
vn -0.549175 0.350907 -0.758466
vn -0.955723 0.246660 -0.160475
vn -0.364247 0.763207 -0.533703
vn -0.675923 0.716571 0.172205
vn -0.364247 0.763207 -0.533703
vn 0.199112 0.970529 -0.135751
vn -0.161188 0.760698 -0.628774
vn 0.576687 0.816931 0.007501
vn 0.199112 0.970529 -0.135751
vn -0.187289 0.846650 0.498104
vn 0.590532 0.805686 -0.046287
vn 0.989324 0.128369 -0.068994
vn 0.613309 0.784098 -0.095091
vn 0.569792 -0.271293 -0.775717
vn 0.559407 -0.175317 -0.810140
vn 0.859338 0.081410 -0.504887
vn 0.814359 0.122997 -0.567178
vn 0.860133 0.147791 -0.488191
vn 0.516316 -0.266168 -0.813986
vn 0.242290 -0.200564 -0.949247
vn 0.298737 -0.110741 -0.947889
vn 0.181645 -0.172927 -0.968040
vn 0.181263 0.314762 -0.931702
vn 0.284269 0.298305 -0.911156
vn 0.199248 0.375866 -0.905000
vn -0.161188 0.760698 -0.628774
vn 0.644960 0.521234 -0.558876
vn 0.657543 0.423179 -0.623343
vn 0.696256 0.469914 -0.542593
vn 0.757592 -0.599762 -0.257567
vn 0.599640 -0.387756 0.700056
vn 0.641264 -0.658301 0.394233
vn 0.967206 -0.253079 0.021511
vn 0.757592 -0.599762 -0.257567
vn -0.364247 0.763207 -0.533703
vn 0.199112 0.970529 -0.135751
s 1
g stone_c
f 1/2/1 4/1/2 63/8/3
f 63/8/3 4/1/2 64/101/4
f 2/3/5 1/2/1 7/64/6
f 7/64/6 1/2/1 8/7/7
s 3
f 3/90/8 2/3/9 22/4/10
f 22/4/10 2/3/9 23/33/11
s 1
f 3/5/12 18/28/13 4/78/2
f 4/78/2 18/28/13 17/79/14
f 8/7/7 63/8/3 5/6/15
f 5/6/15 63/8/3 62/9/16
f 6/11/17 5/10/15 11/65/18
f 11/65/18 5/10/15 12/13/19
f 9/12/20 12/13/19 61/15/21
f 61/15/21 12/13/19 62/14/16
f 9/16/20 16/19/22 10/17/23
f 10/17/23 16/19/22 15/66/24
f 11/65/18 10/17/23 29/35/25
f 29/35/25 10/17/23 30/36/26
f 16/19/22 61/20/21 13/18/27
f 13/18/27 61/20/21 60/21/28
f 14/23/29 13/22/27 19/67/30
f 19/67/30 13/22/27 20/25/31
f 14/23/29 34/38/32 15/66/24
f 15/66/24 34/38/32 33/37/33
f 17/24/14 20/25/31 64/27/4
f 64/27/4 20/25/31 60/26/28
f 18/28/13 38/32/34 19/67/30
f 19/67/30 38/32/34 37/39/35
f 21/29/36 24/69/37 41/30/38
f 41/30/38 24/69/37 42/45/39
f 22/68/40 21/31/41 38/32/34
f 38/32/34 21/31/41 39/40/42
f 25/70/43 27/71/44 45/46/45
f 45/46/45 27/71/44 46/49/46
f 26/34/47 29/35/48 27/71/44
f 27/71/44 29/35/48 28/72/49
f 31/73/50 50/54/51 28/72/52
f 28/72/52 50/54/51 49/50/53
f 31/73/54 30/36/55 32/74/56
f 32/74/56 30/36/55 33/37/57
f 32/74/58 35/75/59 53/55/60
f 53/55/60 35/75/59 54/59/61
f 35/75/62 34/38/63 36/76/64
f 36/76/64 34/38/63 37/39/35
f 39/40/42 58/44/65 36/76/64
f 36/76/64 58/44/65 57/60/66
f 43/81/67 66/48/68 40/41/69
f 40/41/69 66/48/68 65/42/70
f 41/77/38 40/43/69 58/44/65
f 58/44/65 40/43/69 59/98/71
f 42/45/39 45/46/45 43/81/67
f 43/81/67 45/46/45 44/82/72
f 44/82/72 47/47/73 66/48/68
f 66/48/68 47/47/73 67/102/74
f 47/83/73 46/49/46 48/84/75
f 48/84/75 46/49/46 49/50/53
f 51/51/76 68/52/77 48/84/75
f 48/84/75 68/52/77 67/53/74
f 51/85/76 50/54/51 52/86/78
f 52/86/78 50/54/51 53/55/79
f 52/86/78 55/56/80 68/58/77
f 68/58/77 55/56/80 69/57/81
f 54/59/61 57/60/66 55/87/80
f 55/87/80 57/60/66 56/88/82
f 56/88/82 59/61/71 69/63/81
f 69/63/81 59/61/71 65/62/70
f 6/11/17 11/65/18 26/34/47
f 26/34/47 11/65/18 29/35/48
f 10/17/23 15/66/24 30/36/55
f 30/36/55 15/66/24 33/37/57
f 34/38/63 14/23/29 37/39/35
f 37/39/35 14/23/29 19/67/30
f 18/28/13 3/5/12 38/32/34
f 38/32/34 3/5/12 22/68/40
f 24/69/83 25/70/43 42/45/39
f 42/45/39 25/70/43 45/46/45
f 27/71/44 28/72/49 46/49/46
f 46/49/46 28/72/49 49/50/53
f 50/54/51 31/73/54 53/55/79
f 53/55/79 31/73/54 32/74/56
f 54/59/61 35/75/62 57/60/66
f 57/60/66 35/75/62 36/76/64
f 58/44/65 39/40/42 41/77/38
f 41/77/38 39/40/42 21/31/41
f 8/7/7 1/2/1 63/8/3
f 12/13/19 5/10/15 62/14/16
f 16/19/22 9/16/20 61/20/21
f 20/25/31 13/22/27 60/26/28
f 4/78/2 17/79/14 64/80/4
f 43/81/67 44/82/72 66/48/68
f 47/83/73 48/84/75 67/53/74
f 51/85/76 52/86/78 68/58/77
f 55/87/80 56/88/82 69/63/81
f 59/98/71 40/43/69 65/89/70
f 2/3/5 3/90/12 1/2/1
f 1/2/1 3/90/12 4/91/2
f 5/92/15 6/11/17 8/7/7
f 8/7/7 6/11/17 7/64/6
f 10/17/23 11/65/18 9/93/20
f 9/93/20 11/65/18 12/13/19
f 14/23/29 15/66/24 13/94/27
f 13/94/27 15/66/24 16/19/22
f 18/28/13 19/67/30 17/95/14
f 17/95/14 19/67/30 20/25/31
s 21
f 22/4/84 23/33/85 21/96/86
f 21/96/86 23/33/85 24/69/87
s 1
f 29/35/25 30/36/26 28/72/52
f 28/72/52 30/36/26 31/73/50
f 32/74/88 33/37/33 35/75/89
f 35/75/89 33/37/33 34/38/32
f 36/76/64 37/39/35 39/40/42
f 39/40/42 37/39/35 38/32/34
f 40/97/69 41/30/38 43/81/67
f 43/81/67 41/30/38 42/45/39
f 45/46/45 46/49/46 44/82/72
f 44/82/72 46/49/46 47/83/73
f 48/84/75 49/50/53 51/85/76
f 51/85/76 49/50/53 50/54/51
f 53/55/60 54/59/61 52/86/78
f 52/86/78 54/59/61 55/87/80
f 56/88/82 57/60/66 59/98/71
f 59/98/71 57/60/66 58/44/65
f 64/101/4 60/99/28 63/8/3
f 60/99/28 61/100/21 63/8/3
f 61/100/21 62/9/16 63/8/3
f 69/104/81 65/42/70 68/103/77
f 65/42/70 66/48/68 68/103/77
f 66/48/68 67/102/74 68/103/77
