# This file uses centimeters as units for non-parametric coordinates.

g default
v -1.675270 8.207232 3.762121
v -1.969357 8.029732 3.291446
v -2.372250 8.147028 3.491934
v -2.095532 8.340481 4.000064
v 2.979455 6.343607 5.764339
v 3.097063 5.984251 5.323154
v 2.811237 6.128584 4.979139
v 2.722219 6.468203 5.311620
v 3.754210 5.481457 11.178445
v 3.976537 5.034002 11.336769
v 4.135332 4.987867 10.906404
v 3.907485 5.475929 10.714252
v -0.535997 6.946056 13.774512
v -0.702673 6.636969 14.221338
v -0.268588 6.473061 14.284283
v -0.074114 6.769176 13.841427
v -4.022411 8.510021 9.136835
v -4.484190 8.331074 9.116673
v -4.415105 8.265806 9.577028
v -3.873805 8.426773 9.623625
v -3.935323 5.089993 1.668259
v -3.843620 5.568453 1.663446
v -3.451602 5.424511 1.444858
v -3.525440 4.930466 1.493419
v 2.413406 2.417437 3.704345
v 2.566831 2.863506 3.677884
v 2.847355 2.723606 4.038592
v 2.670519 2.249783 4.104124
v 3.868007 1.134605 11.747461
v 4.032799 1.586660 11.760958
v 3.862852 1.614946 12.206387
v 3.690949 1.158014 12.182480
v -1.817141 3.002699 15.917027
v -1.658121 3.449532 15.945930
v -2.091901 3.626360 15.862571
v -2.251828 3.178904 15.841813
v -6.670243 5.380072 9.564859
v -6.594600 5.859383 9.549039
v -6.641430 5.925453 9.086006
v -6.745952 5.471853 9.091640
v -3.537737 0.545126 4.967394
v -3.593824 0.911919 4.416103
v -3.182277 0.793999 4.227536
v -3.132090 0.434235 4.666780
v -0.068552 -0.702442 5.918166
v 0.234404 -0.490599 5.619930
v 0.544677 -0.592564 5.962911
v 1.830582 -1.274872 10.637516
v 1.656636 -1.271925 11.064903
v -2.596459 -0.580029 13.521893
v -2.556656 -0.269741 13.995853
v -2.979981 -0.110439 13.891190
v -3.046117 -0.424450 13.314663
v -5.116183 0.902895 9.540514
v -5.394023 1.329832 9.562555
v -5.422102 1.358442 9.094711
v -5.144271 0.934229 9.067080
v 0.492954 8.059452 9.655281
v 0.918205 7.879871 9.761460
v 1.080107 7.863796 9.310714
v 0.795328 8.010529 8.933762
v 0.410379 8.133261 9.183733
v -2.865327 -1.110218 8.796555
v -2.477179 -1.211643 8.497153
v -2.837239 -1.141554 9.269987
vt 0.011654 0.220866
vt 0.017231 0.236939
vt 0.008440 0.266398
vt 0.000000 0.473949
vt 0.992500 0.267397
vt 0.188440 0.221100
vt 0.186126 0.236569
vt 0.101311 0.024415
vt 0.108441 0.021101
vt 0.217462 0.233695
vt 0.208821 0.266680
vt 0.387592 0.218981
vt 0.383365 0.232592
vt 0.300400 0.025035
vt 0.307938 0.019844
vt 0.416350 0.234491
vt 0.409294 0.266639
vt 0.586715 0.216787
vt 0.582304 0.234155
vt 0.499528 0.025858
vt 0.506699 0.016748
vt 0.616388 0.234134
vt 0.607192 0.266655
vt 0.789667 0.224167
vt 0.783807 0.234296
vt 0.700014 0.023474
vt 0.707967 0.019918
vt 0.808449 0.268051
vt 0.000000 0.523135
vt 0.000000 0.743054
vt 0.992698 0.514179
vt 0.808472 0.482092
vt 0.008395 0.483138
vt 0.190685 0.482823
vt 0.208921 0.482468
vt 0.392914 0.483426
vt 0.409246 0.483381
vt 0.591632 0.483934
vt 0.607358 0.483736
vt 0.791906 0.483066
vt 0.809729 0.513052
vt 0.014958 0.787395
vt 0.091219 0.978046
vt 0.978640 0.768335
vt 0.809526 0.736543
vt 0.009022 0.736645
vt 0.188440 0.736473
vt 0.101138 0.967430
vt 0.206714 0.733482
vt 0.388721 0.730962
vt 0.409931 0.733595
vt 0.591214 0.733530
vt 0.612364 0.733283
vt 0.793792 0.734880
vt 0.788005 0.779986
vt 0.710092 0.974770
vt 0.701862 0.971116
vt 0.190930 0.266402
vt 0.393214 0.267689
vt 0.591889 0.265666
vt 0.791727 0.268094
vt 0.992253 0.482332
vt 0.008928 0.515171
vt 0.188099 0.514147
vt 0.207007 0.516387
vt 0.388446 0.515609
vt 0.409269 0.517539
vt 0.591547 0.516951
vt 0.612033 0.514663
vt 0.793432 0.514954
vt 0.992480 0.737427
vt 0.983700 0.235878
vt 0.813457 0.236270
vt 0.898816 0.022756
vt 0.020755 0.765190
vt 0.182702 0.764283
vt 0.581922 0.766187
vt 0.622004 0.768888
vt 0.783293 0.767538
vt 0.898138 0.971116
vt -0.000000 0.260392
vt 0.004107 0.255134
vt 0.200000 0.250000
vt 0.400000 0.250000
vt 0.598763 0.251546
vt 0.799732 0.250000
vt 0.004506 0.500000
vt 0.000000 0.750000
vt 0.816707 0.767538
vt 0.098264 0.004340
vt 0.101364 0.003411
vt 0.092548 0.018630
vn 0.401999 0.884232 -0.237762
vn 0.019282 0.998284 -0.055289
vn 0.403931 0.904597 -0.136174
vn 0.108009 0.994133 0.005750
vn 0.247854 0.475224 -0.844234
vn 0.462705 0.337518 -0.819747
vn 0.438263 0.874041 -0.209708
vn -0.634429 0.671046 -0.383662
vn 0.247854 0.475224 -0.844234
vn -0.518519 0.542519 -0.660917
vn -0.040443 0.279721 -0.959229
vn -0.634429 0.671046 -0.383662
vn -0.690318 0.679638 -0.248101
vn 0.021135 0.999737 -0.008950
vn 0.704985 0.708511 -0.031769
vn 0.622384 0.782345 0.023958
vn 0.977389 0.040733 -0.207487
vn 0.989855 -0.027096 -0.139473
vn 0.711624 0.702393 0.015361
vn 0.974386 -0.068402 -0.214224
vn 0.452718 0.240814 -0.858519
vn 0.545061 0.748793 0.377117
vn 0.486144 0.815113 0.315047
vn 0.500708 0.761764 0.411106
vn 0.639392 0.200444 0.742294
vn 0.568133 0.210006 0.795690
vn 0.993966 -0.050899 0.097160
vn 0.767601 0.070050 0.637089
vn 0.033485 0.938034 0.344922
vn 0.105993 0.957816 0.267123
vn -0.512784 0.589383 0.624244
vn -0.570024 0.551874 0.608694
vn -0.001885 0.949497 0.313772
vn -0.310958 0.510242 0.801847
vn 0.246379 0.315015 0.916550
vn -0.767216 0.578774 -0.276406
vn -0.620867 0.503141 0.601143
vn -0.743284 -0.207497 -0.635983
vn -0.184064 -0.441486 -0.878186
vn -0.882039 -0.314536 -0.350819
vn 0.042839 -0.570352 -0.820282
vn -0.518519 0.542519 -0.660917
vn -0.743284 -0.207497 -0.635983
vn -0.922706 -0.232933 -0.307174
vn -0.040443 0.279721 -0.959229
vn -0.184064 -0.441486 -0.878186
vn 0.138171 -0.532179 -0.835281
vn 0.735634 -0.630367 -0.247953
vn 0.122674 -0.628290 -0.768247
vn 0.713459 -0.657435 -0.242396
vn 0.993966 -0.050899 0.097160
vn 0.762681 -0.641894 0.079313
vn 0.519850 -0.600289 0.607790
vn 0.578818 -0.688910 0.436318
vn 0.762681 -0.641894 0.079313
vn 0.765874 -0.642909 -0.010214
vn 0.519850 -0.600289 0.607790
vn 0.767601 0.070050 0.637089
vn 0.133205 -0.409119 0.902706
vn 0.246379 0.315015 0.916550
vn 0.133205 -0.409119 0.902706
vn -0.555604 -0.184099 0.810809
vn -0.088979 -0.531333 0.842477
vn -0.858597 -0.133583 0.494941
vn -0.555604 -0.184099 0.810809
vn -0.310958 0.510242 0.801847
vn -0.850293 -0.205024 0.484735
vn -0.904919 -0.308862 -0.292788
vn -0.853570 -0.246898 0.458758
vn -0.206284 -0.884422 -0.418621
vn -0.259092 -0.902666 -0.343607
vn -0.671914 -0.699288 -0.243985
vn -0.645006 -0.741382 -0.185258
vn -0.704754 -0.684712 -0.185718
vn -0.169870 -0.899933 -0.401579
vn -0.741662 -0.639965 0.200955
vn -0.699000 -0.705403 0.117497
vn -0.659733 -0.746665 0.085106
vn 0.765874 -0.642909 -0.010214
vn 0.578818 -0.688910 0.436318
vn -0.088979 -0.531333 0.842477
vn -0.518519 0.542519 -0.660917
vn -0.040443 0.279721 -0.959229
vn -0.743284 -0.207497 -0.635983
vn -0.184064 -0.441486 -0.878186
vn 0.133205 -0.409119 0.902706
vn -0.555604 -0.184099 0.810809
vn -0.451734 -0.749505 0.483919
s 1
g stone_a
f 1/2/1 4/1/2 61/8/3
f 61/8/3 4/1/2 62/92/4
f 2/3/5 1/2/1 7/58/6
f 7/58/6 1/2/1 8/7/7
s 3
f 3/81/8 2/3/9 22/4/10
f 22/4/10 2/3/9 23/33/11
s 1
f 3/5/12 18/28/13 4/72/2
f 4/72/2 18/28/13 17/73/14
f 8/7/7 61/8/3 5/6/15
f 5/6/15 61/8/3 60/9/16
f 6/11/17 5/10/15 11/59/18
f 11/59/18 5/10/15 12/13/19
f 6/11/17 27/35/20 7/58/6
f 7/58/6 27/35/20 26/34/21
f 9/12/22 12/13/19 59/15/23
f 59/15/23 12/13/19 60/14/16
f 9/16/22 16/19/24 10/17/25
f 10/17/25 16/19/24 15/60/26
f 11/59/18 10/17/25 30/36/27
f 30/36/27 10/17/25 31/37/28
f 16/19/24 59/20/23 13/18/29
f 13/18/29 59/20/23 58/21/30
f 14/23/31 13/22/29 19/61/32
f 19/61/32 13/22/29 20/25/33
f 14/23/31 35/39/34 15/60/26
f 15/60/26 35/39/34 34/38/35
f 17/24/14 20/25/33 62/27/4
f 62/27/4 20/25/33 58/26/30
f 18/28/13 39/32/36 19/61/32
f 19/61/32 39/32/36 38/40/37
f 21/29/38 24/63/39 42/30/40
f 42/30/40 24/63/39 43/46/41
f 22/62/42 21/31/43 39/32/36
f 39/32/36 21/31/43 40/41/44
f 23/33/45 26/34/21 24/63/46
f 24/63/46 26/34/21 25/64/47
f 25/64/47 28/65/48 46/47/49
f 46/47/49 28/65/48 47/49/50
f 27/35/20 30/36/51 28/65/48
f 28/65/48 30/36/51 29/66/52
f 32/67/53 49/51/54 29/66/55
f 29/66/55 49/51/54 48/50/56
f 32/67/57 31/37/58 33/68/59
f 33/68/59 31/37/58 34/38/60
f 33/68/61 36/69/62 51/52/63
f 51/52/63 36/69/62 52/53/64
f 36/69/65 35/39/66 37/70/67
f 37/70/67 35/39/66 38/40/37
f 40/41/44 56/45/68 37/70/67
f 37/70/67 56/45/68 55/54/69
f 44/75/70 64/48/71 41/42/72
f 41/42/72 64/48/71 63/43/73
f 42/71/40 41/44/72 56/45/68
f 56/45/68 41/44/72 57/89/74
f 43/46/41 46/47/49 44/75/70
f 44/75/70 46/47/49 45/76/75
f 52/53/64 55/54/69 53/78/76
f 53/78/76 55/54/69 54/79/77
f 54/79/77 57/55/74 65/57/78
f 65/57/78 57/55/74 63/56/73
f 23/33/45 2/3/5 26/34/21
f 26/34/21 2/3/5 7/58/6
f 6/11/17 11/59/18 27/35/20
f 27/35/20 11/59/18 30/36/51
f 10/17/25 15/60/26 31/37/58
f 31/37/58 15/60/26 34/38/60
f 35/39/66 14/23/31 38/40/37
f 38/40/37 14/23/31 19/61/32
f 18/28/13 3/5/12 39/32/36
f 39/32/36 3/5/12 22/62/42
f 24/63/46 25/64/47 43/46/41
f 43/46/41 25/64/47 46/47/49
f 28/65/48 29/66/52 47/49/50
f 47/49/50 29/66/52 48/50/79
f 49/51/80 32/67/57 51/52/81
f 51/52/81 32/67/57 33/68/59
f 52/53/64 36/69/65 55/54/69
f 55/54/69 36/69/65 37/70/67
f 56/45/68 40/41/44 42/71/40
f 42/71/40 40/41/44 21/31/43
f 8/7/7 1/2/1 61/8/3
f 12/13/19 5/10/15 60/14/16
f 16/19/24 9/16/22 59/20/23
f 20/25/33 13/22/29 58/26/30
f 4/72/2 17/73/14 62/74/4
f 44/75/70 45/76/75 64/48/71
f 53/78/76 54/79/77 65/57/78
f 57/89/74 41/44/72 63/80/73
f 2/3/5 3/81/12 1/2/1
f 1/2/1 3/81/12 4/82/2
f 5/83/15 6/11/17 8/7/7
f 8/7/7 6/11/17 7/58/6
f 10/17/25 11/59/18 9/84/22
f 9/84/22 11/59/18 12/13/19
f 14/23/31 15/60/26 13/85/29
f 13/85/29 15/60/26 16/19/24
f 18/28/13 19/61/32 17/86/14
f 17/86/14 19/61/32 20/25/33
s 19
f 22/4/82 23/33/83 21/87/84
f 21/87/84 23/33/83 24/63/85
s 1
f 26/34/21 27/35/20 25/64/47
f 25/64/47 27/35/20 28/65/48
f 30/36/27 31/37/28 29/66/55
f 29/66/55 31/37/28 32/67/53
f 33/68/86 34/38/35 36/69/87
f 36/69/87 34/38/35 35/39/34
f 37/70/67 38/40/37 40/41/44
f 40/41/44 38/40/37 39/32/36
f 41/88/72 42/30/40 44/75/70
f 44/75/70 42/30/40 43/46/41
f 51/52/63 52/53/64 50/77/88
f 50/77/88 52/53/64 53/78/76
f 54/79/77 55/54/69 57/89/74
f 57/89/74 55/54/69 56/45/68
f 62/92/4 58/90/30 61/8/3
f 58/90/30 59/91/23 61/8/3
f 59/91/23 60/9/16 61/8/3
