# This file uses centimeters as units for non-parametric coordinates.

mtllib test_plane.mtl
g default
v -8.043921 -0.035933 0.000000
v 0.000000 -0.035933 0.000000
v 8.043921 -0.035933 0.000000
v -8.043921 8.007988 0.000000
v 0.000000 8.007988 0.000000
v 8.043921 8.007988 0.000000
v -8.043921 16.051908 0.000000
v 0.000000 16.051908 0.000000
v 8.043921 16.051908 0.000000
vt -0.002542 0.000000
vt 0.500000 0.000000
vt 0.500000 0.500000
vt -0.002542 0.500000
vt 1.002542 0.000000
vt 1.002542 0.500000
vt 0.500000 1.000000
vt -0.002542 1.000000
vt 1.002542 1.000000
vn 0.000000 0.000000 1.000000
vn 0.000000 0.000000 1.000000
vn 0.000000 0.000000 1.000000
vn 0.000000 0.000000 1.000000
vn 0.000000 0.000000 1.000000
vn 0.000000 0.000000 1.000000
vn 0.000000 0.000000 1.000000
vn 0.000000 0.000000 1.000000
vn 0.000000 0.000000 1.000000
s 1
g test_plane
usemtl initialShadingGroup
f 1/1/1 2/2/2 4/4/3
f 4/4/3 2/2/2 5/3/4
f 2/2/2 3/5/5 5/3/4
f 5/3/4 3/5/5 6/6/6
f 4/4/3 5/3/4 7/8/7
f 7/8/7 5/3/4 8/7/8
f 5/3/4 6/6/6 8/7/8
f 8/7/8 6/6/6 9/9/9
