# This file uses centimeters as units for non-parametric coordinates.

mtllib tree_c_canopy03.mtl
g default
v -5.979779 27.654425 -4.827096
v -0.568336 27.116583 -2.564919
v 0.354306 26.680342 3.508871
v -4.726200 27.123343 6.336247
v -8.652800 27.548058 1.043053
v -6.689750 24.211334 -6.858521
v 0.246714 23.330528 -3.820414
v 1.169355 22.894287 4.764346
v -5.521379 23.459980 8.367653
v -10.357940 24.180790 1.043053
v -5.341246 19.949072 -3.472297
v -1.453840 19.652884 -1.599030
v -0.260725 19.506073 3.508871
v -5.341247 19.949070 6.336247
v -7.743793 20.132124 1.431965
v -3.542028 28.481705 1.431965
v -4.376526 18.426985 1.431965
vt 0.000000 0.250000
vt 0.200000 0.250000
vt 0.400000 0.250000
vt 0.600000 0.250000
vt 0.800000 0.250000
vt 1.000000 0.250000
vt 0.000000 0.500000
vt 0.200000 0.500000
vt 0.400000 0.500000
vt 0.600000 0.500000
vt 0.800000 0.500000
vt 1.000000 0.500000
vt 0.000000 0.750000
vt 0.200000 0.750000
vt 0.400000 0.750000
vt 0.600000 0.750000
vt 0.800000 0.750000
vt 1.000000 0.750000
vt 0.100000 0.000000
vt 0.300000 0.000000
vt 0.500000 0.000000
vt 0.700000 0.000000
vt 0.900000 0.000000
vt 0.100000 1.000000
vt 0.300000 1.000000
vt 0.500000 1.000000
vt 0.700000 1.000000
vt 0.900000 1.000000
vn -0.168456 0.803147 -0.571470
vn 0.625568 0.704123 -0.335971
vn -0.370872 0.028257 -0.928254
vn 0.859101 -0.065456 -0.507604
vn 0.625568 0.704123 -0.335971
vn 0.625568 0.704123 0.335971
vn 0.859101 -0.065456 -0.507604
vn 0.859101 -0.065456 0.507604
vn 0.625568 0.704123 0.335971
vn -0.168456 0.803147 0.571470
vn 0.859101 -0.065456 0.507604
vn -0.370872 0.028257 0.928254
vn -0.168456 0.803147 0.571470
vn -0.627715 0.778444 0.000000
vn -0.370872 0.028257 0.928254
vn -0.997110 0.075971 0.000000
vn -0.627715 0.778444 0.000000
vn -0.168456 0.803147 -0.571470
vn -0.997110 0.075971 0.000000
vn -0.370872 0.028257 -0.928254
vn -0.370872 0.028257 -0.928254
vn 0.859101 -0.065456 -0.507604
vn -0.288191 -0.768354 -0.571470
vn 0.511669 -0.790771 -0.335971
vn 0.859101 -0.065456 -0.507604
vn 0.859101 -0.065456 0.507604
vn 0.511669 -0.790771 -0.335971
vn 0.511669 -0.790771 0.335971
vn 0.859101 -0.065456 0.507604
vn -0.370872 0.028257 0.928254
vn 0.511669 -0.790771 0.335971
vn -0.288191 -0.768354 0.571470
vn -0.370872 0.028257 0.928254
vn -0.997110 0.075971 0.000000
vn -0.288191 -0.768354 0.571470
vn -0.738406 -0.674357 0.000000
vn -0.997110 0.075971 0.000000
vn -0.370872 0.028257 -0.928254
vn -0.738406 -0.674357 0.000000
vn -0.288191 -0.768354 -0.571470
vn 0.625568 0.704123 -0.335971
vn -0.168456 0.803147 -0.571470
vn 0.075971 0.997110 0.000000
vn 0.625568 0.704123 0.335971
vn 0.625568 0.704123 -0.335971
vn 0.075971 0.997110 0.000000
vn -0.168456 0.803147 0.571470
vn 0.625568 0.704123 0.335971
vn 0.075971 0.997110 0.000000
vn -0.627715 0.778444 0.000000
vn -0.168456 0.803147 0.571470
vn 0.075971 0.997110 0.000000
vn -0.168456 0.803147 -0.571470
vn -0.627715 0.778444 0.000000
vn 0.075971 0.997110 0.000000
vn -0.288191 -0.768354 -0.571470
vn 0.511669 -0.790771 -0.335971
vn -0.075971 -0.997110 0.000000
vn 0.511669 -0.790771 -0.335971
vn 0.511669 -0.790771 0.335971
vn -0.075971 -0.997110 0.000000
vn 0.511669 -0.790771 0.335971
vn -0.288191 -0.768354 0.571470
vn -0.075971 -0.997110 0.000000
vn -0.288191 -0.768354 0.571470
vn -0.738406 -0.674357 0.000000
vn -0.075971 -0.997110 0.000000
vn -0.738406 -0.674357 0.000000
vn -0.288191 -0.768354 -0.571470
vn -0.075971 -0.997110 0.000000
s 1
g tree_c_canopy03
usemtl initialShadingGroup
f 1/1/1 2/2/2 6/7/3
f 6/7/3 2/2/2 7/8/4
s 2
f 2/2/5 3/3/6 7/8/7
f 7/8/7 3/3/6 8/9/8
s 3
f 3/3/9 4/4/10 8/9/11
f 8/9/11 4/4/10 9/10/12
s 4
f 4/4/13 5/5/14 9/10/15
f 9/10/15 5/5/14 10/11/16
s 5
f 5/5/17 1/6/18 10/11/19
f 10/11/19 1/6/18 6/12/20
s 6
f 6/7/21 7/8/22 11/13/23
f 11/13/23 7/8/22 12/14/24
s 7
f 7/8/25 8/9/26 12/14/27
f 12/14/27 8/9/26 13/15/28
s 8
f 8/9/29 9/10/30 13/15/31
f 13/15/31 9/10/30 14/16/32
s 9
f 9/10/33 10/11/34 14/16/35
f 14/16/35 10/11/34 15/17/36
s 10
f 10/11/37 6/12/38 15/17/39
f 15/17/39 6/12/38 11/18/40
s off
f 2/2/41 1/1/42 16/19/43
f 3/3/44 2/2/45 16/20/46
f 4/4/47 3/3/48 16/21/49
f 5/5/50 4/4/51 16/22/52
f 1/6/53 5/5/54 16/23/55
f 11/13/56 12/14/57 17/24/58
f 12/14/59 13/15/60 17/25/61
f 13/15/62 14/16/63 17/26/64
f 14/16/65 15/17/66 17/27/67
f 15/17/68 11/18/69 17/28/70
