# This file uses centimeters as units for non-parametric coordinates.

mtllib tree_c_bark.mtl
g default
v -1.599100 -0.215466 -0.834231
v -1.994046 -0.215466 0.896136
v -0.887434 -0.215466 2.283782
v 0.887433 -0.215466 2.283784
v 1.994045 -0.215466 0.896136
v 1.599100 -0.215466 -0.834230
v 0.000000 -0.215466 -1.604317
v -1.245795 9.414297 0.033945
v -1.429388 9.353071 0.860867
v -0.914970 9.524664 1.524007
v -0.089908 9.799902 1.524007
v 0.424510 9.971466 0.860866
v 0.240916 9.910238 0.033946
v -0.502439 9.662287 -0.334071
v -1.679874 13.820507 -0.687196
v -1.887663 14.072994 -0.261507
v -1.674769 14.327081 0.151533
v -0.962462 14.386330 0.297816
v -0.480709 14.289197 -0.003700
v -0.588171 13.934996 -0.470441
v -1.207239 13.743306 -0.799694
v 0.820845 20.076370 -0.290082
v 0.770739 20.169703 -0.175158
v 0.834785 20.199635 -0.050208
v 0.964758 20.143559 -0.009320
v 1.062786 20.043743 -0.083282
v 1.055051 19.975306 -0.216401
v 0.947377 19.989836 -0.308434
v -1.143067 15.120109 0.048728
v -1.306974 15.588650 -0.433581
v -1.147751 14.836960 -0.495603
v -0.844466 14.695943 -0.537257
v -0.599167 14.708864 -0.328408
v -0.596567 14.866002 -0.026326
v -0.838625 15.049011 0.141516
v -3.714689 19.201256 0.280509
v -3.762654 19.275768 0.411219
v -3.421422 19.346373 0.356363
v -3.637305 19.338644 0.215494
v -3.692618 19.332743 0.516298
v -3.598380 19.491486 0.516215
v -1.720943 15.236695 -0.701071
v -1.787652 15.933522 -0.595418
v -1.712986 15.546043 -0.109892
v -1.968070 15.081582 -0.003404
v -2.123302 14.960758 -0.318347
v -1.971941 14.756245 -0.620249
v -0.293180 17.235401 0.158070
v 0.057342 17.049307 0.078231
v 0.339880 16.923424 0.321145
v 0.341680 16.952557 0.703899
v 0.061386 17.114721 0.938259
v -0.289940 17.287884 0.847764
v -0.437453 17.748539 0.454276
vt 0.375000 0.312500
vt 0.410714 0.312500
vt 0.446429 0.312500
vt 0.482143 0.312500
vt 0.517857 0.312500
vt 0.553571 0.312500
vt 0.589286 0.312500
vt 0.625000 0.312500
vt 0.375000 0.406250
vt 0.410714 0.406250
vt 0.446429 0.406250
vt 0.482143 0.406250
vt 0.517857 0.406250
vt 0.553571 0.406250
vt 0.589286 0.406250
vt 0.625000 0.406250
vt 0.375000 0.593750
vt 0.410714 0.593750
vt 0.446429 0.593750
vt 0.482143 0.593750
vt 0.517857 0.593750
vt 0.553571 0.593750
vt 0.589286 0.593750
vt 0.625000 0.593750
vt 0.375000 0.687500
vt 0.410714 0.687500
vt 0.446429 0.687500
vt 0.482143 0.687500
vt 0.517857 0.687500
vt 0.553571 0.687500
vt 0.589286 0.687500
vt 0.625000 0.687500
vt 0.446429 0.616683
vt 0.410714 0.616683
vt 0.625000 0.616683
vt 0.375000 0.616683
vt 0.589286 0.616683
vt 0.553571 0.616683
vt 0.517857 0.616683
vt 0.482143 0.616683
vt 0.375000 0.593750
vt 0.410714 0.593750
vt 0.410714 0.616683
vt 0.375000 0.616683
vt 0.446429 0.593750
vt 0.446429 0.616683
vt 0.375000 0.616683
vt 0.410714 0.616683
vt 0.446429 0.616683
vt 0.446429 0.593750
vt 0.410714 0.593750
vt 0.375000 0.593750
vt 0.625000 0.655093
vt 0.375000 0.655093
vt 0.589286 0.655093
vt 0.553571 0.655093
vt 0.517857 0.655093
vt 0.482143 0.655093
vt 0.446429 0.655093
vt 0.410714 0.655093
vn -0.964960 0.142920 0.220059
vn -0.973171 0.064920 0.220735
vn -0.774360 0.137112 -0.617711
vn -0.780581 0.068196 -0.621323
vn -0.429209 0.147568 0.891069
vn -0.432737 0.090392 0.896977
vn -0.964960 0.142920 0.220059
vn -0.973171 0.064920 0.220735
vn -0.429209 0.147568 0.891069
vn 0.429209 0.147568 0.891069
vn -0.432737 0.090392 0.896977
vn 0.420222 0.121441 0.899258
vn 0.429209 0.147568 0.891069
vn 0.964960 0.142920 0.220059
vn 0.420222 0.121441 0.899258
vn 0.966353 0.139707 0.215970
vn 0.964960 0.142920 0.220059
vn 0.774360 0.137112 -0.617711
vn 0.966353 0.139707 0.215970
vn 0.766641 0.126843 -0.629422
vn 0.774360 0.137112 -0.617711
vn 0.000000 0.134524 -0.990910
vn 0.766641 0.126843 -0.629422
vn 0.002980 0.097675 -0.995214
vn -0.774360 0.137112 -0.617711
vn -0.780581 0.068196 -0.621323
vn 0.000000 0.134524 -0.990910
vn 0.002980 0.097675 -0.995214
vn -0.927322 -0.335160 0.166556
vn -0.674024 -0.097082 -0.732302
vn -0.348721 -0.091658 0.932734
vn -0.927322 -0.335160 0.166556
vn 0.413168 0.091136 0.906083
vn -0.348721 -0.091658 0.932734
vn 0.970333 0.115083 0.212626
vn 0.413168 0.091136 0.906083
vn 0.760605 0.103962 -0.640837
vn 0.970333 0.115083 0.212626
vn 0.006903 0.060666 -0.998134
vn 0.760605 0.103962 -0.640837
vn -0.674024 -0.097082 -0.732302
vn 0.006903 0.060666 -0.998134
vn 0.033418 0.190836 0.981053
vn 0.418165 -0.094704 0.903421
vn 0.418165 -0.094704 0.903421
vn 0.934104 -0.282678 0.218043
vn 0.742112 -0.221844 -0.632499
vn 0.934104 -0.282678 0.218043
vn 0.025257 0.045934 -0.998625
vn 0.742112 -0.221844 -0.632499
vn -0.322867 0.315122 -0.892443
vn 0.025257 0.045934 -0.998625
vn 0.033418 0.190836 0.981053
vn -0.297706 0.153447 0.942245
vn -0.096263 0.994866 0.031219
vn -0.906635 0.380523 0.182250
vn -0.322867 0.315122 -0.892443
vn -0.096263 0.994866 0.031219
vn -0.614497 0.255681 -0.746338
vn -0.906635 0.380523 0.182250
vn 0.012949 0.040079 -0.999113
vn -0.614497 0.255681 -0.746338
vn 0.756473 -0.199279 -0.622926
vn 0.012949 0.040079 -0.999113
vn 0.940554 -0.256807 0.222280
vn 0.756473 -0.199279 -0.622926
vn 0.426663 -0.089213 0.900000
vn 0.940554 -0.256807 0.222280
vn -0.297706 0.153447 0.942245
vn 0.426663 -0.089213 0.900000
vn -0.674024 -0.097082 -0.732302
vn -0.927322 -0.335160 0.166556
vn -0.596221 -0.306655 -0.741945
vn -0.726152 -0.680910 0.095213
vn -0.322867 0.315122 -0.892443
vn 0.009468 0.386099 -0.922409
vn -0.096263 0.994866 0.031219
vn 0.549904 0.831860 -0.074932
vn -0.596221 -0.306655 -0.741945
vn 0.009468 0.386099 -0.922409
vn -0.348721 -0.091658 0.932734
vn -0.357369 -0.427737 0.830258
vn -0.357369 -0.427737 0.830258
vn 0.353711 0.281524 0.891983
vn 0.033418 0.190836 0.981053
vn 0.353711 0.281524 0.891983
vn 0.015635 0.396734 -0.917800
vn 0.548456 0.831798 -0.085489
vn 0.351294 0.282438 0.892649
vn -0.326921 -0.477528 0.815530
vn 0.351294 0.282438 0.892649
vn -0.326921 -0.477528 0.815530
vn -0.699277 -0.706473 0.109118
vn -0.601680 -0.353147 -0.716427
vn -0.601680 -0.353147 -0.716427
vn 0.015635 0.396734 -0.917800
vn 0.012949 0.040079 -0.999113
vn -0.674735 0.279344 -0.683154
vn 0.756473 -0.199279 -0.622926
vn 0.012949 0.040079 -0.999113
vn 0.940554 -0.256807 0.222280
vn 0.756473 -0.199279 -0.622926
vn 0.426663 -0.089213 0.900000
vn 0.940554 -0.256807 0.222280
vn -0.345515 0.171982 0.922519
vn 0.426663 -0.089213 0.900000
vn -0.345515 0.171982 0.922519
vn -0.904542 0.377244 0.198721
vn -0.674735 0.279344 -0.683154
vn -0.904542 0.377244 0.198721
s 1
g tree_c_bark
usemtl initialShadingGroup
f 2/2/1 9/10/2 1/1/3
f 1/1/3 9/10/2 8/9/4
s 2
f 3/3/5 10/11/6 2/2/7
f 2/2/7 10/11/6 9/10/8
s 3
f 3/3/9 4/4/10 10/11/11
f 10/11/11 4/4/10 11/12/12
s 4
f 4/4/13 5/5/14 11/12/15
f 11/12/15 5/5/14 12/13/16
s 5
f 5/5/17 6/6/18 12/13/19
f 12/13/19 6/6/18 13/14/20
s 6
f 6/6/21 7/7/22 13/14/23
f 13/14/23 7/7/22 14/15/24
s 7
f 1/8/25 8/16/26 7/7/27
f 7/7/27 8/16/26 14/15/28
s 1
f 16/18/29 15/17/30 9/10/2
f 9/10/2 15/17/30 8/9/4
s 2
f 10/11/6 17/19/31 9/10/8
f 9/10/8 17/19/31 16/18/32
s 3
f 11/12/12 18/20/33 10/11/11
f 10/11/11 18/20/33 17/19/34
s 4
f 12/13/16 19/21/35 11/12/15
f 11/12/15 19/21/35 18/20/36
s 5
f 20/22/37 19/21/38 13/14/20
f 13/14/20 19/21/38 12/13/19
s 6
f 21/23/39 20/22/40 14/15/24
f 14/15/24 20/22/40 13/14/23
s 7
f 15/24/41 21/23/42 8/16/26
f 8/16/26 21/23/42 14/15/28
s 3
f 17/19/34 18/20/33 29/33/43
f 29/33/43 18/20/33 35/40/44
s 4
f 18/20/36 19/21/35 35/40/45
f 35/40/45 19/21/35 34/39/46
s 5
f 20/22/37 33/38/47 19/21/38
f 19/21/38 33/38/47 34/39/48
s 6
f 21/23/39 32/37/49 20/22/40
f 20/22/40 32/37/49 33/38/50
s 7
f 15/24/41 31/35/51 21/23/42
f 21/23/42 31/35/51 32/37/52
s 11
f 29/33/53 53/59/54 30/34/55
f 30/34/55 53/59/54 54/60/56
s 12
f 31/36/57 30/34/58 48/54/59
f 48/54/59 30/34/58 54/60/60
s 7
f 32/37/52 31/35/51 49/55/61
f 49/55/61 31/35/51 48/53/62
s 6
f 33/38/50 32/37/49 50/56/63
f 50/56/63 32/37/49 49/55/64
s 5
f 34/39/48 33/38/47 51/57/65
f 51/57/65 33/38/47 50/56/66
s 4
f 35/40/45 34/39/46 52/58/67
f 52/58/67 34/39/46 51/57/68
s 3
f 29/33/43 35/40/44 53/59/69
f 53/59/69 35/40/44 52/58/70
s 13
f 15/17/71 16/18/72 47/52/73
f 47/52/73 16/18/72 46/51/74
s 14
f 31/36/75 42/47/76 30/34/77
f 30/34/77 42/47/76 43/48/78
s 7
f 15/17/41 47/52/79 31/36/51
f 31/36/51 47/52/79 42/47/80
s 13
f 17/19/81 45/50/82 16/18/72
f 16/18/72 45/50/82 46/51/74
s 3
f 17/19/34 29/33/43 45/50/83
f 45/50/83 29/33/43 44/49/84
s 14
f 29/33/85 30/34/77 44/49/86
f 44/49/86 30/34/77 43/48/78
f 42/47/76 39/44/87 43/48/78
f 43/48/78 39/44/87 38/43/88
f 44/49/86 43/48/78 41/46/89
f 41/46/89 43/48/78 38/43/88
s 3
f 45/50/83 44/49/84 40/45/90
f 40/45/90 44/49/84 41/46/91
s 13
f 45/50/82 40/45/92 46/51/74
f 46/51/74 40/45/92 37/42/93
f 47/52/73 46/51/74 36/41/94
f 36/41/94 46/51/74 37/42/93
s 7
f 47/52/79 36/41/95 42/47/80
f 42/47/80 36/41/95 39/44/96
f 49/55/61 48/53/62 28/31/97
f 28/31/97 48/53/62 22/32/98
s 6
f 50/56/63 49/55/64 27/30/99
f 27/30/99 49/55/64 28/31/100
s 5
f 51/57/65 50/56/66 26/29/101
f 26/29/101 50/56/66 27/30/102
s 4
f 52/58/67 51/57/68 25/28/103
f 25/28/103 51/57/68 26/29/104
s 3
f 53/59/69 52/58/70 24/27/105
f 24/27/105 52/58/70 25/28/106
s 11
f 53/59/54 24/27/107 54/60/56
f 54/60/56 24/27/107 23/26/108
s 12
f 48/54/59 54/60/60 22/25/109
f 22/25/109 54/60/60 23/26/110
