# This file uses centimeters as units for non-parametric coordinates.

mtllib tree_b_bark.mtl
g default
v -1.677918 -0.360458 -1.281344
v -2.092330 -0.360458 0.534312
v -0.931175 -0.360458 1.990356
v 0.931175 -0.360458 1.990356
v 2.092330 -0.360458 0.534312
v 1.677919 -0.360458 -1.281344
v 0.000000 -0.360458 -2.089387
v -0.904083 4.423147 -0.798362
v -1.127371 4.423147 0.179935
v -0.501728 4.423147 0.964468
v 0.501728 4.423147 0.964467
v 1.127372 4.423147 0.179934
v 0.904082 4.423147 -0.798361
v 0.000000 4.423147 -1.233745
v -0.687807 7.006391 0.452606
v -0.799774 7.162702 0.750003
v -0.625673 7.251617 1.038562
v -0.134746 7.164985 1.140758
v 0.181393 7.039752 0.930112
v 0.067347 6.885121 0.604036
v -0.375556 6.892313 0.374013
v 1.558980 9.877203 -0.343636
v 1.531938 9.966903 -0.214617
v 1.607707 9.964695 -0.074341
v 1.729232 9.872242 -0.028437
v 1.805001 9.759160 -0.111472
v 1.777960 9.710604 -0.260919
v 1.668470 9.763138 -0.364241
v -0.286383 7.724231 1.022896
v -0.368153 8.087999 0.540587
v -0.337874 7.528459 0.478565
v -0.066234 7.360076 0.436911
v 0.174519 7.312171 0.645760
v 0.203095 7.420815 0.947842
v -0.002026 7.604200 1.115684
v -1.815263 10.008850 0.219039
v -1.843915 10.061419 0.328204
v -1.556924 10.036325 0.282389
v -1.733374 10.073652 0.164741
v -1.779125 10.080934 0.415960
v -1.680592 10.154864 0.415891
v -0.744423 7.958063 0.373434
v -0.702146 8.375603 0.461671
v -0.695131 8.136151 0.867161
v -0.966658 7.915865 0.956096
v -1.109494 7.875772 0.693069
v -1.014840 7.727712 0.440934
v 0.352372 8.694715 0.043176
v 0.577879 8.554934 0.008598
v 0.777744 8.515169 0.181978
v 0.801467 8.605366 0.432759
v 0.631184 8.757600 0.572096
v 0.395117 8.857247 0.495067
v 0.302014 9.011151 0.168718
vt 0.375000 0.312500
vt 0.410714 0.312500
vt 0.446429 0.312500
vt 0.482143 0.312500
vt 0.517857 0.312500
vt 0.553571 0.312500
vt 0.589286 0.312500
vt 0.625000 0.312500
vt 0.375000 0.406250
vt 0.410714 0.406250
vt 0.446429 0.406250
vt 0.482143 0.406250
vt 0.517857 0.406250
vt 0.553571 0.406250
vt 0.589286 0.406250
vt 0.625000 0.406250
vt 0.375000 0.593750
vt 0.410714 0.593750
vt 0.446429 0.593750
vt 0.482143 0.593750
vt 0.517857 0.593750
vt 0.553571 0.593750
vt 0.589286 0.593750
vt 0.625000 0.593750
vt 0.375000 0.687500
vt 0.410714 0.687500
vt 0.446429 0.687500
vt 0.482143 0.687500
vt 0.517857 0.687500
vt 0.553571 0.687500
vt 0.589286 0.687500
vt 0.625000 0.687500
vt 0.446429 0.616683
vt 0.410714 0.616683
vt 0.625000 0.616683
vt 0.375000 0.616683
vt 0.589286 0.616683
vt 0.553571 0.616683
vt 0.517857 0.616683
vt 0.482143 0.616683
vt 0.375000 0.593750
vt 0.410714 0.593750
vt 0.410714 0.616683
vt 0.375000 0.616683
vt 0.446429 0.593750
vt 0.446429 0.616683
vt 0.375000 0.616683
vt 0.410714 0.616683
vt 0.446429 0.616683
vt 0.446429 0.593750
vt 0.410714 0.593750
vt 0.375000 0.593750
vt 0.625000 0.655093
vt 0.375000 0.655093
vt 0.589286 0.655093
vt 0.553571 0.655093
vt 0.517857 0.655093
vt 0.482143 0.655093
vt 0.446429 0.655093
vt 0.410714 0.655093
vn -0.964960 0.142920 0.220059
vn -0.973171 0.064920 0.220735
vn -0.774360 0.137112 -0.617711
vn -0.780581 0.068196 -0.621323
vn -0.429209 0.147568 0.891069
vn -0.432737 0.090392 0.896977
vn -0.964960 0.142920 0.220059
vn -0.973171 0.064920 0.220735
vn -0.429209 0.147568 0.891069
vn 0.429209 0.147568 0.891069
vn -0.432737 0.090392 0.896977
vn 0.420222 0.121441 0.899258
vn 0.429209 0.147568 0.891069
vn 0.964960 0.142920 0.220059
vn 0.420222 0.121441 0.899258
vn 0.966353 0.139707 0.215970
vn 0.964960 0.142920 0.220059
vn 0.774360 0.137112 -0.617711
vn 0.966353 0.139707 0.215970
vn 0.766641 0.126843 -0.629422
vn 0.774360 0.137112 -0.617711
vn 0.000000 0.134524 -0.990910
vn 0.766641 0.126843 -0.629422
vn 0.002980 0.097675 -0.995214
vn -0.774360 0.137112 -0.617711
vn -0.780581 0.068196 -0.621323
vn 0.000000 0.134524 -0.990910
vn 0.002980 0.097675 -0.995214
vn -0.927322 -0.335160 0.166556
vn -0.674024 -0.097082 -0.732302
vn -0.348721 -0.091658 0.932734
vn -0.927322 -0.335160 0.166556
vn 0.413168 0.091136 0.906083
vn -0.348721 -0.091658 0.932734
vn 0.970333 0.115083 0.212626
vn 0.413168 0.091136 0.906083
vn 0.760605 0.103962 -0.640837
vn 0.970333 0.115083 0.212626
vn 0.006903 0.060666 -0.998134
vn 0.760605 0.103962 -0.640837
vn -0.674024 -0.097082 -0.732302
vn 0.006903 0.060666 -0.998134
vn 0.033418 0.190836 0.981053
vn 0.418165 -0.094704 0.903421
vn 0.418165 -0.094704 0.903421
vn 0.934104 -0.282678 0.218043
vn 0.742112 -0.221844 -0.632499
vn 0.934104 -0.282678 0.218043
vn 0.025257 0.045934 -0.998625
vn 0.742112 -0.221844 -0.632499
vn -0.322867 0.315122 -0.892443
vn 0.025257 0.045934 -0.998625
vn 0.033418 0.190836 0.981053
vn -0.297706 0.153447 0.942245
vn -0.096263 0.994866 0.031219
vn -0.906635 0.380523 0.182250
vn -0.322867 0.315122 -0.892443
vn -0.096263 0.994866 0.031219
vn -0.614497 0.255681 -0.746338
vn -0.906635 0.380523 0.182250
vn 0.012949 0.040079 -0.999113
vn -0.614497 0.255681 -0.746338
vn 0.756473 -0.199279 -0.622926
vn 0.012949 0.040079 -0.999113
vn 0.940554 -0.256807 0.222280
vn 0.756473 -0.199279 -0.622926
vn 0.426663 -0.089213 0.900000
vn 0.940554 -0.256807 0.222280
vn -0.297706 0.153447 0.942245
vn 0.426663 -0.089213 0.900000
vn -0.674024 -0.097082 -0.732302
vn -0.927322 -0.335160 0.166556
vn -0.596221 -0.306655 -0.741945
vn -0.726152 -0.680910 0.095213
vn -0.322867 0.315122 -0.892443
vn 0.009468 0.386099 -0.922409
vn -0.096263 0.994866 0.031219
vn 0.549904 0.831860 -0.074932
vn -0.596221 -0.306655 -0.741945
vn 0.009468 0.386099 -0.922409
vn -0.348721 -0.091658 0.932734
vn -0.357369 -0.427737 0.830258
vn -0.357369 -0.427737 0.830258
vn 0.353711 0.281524 0.891983
vn 0.033418 0.190836 0.981053
vn 0.353711 0.281524 0.891983
vn 0.015635 0.396734 -0.917800
vn 0.548456 0.831798 -0.085489
vn 0.351294 0.282438 0.892649
vn -0.326921 -0.477528 0.815530
vn 0.351294 0.282438 0.892649
vn -0.326921 -0.477528 0.815530
vn -0.699277 -0.706473 0.109118
vn -0.601680 -0.353147 -0.716427
vn -0.601680 -0.353147 -0.716427
vn 0.015635 0.396734 -0.917800
vn 0.012949 0.040079 -0.999113
vn -0.674735 0.279344 -0.683154
vn 0.756473 -0.199279 -0.622926
vn 0.012949 0.040079 -0.999113
vn 0.940554 -0.256807 0.222280
vn 0.756473 -0.199279 -0.622926
vn 0.426663 -0.089213 0.900000
vn 0.940554 -0.256807 0.222280
vn -0.345515 0.171982 0.922519
vn 0.426663 -0.089213 0.900000
vn -0.345515 0.171982 0.922519
vn -0.904542 0.377244 0.198721
vn -0.674735 0.279344 -0.683154
vn -0.904542 0.377244 0.198721
s 1
g tree_b_bark
usemtl initialShadingGroup
f 2/2/1 9/10/2 1/1/3
f 1/1/3 9/10/2 8/9/4
s 2
f 3/3/5 10/11/6 2/2/7
f 2/2/7 10/11/6 9/10/8
s 3
f 3/3/9 4/4/10 10/11/11
f 10/11/11 4/4/10 11/12/12
s 4
f 4/4/13 5/5/14 11/12/15
f 11/12/15 5/5/14 12/13/16
s 5
f 5/5/17 6/6/18 12/13/19
f 12/13/19 6/6/18 13/14/20
s 6
f 6/6/21 7/7/22 13/14/23
f 13/14/23 7/7/22 14/15/24
s 7
f 1/8/25 8/16/26 7/7/27
f 7/7/27 8/16/26 14/15/28
s 1
f 16/18/29 15/17/30 9/10/2
f 9/10/2 15/17/30 8/9/4
s 2
f 10/11/6 17/19/31 9/10/8
f 9/10/8 17/19/31 16/18/32
s 3
f 11/12/12 18/20/33 10/11/11
f 10/11/11 18/20/33 17/19/34
s 4
f 12/13/16 19/21/35 11/12/15
f 11/12/15 19/21/35 18/20/36
s 5
f 20/22/37 19/21/38 13/14/20
f 13/14/20 19/21/38 12/13/19
s 6
f 21/23/39 20/22/40 14/15/24
f 14/15/24 20/22/40 13/14/23
s 7
f 15/24/41 21/23/42 8/16/26
f 8/16/26 21/23/42 14/15/28
s 3
f 17/19/34 18/20/33 29/33/43
f 29/33/43 18/20/33 35/40/44
s 4
f 18/20/36 19/21/35 35/40/45
f 35/40/45 19/21/35 34/39/46
s 5
f 20/22/37 33/38/47 19/21/38
f 19/21/38 33/38/47 34/39/48
s 6
f 21/23/39 32/37/49 20/22/40
f 20/22/40 32/37/49 33/38/50
s 7
f 15/24/41 31/35/51 21/23/42
f 21/23/42 31/35/51 32/37/52
s 11
f 29/33/53 53/59/54 30/34/55
f 30/34/55 53/59/54 54/60/56
s 12
f 31/36/57 30/34/58 48/54/59
f 48/54/59 30/34/58 54/60/60
s 7
f 32/37/52 31/35/51 49/55/61
f 49/55/61 31/35/51 48/53/62
s 6
f 33/38/50 32/37/49 50/56/63
f 50/56/63 32/37/49 49/55/64
s 5
f 34/39/48 33/38/47 51/57/65
f 51/57/65 33/38/47 50/56/66
s 4
f 35/40/45 34/39/46 52/58/67
f 52/58/67 34/39/46 51/57/68
s 3
f 29/33/43 35/40/44 53/59/69
f 53/59/69 35/40/44 52/58/70
s 13
f 15/17/71 16/18/72 47/52/73
f 47/52/73 16/18/72 46/51/74
s 14
f 31/36/75 42/47/76 30/34/77
f 30/34/77 42/47/76 43/48/78
s 7
f 15/17/41 47/52/79 31/36/51
f 31/36/51 47/52/79 42/47/80
s 13
f 17/19/81 45/50/82 16/18/72
f 16/18/72 45/50/82 46/51/74
s 3
f 17/19/34 29/33/43 45/50/83
f 45/50/83 29/33/43 44/49/84
s 14
f 29/33/85 30/34/77 44/49/86
f 44/49/86 30/34/77 43/48/78
f 42/47/76 39/44/87 43/48/78
f 43/48/78 39/44/87 38/43/88
f 44/49/86 43/48/78 41/46/89
f 41/46/89 43/48/78 38/43/88
s 3
f 45/50/83 44/49/84 40/45/90
f 40/45/90 44/49/84 41/46/91
s 13
f 45/50/82 40/45/92 46/51/74
f 46/51/74 40/45/92 37/42/93
f 47/52/73 46/51/74 36/41/94
f 36/41/94 46/51/74 37/42/93
s 7
f 47/52/79 36/41/95 42/47/80
f 42/47/80 36/41/95 39/44/96
f 49/55/61 48/53/62 28/31/97
f 28/31/97 48/53/62 22/32/98
s 6
f 50/56/63 49/55/64 27/30/99
f 27/30/99 49/55/64 28/31/100
s 5
f 51/57/65 50/56/66 26/29/101
f 26/29/101 50/56/66 27/30/102
s 4
f 52/58/67 51/57/68 25/28/103
f 25/28/103 51/57/68 26/29/104
s 3
f 53/59/69 52/58/70 24/27/105
f 24/27/105 52/58/70 25/28/106
s 11
f 53/59/54 24/27/107 54/60/56
f 54/60/56 24/27/107 23/26/108
s 12
f 48/54/59 54/60/60 22/25/109
f 22/25/109 54/60/60 23/26/110
