# This file uses centimeters as units for non-parametric coordinates.

mtllib tree_a_canopy01.mtl
g default
v 3.765517 11.748292 -1.004916
v 4.477689 9.387887 -0.120683
v 4.477689 9.387887 2.740754
v 3.765517 11.748291 3.624987
v 3.325371 13.207102 1.310036
v 1.572774 11.381539 -1.963800
v 3.265911 7.589317 -0.713306
v 3.265911 7.589317 3.333377
v 1.572774 11.381538 4.583871
v 0.950313 13.444608 1.310036
v -0.456903 10.474320 -1.004916
v 0.941243 7.659810 -0.120683
v 0.941243 7.659810 2.740754
v -0.456903 10.474320 3.624987
v -0.897049 11.933130 1.310036
v 4.836849 11.359740 1.310036
v -1.134555 9.558072 1.310036
vt 0.000000 0.250000
vt 0.200000 0.250000
vt 0.400000 0.250000
vt 0.600000 0.250000
vt 0.800000 0.250000
vt 1.000000 0.250000
vt 0.000000 0.500000
vt 0.200000 0.500000
vt 0.400000 0.500000
vt 0.600000 0.500000
vt 0.800000 0.500000
vt 1.000000 0.500000
vt 0.000000 0.750000
vt 0.200000 0.750000
vt 0.400000 0.750000
vt 0.600000 0.750000
vt 0.800000 0.750000
vt 1.000000 0.750000
vt 0.100000 0.000000
vt 0.300000 0.000000
vt 0.500000 0.000000
vt 0.700000 0.000000
vt 0.900000 0.000000
vt 0.100000 1.000000
vt 0.300000 1.000000
vt 0.500000 1.000000
vt 0.700000 1.000000
vt 0.900000 1.000000
vn 0.664425 0.445992 -0.599692
vn 0.913203 -0.210575 -0.348882
vn -0.080021 0.350919 -0.932980
vn 0.363298 -0.727778 -0.581682
vn 0.913203 -0.210575 -0.348882
vn 0.913203 -0.210575 0.348882
vn 0.363298 -0.727778 -0.581682
vn 0.363298 -0.727778 0.581681
vn 0.664425 0.445992 0.599692
vn -0.080021 0.350919 0.932980
vn 0.913203 -0.210575 0.348882
vn 0.363298 -0.727778 0.581681
vn 0.664425 0.445992 0.599692
vn 0.499574 0.866271 0.000000
vn -0.080021 0.350919 0.932980
vn -0.288855 0.957373 0.000000
vn 0.499574 0.866271 0.000000
vn 0.664425 0.445992 -0.599692
vn -0.288855 0.957373 0.000000
vn -0.080021 0.350919 -0.932980
vn 0.363298 -0.727778 -0.581682
vn -0.500646 -0.782477 -0.370247
vn -0.080021 0.350919 -0.932980
vn -0.776584 -0.040025 -0.628740
vn 0.363298 -0.727778 -0.581682
vn 0.363298 -0.727778 0.581681
vn -0.500646 -0.782477 -0.370247
vn -0.500646 -0.782477 0.370247
vn 0.363298 -0.727778 0.581681
vn -0.080021 0.350919 0.932980
vn -0.500646 -0.782477 0.370247
vn -0.776584 -0.040026 0.628741
vn -0.080021 0.350919 0.932980
vn -0.288855 0.957373 0.000000
vn -0.776584 -0.040026 0.628741
vn -0.895328 0.445407 0.000000
vn -0.288855 0.957373 0.000000
vn -0.080021 0.350919 -0.932980
vn -0.895328 0.445407 0.000000
vn -0.776584 -0.040025 -0.628740
vn 0.913203 -0.210575 -0.348882
vn 0.664425 0.445992 -0.599692
vn 0.957373 0.288855 0.000000
vn 0.913203 -0.210575 0.348882
vn 0.913203 -0.210575 -0.348882
vn 0.957373 0.288855 0.000000
vn 0.664425 0.445992 0.599692
vn 0.913203 -0.210575 0.348882
vn 0.957373 0.288855 0.000000
vn 0.499574 0.866271 0.000000
vn 0.664425 0.445992 0.599692
vn 0.957373 0.288855 0.000000
vn 0.664425 0.445992 -0.599692
vn 0.499574 0.866271 0.000000
vn 0.957373 0.288855 0.000000
vn -0.776584 -0.040025 -0.628740
vn -0.500646 -0.782477 -0.370247
vn -0.935310 -0.353830 0.000000
vn -0.500646 -0.782477 -0.370247
vn -0.500646 -0.782477 0.370247
vn -0.935310 -0.353830 0.000000
vn -0.500646 -0.782477 0.370247
vn -0.776584 -0.040026 0.628741
vn -0.935310 -0.353830 0.000000
vn -0.776584 -0.040026 0.628741
vn -0.895328 0.445407 0.000000
vn -0.935310 -0.353830 0.000000
vn -0.895328 0.445407 0.000000
vn -0.776584 -0.040025 -0.628740
vn -0.935310 -0.353830 0.000000
s 1
g tree_a_canopy01
usemtl initialShadingGroup
f 1/1/1 2/2/2 6/7/3
f 6/7/3 2/2/2 7/8/4
s 2
f 2/2/5 3/3/6 7/8/7
f 7/8/7 3/3/6 8/9/8
s 3
f 4/4/9 9/10/10 3/3/11
f 3/3/11 9/10/10 8/9/12
s 4
f 4/4/13 5/5/14 9/10/15
f 9/10/15 5/5/14 10/11/16
s 5
f 5/5/17 1/6/18 10/11/19
f 10/11/19 1/6/18 6/12/20
s 6
f 7/8/21 12/14/22 6/7/23
f 6/7/23 12/14/22 11/13/24
s 7
f 7/8/25 8/9/26 12/14/27
f 12/14/27 8/9/26 13/15/28
s 8
f 8/9/29 9/10/30 13/15/31
f 13/15/31 9/10/30 14/16/32
s 9
f 9/10/33 10/11/34 14/16/35
f 14/16/35 10/11/34 15/17/36
s 10
f 10/11/37 6/12/38 15/17/39
f 15/17/39 6/12/38 11/18/40
s off
f 2/2/41 1/1/42 16/19/43
f 3/3/44 2/2/45 16/20/46
f 4/4/47 3/3/48 16/21/49
f 5/5/50 4/4/51 16/22/52
f 1/6/53 5/5/54 16/23/55
f 11/13/56 12/14/57 17/24/58
f 12/14/59 13/15/60 17/25/61
f 13/15/62 14/16/63 17/26/64
f 14/16/65 15/17/66 17/27/67
f 15/17/68 11/18/69 17/28/70
