# This file uses centimeters as units for non-parametric coordinates.

mtllib tree_b_canopy01.mtl
g default
v -1.369062 19.173019 -3.729008
v 4.710307 16.592719 -2.343866
v 4.719321 15.929632 2.719229
v -1.354475 18.100121 4.463253
v -5.117315 20.104661 0.478023
v -3.020675 16.141743 -5.661163
v 7.363810 12.723079 -3.687321
v 7.376561 11.785330 3.472979
v -3.000042 14.624433 5.924445
v -8.321470 17.459253 0.288476
v -3.274872 12.122148 -4.241058
v 4.591454 9.772289 -2.840961
v 4.600468 9.109201 2.222135
v -3.260289 11.049252 3.951203
v -7.023113 13.053781 -0.034028
v 0.712464 19.440315 0.423575
v -1.982759 9.468869 -0.300573
vt 0.000000 0.250000
vt 0.200000 0.250000
vt 0.400000 0.250000
vt 0.600000 0.250000
vt 0.800000 0.250000
vt 1.000000 0.250000
vt 0.000000 0.500000
vt 0.200000 0.500000
vt 0.400000 0.500000
vt 0.600000 0.500000
vt 0.800000 0.500000
vt 1.000000 0.500000
vt 0.000000 0.750000
vt 0.200000 0.750000
vt 0.400000 0.750000
vt 0.600000 0.750000
vt 0.800000 0.750000
vt 1.000000 0.750000
vt 0.100000 0.000000
vt 0.300000 0.000000
vt 0.500000 0.000000
vt 0.700000 0.000000
vt 0.900000 0.000000
vt 0.100000 1.000000
vt 0.300000 1.000000
vt 0.500000 1.000000
vt 0.700000 1.000000
vt 0.900000 1.000000
vn 0.024289 0.854368 -0.519100
vn 0.703085 0.650190 -0.287966
vn -0.333006 0.229635 -0.914535
vn 0.802302 -0.071934 -0.592569
vn 0.703085 0.650190 -0.287966
vn 0.704026 0.582334 0.406490
vn 0.802302 -0.071934 -0.592569
vn 0.803871 -0.185069 0.565279
vn 0.025907 0.737731 0.674598
vn -0.330489 0.048174 0.942580
vn 0.704026 0.582334 0.406490
vn 0.803871 -0.185069 0.565279
vn 0.025907 0.737731 0.674598
vn -0.412462 0.906603 0.089144
vn -0.330489 0.048174 0.942580
vn -0.946202 0.321915 0.032737
vn -0.412462 0.906603 0.089144
vn 0.024289 0.854368 -0.519100
vn -0.946202 0.321915 0.032737
vn -0.333006 0.229635 -0.914535
vn 0.802302 -0.071934 -0.592569
vn 0.343263 -0.822844 -0.452877
vn -0.333006 0.229635 -0.914535
vn -0.421154 -0.590049 -0.688819
vn 0.802302 -0.071934 -0.592569
vn 0.803871 -0.185069 0.565279
vn 0.343263 -0.822844 -0.452877
vn 0.344262 -0.894856 0.284107
vn 0.803871 -0.185069 0.565279
vn -0.330489 0.048174 0.942580
vn 0.344262 -0.894856 0.284107
vn -0.419457 -0.712337 0.562701
vn -0.330489 0.048174 0.942580
vn -0.946202 0.321915 0.032737
vn -0.419457 -0.712337 0.562701
vn -0.883911 -0.465553 -0.044292
vn -0.946202 0.321915 0.032737
vn -0.333006 0.229635 -0.914535
vn -0.883911 -0.465553 -0.044292
vn -0.421154 -0.590049 -0.688819
vn 0.703085 0.650190 -0.287966
vn 0.024289 0.854368 -0.519100
vn 0.323573 0.941761 0.091582
vn 0.704026 0.582334 0.406490
vn 0.703085 0.650190 -0.287966
vn 0.323573 0.941761 0.091582
vn 0.025907 0.737731 0.674598
vn 0.704026 0.582334 0.406490
vn 0.323573 0.941761 0.091582
vn -0.412462 0.906603 0.089144
vn 0.025907 0.737731 0.674598
vn 0.323573 0.941761 0.091582
vn 0.024289 0.854368 -0.519100
vn -0.412462 0.906603 0.089144
vn 0.323573 0.941761 0.091582
vn -0.421154 -0.590049 -0.688819
vn 0.343263 -0.822844 -0.452877
vn -0.257922 -0.961620 -0.093611
vn 0.343263 -0.822844 -0.452877
vn 0.344262 -0.894856 0.284107
vn -0.257922 -0.961620 -0.093611
vn 0.344262 -0.894856 0.284107
vn -0.419457 -0.712337 0.562701
vn -0.257922 -0.961620 -0.093611
vn -0.419457 -0.712337 0.562701
vn -0.883911 -0.465553 -0.044292
vn -0.257922 -0.961620 -0.093611
vn -0.883911 -0.465553 -0.044292
vn -0.421154 -0.590049 -0.688819
vn -0.257922 -0.961620 -0.093611
s 1
g tree_b_canopy01
usemtl initialShadingGroup
f 1/1/1 2/2/2 6/7/3
f 6/7/3 2/2/2 7/8/4
s 2
f 2/2/5 3/3/6 7/8/7
f 7/8/7 3/3/6 8/9/8
s 3
f 4/4/9 9/10/10 3/3/11
f 3/3/11 9/10/10 8/9/12
s 4
f 4/4/13 5/5/14 9/10/15
f 9/10/15 5/5/14 10/11/16
s 5
f 5/5/17 1/6/18 10/11/19
f 10/11/19 1/6/18 6/12/20
s 6
f 7/8/21 12/14/22 6/7/23
f 6/7/23 12/14/22 11/13/24
s 7
f 7/8/25 8/9/26 12/14/27
f 12/14/27 8/9/26 13/15/28
s 8
f 8/9/29 9/10/30 13/15/31
f 13/15/31 9/10/30 14/16/32
s 9
f 9/10/33 10/11/34 14/16/35
f 14/16/35 10/11/34 15/17/36
s 10
f 10/11/37 6/12/38 15/17/39
f 15/17/39 6/12/38 11/18/40
s off
f 2/2/41 1/1/42 16/19/43
f 3/3/44 2/2/45 16/20/46
f 4/4/47 3/3/48 16/21/49
f 5/5/50 4/4/51 16/22/52
f 1/6/53 5/5/54 16/23/55
f 11/13/56 12/14/57 17/24/58
f 12/14/59 13/15/60 17/25/61
f 13/15/62 14/16/63 17/26/64
f 14/16/65 15/17/66 17/27/67
f 15/17/68 11/18/69 17/28/70
