# This file uses centimeters as units for non-parametric coordinates.

mtllib tree_c_canopy02.mtl
g default
v -2.330007 19.749525 -0.616074
v -3.388322 17.802153 -3.339865
v -6.157049 14.928599 -2.171116
v -6.678362 14.960544 1.243689
v -4.363361 17.993315 2.216723
v -3.482741 22.720512 -0.999390
v -5.165454 20.163761 -4.807146
v -9.081024 16.099943 -3.154285
v -9.818267 16.145119 1.674995
v -6.358337 20.236856 3.006792
v -6.567647 23.554976 -1.298597
v -7.757505 21.747080 -3.991086
v -10.526232 18.873526 -2.822336
v -11.047542 18.905472 0.592479
v -8.601001 21.798765 1.534201
v -3.653159 16.242903 -0.404492
v -9.777630 21.764099 -1.338422
vt 0.000000 0.250000
vt 0.200000 0.250000
vt 0.400000 0.250000
vt 0.600000 0.250000
vt 0.800000 0.250000
vt 1.000000 0.250000
vt 0.000000 0.500000
vt 0.200000 0.500000
vt 0.400000 0.500000
vt 0.600000 0.500000
vt 0.800000 0.500000
vt 1.000000 0.500000
vt 0.000000 0.750000
vt 0.200000 0.750000
vt 0.400000 0.750000
vt 0.600000 0.750000
vt 0.800000 0.750000
vt 1.000000 0.750000
vt 0.100000 0.000000
vt 0.300000 0.000000
vt 0.500000 0.000000
vt 0.700000 0.000000
vt 0.900000 0.000000
vt 0.100000 1.000000
vt 0.300000 1.000000
vt 0.500000 1.000000
vt 0.700000 1.000000
vt 0.900000 1.000000
vn 0.986549 -0.062152 0.151189
vn 0.718040 -0.428705 -0.548297
vn 0.656875 0.748207 0.093280
vn 0.248186 0.103628 -0.963154
vn 0.718040 -0.428705 -0.548297
vn 0.270611 -0.893075 -0.359426
vn 0.248186 0.103628 -0.963154
vn -0.427816 -0.597968 -0.677796
vn 0.270611 -0.893075 -0.359426
vn 0.225492 -0.852023 0.472450
vn -0.427816 -0.597968 -0.677796
vn -0.579330 -0.534802 0.615113
vn 0.225492 -0.852023 0.472450
vn 0.609589 -0.286769 0.739029
vn -0.579330 -0.534802 0.615113
vn 0.104243 0.286877 0.952279
vn 0.609589 -0.286769 0.739029
vn 0.986549 -0.062152 0.151189
vn 0.104243 0.286877 0.952279
vn 0.656875 0.748207 0.093280
vn 0.656875 0.748207 0.093280
vn 0.248186 0.103628 -0.963154
vn -0.177752 0.983404 -0.036335
vn -0.389503 0.565883 -0.726680
vn 0.248186 0.103628 -0.963154
vn -0.427816 -0.597968 -0.677796
vn -0.389503 0.565883 -0.726680
vn -0.836933 0.101513 -0.537808
vn -0.427816 -0.597968 -0.677796
vn -0.579330 -0.534802 0.615113
vn -0.836933 0.101513 -0.537808
vn -0.938809 0.193533 0.284926
vn -0.579330 -0.534802 0.615113
vn 0.104243 0.286877 0.952279
vn -0.938809 0.193533 0.284926
vn -0.466768 0.679813 0.565669
vn 0.104243 0.286877 0.952279
vn 0.656875 0.748207 0.093280
vn -0.466768 0.679813 0.565669
vn -0.177752 0.983404 -0.036335
vn 0.718040 -0.428705 -0.548297
vn 0.986549 -0.062152 0.151189
vn 0.738744 -0.663401 0.118983
vn 0.270611 -0.893075 -0.359426
vn 0.718040 -0.428705 -0.548297
vn 0.738744 -0.663401 0.118983
vn 0.225492 -0.852023 0.472450
vn 0.270611 -0.893075 -0.359426
vn 0.738744 -0.663401 0.118983
vn 0.609589 -0.286769 0.739029
vn 0.225492 -0.852023 0.472450
vn 0.738744 -0.663401 0.118983
vn 0.986549 -0.062152 0.151189
vn 0.609589 -0.286769 0.739029
vn 0.738744 -0.663401 0.118983
vn -0.177752 0.983404 -0.036335
vn -0.389503 0.565883 -0.726680
vn -0.738744 0.663401 -0.118983
vn -0.389503 0.565883 -0.726680
vn -0.836933 0.101513 -0.537808
vn -0.738744 0.663401 -0.118983
vn -0.836933 0.101513 -0.537808
vn -0.938809 0.193533 0.284926
vn -0.738744 0.663401 -0.118983
vn -0.938809 0.193533 0.284926
vn -0.466768 0.679813 0.565669
vn -0.738744 0.663401 -0.118983
vn -0.466768 0.679813 0.565669
vn -0.177752 0.983404 -0.036335
vn -0.738744 0.663401 -0.118983
s 1
g tree_c_canopy02
usemtl initialShadingGroup
f 1/1/1 2/2/2 6/7/3
f 6/7/3 2/2/2 7/8/4
s 2
f 2/2/5 3/3/6 7/8/7
f 7/8/7 3/3/6 8/9/8
s 3
f 3/3/9 4/4/10 8/9/11
f 8/9/11 4/4/10 9/10/12
s 4
f 4/4/13 5/5/14 9/10/15
f 9/10/15 5/5/14 10/11/16
s 5
f 5/5/17 1/6/18 10/11/19
f 10/11/19 1/6/18 6/12/20
s 6
f 6/7/21 7/8/22 11/13/23
f 11/13/23 7/8/22 12/14/24
s 7
f 7/8/25 8/9/26 12/14/27
f 12/14/27 8/9/26 13/15/28
s 8
f 8/9/29 9/10/30 13/15/31
f 13/15/31 9/10/30 14/16/32
s 9
f 9/10/33 10/11/34 14/16/35
f 14/16/35 10/11/34 15/17/36
s 10
f 10/11/37 6/12/38 15/17/39
f 15/17/39 6/12/38 11/18/40
s off
f 2/2/41 1/1/42 16/19/43
f 3/3/44 2/2/45 16/20/46
f 4/4/47 3/3/48 16/21/49
f 5/5/50 4/4/51 16/22/52
f 1/6/53 5/5/54 16/23/55
f 11/13/56 12/14/57 17/24/58
f 12/14/59 13/15/60 17/25/61
f 13/15/62 14/16/63 17/26/64
f 14/16/65 15/17/66 17/27/67
f 15/17/68 11/18/69 17/28/70
