# This file uses centimeters as units for non-parametric coordinates.

mtllib tree_c_canopy01.mtl
g default
v 0.514826 24.647673 -1.288407
v 5.167116 23.713049 -3.648792
v 7.718497 23.009180 -0.635592
v 4.643049 23.508793 3.587053
v 0.190927 24.521446 3.183599
v -1.071407 22.112656 -2.131711
v 6.568630 21.286749 -6.264588
v 10.176830 20.291328 -2.003280
v 4.766786 20.502033 4.763229
v -1.529446 21.934128 4.192639
v -0.062951 18.941690 -1.709202
v 5.650042 18.502924 -4.864373
v 8.201423 17.799057 -1.851173
v 4.065269 17.802811 3.166260
v -0.386843 18.815460 2.762796
v 3.766546 25.061779 0.326721
v 2.949446 16.992294 -0.268375
vt 0.000000 0.250000
vt 0.200000 0.250000
vt 0.400000 0.250000
vt 0.600000 0.250000
vt 0.800000 0.250000
vt 1.000000 0.250000
vt 0.000000 0.500000
vt 0.200000 0.500000
vt 0.400000 0.500000
vt 0.600000 0.500000
vt 0.800000 0.500000
vt 1.000000 0.500000
vt 0.000000 0.750000
vt 0.200000 0.750000
vt 0.400000 0.750000
vt 0.600000 0.750000
vt 0.800000 0.750000
vt 1.000000 0.750000
vt 0.100000 0.000000
vt 0.300000 0.000000
vt 0.500000 0.000000
vt 0.700000 0.000000
vt 0.900000 0.000000
vt 0.100000 1.000000
vt 0.300000 1.000000
vt 0.500000 1.000000
vt 0.700000 1.000000
vt 0.900000 1.000000
vn -0.430669 0.862236 -0.266597
vn 0.265701 0.807138 -0.527192
vn -0.858200 0.193028 -0.475640
vn 0.260451 0.142930 -0.954849
vn 0.265701 0.807138 -0.527192
vn 0.707603 0.706603 0.003363
vn 0.260451 0.142930 -0.954849
vn 0.997223 -0.024690 -0.070267
vn 0.328915 0.689426 0.645373
vn 0.323536 -0.075824 0.943173
vn 0.707603 0.706603 0.003363
vn 0.997223 -0.024690 -0.070267
vn 0.328915 0.689426 0.645373
vn -0.397071 0.782837 0.479063
vn 0.323536 -0.075824 0.943173
vn -0.755931 0.095299 0.647677
vn -0.397071 0.782837 0.479063
vn -0.430669 0.862236 -0.266597
vn -0.755931 0.095299 0.647677
vn -0.858200 0.193028 -0.475640
vn 0.260451 0.142930 -0.954849
vn 0.105555 -0.698987 -0.707302
vn -0.858200 0.193028 -0.475640
vn -0.663965 -0.635375 -0.394271
vn 0.260451 0.142930 -0.954849
vn 0.997223 -0.024690 -0.070267
vn 0.105555 -0.698987 -0.707302
vn 0.574519 -0.805679 -0.144255
vn 0.997223 -0.024690 -0.070267
vn 0.323536 -0.075824 0.943173
vn 0.574519 -0.805679 -0.144255
vn 0.132413 -0.816556 0.561875
vn 0.323536 -0.075824 0.943173
vn -0.755931 0.095299 0.647677
vn 0.132413 -0.816556 0.561875
vn -0.638616 -0.652269 0.408307
vn -0.755931 0.095299 0.647677
vn -0.858200 0.193028 -0.475640
vn -0.638616 -0.652269 0.408307
vn -0.663965 -0.635375 -0.394271
vn 0.265701 0.807138 -0.527192
vn -0.430669 0.862236 -0.266597
vn 0.165781 0.984966 0.048562
vn 0.707603 0.706603 0.003363
vn 0.265701 0.807138 -0.527192
vn 0.165781 0.984966 0.048562
vn 0.328915 0.689426 0.645373
vn 0.707603 0.706603 0.003363
vn 0.165781 0.984966 0.048562
vn -0.397071 0.782837 0.479063
vn 0.328915 0.689426 0.645373
vn 0.165781 0.984966 0.048562
vn -0.430669 0.862236 -0.266597
vn -0.397071 0.782837 0.479063
vn 0.165781 0.984966 0.048562
vn -0.663965 -0.635375 -0.394271
vn 0.105555 -0.698987 -0.707302
vn -0.113550 -0.989183 -0.092865
vn 0.105555 -0.698987 -0.707302
vn 0.574519 -0.805679 -0.144255
vn -0.113550 -0.989183 -0.092865
vn 0.574519 -0.805679 -0.144255
vn 0.132413 -0.816556 0.561875
vn -0.113550 -0.989183 -0.092865
vn 0.132413 -0.816556 0.561875
vn -0.638616 -0.652269 0.408307
vn -0.113550 -0.989183 -0.092865
vn -0.638616 -0.652269 0.408307
vn -0.663965 -0.635375 -0.394271
vn -0.113550 -0.989183 -0.092865
s 1
g tree_c_canopy01
usemtl initialShadingGroup
f 1/1/1 2/2/2 6/7/3
f 6/7/3 2/2/2 7/8/4
s 2
f 2/2/5 3/3/6 7/8/7
f 7/8/7 3/3/6 8/9/8
s 3
f 4/4/9 9/10/10 3/3/11
f 3/3/11 9/10/10 8/9/12
s 4
f 4/4/13 5/5/14 9/10/15
f 9/10/15 5/5/14 10/11/16
s 5
f 5/5/17 1/6/18 10/11/19
f 10/11/19 1/6/18 6/12/20
s 6
f 7/8/21 12/14/22 6/7/23
f 6/7/23 12/14/22 11/13/24
s 7
f 7/8/25 8/9/26 12/14/27
f 12/14/27 8/9/26 13/15/28
s 8
f 8/9/29 9/10/30 13/15/31
f 13/15/31 9/10/30 14/16/32
s 9
f 9/10/33 10/11/34 14/16/35
f 14/16/35 10/11/34 15/17/36
s 10
f 10/11/37 6/12/38 15/17/39
f 15/17/39 6/12/38 11/18/40
s off
f 2/2/41 1/1/42 16/19/43
f 3/3/44 2/2/45 16/20/46
f 4/4/47 3/3/48 16/21/49
f 5/5/50 4/4/51 16/22/52
f 1/6/53 5/5/54 16/23/55
f 11/13/56 12/14/57 17/24/58
f 12/14/59 13/15/60 17/25/61
f 13/15/62 14/16/63 17/26/64
f 14/16/65 15/17/66 17/27/67
f 15/17/68 11/18/69 17/28/70
