# This file uses centimeters as units for non-parametric coordinates.

mtllib tree_a_canopy02.mtl
g default
v -0.797891 12.815427 -2.663095
v -0.084239 10.860177 -1.844752
v -0.084239 10.860177 0.803461
v -0.674170 12.815422 1.621804
v -1.162489 14.023838 -0.520645
v -2.614261 12.511625 -3.550526
v -1.779973 9.746479 -2.393215
v -1.779973 9.746479 1.351924
v -2.614261 12.511624 2.509235
v -3.129880 14.220578 -0.520645
v -4.295553 11.760125 -2.663095
v -3.705623 9.804873 -1.844752
v -3.705622 9.804873 0.803461
v -4.295554 11.760125 1.621804
v -4.660151 12.968537 -0.520645
v 0.213273 12.493571 -0.520645
v -4.856890 11.001147 -0.520645
vt 0.000000 0.250000
vt 0.200000 0.250000
vt 0.400000 0.250000
vt 0.600000 0.250000
vt 0.800000 0.250000
vt 1.000000 0.250000
vt 0.000000 0.500000
vt 0.200000 0.500000
vt 0.400000 0.500000
vt 0.600000 0.500000
vt 0.800000 0.500000
vt 1.000000 0.500000
vt 0.000000 0.750000
vt 0.200000 0.750000
vt 0.400000 0.750000
vt 0.600000 0.750000
vt 0.800000 0.750000
vt 1.000000 0.750000
vt 0.100000 0.000000
vt 0.300000 0.000000
vt 0.500000 0.000000
vt 0.700000 0.000000
vt 0.900000 0.000000
vt 0.100000 1.000000
vt 0.300000 1.000000
vt 0.500000 1.000000
vt 0.700000 1.000000
vt 0.900000 1.000000
vn 0.688293 0.446850 -0.571470
vn 0.882383 -0.329428 -0.335971
vn -0.107439 0.356092 -0.928254
vn 0.248875 -0.824864 -0.507604
vn 0.882383 -0.329428 -0.335971
vn 0.882384 -0.329429 0.335971
vn 0.248875 -0.824864 -0.507604
vn 0.248875 -0.824864 0.507604
vn 0.882384 -0.329429 0.335971
vn 0.688293 0.446850 0.571470
vn 0.248875 -0.824864 0.507604
vn -0.107438 0.356091 0.928254
vn 0.688293 0.446850 0.571470
vn 0.499574 0.866271 0.000000
vn -0.107438 0.356091 0.928254
vn -0.288855 0.957373 0.000000
vn 0.499574 0.866271 0.000000
vn 0.688293 0.446850 -0.571470
vn -0.288855 0.957373 0.000000
vn -0.107439 0.356092 -0.928254
vn -0.107439 0.356092 -0.928254
vn 0.248875 -0.824864 -0.507604
vn -0.820580 -0.008401 -0.571470
vn -0.552935 -0.762487 -0.335971
vn 0.248875 -0.824864 -0.507604
vn 0.248875 -0.824864 0.507604
vn -0.552935 -0.762487 -0.335971
vn -0.552935 -0.762487 0.335971
vn 0.248875 -0.824864 0.507604
vn -0.107438 0.356091 0.928254
vn -0.552935 -0.762487 0.335971
vn -0.820580 -0.008402 0.571470
vn -0.107438 0.356091 0.928254
vn -0.288855 0.957373 0.000000
vn -0.820580 -0.008402 0.571470
vn -0.895328 0.445407 0.000000
vn -0.288855 0.957373 0.000000
vn -0.107439 0.356092 -0.928254
vn -0.895328 0.445407 0.000000
vn -0.820580 -0.008401 -0.571470
vn 0.882383 -0.329428 -0.335971
vn 0.688293 0.446850 -0.571470
vn 0.957373 0.288855 0.000000
vn 0.882384 -0.329429 0.335971
vn 0.882383 -0.329428 -0.335971
vn 0.957373 0.288855 0.000000
vn 0.688293 0.446850 0.571470
vn 0.882384 -0.329429 0.335971
vn 0.957373 0.288855 0.000000
vn 0.499574 0.866271 0.000000
vn 0.688293 0.446850 0.571470
vn 0.957373 0.288855 0.000000
vn 0.688293 0.446850 -0.571470
vn 0.499574 0.866271 0.000000
vn 0.957373 0.288855 0.000000
vn -0.820580 -0.008401 -0.571470
vn -0.552935 -0.762487 -0.335971
vn -0.957373 -0.288855 0.000000
vn -0.552935 -0.762487 -0.335971
vn -0.552935 -0.762487 0.335971
vn -0.957373 -0.288855 0.000000
vn -0.552935 -0.762487 0.335971
vn -0.820580 -0.008402 0.571470
vn -0.957373 -0.288855 0.000000
vn -0.820580 -0.008402 0.571470
vn -0.895328 0.445407 0.000000
vn -0.957373 -0.288855 0.000000
vn -0.895328 0.445407 0.000000
vn -0.820580 -0.008401 -0.571470
vn -0.957373 -0.288855 0.000000
s 1
g tree_a_canopy02
usemtl initialShadingGroup
f 1/1/1 2/2/2 6/7/3
f 6/7/3 2/2/2 7/8/4
s 2
f 2/2/5 3/3/6 7/8/7
f 7/8/7 3/3/6 8/9/8
s 3
f 3/3/9 4/4/10 8/9/11
f 8/9/11 4/4/10 9/10/12
s 4
f 4/4/13 5/5/14 9/10/15
f 9/10/15 5/5/14 10/11/16
s 5
f 5/5/17 1/6/18 10/11/19
f 10/11/19 1/6/18 6/12/20
s 6
f 6/7/21 7/8/22 11/13/23
f 11/13/23 7/8/22 12/14/24
s 7
f 7/8/25 8/9/26 12/14/27
f 12/14/27 8/9/26 13/15/28
s 8
f 8/9/29 9/10/30 13/15/31
f 13/15/31 9/10/30 14/16/32
s 9
f 9/10/33 10/11/34 14/16/35
f 14/16/35 10/11/34 15/17/36
s 10
f 10/11/37 6/12/38 15/17/39
f 15/17/39 6/12/38 11/18/40
s off
f 2/2/41 1/1/42 16/19/43
f 3/3/44 2/2/45 16/20/46
f 4/4/47 3/3/48 16/21/49
f 5/5/50 4/4/51 16/22/52
f 1/6/53 5/5/54 16/23/55
f 11/13/56 12/14/57 17/24/58
f 12/14/59 13/15/60 17/25/61
f 13/15/62 14/16/63 17/26/64
f 14/16/65 15/17/66 17/27/67
f 15/17/68 11/18/69 17/28/70
